<?xml version="1.0" encoding="UTF-8"?>
<!DOCTYPE svg PUBLIC "-//W3C//DTD SVG 1.1//EN" "http://www.w3.org/Graphics/SVG/1.1/DTD/svg11.dtd">
<svg version="1.1" xmlns="http://www.w3.org/2000/svg" xmlns:xlink="http://www.w3.org/1999/xlink" x="0" y="0" width="512" height="512" viewBox="0, 0, 512, 512">
  <g id="Layer_1">
    <path d="M476,384.672 L36,384.672 C24.954,384.672 16,375.718 16,364.672 L16,106.672 C16,95.626 24.954,86.672 36,86.672 L476,86.672 C487.046,86.672 496,95.626 496,106.672 L496,364.672 C496,375.718 487.046,384.672 476,384.672 z" fill="#72C2E9" opacity="0.63"/>
    <path d="M476,373.672 L70.284,373.672 C67.522,373.672 65.284,371.434 65.284,368.672 C65.284,365.91 67.522,363.672 70.284,363.672 L475,363.672 L475,106.672 C475,103.91 477.238,101.672 480,101.672 C482.762,101.672 485,103.91 485,106.672 L485,364.672 C485,369.636 480.962,373.672 476,373.672 z M50.284,373.672 L36,373.672 C33.238,373.672 31,371.434 31,368.672 C31,365.91 33.238,363.672 36,363.672 L50.284,363.672 C53.046,363.672 55.284,365.91 55.284,368.672 C55.284,371.434 53.046,373.672 50.284,373.672 z" fill="#C5E5FF"/>
    <path d="M234,203.672 L62,203.672 C58.686,203.672 56,200.986 56,197.672 L56,129.672 C56,126.358 58.686,123.672 62,123.672 L234,123.672 C237.314,123.672 240,126.358 240,129.672 L240,197.672 C240,200.986 237.314,203.672 234,203.672 z" fill="#EFEFEF"/>
    <g>
      <path d="M80,239.672 C80,246.299 74.627,251.672 68,251.672 C61.373,251.672 56,246.299 56,239.672 C56,233.045 61.373,227.672 68,227.672 C74.627,227.672 80,233.045 80,239.672 z" fill="#FC5D3D"/>
      <path d="M133.334,239.672 C133.334,246.299 127.961,251.672 121.334,251.672 C114.707,251.672 109.334,246.299 109.334,239.672 C109.334,233.045 114.707,227.672 121.334,227.672 C127.961,227.672 133.334,233.045 133.334,239.672 z" fill="#FC5D3D"/>
      <path d="M186.666,239.672 C186.666,246.299 181.293,251.672 174.666,251.672 C168.039,251.672 162.666,246.299 162.666,239.672 C162.666,233.045 168.039,227.672 174.666,227.672 C181.293,227.672 186.666,233.045 186.666,239.672 z" fill="#FC5D3D"/>
      <path d="M240,239.672 C240,246.299 234.627,251.672 228,251.672 C221.373,251.672 216,246.299 216,239.672 C216,233.045 221.373,227.672 228,227.672 C234.627,227.672 240,233.045 240,239.672 z" fill="#FC5D3D"/>
      <path d="M96,323.672 C96,336.927 85.255,347.672 72,347.672 C58.745,347.672 48,336.927 48,323.672 C48,310.417 58.745,299.672 72,299.672 C85.255,299.672 96,310.417 96,323.672 z" fill="#FC5D3D"/>
    </g>
    <path d="M240,323.672 C240,332.509 232.837,339.672 224,339.672 C215.163,339.672 208,332.509 208,323.672 C208,314.835 215.163,307.672 224,307.672 C232.837,307.672 240,314.835 240,323.672 z" fill="#AFAFAF"/>
    <path d="M184,323.672 C184,332.509 176.837,339.672 168,339.672 C159.163,339.672 152,332.509 152,323.672 C152,314.835 159.163,307.672 168,307.672 C176.837,307.672 184,314.835 184,323.672 z" fill="#AFAFAF"/>
    <path d="M296,283.672 L456,283.672 L456,347.672 L296,347.672 z" fill="#F0C020"/>
    <path d="M472,384.672 L472,419.672 C472,422.992 469.32,425.672 466,425.672 L46,425.672 C42.68,425.672 40,422.992 40,419.672 L40,384.672 z" fill="#AFAFAF"/>
    <path d="M40,384.672 L472,384.672 L472,395.672 L40,395.672 z" fill="#7D7B79"/>
    <path d="M348,164.672 C348,180.136 335.464,192.672 320,192.672 C304.536,192.672 292,180.136 292,164.672 C292,149.208 304.536,136.672 320,136.672 C335.464,136.672 348,149.208 348,164.672 z" fill="#F0C020"/>
    <path d="M456,164.672 C456,180.136 443.464,192.672 428,192.672 C412.536,192.672 400,180.136 400,164.672 C400,149.208 412.536,136.672 428,136.672 C443.464,136.672 456,149.208 456,164.672 z" fill="#F0C020"/>
    <path d="M360,232.672 C360,241.509 352.837,248.672 344,248.672 C335.163,248.672 328,241.509 328,232.672 C328,223.835 335.163,216.672 344,216.672 C352.837,216.672 360,223.835 360,232.672 z" fill="#AFAFAF"/>
    <path d="M416,232.672 C416,241.509 408.837,248.672 400,248.672 C391.163,248.672 384,241.509 384,232.672 C384,223.835 391.163,216.672 400,216.672 C408.837,216.672 416,223.835 416,232.672 z" fill="#AFAFAF"/>
    <g>
      <path d="M85,239.672 C85,230.292 77.38,222.672 68,222.672 C58.64,222.672 51,230.292 51,239.672 C51,249.052 58.64,256.672 68,256.672 C77.38,256.672 85,249.052 85,239.672 z M61,239.672 C61,235.812 64.14,232.672 68,232.672 C71.86,232.672 75,235.812 75,239.672 C75,243.532 71.86,246.672 68,246.672 C64.14,246.672 61,243.532 61,239.672 z" fill="#000000"/>
      <path d="M138.34,239.672 C138.34,230.292 130.7,222.672 121.34,222.672 C111.96,222.672 104.34,230.292 104.34,239.672 C104.34,249.052 111.96,256.672 121.34,256.672 C130.7,256.672 138.34,249.052 138.34,239.672 z M114.34,239.672 C114.34,235.812 117.48,232.672 121.34,232.672 C125.18,232.672 128.32,235.812 128.34,239.672 C128.32,243.532 125.18,246.672 121.34,246.672 C117.48,246.672 114.34,243.532 114.34,239.672 z" fill="#000000"/>
      <path d="M191.66,239.672 C191.66,230.292 184.04,222.672 174.66,222.672 C165.3,222.672 157.68,230.292 157.66,239.672 C157.68,249.052 165.3,256.672 174.66,256.672 C184.04,256.672 191.66,249.052 191.66,239.672 z M167.66,239.672 C167.68,235.812 170.82,232.672 174.66,232.672 C178.52,232.672 181.66,235.812 181.66,239.672 C181.66,243.532 178.52,246.672 174.66,246.672 C170.82,246.672 167.68,243.532 167.66,239.672 z" fill="#000000"/>
      <path d="M228,222.672 C218.62,222.672 211,230.292 211,239.672 C211,249.052 218.62,256.672 228,256.672 C237.38,256.672 245,249.052 245,239.672 C245,230.292 237.38,222.672 228,222.672 z M228,246.672 C224.14,246.672 221,243.532 221,239.672 C221,235.812 224.14,232.672 228,232.672 C231.86,232.672 235,235.812 235,239.672 C235,243.532 231.86,246.672 228,246.672 z" fill="#000000"/>
      <path d="M240,270.672 L188,270.672 C185.24,270.672 183,272.912 183,275.672 C183,278.432 185.24,280.672 188,280.672 L240,280.672 C242.76,280.672 245,278.432 245,275.672 C245,272.912 242.76,270.672 240,270.672 z" fill="#000000"/>
      <path d="M173,275.672 C173,278.433 170.761,280.672 168,280.672 C165.239,280.672 163,278.433 163,275.672 C163,272.911 165.239,270.672 168,270.672 C170.761,270.672 173,272.911 173,275.672 z" fill="#000000"/>
      <path d="M153,275.672 C153,272.912 150.76,270.672 148,270.672 L48,270.672 C45.24,270.672 43,272.912 43,275.672 C43,278.432 45.24,280.672 48,280.672 L148,280.672 C150.76,280.672 153,278.432 153,275.672 z" fill="#000000"/>
      <path d="M476,81.672 L451.14,81.672 C448.38,81.672 446.14,83.912 446.14,86.672 C446.14,89.432 448.38,91.672 451.14,91.672 L476,91.672 C484.26,91.692 490.98,98.412 491,106.672 L491,364.672 C491,373.146 484.054,379.672 476,379.672 L36,379.672 C27.74,379.652 21.02,372.932 21,364.672 L21,106.672 C21.02,98.412 27.74,91.692 36,91.672 L411.14,91.672 C413.9,91.672 416.14,89.432 416.14,86.672 C416.14,83.912 413.9,81.672 411.14,81.672 L36,81.672 C22.22,81.672 11,92.892 11,106.672 L11,364.672 C11,378.114 21.684,389.09 35,389.622 L35,419.672 C35,425.732 39.94,430.672 46,430.672 L330.42,430.672 C333.18,430.672 335.42,428.432 335.42,425.672 C335.42,422.932 333.2,420.692 330.46,420.672 C330.44,420.672 330.44,420.672 330.42,420.672 L46,420.672 C45.46,420.672 45,420.212 45,419.672 L45,389.672 L467,389.672 L467,419.672 C467,420.212 466.54,420.672 466,420.672 L370.42,420.672 C367.68,420.672 365.42,422.912 365.42,425.672 C365.42,428.432 367.68,430.672 370.42,430.672 L466,430.672 C472.06,430.672 477,425.732 477,419.672 L477,389.632 C490.62,389.102 501,377.906 501,364.672 L501,106.672 C501,92.892 489.78,81.672 476,81.672 z" fill="#000000"/>
      <path d="M436.14,86.672 C436.14,89.433 433.901,91.672 431.14,91.672 C428.379,91.672 426.14,89.433 426.14,86.672 C426.14,83.911 428.379,81.672 431.14,81.672 C433.901,81.672 436.14,83.911 436.14,86.672 z" fill="#000000"/>
      <path d="M245,129.672 C245,123.606 240.066,118.672 234,118.672 L62,118.672 C55.934,118.672 51,123.606 51,129.672 L51,197.672 C51,203.738 55.934,208.672 62,208.672 L234,208.672 C240.066,208.672 245,203.738 245,197.672 z M235,197.672 C235,198.224 234.552,198.672 234,198.672 L62,198.672 C61.448,198.672 61,198.224 61,197.672 L61,168.672 L96,168.672 C97,168.672 97.94,168.392 98.78,167.832 L119.74,153.852 L156.88,183.572 C158.338,184.766 160.426,185.034 162.24,184.152 L193.18,168.672 L235,168.672 z M235,158.672 L192,158.672 C191.22,158.672 190.48,158.852 189.76,159.192 L160.62,173.772 L123.12,143.772 C121.46,142.452 119,142.332 117.22,143.512 L94.48,158.672 L61,158.672 L61,129.672 C61,129.12 61.448,128.672 62,128.672 L234,128.672 C234.552,128.672 235,129.12 235,129.672 z" fill="#000000"/>
      <path d="M320,197.672 C338.2,197.672 353,182.872 353,164.672 C353,146.472 338.2,131.672 320,131.672 C301.8,131.672 287,146.472 287,164.672 C287,182.872 301.8,197.672 320,197.672 z M315,142.244 L315,160.672 C315,163.432 317.24,165.672 320,165.672 C322.76,165.672 325,163.432 325,160.672 L325,142.244 C335.266,144.552 342.982,153.73 343,164.672 C342.98,177.332 332.66,187.652 320,187.672 C307.34,187.652 297.02,177.332 297,164.672 C297.016,153.73 304.734,144.552 315,142.244 z" fill="#000000"/>
      <path d="M376.84,160.672 C376.84,157.912 374.6,155.672 371.84,155.672 L363.82,155.672 C361.06,155.672 358.82,157.912 358.82,160.672 C358.82,163.432 361.06,165.672 363.82,165.672 L371.84,165.672 C374.6,165.672 376.84,163.432 376.84,160.672 z" fill="#000000"/>
      <path d="M276.18,155.672 L268.16,155.672 C265.4,155.672 263.16,157.912 263.16,160.672 C263.16,163.432 265.4,165.672 268.16,165.672 L276.18,165.672 C278.94,165.672 281.18,163.432 281.18,160.672 C281.18,157.912 278.94,155.672 276.18,155.672 z" fill="#000000"/>
      <path d="M287.4,135.152 C289.478,137.188 292.624,137.01 294.48,135.152 C296.42,133.192 296.42,130.032 294.48,128.072 L288.84,122.432 C286.94,120.552 283.66,120.552 281.76,122.432 C279.902,124.288 279.724,127.434 281.76,129.512 z" fill="#000000"/>
      <path d="M325,120.672 L325,112.672 C325,109.912 322.76,107.672 320,107.672 C317.24,107.672 315,109.912 315,112.672 L315,120.672 C315,123.432 317.24,125.672 320,125.672 C322.76,125.672 325,123.432 325,120.672 z" fill="#000000"/>
      <path d="M351.16,122.432 L345.52,128.072 C343.568,130.026 343.574,133.208 345.52,135.152 C347.412,137.046 350.554,137.156 352.6,135.152 L358.24,129.512 C360.18,127.552 360.18,124.392 358.24,122.432 C356.34,120.552 353.06,120.552 351.16,122.432 z" fill="#000000"/>
      <path d="M428,131.672 C409.8,131.672 395,146.472 395,164.672 C395,182.872 409.8,197.672 428,197.672 C446.2,197.672 461,182.872 461,164.672 C461,146.472 446.2,131.672 428,131.672 z M428,187.672 C415.34,187.652 405.02,177.332 405,164.672 C405.016,153.73 412.734,144.552 423,142.244 L423,160.672 C423,163.432 425.24,165.672 428,165.672 C430.76,165.672 433,163.432 433,160.672 L433,142.244 C443.266,144.552 450.982,153.73 451,164.672 C450.98,177.332 440.66,187.652 428,187.672 z" fill="#000000"/>
      <path d="M344,211.672 C332.42,211.672 323,221.092 323,232.672 C323,244.252 332.42,253.672 344,253.672 C355.58,253.672 365,244.252 365,232.672 C365,221.092 355.58,211.672 344,211.672 z M344,243.672 C337.94,243.672 333.02,238.732 333,232.672 C333.02,226.612 337.94,221.692 344,221.672 C350.06,221.692 354.98,226.612 355,232.672 C354.98,238.732 350.06,243.672 344,243.672 z" fill="#000000"/>
      <path d="M421,232.672 C421,221.092 411.58,211.672 400,211.672 C388.42,211.672 379,221.092 379,232.672 C379,244.252 388.42,253.672 400,253.672 C411.58,253.672 421,244.252 421,232.672 z M389,232.672 C389.02,226.612 393.94,221.692 400,221.672 C406.06,221.692 411,226.612 411,232.672 C411,238.732 406.06,243.672 400,243.672 C393.94,243.672 389.02,238.732 389,232.672 z" fill="#000000"/>
      <path d="M296,352.672 L456,352.672 C458.738,352.672 461,350.476 461,347.672 L461,283.672 C461,280.892 458.732,278.672 456,278.672 L296,278.672 C293.266,278.672 291,280.896 291,283.672 L291,347.672 C291,350.404 293.222,352.672 296,352.672 z M429,288.672 L451,288.672 L451,310.672 L429,310.672 z M429,320.672 L451,320.672 L451,342.672 L429,342.672 z M397,288.672 L419,288.672 L419,310.672 L397,310.672 z M397,320.672 L419,320.672 L419,342.672 L397,342.672 z M365,288.672 L387,288.672 L387,310.672 L365,310.672 z M365,320.672 L387,320.672 L387,342.672 L365,342.672 z M333,288.672 L355,288.672 L355,310.672 L333,310.672 z M333,320.672 L355,320.672 L355,342.672 L333,342.672 z M301,288.672 L323,288.672 L323,310.672 L301,310.672 z M301,320.672 L323,320.672 L323,342.672 L301,342.672 z" fill="#000000"/>
      <path d="M43,323.672 C43,339.652 56.02,352.672 72,352.672 C87.98,352.672 101,339.652 101,323.672 C101,307.692 87.98,294.672 72,294.672 C56.02,294.672 43,307.692 43,323.672 z M91,323.672 C90.98,334.132 82.46,342.652 72,342.672 C61.54,342.652 53.02,334.132 53,323.672 C53.02,313.212 61.54,304.692 72,304.672 C82.46,304.692 90.98,313.212 91,323.672 z" fill="#000000"/>
      <path d="M224,302.672 C212.42,302.672 203,312.092 203,323.672 C203,335.252 212.42,344.672 224,344.672 C235.58,344.672 245,335.252 245,323.672 C245,312.092 235.58,302.672 224,302.672 z M224,334.672 C217.94,334.652 213.02,329.732 213,323.672 C213.02,317.612 217.94,312.692 224,312.672 C230.06,312.692 234.98,317.612 235,323.672 C234.98,329.732 230.06,334.652 224,334.672 z" fill="#000000"/>
      <path d="M168,344.672 C179.58,344.672 189,335.252 189,323.672 C189,312.092 179.58,302.672 168,302.672 C156.42,302.672 147,312.092 147,323.672 C147,335.252 156.42,344.672 168,344.672 z M168,312.672 C174.06,312.692 178.98,317.612 179,323.672 C178.98,329.732 174.06,334.652 168,334.672 C161.94,334.652 157,329.732 157,323.672 C157,317.612 161.94,312.692 168,312.672 z" fill="#000000"/>
      <path d="M355.42,425.672 C355.42,428.433 353.181,430.672 350.42,430.672 C347.659,430.672 345.42,428.433 345.42,425.672 C345.42,422.911 347.659,420.672 350.42,420.672 C353.181,420.672 355.42,422.911 355.42,425.672 z" fill="#000000"/>
    </g>
  </g>
  <g id="Layer_2">
    <path d="M5,11 L512,11 L512,512 L5,512 L5,11 z" fill="#FFFFFF" opacity="0.8"/>
    <path d="M0,0 L5,0 L5,11 L0,11 L0,0 z" fill="#FFFFFF"/>
  </g>
</svg>
