<?xml version="1.0" encoding="UTF-8"?>
<!DOCTYPE svg PUBLIC "-//W3C//DTD SVG 1.1//EN" "http://www.w3.org/Graphics/SVG/1.1/DTD/svg11.dtd">
<svg version="1.1" xmlns="http://www.w3.org/2000/svg" xmlns:xlink="http://www.w3.org/1999/xlink" x="0" y="0" width="600" height="580" viewBox="0, 0, 600, 580">
  <g id="Layer_1">
    <g id="fov-hk">
      <g>
        <path d="M524.021,281.5 C524.021,283.841 530.467,286.675 530.403,289 C529.081,336.811 514.254,381.247 489.6,418.63 C445.154,486.026 371.302,522.191 284.531,522.191 C147.288,522.191 43.51,415.136 43.51,277.893 C43.51,212.316 58.9,156.779 100.4,112.369 C144.059,65.65 205.536,35.792 274,33.626 C276.656,33.542 278.823,38.872 281.5,38.872 C283.841,38.872 286.675,33.532 289,33.596 C352.159,35.343 409.429,60.656 452.331,101.058 C453.684,102.332 449.675,111.066 451,112.369 C453.24,114.575 460.786,109.379 462.941,111.668 C503.129,154.343 528.388,211.236 530.373,273.999 C530.458,276.656 524.021,278.823 524.021,281.5 z" fill="#DCF2F6"/>
        <path d="M489.6,418.63 C446.349,484.212 372.868,528.084 289,530.403 C286.674,530.467 282.149,517.723 279.808,517.723 C277.131,517.723 276.656,530.457 273.999,530.373 C142.785,526.223 37.23,420.344 33.597,289 C33.533,286.674 46.83,280.235 46.83,277.894 C46.83,275.217 33.543,276.656 33.627,274 C35.601,211.577 60.604,154.967 100.4,112.37 C74.55,151.58 59.5,198.53 59.5,249 C59.5,386.24 170.76,497.5 308,497.5 C379.66,497.5 444.24,467.16 489.6,418.63 z" fill="#BAE6EF"/>
        <g>
          <path d="M232.5,124.5 C232.5,127.704 232.043,130.801 231.192,133.73 C227.199,147.463 215.681,152.234 200.66,152.234 C182.435,152.234 172.958,140.97 172.958,122.745 C172.958,108.261 175.832,97.712 188.811,93.27 C192.164,92.123 195.76,91.5 199.501,91.5 C217.725,91.5 232.5,106.275 232.5,124.5 z" fill="#DD646E"/>
          <path d="M196,418.5 C196,420.431 195.808,422.317 195.442,424.14 C192.824,437.179 181.309,441 167.5,441 C151.76,441 144.447,433.421 144.447,417.681 C144.447,404.335 148.173,393.951 160.558,390.852 C162.78,390.296 165.106,390.001 167.5,390.001 C183.24,390 196,402.76 196,418.5 z" fill="#DD646E"/>
          <path d="M470.5,362 C470.5,363.931 470.308,365.817 469.942,367.64 C467.324,380.678 457.878,384.149 444.069,384.149 C428.329,384.149 417.638,375.378 417.638,359.638 C417.638,346.292 422.673,337.451 435.058,334.351 C437.28,333.795 439.606,333.5 442,333.5 C457.74,333.5 470.5,346.26 470.5,362 z" fill="#DD646E"/>
        </g>
        <path d="M231.19,133.73 C227.2,147.46 214.53,157.5 199.5,157.5 C181.27,157.5 166.5,142.73 166.5,124.5 C166.5,110.01 175.83,97.71 188.81,93.27 C187.96,96.2 187.5,99.3 187.5,102.5 C187.5,120.73 202.27,135.5 220.5,135.5 C224.24,135.5 227.84,134.88 231.19,133.73 z" fill="#DA4955"/>
        <path d="M195.44,424.14 C192.82,437.18 181.31,447 167.5,447 C151.76,447 139,434.24 139,418.5 C139,405.15 148.17,393.95 160.56,390.86 C160.19,392.68 160,394.57 160,396.5 C160,412.24 172.76,425 188.5,425 C190.89,425 193.22,424.7 195.44,424.14 z" fill="#DA4955"/>
        <path d="M469.94,367.64 C467.32,380.68 455.81,390.5 442,390.5 C426.26,390.5 413.5,377.74 413.5,362 C413.5,348.65 422.67,337.45 435.06,334.36 C434.69,336.18 434.5,338.07 434.5,340 C434.5,355.74 447.26,368.5 463,368.5 C465.39,368.5 467.72,368.2 469.94,367.64 z" fill="#DA4955"/>
        <path d="M284.362,312.83 C263.133,312.83 248.447,300.697 248.447,279.468 C248.447,261.323 256.118,248.601 273.041,244.552 C275.917,243.864 278.917,243.5 282,243.5 C303.229,243.5 320.5,260.771 320.5,282 C320.5,284.197 320.315,286.352 319.96,288.45 C316.882,306.619 303.393,312.83 284.362,312.83 z" fill="#DD646E"/>
        <path d="M319.96,288.45 C316.88,306.62 301.03,320.5 282,320.5 C260.77,320.5 243.5,303.23 243.5,282 C243.5,263.85 256.12,248.6 273.04,244.55 C272.68,246.65 272.5,248.8 272.5,251 C272.5,272.23 289.77,289.5 311,289.5 C314.08,289.5 317.08,289.14 319.96,288.45 z" fill="#DA4955"/>
      </g>
      <path d="M538,281.5 C538,281.446 537.993,281.394 537.992,281.341 C537.821,213.208 511.216,149.176 463.02,100.98 C414.667,52.629 350.38,26 282,26 C281.865,26 281.73,26.005 281.595,26.005 C281.563,26.004 281.532,26 281.5,26 C281.448,26 281.398,26.007 281.346,26.008 C248.158,26.09 215.88,32.426 185.399,44.856 C181.564,46.419 179.722,50.796 181.286,54.632 C182.85,58.468 187.228,60.312 191.063,58.744 C217.484,47.97 245.348,42.073 274,41.145 L274,96.177 C260.246,96.763 246.654,98.861 233.437,102.438 C226.204,91.35 213.698,84 199.5,84 C177.168,84 159,102.168 159,124.5 C159,129.967 160.095,135.181 162.067,139.943 C122.047,173.732 98.392,221.926 96.188,274 L41.134,274 C43.897,191.688 89.146,115.503 160.62,73.751 C164.196,71.662 165.402,67.069 163.313,63.492 C161.225,59.917 156.631,58.71 153.054,60.8 C115.097,82.972 83.277,114.735 61.034,152.653 C38.215,191.553 26.111,236.06 26.005,281.401 C26.005,281.434 26,281.466 26,281.5 C26,281.524 26.003,281.547 26.004,281.571 C26.003,281.714 26,281.857 26,282 C26,350.38 52.628,414.668 100.98,463.02 C149.176,511.216 213.207,537.822 281.341,537.992 C281.394,537.993 281.446,538 281.5,538 C281.533,538 281.564,537.996 281.597,537.995 C281.732,537.995 281.865,538 282,538 C359.27,538 431.622,503.616 480.504,443.666 C483.122,440.456 482.641,435.731 479.431,433.114 C476.221,430.495 471.497,430.976 468.879,434.187 C424.337,488.814 359.098,520.891 289,522.897 L289,467.85 C343.859,465.759 395.417,439.205 429.158,395.623 C433.15,397.153 437.477,398 442,398 C461.851,398 478,381.851 478,362 C478,349.236 471.317,338.011 461.273,331.617 C465.116,317.749 467.331,303.465 467.869,289 L522.891,289 C521.693,330.495 509.864,370.927 488.485,406.348 C486.344,409.895 487.484,414.505 491.03,416.645 C492.242,417.376 493.579,417.725 494.898,417.725 C497.439,417.725 499.918,416.433 501.326,414.1 C525.319,374.35 538,328.67 538,282 C538,281.865 537.995,281.732 537.995,281.597 C537.996,281.564 538,281.533 538,281.5 z M460.197,228.628 C459.007,224.66 454.824,222.408 450.858,223.6 C446.891,224.79 444.639,228.971 445.83,232.939 C449.826,246.258 452.145,260.037 452.792,274.001 L397.719,274.001 C395.929,247.849 385.434,224.053 369.114,205.494 L408.052,166.556 C417.372,176.732 425.56,188.114 432.336,200.571 C433.696,203.071 436.272,204.489 438.931,204.488 C440.141,204.488 441.369,204.195 442.508,203.576 C446.147,201.597 447.492,197.042 445.513,193.403 C438.039,179.662 428.982,167.129 418.665,155.943 L457.545,117.063 C496.404,158.396 520.866,213.402 522.854,274 L467.824,274 C467.165,258.573 464.613,243.346 460.197,228.628 z M167.5,397.5 C179.08,397.5 188.5,406.921 188.5,418.5 C188.5,430.079 179.08,439.5 167.5,439.5 C155.92,439.5 146.5,430.079 146.5,418.5 C146.5,406.921 155.92,397.5 167.5,397.5 z M167.5,382.5 C160.352,382.5 153.69,384.602 148.083,388.209 C125.573,359.871 112.635,325.117 111.15,289 L166.217,289 C167.256,306.105 172.085,322.861 180.346,337.843 C182.346,341.471 186.908,342.79 190.535,340.789 C194.162,338.789 195.482,334.227 193.482,330.601 C186.44,317.83 182.27,303.574 181.252,289 L236.531,289 C239.511,308.435 254.704,323.889 273.999,327.289 L273.999,382.661 C251.802,380.901 230.797,371.873 214.156,356.755 C211.091,353.971 206.347,354.199 203.562,357.264 C200.777,360.33 201.004,365.074 204.07,367.859 C223.481,385.492 248.06,395.937 273.999,397.725 L273.999,452.791 C248.316,451.588 223.254,444.617 200.709,432.39 C202.504,428.114 203.499,423.422 203.499,418.501 C203.5,398.649 187.351,382.5 167.5,382.5 z M408.061,145.332 C375.876,115.632 333.836,97.825 289,96.141 L289,41.109 C349.994,42.858 405.376,67.383 446.937,106.456 z M397.449,155.944 L358.508,194.885 C339.712,178.357 315.546,167.805 289.001,166.217 L289.001,111.159 C329.797,112.827 368.051,129.007 397.449,155.944 z M282,313 C264.907,313 251,299.094 251,282 C251,264.906 264.907,251 282,251 C290.529,251 298.264,254.463 303.875,260.056 C303.887,260.068 303.896,260.081 303.908,260.093 C303.92,260.105 303.933,260.114 303.944,260.126 C309.537,265.736 313,273.471 313,282 C313,299.094 299.093,313 282,313 z M308.767,244.626 C303.019,240.498 296.293,237.65 289,236.532 L289,181.247 C311.414,182.789 331.841,191.672 347.884,205.51 z M274,236.711 C255.038,240.052 240.052,255.038 236.711,274 L181.317,274 C185.201,224.674 224.675,185.2 274.001,181.316 L274.001,236.711 z M289,327.468 C308.771,324.437 324.437,308.771 327.468,289 L382.753,289 C379.305,339.124 339.124,379.305 289,382.753 z M327.289,274 C326.072,267.093 323.312,260.715 319.374,255.233 L358.49,216.117 C372.122,231.921 380.949,251.979 382.683,274.001 L327.289,274.001 z M199.5,99 C213.561,99 225,110.439 225,124.5 C225,138.561 213.561,150 199.5,150 C185.439,150 174,138.561 174,124.5 C174,110.439 185.439,99 199.5,99 z M170.366,152.59 C177.737,160.232 188.069,165 199.5,165 C221.832,165 240,146.832 240,124.5 C240,121.737 239.72,119.039 239.19,116.43 C250.552,113.491 262.208,111.739 274,111.192 L274,166.281 C216.4,170.224 170.224,216.399 166.281,274 L111.2,274 C113.367,226.984 134.574,183.456 170.366,152.59 z M41.109,289 L96.143,289 C97.657,329.061 112.125,367.605 137.377,398.823 C133.667,404.483 131.501,411.241 131.501,418.5 C131.501,438.351 147.65,454.5 167.501,454.5 C176.992,454.5 185.632,450.802 192.07,444.778 C217.188,458.699 245.252,466.57 274.001,467.807 L274.001,522.853 C147.126,518.692 44.751,416.002 41.109,289 z M442,383 C430.42,383 421,373.579 421,362 C421,350.421 430.42,341 442,341 C453.58,341 463,350.421 463,362 C463,373.579 453.58,383 442,383 z M447.16,326.375 C445.474,326.132 443.752,326 442,326 C422.149,326 406,342.149 406,362 C406,371.911 410.026,380.898 416.528,387.414 C385.607,426.762 338.809,450.77 289,452.837 L289,397.783 C347.398,394.289 394.289,347.399 397.783,289 L452.855,289 C452.341,301.678 450.435,314.2 447.16,326.375 z" fill="#000000"/>
    </g>
    <path d="M570,481 C570,522.421 536.421,556 495,556 C453.579,556 420,522.421 420,481 C420,439.579 453.579,406 495,406 C536.421,406 570,439.579 570,481 z" fill="#303C42"/>
    <path d="M523.724,451.998 L480.817,494.904 L465.183,479.271 C462.52,476.607 458.205,476.607 455.542,479.271 C452.879,481.934 452.879,486.249 455.542,488.912 L475.997,509.366 C477.328,510.698 479.073,511.364 480.818,511.364 C482.562,511.364 484.307,510.698 485.639,509.366 L533.366,461.639 C536.03,458.975 536.03,454.66 533.366,451.998 C530.702,449.335 526.387,449.335 523.724,451.998 z" fill="#303C42"/>
    <path d="M556.364,480.682 C556.364,514.572 528.89,542.046 495,542.046 C461.11,542.046 433.636,514.572 433.636,480.682 C433.636,446.792 461.11,419.318 495,419.318 C528.89,419.318 556.364,446.792 556.364,480.682 z" fill="#D32F2F"/>
    <path d="M525.227,501.268 L474.605,450.645 C471.107,447.148 466.121,446.474 463.456,449.139 C460.791,451.804 461.465,456.79 464.962,460.288 L515.585,510.91 C519.082,514.408 524.069,515.082 526.734,512.417 C529.399,509.752 528.725,504.765 525.227,501.268 z" fill="#303C42"/>
    <path d="M515.585,450.645 L464.962,501.268 C461.465,504.765 460.791,509.752 463.456,512.417 C466.121,515.082 471.107,514.408 474.605,510.91 L525.227,460.288 C528.725,456.79 529.399,451.804 526.734,449.139 C524.069,446.474 519.082,447.148 515.585,450.645 z" fill="#303C42"/>
    <g>
      <path d="M569.454,480.682 C569.454,522.103 535.875,555.682 494.454,555.682 C453.033,555.682 419.454,522.103 419.454,480.682 C419.454,439.261 453.033,405.682 494.454,405.682 C535.875,405.682 569.454,439.261 569.454,480.682 z" fill="#303C42"/>
      <path d="M494.454,422.44 L494.454,538.925 C526.621,538.925 552.697,512.849 552.697,480.682 C552.697,448.516 526.621,422.44 494.454,422.44 z" fill="#D41915"/>
      <path d="M545.665,480.682 C545.665,448.516 522.737,422.44 494.454,422.44 C462.288,422.44 436.212,448.516 436.212,480.682 C436.212,512.849 462.288,538.925 494.454,538.925 C522.737,538.925 545.665,512.849 545.665,480.682 z" fill="#FF3636"/>
      <path d="M513.498,454.841 L506.467,454.841 L506.467,506.524 L513.498,506.524 C517.381,506.524 520.529,503.376 520.529,499.492 L520.529,461.872 C520.529,457.989 517.381,454.841 513.498,454.841 z" fill="#FFD8D8"/>
      <path d="M513.498,499.493 L513.498,461.872 C513.498,457.989 510.35,454.841 506.467,454.841 L475.878,454.841 C471.994,454.841 468.846,457.989 468.846,461.872 L468.846,499.493 C468.846,503.376 471.994,506.524 475.878,506.524 L506.467,506.524 C510.35,506.524 513.498,503.376 513.498,499.493 z" fill="#FFFFFF"/>
      <path d="M536.881,438.256 C525.548,426.924 510.481,420.682 494.454,420.682 C478.428,420.682 463.361,426.924 452.028,438.256 C440.696,449.589 434.454,464.656 434.454,480.682 C434.454,496.709 440.696,511.776 452.028,523.109 C463.361,534.441 478.428,540.682 494.454,540.682 C510.481,540.682 525.548,534.441 536.881,523.109 C548.213,511.776 554.454,496.709 554.454,480.682 C554.454,464.656 548.213,449.589 536.881,438.256 z M494.454,537.167 C463.309,537.167 437.97,511.828 437.97,480.682 C437.97,449.537 463.309,424.198 494.454,424.198 C525.6,424.198 550.939,449.537 550.939,480.682 C550.939,511.828 525.6,537.167 494.454,537.167 z" fill="#000000"/>
      <path d="M513.498,453.083 L475.878,453.083 C471.031,453.083 467.089,457.026 467.089,461.872 L467.089,477.167 C467.089,478.138 467.876,478.925 468.846,478.925 C469.817,478.925 470.604,478.138 470.604,477.167 L470.604,461.872 C470.604,458.964 472.97,456.599 475.878,456.599 L513.498,456.599 C516.405,456.599 518.771,458.964 518.771,461.872 L518.771,499.493 C518.771,502.401 516.405,504.766 513.498,504.766 L475.878,504.766 C472.97,504.766 470.604,502.401 470.604,499.493 L470.604,484.198 C470.604,483.227 469.817,482.44 468.846,482.44 C467.876,482.44 467.089,483.227 467.089,484.198 L467.089,499.493 C467.089,504.339 471.031,508.282 475.878,508.282 L513.498,508.282 C518.344,508.282 522.287,504.339 522.287,499.493 L522.287,461.872 C522.287,457.026 518.344,453.083 513.498,453.083 z" fill="#000000"/>
    </g>
  </g>
</svg>
