<?xml version="1.0" encoding="iso-8859-1"?>
<!-- Generator: Adobe Illustrator 19.0.0, SVG Export Plug-In . SVG Version: 6.00 Build 0)  -->
<svg version="1.1" id="Capa_1" xmlns="http://www.w3.org/2000/svg" xmlns:xlink="http://www.w3.org/1999/xlink" x="0px" y="0px"
	 viewBox="0 0 512 512" style="enable-background:new 0 0 512 512;" xml:space="preserve">
<g>
	<g>
		<path d="M499.5,129.103h-33.729c-6.893,0-12.5,5.607-12.5,12.5v34.678c0,6.893,5.607,12.5,12.5,12.5h8.872v38.151H369.808v-29.678
			h30.172c6.893,0,12.5-5.607,12.5-12.5v-56.057h8.609c6.893,0,12.5-5.607,12.5-12.5V81.519c0-6.892-5.607-12.5-12.5-12.5H387.36
			c-6.893,0-12.5,5.608-12.5,12.5v34.677c0,6.893,5.607,12.5,12.5,12.5h10.12v53.557h-27.672v-29.867c0-6.893-5.607-12.5-12.5-12.5
			H329.36v-33.861c0-4.142-3.358-7.5-7.5-7.5c-4.142,0-7.5,3.358-7.5,7.5v33.861h-28.906v-33.861c0-4.142-3.358-7.5-7.5-7.5
			c-4.142,0-7.5,3.358-7.5,7.5v33.861h-28.906v-33.861c0-4.142-3.358-7.5-7.5-7.5c-4.142,0-7.5,3.358-7.5,7.5v33.861h-28.906
			v-33.861c0-4.142-3.358-7.5-7.5-7.5c-4.142,0-7.5,3.358-7.5,7.5v33.861h-27.948c-6.893,0-12.5,5.607-12.5,12.5v29.867h-27.672
			v-53.557h10.12c6.893,0,12.5-5.607,12.5-12.5V81.519c0-6.892-5.607-12.5-12.5-12.5H90.911c-6.893,0-12.5,5.608-12.5,12.5v34.677
			c0,6.893,5.607,12.5,12.5,12.5h8.609v56.057c0,6.893,5.607,12.5,12.5,12.5h30.172v29.678H37.358V188.78h8.872
			c6.893,0,12.5-5.607,12.5-12.5v-34.678c0-6.893-5.607-12.5-12.5-12.5H12.5c-6.893,0-12.5,5.607-12.5,12.5v34.678
			c0,6.893,5.607,12.5,12.5,12.5h9.858v40.651c0,6.893,5.607,12.5,12.5,12.5h107.335v26.597H112c-4.142,0-7.5,3.358-7.5,7.5
			c0,4.142,3.358,7.5,7.5,7.5h30.192v31.217h-30.17c-6.893,0-12.5,5.607-12.5,12.5v56.057h-8.611c-6.893,0-12.5,5.608-12.5,12.5
			v34.678c0,6.893,5.607,12.5,12.5,12.5h33.729c6.893,0,12.5-5.607,12.5-12.5v-34.678c0-6.892-5.607-12.5-12.5-12.5h-10.119v-53.557
			h27.67v29.867c0,6.893,5.607,12.5,12.5,12.5h27.948v33.861c0,4.142,3.358,7.5,7.5,7.5c4.142,0,7.5-3.358,7.5-7.5v-33.861h28.906
			v33.861c0,4.142,3.358,7.5,7.5,7.5c4.142,0,7.5-3.358,7.5-7.5v-33.861h28.906v33.861c0,4.142,3.358,7.5,7.5,7.5
			c4.142,0,7.5-3.358,7.5-7.5v-33.861h28.906v33.861c0,4.142,3.358,7.5,7.5,7.5c4.142,0,7.5-3.358,7.5-7.5v-33.861h27.948
			c6.893,0,12.5-5.607,12.5-12.5v-29.867h27.67v53.557h-10.119c-6.893,0-12.5,5.608-12.5,12.5v34.678c0,6.893,5.607,12.5,12.5,12.5
			h33.729c6.893,0,12.5-5.607,12.5-12.5v-34.678c0-6.892-5.607-12.5-12.5-12.5h-8.611v-56.057c0-6.893-5.607-12.5-12.5-12.5h-30.17
			v-31.217H401c4.142,0,7.5-3.358,7.5-7.5c0-4.142-3.358-7.5-7.5-7.5h-31.192v-26.597h107.334c6.893,0,12.5-5.607,12.5-12.5v-40.651
			h9.858c6.893,0,12.5-5.607,12.5-12.5v-34.678C512,134.71,506.393,129.103,499.5,129.103z M389.859,113.696V84.019h28.729v29.677
			H389.859z M93.411,113.696V84.019h28.729v29.677H93.411z M15,173.781v-29.678h28.729v29.678H15z M122.14,398.303v29.678H93.411
			v-29.678H122.14z M157.192,357.112V154.887h197.615v202.225H157.192z M418.589,398.303v29.678H389.86v-29.678H418.589z
			 M497,173.781h-28.729v-29.678H497V173.781z"/>
	</g>
</g>
<g>
	<g>
		<path d="M499.5,321.679h-9.858v-40.651c0-6.893-5.607-12.5-12.5-12.5H443c-4.142,0-7.5,3.358-7.5,7.5c0,4.142,3.358,7.5,7.5,7.5
			h31.642v38.151h-8.872c-6.893,0-12.5,5.607-12.5,12.5v34.677c0,6.893,5.607,12.5,12.5,12.5h33.73c6.893,0,12.5-5.607,12.5-12.5
			v-34.677C512,327.287,506.393,321.679,499.5,321.679z M497,366.356h-28.729v-29.677H497V366.356z"/>
	</g>
</g>
<g>
	<g>
		<path d="M70,268.529H34.858c-6.893,0-12.5,5.607-12.5,12.5v40.651H12.5c-6.893,0-12.5,5.607-12.5,12.5v34.677
			c0,6.893,5.607,12.5,12.5,12.5h33.729c6.893,0,12.5-5.607,12.5-12.5V334.18c0-6.893-5.607-12.5-12.5-12.5h-8.872v-38.151H70
			c4.142,0,7.5-3.358,7.5-7.5C77.5,271.886,74.142,268.529,70,268.529z M43.729,336.679v29.677H15v-29.677H43.729z"/>
	</g>
</g>
<g>
	<g>
		<path d="M317.07,229.5c4.142,0,7.5-3.358,7.5-7.5v-23.395c0-6.893-5.607-12.5-12.5-12.5H199.93c-6.893,0-12.5,5.607-12.5,12.5
			v114.79c0,6.893,5.607,12.5,12.5,12.5h112.14c6.893,0,12.5-5.607,12.5-12.5V266c0-4.142-3.358-7.5-7.5-7.5
			c-4.142,0-7.5,3.358-7.5,7.5v44.895h-61.338v-39.296c0-4.142-3.358-7.5-7.5-7.5H202.43v-62.994h107.14V222
			C309.57,226.142,312.928,229.5,317.07,229.5z M233.232,279.099v31.796H202.43v-31.796H233.232z"/>
	</g>
</g>
<g>
</g>
<g>
</g>
<g>
</g>
<g>
</g>
<g>
</g>
<g>
</g>
<g>
</g>
<g>
</g>
<g>
</g>
<g>
</g>
<g>
</g>
<g>
</g>
<g>
</g>
<g>
</g>
<g>
</g>
</svg>
