<?xml version="1.0" encoding="UTF-8"?>
<!DOCTYPE svg PUBLIC "-//W3C//DTD SVG 1.1//EN" "http://www.w3.org/Graphics/SVG/1.1/DTD/svg11.dtd">
<svg version="1.1" xmlns="http://www.w3.org/2000/svg" x="0" y="0" width="512.004" height="512.004"
     viewBox="0, 0, 512.004, 512.004">
  <g id="Background">
    <rect x="0" y="0" width="512.004" height="512.004" fill="#000000" fill-opacity="0"/>
  </g>
  <g id="Layer_1">
    <path d="M471.539,62.376 L448.251,39.089 C445.051,35.889 439.385,35.889 436.185,39.089 L366.314,108.96 C362.978,112.296 362.978,117.69 366.314,121.026 L389.601,144.313 C391.197,145.917 393.373,146.813 395.634,146.813 C397.895,146.813 400.063,145.917 401.667,144.313 L471.538,74.442 C474.875,71.106 474.875,65.713 471.539,62.376 z M395.635,126.214 L384.414,114.993 L442.219,57.188 L453.44,68.409 L395.635,126.214 z" fill="#000000"/>
    <path d="M407.07,137.657 L372.971,103.558 C362.987,93.574 346.757,93.574 336.773,103.558 L325.543,114.779 C323.939,116.375 323.043,118.542 323.043,120.812 C323.043,123.073 323.939,125.241 325.543,126.845 L383.775,185.076 C385.371,186.68 387.547,187.576 389.808,187.576 C392.078,187.576 394.245,186.671 395.85,185.076 L407.071,173.855 C417.054,163.871 417.054,147.641 407.07,137.657 z M394.995,161.781 L389.807,166.969 L343.65,120.804 L348.838,115.616 C352.166,112.305 357.576,112.288 360.904,115.616 L394.995,149.715 C398.323,153.043 398.323,158.453 394.995,161.781 z" fill="#000000"/>
    <path d="M400.192,177.354 L333.257,110.419 C320.363,97.525 303.228,90.425 284.992,90.425 C266.765,90.425 249.63,97.525 236.736,110.419 L185.801,161.354 C184.197,162.95 183.301,165.117 183.301,167.387 C183.301,169.657 184.197,171.816 185.801,173.42 L337.191,324.818 C338.855,326.482 341.04,327.318 343.224,327.318 C345.409,327.318 347.593,326.482 349.257,324.818 L400.192,273.883 C426.799,247.268 426.799,203.961 400.192,177.354 z M388.126,261.817 L343.224,306.719 L203.899,167.387 L248.801,122.493 C258.469,112.825 271.32,107.5 284.991,107.5 C298.67,107.5 311.521,112.825 321.189,122.493 L388.124,189.428 C408.076,209.38 408.076,241.858 388.126,261.817 z" fill="#000000"/>
    <path d="M388.061,261.81 L343.159,306.712 L203.834,167.38 L248.736,122.486 C258.404,112.818 271.255,107.493 284.926,107.493 C298.605,107.493 311.456,112.818 321.124,122.486 L388.059,189.421 C408.011,209.373 408.011,241.851 388.061,261.81 z" fill="#2196F3"/>
    <path d="M331.797,155.543 L308.501,132.238 C295.539,119.284 274.47,119.284 261.517,132.238 L238.221,155.543 C234.884,158.88 234.884,164.273 238.221,167.609 C241.558,170.945 246.959,170.945 250.287,167.609 L273.583,144.304 C279.889,138.006 290.138,138.006 296.435,144.304 L319.731,167.609 C321.395,169.273 323.58,170.109 325.764,170.109 C327.94,170.109 330.124,169.273 331.797,167.609 C335.133,164.273 335.133,158.879 331.797,155.543 z" fill="#000000"/>
    <path d="M144.093,390.187 L120.806,366.9 C119.21,365.296 117.034,364.4 114.773,364.4 C112.512,364.4 110.344,365.296 108.74,366.9 L38.868,436.771 C35.532,440.108 35.532,445.501 38.868,448.837 L62.155,472.124 C63.751,473.728 65.927,474.624 68.188,474.624 C70.458,474.624 72.625,473.728 74.221,472.124 L144.092,402.253 C147.429,398.917 147.429,393.524 144.093,390.187 z M68.189,454.025 L56.968,442.804 L114.773,384.999 L125.994,396.22 L68.189,454.025 z" fill="#000000"/>
    <path d="M184.848,384.376 L126.617,326.145 C125.021,324.541 122.845,323.645 120.584,323.645 C118.323,323.645 116.155,324.541 114.551,326.145 L103.33,337.366 C93.346,347.35 93.346,363.58 103.33,373.564 L137.429,407.663 C142.421,412.655 148.975,415.147 155.528,415.147 C162.081,415.147 168.635,412.655 173.619,407.663 L184.849,396.442 C186.453,394.846 187.349,392.679 187.349,390.409 C187.348,388.148 186.452,385.981 184.848,384.376 z M161.578,395.589 C158.25,398.9 152.84,398.917 149.512,395.589 L115.413,361.49 C112.085,358.162 112.085,352.752 115.413,349.424 L120.601,344.236 L166.766,390.401 L161.578,395.589 z" fill="#000000"/>
    <path d="M336.247,326.128 L184.857,174.738 C181.657,171.538 175.991,171.538 172.791,174.738 L110.208,237.321 C83.601,263.936 83.601,307.243 110.208,333.85 L177.143,400.785 C190.037,413.679 207.172,420.779 225.408,420.779 C243.644,420.779 260.779,413.679 273.673,400.777 L336.248,338.194 C339.583,334.857 339.583,329.464 336.247,326.128 z M261.597,388.72 C251.929,398.388 239.078,403.713 225.407,403.713 C211.728,403.713 198.877,398.388 189.209,388.72 L122.274,321.785 C102.323,301.834 102.323,269.356 122.274,249.397 L178.824,192.847 L318.139,332.171 L261.597,388.72 z" fill="#000000"/>
    <path d="M261.597,388.72 C251.929,398.388 239.078,403.713 225.407,403.713 C211.728,403.713 198.877,398.388 189.209,388.72 L122.274,321.785 C102.323,301.834 102.323,269.356 122.274,249.397 L178.824,192.847 L318.139,332.171 L261.597,388.72 z" fill="#2296F3"/>
    <path d="M289.663,326.136 L184.857,221.33 C181.521,217.993 176.127,217.993 172.791,221.33 L126.208,267.913 C122.871,271.25 122.871,276.643 126.208,279.979 L231.023,384.785 C232.687,386.449 234.872,387.285 237.056,387.285 C239.232,387.285 241.417,386.449 243.081,384.785 L289.664,338.202 C293,334.866 293,329.473 289.663,326.136 z M237.047,366.687 L144.307,273.947 L178.824,239.43 L271.564,332.17 L237.047,366.687 z" fill="#000000"/>
    <path d="M231.44,314.497 L196.505,279.553 C193.168,276.217 187.775,276.216 184.439,279.553 C181.103,282.89 181.103,288.283 184.439,291.619 L219.374,326.563 C221.038,328.227 223.223,329.063 225.407,329.063 C227.591,329.063 229.776,328.227 231.44,326.563 C234.777,323.226 234.777,317.833 231.44,314.497 z" fill="#000000"/>
  </g>
</svg>
