<?xml version="1.0" encoding="UTF-8"?>
<!DOCTYPE svg PUBLIC "-//W3C//DTD SVG 1.1//EN" "http://www.w3.org/Graphics/SVG/1.1/DTD/svg11.dtd">
<svg version="1.1" xmlns="http://www.w3.org/2000/svg" x="0" y="0" width="512" height="512" viewBox="0, 0, 512, 512">
  <g id="Background">
    <rect x="0" y="0" width="512" height="512" fill="#000000" fill-opacity="0"/>
  </g>
  <g id="Background">
    <path d="M0,0 L512,0 L512,512 L0,512 z" fill="#FFFFFF" display="none"/>
  </g>
  <g id="STOP">
    <g>
      <path d="M472.175,357.016 L39.825,357.016 C21.972,357.016 7.5,342.544 7.5,324.691 L7.5,187.309 C7.5,169.456 21.972,154.984 39.825,154.984 L472.175,154.984 C490.028,154.984 504.5,169.456 504.5,187.309 L504.5,324.691 C504.5,342.544 490.027,357.016 472.175,357.016 z" fill="#FD8087" display="none"/>
      <path d="M472.175,154.984 L472.175,314.59 C472.175,320.169 467.652,324.692 462.073,324.692 L7.5,324.692 C7.5,342.545 21.973,357.017 39.825,357.017 L472.175,357.017 C490.028,357.017 504.5,342.545 504.5,324.692 L504.5,187.309 C504.5,169.456 490.027,154.984 472.175,154.984 z" fill="#FE646F" display="none"/>
      <g>
        <path d="M54.203,213.745 L115.189,213.745 C120.712,213.745 125.189,218.222 125.189,223.745 L125.189,283.882 C125.189,289.405 120.712,293.882 115.189,293.882 L54.203,293.882 C48.681,293.882 44.203,289.405 44.203,283.882 L44.203,223.745 C44.203,218.222 48.681,213.745 54.203,213.745 z" fill="#FFFFFF" display="none"/>
        <g>
          <path d="M57.187,214.108 L112.819,214.108 C119.646,214.108 125.181,219.643 125.181,226.47 L125.181,282.102 C125.181,288.929 119.646,294.464 112.819,294.464 L57.187,294.464 C50.36,294.464 44.825,288.929 44.825,282.102 L44.825,262.506" fill="#FFFFFF" display="none"/>
          <path d="M57.187,220.108 L112.819,220.108 L112.743,220.107 L113.062,220.111 L113.466,220.136 L113.787,220.177 L114.101,220.232 L114.408,220.303 L114.708,220.388 L115.002,220.487 L115.289,220.6 L115.569,220.726 L115.842,220.866 L116.108,221.018 L116.366,221.183 L116.616,221.361 L116.858,221.55 L117.09,221.75 L117.313,221.962 L117.525,222.184 L117.727,222.416 L117.917,222.657 L118.095,222.907 L118.262,223.166 L118.416,223.432 L118.556,223.706 L118.684,223.987 L118.798,224.275 L118.897,224.568 L118.983,224.868 L119.054,225.173 L119.11,225.485 L119.151,225.802 L119.176,226.125 L119.185,226.455 L119.182,226.546 L119.181,226.47 L119.181,282.102 L119.182,282.026 L119.178,282.345 L119.153,282.75 L119.113,283.07 L119.057,283.384 L118.986,283.691 L118.901,283.991 L118.802,284.285 L118.689,284.572 L118.563,284.852 L118.424,285.125 L118.271,285.391 L118.106,285.65 L117.929,285.9 L117.74,286.141 L117.539,286.373 L117.327,286.596 L117.105,286.808 L116.874,287.01 L116.632,287.2 L116.382,287.379 L116.123,287.545 L115.857,287.699 L115.583,287.84 L115.302,287.967 L115.015,288.081 L114.721,288.181 L114.421,288.266 L114.116,288.337 L113.804,288.393 L113.487,288.434 L113.164,288.459 L112.834,288.468 L112.743,288.465 L112.819,288.464 L57.187,288.464 L57.263,288.465 L56.944,288.461 L56.54,288.436 L56.219,288.396 L55.905,288.34 L55.598,288.27 L55.298,288.185 L55.004,288.085 L54.717,287.973 L54.437,287.846 L54.164,287.707 L53.898,287.554 L53.64,287.389 L53.39,287.212 L53.148,287.023 L52.916,286.822 L52.693,286.611 L52.481,286.389 L52.28,286.157 L52.089,285.915 L51.911,285.665 L51.744,285.406 L51.59,285.14 L51.45,284.866 L51.322,284.585 L51.208,284.298 L51.109,284.004 L51.023,283.704 L50.952,283.399 L50.896,283.088 L50.855,282.77 L50.83,282.447 L50.821,282.117 L50.824,282.026 L50.825,282.102 L50.825,262.506 L50.825,262.506 C50.825,259.192 48.139,256.506 44.825,256.506 C41.511,256.506 38.825,259.192 38.825,262.506 C38.825,262.506 38.825,262.506 38.825,262.506 L38.825,282.102 L38.825,282.102 C38.825,282.127 38.825,282.152 38.825,282.178 L38.825,282.178 L38.837,282.724 L38.892,283.659 L38.993,284.582 L39.14,285.493 L39.331,286.389 L39.564,287.268 L39.84,288.13 L40.156,288.972 L40.512,289.794 L40.905,290.594 L41.335,291.371 L41.801,292.124 L42.301,292.852 L42.834,293.553 L43.399,294.228 L43.996,294.874 L44.622,295.491 L45.278,296.077 L45.962,296.633 L46.672,297.155 L47.409,297.644 L48.17,298.099 L48.955,298.517 L49.763,298.898 L50.592,299.241 L51.441,299.544 L52.308,299.806 L53.193,300.026 L54.093,300.202 L55.007,300.334 L55.933,300.421 L56.792,300.46 L57.111,300.464 L57.111,300.464 C57.137,300.464 57.162,300.464 57.187,300.464 L57.187,300.464 L112.819,300.464 L112.819,300.464 C112.844,300.464 112.869,300.464 112.895,300.464 L112.895,300.464 L113.441,300.453 L114.376,300.398 L115.299,300.296 L116.21,300.149 L117.105,299.959 L117.985,299.725 L118.847,299.449 L119.689,299.133 L120.511,298.778 L121.311,298.384 L122.088,297.954 L122.841,297.488 L123.569,296.988 L124.27,296.455 L124.945,295.89 L125.591,295.293 L126.208,294.667 L126.794,294.011 L127.349,293.328 L127.872,292.617 L128.361,291.881 L128.816,291.119 L129.234,290.334 L129.615,289.527 L129.958,288.698 L130.261,287.849 L130.523,286.981 L130.743,286.096 L130.919,285.196 L131.051,284.282 L131.138,283.356 L131.177,282.497 L131.181,282.178 L131.181,282.178 C131.181,282.152 131.181,282.127 131.181,282.102 L131.181,282.102 L131.181,226.47 L131.181,226.47 C131.181,226.445 131.181,226.42 131.181,226.395 L131.181,226.395 L131.17,225.848 L131.115,224.913 L131.013,223.99 L130.866,223.079 L130.676,222.184 L130.442,221.304 L130.166,220.443 L129.85,219.6 L129.494,218.778 L129.101,217.978 L128.671,217.201 L128.205,216.448 L127.705,215.721 L127.172,215.019 L126.607,214.345 L126.01,213.698 L125.384,213.081 L124.728,212.495 L124.045,211.94 L123.334,211.417 L122.598,210.928 L121.836,210.473 L121.051,210.055 L120.244,209.674 L119.415,209.331 L118.566,209.028 L117.698,208.766 L116.813,208.546 L115.913,208.37 L114.999,208.238 L114.073,208.152 L113.214,208.112 L112.895,208.108 L112.895,208.108 C112.869,208.108 112.844,208.108 112.819,208.108 L112.819,208.108 L57.187,208.108 C53.874,208.108 51.187,210.794 51.187,214.108 C51.187,217.422 53.874,220.108 57.187,220.108 L57.187,220.108" fill="#000000" display="none"/>
        </g>
        <g>
          <path d="M44.825,236.217 L44.825,226.47 C44.825,219.643 50.36,214.108 57.187,214.108" fill="#FFFFFF" display="none"/>
          <path d="M50.825,236.217 L50.825,226.47 L50.824,226.546 L50.828,226.227 L50.853,225.823 L50.893,225.502 L50.949,225.188 L51.02,224.881 L51.105,224.581 L51.204,224.287 L51.317,224 L51.443,223.72 L51.583,223.447 L51.735,223.181 L51.9,222.923 L52.077,222.673 L52.267,222.431 L52.467,222.199 L52.679,221.977 L52.901,221.764 L53.133,221.563 L53.374,221.372 L53.624,221.194 L53.883,221.027 L54.149,220.874 L54.423,220.733 L54.704,220.605 L54.992,220.492 L55.285,220.392 L55.585,220.306 L55.89,220.235 L56.202,220.179 L56.519,220.138 L56.842,220.113 L57.172,220.104 L57.263,220.107 L57.263,220.107 C60.577,220.066 63.229,217.345 63.187,214.032 C63.145,210.719 60.425,208.066 57.111,208.108 L56.565,208.12 L55.63,208.175 L54.707,208.276 L53.796,208.423 L52.901,208.614 L52.021,208.848 L51.16,209.123 L50.317,209.439 L49.495,209.795 L48.695,210.188 L47.918,210.618 L47.165,211.084 L46.438,211.584 L45.736,212.117 L45.061,212.682 L44.415,213.279 L43.798,213.906 L43.212,214.561 L42.657,215.245 L42.134,215.955 L41.645,216.692 L41.19,217.453 L40.772,218.238 L40.391,219.046 L40.048,219.875 L39.745,220.724 L39.483,221.591 L39.263,222.476 L39.087,223.376 L38.955,224.29 L38.869,225.216 L38.829,226.075 L38.825,226.395 L38.825,226.395 C38.825,226.42 38.825,226.445 38.825,226.47 L38.825,226.47 L38.825,236.217 C38.825,239.531 41.511,242.217 44.825,242.217 C48.139,242.217 50.825,239.531 50.825,236.217 L50.825,236.217" fill="#000000" display="none"/>
        </g>
        <path d="M72,349.52 L39.83,349.52 C26.139,349.52 15,338.381 15,324.69 L15,187.31 C15,173.619 26.139,162.48 39.83,162.48 L405,162.48 C409.142,162.48 412.5,159.122 412.5,154.98 C412.5,150.838 409.142,147.48 405,147.48 L39.83,147.48 C17.868,147.48 0,165.348 0,187.31 L0,324.69 C0,346.652 17.868,364.52 39.83,364.52 L72,364.52 C76.142,364.52 79.5,361.162 79.5,357.02 C79.5,352.878 76.142,349.52 72,349.52 z" fill="#000000" display="none"/>
        <path d="M472.17,147.48 L440,147.48 C435.858,147.48 432.5,150.838 432.5,154.98 C432.5,159.122 435.858,162.48 440,162.48 L472.17,162.48 C485.861,162.48 497,173.619 497,187.31 L497,324.69 C497,338.381 485.861,349.52 472.17,349.52 L107,349.52 C102.858,349.52 99.5,352.878 99.5,357.02 C99.5,361.162 102.858,364.52 107,364.52 L472.17,364.52 C494.132,364.52 512,346.652 512,324.69 L512,187.31 C512,165.348 494.132,147.48 472.17,147.48 z" fill="#000000" display="none"/>
      </g>
    </g>
    <text transform="matrix(1, 0, 0, 1, 300.305, 255)" display="none">
      <tspan x="-155.305" y="43.5" font-family="Helvetica" font-size="120" kerning="-5" fill="#000000">STOP</tspan>
    </text>
    <path d="M44.203,256.993" fill="#FD8087" display="none"/>
  </g>
  <g id="START">
    <g>
      <path d="M472.175,357.016 L39.825,357.016 C21.972,357.016 7.5,342.544 7.5,324.691 L7.5,187.309 C7.5,169.456 21.972,154.984 39.825,154.984 L472.175,154.984 C490.028,154.984 504.5,169.456 504.5,187.309 L504.5,324.691 C504.5,342.544 490.027,357.016 472.175,357.016 z" fill="#51AA2E"/>
      <path d="M472.175,154.984 L472.175,314.59 C472.175,320.169 467.652,324.692 462.073,324.692 L7.5,324.692 C7.5,342.545 21.973,357.017 39.825,357.017 L472.175,357.017 C490.028,357.017 504.5,342.545 504.5,324.692 L504.5,187.309 C504.5,169.456 490.027,154.984 472.175,154.984 z" fill="#006F10"/>
      <path d="M52.604,286.273 L52.604,225.727 C52.604,220.023 58.997,216.653 63.703,219.877 L107.885,250.15 C111.996,252.966 111.996,259.033 107.885,261.849 L63.703,292.122 C58.997,295.347 52.604,291.977 52.604,286.273 z" fill="#F2FBFF"/>
      <g>
        <path d="M112.134,268.034 C116.103,265.31 118.473,260.811 118.473,256 C118.473,251.189 116.103,246.689 112.129,243.962 L67.948,213.698 C63.473,210.623 57.707,210.282 52.899,212.813 C48.088,215.344 45.1,220.293 45.1,225.73 L45.1,286.27 C45.1,291.706 48.088,296.656 52.899,299.187 C55.042,300.314 57.374,300.872 59.698,300.872 C62.588,300.872 65.463,300.009 67.939,298.308 L74.509,293.808 C77.926,291.468 78.799,286.8 76.458,283.382 C74.118,279.965 69.451,279.091 66.032,281.433 L60.1,285.495 L60.1,226.505 L103.159,256 L94.904,261.651 C91.486,263.991 90.612,268.658 92.951,272.076 C95.291,275.494 99.959,276.368 103.376,274.029 z" fill="#000000"/>
        <path d="M72,349.52 L39.83,349.52 C26.139,349.52 15,338.381 15,324.69 L15,187.31 C15,173.619 26.139,162.48 39.83,162.48 L405,162.48 C409.142,162.48 412.5,159.122 412.5,154.98 C412.5,150.838 409.142,147.48 405,147.48 L39.83,147.48 C17.868,147.48 0,165.348 0,187.31 L0,324.69 C0,346.652 17.868,364.52 39.83,364.52 L72,364.52 C76.142,364.52 79.5,361.162 79.5,357.02 C79.5,352.878 76.142,349.52 72,349.52 z" fill="#000000"/>
        <path d="M472.17,147.48 L440,147.48 C435.858,147.48 432.5,150.838 432.5,154.98 C432.5,159.122 435.858,162.48 440,162.48 L472.17,162.48 C485.861,162.48 497,173.619 497,187.31 L497,324.69 C497,338.381 485.861,349.52 472.17,349.52 L107,349.52 C102.858,349.52 99.5,352.878 99.5,357.02 C99.5,361.162 102.858,364.52 107,364.52 L472.17,364.52 C494.132,364.52 512,346.652 512,324.69 L512,187.31 C512,165.348 494.132,147.48 472.17,147.48 z" fill="#000000"/>
      </g>
    </g>
    <path d="M189.207,265.016 Q189.207,271.51 185.862,276.686 Q182.518,281.861 176.072,284.791 Q169.627,287.721 160.789,287.721 Q150.193,287.721 143.309,283.717 Q138.426,280.836 135.374,276.026 Q132.322,271.217 132.322,266.676 Q132.322,264.039 134.153,262.159 Q135.984,260.279 138.816,260.279 Q141.111,260.279 142.698,261.744 Q144.285,263.209 145.408,266.09 Q146.775,269.508 148.362,271.803 Q149.949,274.098 152.83,275.587 Q155.711,277.076 160.398,277.076 Q166.844,277.076 170.872,274.073 Q174.9,271.07 174.9,266.578 Q174.9,263.014 172.728,260.792 Q170.555,258.57 167.112,257.398 Q163.67,256.227 157.908,254.908 Q150.193,253.102 144.993,250.685 Q139.793,248.268 136.741,244.093 Q133.689,239.918 133.689,233.717 Q133.689,227.809 136.912,223.219 Q140.135,218.629 146.238,216.163 Q152.342,213.697 160.594,213.697 Q167.186,213.697 171.995,215.333 Q176.805,216.969 179.979,219.679 Q183.152,222.389 184.617,225.367 Q186.082,228.346 186.082,231.178 Q186.082,233.766 184.251,235.841 Q182.42,237.916 179.686,237.916 Q177.195,237.916 175.901,236.671 Q174.607,235.426 173.094,232.594 Q171.141,228.541 168.406,226.271 Q165.672,224 159.617,224 Q154.002,224 150.56,226.466 Q147.117,228.932 147.117,232.398 Q147.117,234.547 148.289,236.109 Q149.461,237.672 151.512,238.795 Q153.562,239.918 155.662,240.553 Q157.762,241.188 162.596,242.408 Q168.65,243.824 173.558,245.533 Q178.465,247.242 181.907,249.684 Q185.35,252.125 187.278,255.86 Q189.207,259.596 189.207,265.016 z" fill="#000000"/>
    <path d="M247.996,226.881 L232.176,226.881 L232.176,278.883 Q232.176,283.375 230.174,285.548 Q228.172,287.721 224.998,287.721 Q221.775,287.721 219.749,285.523 Q217.723,283.326 217.723,278.883 L217.723,226.881 L201.902,226.881 Q198.191,226.881 196.385,225.245 Q194.578,223.609 194.578,220.924 Q194.578,218.141 196.458,216.529 Q198.338,214.918 201.902,214.918 L247.996,214.918 Q251.756,214.918 253.587,216.578 Q255.418,218.238 255.418,220.924 Q255.418,223.609 253.562,225.245 Q251.707,226.881 247.996,226.881 z" fill="#000000"/>
    <path d="M309.812,278.395 L306.395,269.41 L277.293,269.41 L273.875,278.59 Q271.873,283.961 270.457,285.841 Q269.041,287.721 265.818,287.721 Q263.084,287.721 260.984,285.719 Q258.885,283.717 258.885,281.178 Q258.885,279.713 259.373,278.15 Q259.861,276.588 260.984,273.805 L279.295,227.32 Q280.076,225.318 281.175,222.511 Q282.273,219.703 283.519,217.848 Q284.764,215.992 286.79,214.845 Q288.816,213.697 291.795,213.697 Q294.822,213.697 296.849,214.845 Q298.875,215.992 300.12,217.799 Q301.365,219.605 302.22,221.681 Q303.074,223.756 304.393,227.223 L323.094,273.414 Q325.291,278.688 325.291,281.08 Q325.291,283.57 323.216,285.646 Q321.141,287.721 318.211,287.721 Q316.502,287.721 315.281,287.11 Q314.061,286.5 313.23,285.45 Q312.4,284.4 311.448,282.228 Q310.496,280.055 309.812,278.395 z M281.102,258.521 L302.488,258.521 L291.697,228.98 z" fill="#000000"/>
    <path d="M355.418,255.885 L350.34,255.885 L350.34,278.883 Q350.34,283.424 348.338,285.572 Q346.336,287.721 343.113,287.721 Q339.646,287.721 337.742,285.475 Q335.838,283.229 335.838,278.883 L335.838,223.805 Q335.838,219.117 337.938,217.018 Q340.037,214.918 344.725,214.918 L368.309,214.918 Q373.191,214.918 376.658,215.333 Q380.125,215.748 382.908,217.018 Q386.277,218.434 388.865,221.07 Q391.453,223.707 392.796,227.198 Q394.139,230.689 394.139,234.596 Q394.139,242.604 389.622,247.389 Q385.105,252.174 375.926,254.176 Q379.783,256.227 383.299,260.23 Q386.814,264.234 389.573,268.751 Q392.332,273.268 393.87,276.905 Q395.408,280.543 395.408,281.91 Q395.408,283.326 394.505,284.718 Q393.602,286.109 392.039,286.915 Q390.477,287.721 388.426,287.721 Q385.984,287.721 384.324,286.573 Q382.664,285.426 381.468,283.668 Q380.271,281.91 378.221,278.492 L372.41,268.824 Q369.285,263.502 366.819,260.719 Q364.354,257.936 361.814,256.91 Q359.275,255.885 355.418,255.885 z M363.719,225.807 L350.34,225.807 L350.34,245.484 L363.328,245.484 Q368.553,245.484 372.117,244.581 Q375.682,243.678 377.562,241.505 Q379.441,239.332 379.441,235.523 Q379.441,232.545 377.928,230.274 Q376.414,228.004 373.729,226.881 Q371.189,225.807 363.719,225.807 z" fill="#000000"/>
    <path d="M454.344,226.881 L438.523,226.881 L438.523,278.883 Q438.523,283.375 436.521,285.548 Q434.52,287.721 431.346,287.721 Q428.123,287.721 426.097,285.523 Q424.07,283.326 424.07,278.883 L424.07,226.881 L408.25,226.881 Q404.539,226.881 402.732,225.245 Q400.926,223.609 400.926,220.924 Q400.926,218.141 402.806,216.529 Q404.686,214.918 408.25,214.918 L454.344,214.918 Q458.104,214.918 459.935,216.578 Q461.766,218.238 461.766,220.924 Q461.766,223.609 459.91,225.245 Q458.055,226.881 454.344,226.881 z" fill="#000000"/>
  </g>
</svg>
