<svg id="Layer_3" height="512" viewBox="0 0 64 64" width="512" xmlns="http://www.w3.org/2000/svg" data-name="Layer 3"><path d="m51 57.5v4.5h4v-4.497" fill="#53bded"/><path d="m53 57.502h2v4.498h-2z" fill="#acdcf7"/><path d="m51 34.5v-15.5a13 13 0 0 0 -13-13h-17a3 3 0 0 0 -3 3h-4a7 7 0 0 1 7-7h17a17 17 0 0 1 17 17v15.5z" fill="#9a9b9f"/><path d="m13 9h6v5.515h-6z" fill="#29678c"/><path d="m15 9h4v5.515h-4z" fill="#317ab0"/><path d="m26 62h-20a2 2 0 0 1 -2-2 2 2 0 0 1 2-2h1v-35a9 9 0 0 1 9-9 9 9 0 0 1 9 9v35h1a2 2 0 0 1 2 2 2 2 0 0 1 -2 2z" fill="#53bded"/><path d="m28 60a2 2 0 0 0 -2-2h-1v-35a9 9 0 0 0 -7-8.769 9 9 0 0 0 -7 8.769v35h-1a2 2 0 1 0 0 4h16a2 2 0 0 0 2-2z" fill="#acdcf7"/><rect fill="#29678c" height="4" rx="2" width="24" x="4" y="58"/><path d="m28 60a2 2 0 0 0 -2-2h-16a2 2 0 0 0 0 4h16a2 2 0 0 0 2-2z" fill="#317ab0"/><path d="m37 5h-17a6.987 6.987 0 0 0 -5.966 3.354c-.021.213-.034.428-.034.646h4a3 3 0 0 1 3-3h17a13 13 0 0 1 13 13v15.5h3v-12.5a17 17 0 0 0 -17-17z" fill="#77787c"/><path d="m49 26h8v4h-8z" fill="#53bded"/><path d="m51 26h6v4h-6z" fill="#acdcf7"/><ellipse cx="53" cy="46" fill="#29678c" rx="7" ry="12"/><path d="m53 34a4.529 4.529 0 0 0 -2.487.794 16.435 16.435 0 0 0 -2.513 9.206c0 6.627 3.134 12 7 12a4.529 4.529 0 0 0 2.487-.794 16.435 16.435 0 0 0 2.513-9.206c0-6.627-3.134-12-7-12z" fill="#317ab0"/><path d="m13.069 8h-.069a1 1 0 0 0 -1 1v4.841a10.01 10.01 0 0 0 -6 9.159v34a3 3 0 0 0 0 6h20a3 3 0 0 0 0-6v-34a10.01 10.01 0 0 0 -6-9.159v-4.841a.986.986 0 0 0 -.749-.949 1.991 1.991 0 0 1 1.749-1.051h17a12.013 12.013 0 0 1 12 12v6h-1a1 1 0 0 0 -1 1v4a1 1 0 0 0 1 1h1v2.923c-2.956 1.892-5 6.522-5 12.077s2.044 10.185 5 12.077v3.923a1 1 0 0 0 1 1h4a1 1 0 0 0 1-1v-3.923c2.956-1.892 5-6.522 5-12.077s-2.044-10.185-5-12.077v-2.923h1a1 1 0 0 0 1-1v-4a1 1 0 0 0 -1-1h-1v-6a18.021 18.021 0 0 0 -18-18h-17a7.984 7.984 0 0 0 -7.93 7zm13.931 52a1 1 0 0 1 -1 1h-20a1 1 0 1 1 0-2h20a1 1 0 0 1 1 1zm-3-37v34h-16v-3h8v-2h-8v-2h3v-2h-3v-2h8v-2h-8v-2h3v-2h-3v-2h8v-2h-8v-2h3v-2h-3v-2h8v-2h-8v-2h3v-2h-3v-1a8 8 0 0 1 16 0zm-8-10a9.983 9.983 0 0 0 -2 .2v-3.2h4v3.2a9.983 9.983 0 0 0 -2-.2zm38 48h-2v-2.107a4.726 4.726 0 0 0 2 0zm5-15c0 5.963-2.748 11-6 11s-6-5.037-6-11 2.748-11 6-11 6 5.037 6 11zm-5-12.893a4.726 4.726 0 0 0 -2 0v-2.107h2zm2-4.107h-6v-2h6zm-35-26h17a16.019 16.019 0 0 1 16 16v6h-2v-6a14.015 14.015 0 0 0 -14-14h-17a4 4 0 0 0 -3.858 3h-2.053a5.987 5.987 0 0 1 5.911-5z"/></svg>