<?xml version="1.0" encoding="UTF-8"?>
<!DOCTYPE svg PUBLIC "-//W3C//DTD SVG 1.1//EN" "http://www.w3.org/Graphics/SVG/1.1/DTD/svg11.dtd">
<svg version="1.1" xmlns="http://www.w3.org/2000/svg" x="0" y="0" width="512" height="512"
     viewBox="0, 0, 512, 512">
  <g id="Background">
    <rect x="0" y="0" width="512" height="512" fill="#000000" fill-opacity="0"/>
  </g>
  <defs>
    <linearGradient id="Gradient_1" gradientUnits="userSpaceOnUse" x1="-47.015" y1="642.259" x2="-21.877" y2="630.537" gradientTransform="matrix(21.333, 0, 0, -21.333, 996.333, 13791.667)">
      <stop offset="0" stop-color="#FFFFFF" stop-opacity="0.2"/>
      <stop offset="1" stop-color="#FFFFFF" stop-opacity="0"/>
    </linearGradient>
  </defs>
  <g id="Layer_1">
    <path d="M469.333,170.667 L469.333,85.333 C469.333,61.802 450.187,42.666 426.666,42.666 L42.666,42.666 C19.146,42.667 -0,61.802 -0,85.333 L-0,170.666 C-0,183.471 5.786,194.84 14.746,202.666 C5.786,210.492 -0,221.862 -0,234.667 L-0,320 C-0,343.531 19.146,362.667 42.667,362.667 L426.667,362.667 C450.188,362.667 469.334,343.532 469.334,320 L469.334,234.667 C469.334,221.862 463.548,210.493 454.588,202.667 C463.547,194.841 469.333,183.471 469.333,170.667 z" fill="#303C42" opacity="0.502"/>
    <g>
      <path d="M448,234.667 L448,320 C448,331.76 438.437,341.333 426.667,341.333 L42.667,341.333 C30.896,341.333 21.334,331.76 21.334,320 L21.334,234.667 C21.334,222.907 30.897,213.334 42.667,213.334 L426.667,213.334 C438.438,213.333 448,222.906 448,234.667 z" fill="#E6E6E6"/>
      <path d="M42.667,192 C30.896,192 21.334,182.427 21.334,170.667 L21.334,85.333 C21.333,73.573 30.896,64 42.667,64 L426.667,64 C438.438,64 448,73.573 448,85.333 L448,170.666 C448,182.426 438.437,191.999 426.667,191.999 L42.667,191.999 z" fill="#E6E6E6"/>
    </g>
    <path d="M426.667,213.333 L407.466,213.333 C418.06,213.333 426.667,222.906 426.667,234.666 L426.667,320 C426.667,331.76 418.06,341.333 407.466,341.333 L426.667,341.333 C438.438,341.333 448,331.76 448,320 L448,234.667 C448,222.906 438.438,213.333 426.667,213.333 z" fill="#000000" opacity="0.1"/>
    <g>
      <path d="M42.667,320 L42.667,234.667 C42.667,222.907 51.274,213.334 61.868,213.334 L42.667,213.334 C30.896,213.334 21.334,222.907 21.334,234.667 L21.334,320 C21.334,331.76 30.897,341.333 42.667,341.333 L61.868,341.333 C51.273,341.333 42.667,331.76 42.667,320 z" fill="#FFFFFF" opacity="0.2"/>
      <path d="M42.667,170.667 L42.667,85.333 C42.667,73.573 51.273,64 61.867,64 L42.667,64 C30.896,64 21.334,73.573 21.334,85.333 L21.334,170.666 C21.334,182.426 30.897,191.999 42.667,191.999 L61.868,191.999 C51.273,192 42.667,182.427 42.667,170.667 z" fill="#FFFFFF" opacity="0.2"/>
    </g>
    <path d="M426.667,64 L407.466,64 C418.06,64 426.667,73.573 426.667,85.333 L426.667,170.666 C426.667,182.426 418.06,191.999 407.466,191.999 L426.667,191.999 C438.438,191.999 448,182.426 448,170.666 L448,85.333 C448,73.573 438.438,64 426.667,64 z" fill="#000000" opacity="0.1"/>
    <g opacity="0.502">
      <path d="M74.667,170.667 C68.771,170.667 64,165.896 64,160 L64,96 C64,90.104 68.771,85.333 74.667,85.333 C80.563,85.333 85.334,90.104 85.334,96 L85.334,160 C85.333,165.896 80.563,170.667 74.667,170.667 z" fill="#303C42"/>
      <path d="M117.333,170.667 C111.437,170.667 106.666,165.896 106.666,160 L106.666,96 C106.666,90.104 111.437,85.333 117.333,85.333 C123.229,85.333 128,90.104 128,96 L128,160 C128,165.896 123.229,170.667 117.333,170.667 z" fill="#303C42"/>
      <path d="M160,170.667 C154.104,170.667 149.333,165.896 149.333,160 L149.333,96 C149.333,90.104 154.104,85.333 160,85.333 C165.896,85.333 170.667,90.104 170.667,96 L170.667,160 C170.667,165.896 165.896,170.667 160,170.667 z" fill="#303C42"/>
      <path d="M74.667,320 C68.771,320 64,315.229 64,309.333 L64,245.333 C64,239.437 68.771,234.666 74.667,234.666 C80.563,234.666 85.334,239.437 85.334,245.333 L85.334,309.333 C85.333,315.229 80.563,320 74.667,320 z" fill="#303C42"/>
      <path d="M117.333,320 C111.437,320 106.666,315.229 106.666,309.333 L106.666,245.333 C106.666,239.437 111.437,234.666 117.333,234.666 C123.229,234.666 128,239.438 128,245.333 L128,309.333 C128,315.229 123.229,320 117.333,320 z" fill="#303C42"/>
      <path d="M160,320 C154.104,320 149.333,315.229 149.333,309.333 L149.333,245.333 C149.333,239.437 154.104,234.666 160,234.666 C165.896,234.666 170.667,239.437 170.667,245.333 L170.667,309.333 C170.667,315.229 165.896,320 160,320 z" fill="#303C42"/>
      <path d="M405.333,128 C405.333,139.782 395.782,149.333 384,149.333 C372.218,149.333 362.667,139.782 362.667,128 C362.667,116.218 372.218,106.667 384,106.667 C395.782,106.667 405.333,116.218 405.333,128 z" fill="#303C42"/>
      <path d="M341.333,128 C341.333,139.782 331.782,149.333 320,149.333 C308.218,149.333 298.667,139.782 298.667,128 C298.667,116.218 308.218,106.667 320,106.667 C331.782,106.667 341.333,116.218 341.333,128 z" fill="#303C42"/>
      <path d="M405.333,277.333 C405.333,289.115 395.782,298.666 384,298.666 C372.218,298.666 362.667,289.115 362.667,277.333 C362.667,265.551 372.218,256 384,256 C395.782,256 405.333,265.551 405.333,277.333 z" fill="#303C42"/>
      <path d="M341.333,277.333 C341.333,289.115 331.782,298.666 320,298.666 C308.218,298.666 298.667,289.115 298.667,277.333 C298.667,265.551 308.218,256 320,256 C331.782,256 341.333,265.551 341.333,277.333 z" fill="#303C42"/>
    </g>
    <path d="M512,352 C512,416.801 459.468,469.333 394.667,469.333 C329.866,469.333 277.334,416.801 277.334,352 C277.334,287.199 329.866,234.667 394.667,234.667 C459.468,234.667 512,287.199 512,352 z" fill="#303C42"/>
    <path d="M490.667,352 C490.667,405.019 447.686,448 394.667,448 C341.648,448 298.667,405.019 298.667,352 C298.667,298.981 341.648,256 394.667,256 C447.686,256 490.667,298.981 490.667,352 z" fill="#959595"/>
    <path d="M437.333,341.333 L352,341.333 C346.104,341.333 341.333,346.104 341.333,352 C341.333,357.896 346.104,362.667 352,362.667 L437.333,362.667 C443.229,362.667 448,357.896 448,352 C448,346.104 443.229,341.333 437.333,341.333 z" fill="#303C42"/>
    <path d="M469.333,261.561 L469.333,234.666 C469.333,221.861 463.547,210.492 454.587,202.666 C463.547,194.84 469.333,183.471 469.333,170.666 L469.333,85.333 C469.333,61.802 450.187,42.666 426.666,42.666 L42.666,42.666 C19.146,42.667 0,61.802 0,85.333 L0,170.666 C0,183.471 5.786,194.84 14.746,202.666 C5.786,210.492 0,221.862 0,234.667 L0,320 C0,343.531 19.146,362.667 42.667,362.667 L277.874,362.667 C283.288,422.378 333.569,469.334 394.667,469.334 C459.365,469.333 512,416.698 512,352 C512,315.643 495.376,283.1 469.333,261.561 z" fill="url(#Gradient_1)"/>
  </g>
</svg>
