<?xml version="1.0" encoding="UTF-8"?>
<!DOCTYPE svg PUBLIC "-//W3C//DTD SVG 1.1//EN" "http://www.w3.org/Graphics/SVG/1.1/DTD/svg11.dtd">
<svg version="1.1" xmlns="http://www.w3.org/2000/svg" xmlns:xlink="http://www.w3.org/1999/xlink" x="0" y="0" width="650" height="500" viewBox="0, 0, 650, 500">
  <g id="Layer_1">
    <g id="n-fee-hk">
      <path d="M543.5,93.123 L509.771,93.123 C502.878,93.123 497.271,98.73 497.271,105.623 L497.271,140.301 C497.271,147.194 502.878,152.801 509.771,152.801 L518.643,152.801 L518.643,190.952 L413.808,190.952 L413.808,161.274 L443.98,161.274 C450.873,161.274 456.48,155.667 456.48,148.774 L456.48,92.717 L465.089,92.717 C471.982,92.717 477.589,87.11 477.589,80.217 L477.589,45.539 C477.589,38.647 471.982,33.039 465.089,33.039 L431.36,33.039 C424.467,33.039 418.86,38.647 418.86,45.539 L418.86,80.216 C418.86,87.109 424.467,92.716 431.36,92.716 L441.48,92.716 L441.48,146.273 L413.808,146.273 L413.808,116.406 C413.808,109.513 408.201,103.906 401.308,103.906 L373.36,103.906 L373.36,70.045 C373.36,65.903 370.002,62.545 365.86,62.545 C361.718,62.545 358.36,65.903 358.36,70.045 L358.36,103.906 L329.454,103.906 L329.454,70.045 C329.454,65.903 326.096,62.545 321.954,62.545 C317.812,62.545 314.454,65.903 314.454,70.045 L314.454,103.906 L285.548,103.906 L285.548,70.045 C285.548,65.903 282.19,62.545 278.048,62.545 C273.906,62.545 270.548,65.903 270.548,70.045 L270.548,103.906 L241.642,103.906 L241.642,70.045 C241.642,65.903 238.284,62.545 234.142,62.545 C230,62.545 226.642,65.903 226.642,70.045 L226.642,103.906 L198.694,103.906 C191.801,103.906 186.194,109.513 186.194,116.406 L186.194,146.273 L158.522,146.273 L158.522,92.716 L168.642,92.716 C175.535,92.716 181.142,87.109 181.142,80.216 L181.142,45.539 C181.142,38.647 175.535,33.039 168.642,33.039 L134.911,33.039 C128.018,33.039 122.411,38.647 122.411,45.539 L122.411,80.216 C122.411,87.109 128.018,92.716 134.911,92.716 L143.52,92.716 L143.52,148.773 C143.52,155.666 149.127,161.273 156.02,161.273 L186.192,161.273 L186.192,190.951 L81.358,190.951 L81.358,152.8 L90.23,152.8 C97.123,152.8 102.73,147.193 102.73,140.3 L102.73,105.622 C102.73,98.729 97.123,93.122 90.23,93.122 L56.5,93.122 C49.607,93.122 44,98.729 44,105.622 L44,140.3 C44,147.193 49.607,152.8 56.5,152.8 L66.358,152.8 L66.358,193.451 C66.358,200.344 71.965,205.951 78.858,205.951 L186.193,205.951 L186.193,232.548 L156,232.548 C151.858,232.548 148.5,235.906 148.5,240.048 C148.5,244.19 151.858,247.548 156,247.548 L186.192,247.548 L186.192,278.765 L156.022,278.765 C149.129,278.765 143.522,284.372 143.522,291.265 L143.522,347.322 L134.911,347.322 C128.018,347.322 122.411,352.93 122.411,359.822 L122.411,394.5 C122.411,401.393 128.018,407 134.911,407 L168.64,407 C175.533,407 181.14,401.393 181.14,394.5 L181.14,359.822 C181.14,352.93 175.533,347.322 168.64,347.322 L158.521,347.322 L158.521,293.765 L186.191,293.765 L186.191,323.632 C186.191,330.525 191.798,336.132 198.691,336.132 L226.639,336.132 L226.639,369.993 C226.639,374.135 229.997,377.493 234.139,377.493 C238.281,377.493 241.639,374.135 241.639,369.993 L241.639,336.132 L270.545,336.132 L270.545,369.993 C270.545,374.135 273.903,377.493 278.045,377.493 C282.187,377.493 285.545,374.135 285.545,369.993 L285.545,336.132 L314.451,336.132 L314.451,369.993 C314.451,374.135 317.809,377.493 321.951,377.493 C326.093,377.493 329.451,374.135 329.451,369.993 L329.451,336.132 L358.357,336.132 L358.357,369.993 C358.357,374.135 361.715,377.493 365.857,377.493 C369.999,377.493 373.357,374.135 373.357,369.993 L373.357,336.132 L401.305,336.132 C408.198,336.132 413.805,330.525 413.805,323.632 L413.805,293.765 L441.475,293.765 L441.475,347.322 L431.356,347.322 C424.463,347.322 418.856,352.93 418.856,359.822 L418.856,394.5 C418.856,401.393 424.463,407 431.356,407 L465.085,407 C471.978,407 477.585,401.393 477.585,394.5 L477.585,359.822 C477.585,352.93 471.978,347.322 465.085,347.322 L456.474,347.322 L456.474,291.265 C456.474,284.372 450.867,278.765 443.974,278.765 L413.804,278.765 L413.804,247.548 L445,247.548 C449.142,247.548 452.5,244.19 452.5,240.048 C452.5,235.906 449.142,232.548 445,232.548 L413.808,232.548 L413.808,205.951 L521.142,205.951 C528.035,205.951 533.642,200.344 533.642,193.451 L533.642,152.8 L543.5,152.8 C550.393,152.8 556,147.193 556,140.3 L556,105.622 C556,98.73 550.393,93.123 543.5,93.123 z M433.859,77.716 L433.859,48.039 L462.588,48.039 L462.588,77.716 L433.859,77.716 z M137.411,77.716 L137.411,48.039 L166.14,48.039 L166.14,77.716 L137.411,77.716 z M59,137.801 L59,108.123 L87.729,108.123 L87.729,137.801 L59,137.801 z M166.14,362.323 L166.14,392.001 L137.411,392.001 L137.411,362.323 L166.14,362.323 z M201.192,321.132 L201.192,118.907 L398.807,118.907 L398.807,321.132 L201.192,321.132 z M462.589,362.323 L462.589,392.001 L433.86,392.001 L433.86,362.323 L462.589,362.323 z M541,137.801 L512.271,137.801 L512.271,108.123 L541,108.123 L541,137.801 z" fill="#000000"/>
      <path d="M543.5,285.699 L533.642,285.699 L533.642,245.048 C533.642,238.155 528.035,232.548 521.142,232.548 L487,232.548 C482.858,232.548 479.5,235.906 479.5,240.048 C479.5,244.19 482.858,247.548 487,247.548 L518.642,247.548 L518.642,285.699 L509.77,285.699 C502.877,285.699 497.27,291.306 497.27,298.199 L497.27,332.876 C497.27,339.769 502.877,345.376 509.77,345.376 L543.5,345.376 C550.393,345.376 556,339.769 556,332.876 L556,298.199 C556,291.307 550.393,285.699 543.5,285.699 z M541,330.376 L512.271,330.376 L512.271,300.699 L541,300.699 L541,330.376 z" fill="#000000"/>
      <path d="M114,232.549 L78.858,232.549 C71.965,232.549 66.358,238.156 66.358,245.049 L66.358,285.7 L56.5,285.7 C49.607,285.7 44,291.307 44,298.2 L44,332.877 C44,339.77 49.607,345.377 56.5,345.377 L90.229,345.377 C97.122,345.377 102.729,339.77 102.729,332.877 L102.729,298.2 C102.729,291.307 97.122,285.7 90.229,285.7 L81.357,285.7 L81.357,247.549 L114,247.549 C118.142,247.549 121.5,244.191 121.5,240.049 C121.5,235.906 118.142,232.549 114,232.549 z M87.729,300.699 L87.729,330.376 L59,330.376 L59,300.699 L87.729,300.699 z" fill="#000000"/>
      <path d="M361.07,193.52 C365.212,193.52 368.57,190.162 368.57,186.02 L368.57,162.625 C368.57,155.732 362.963,150.125 356.07,150.125 L243.93,150.125 C237.037,150.125 231.43,155.732 231.43,162.625 L231.43,277.415 C231.43,284.308 237.037,289.915 243.93,289.915 L356.07,289.915 C362.963,289.915 368.57,284.308 368.57,277.415 L368.57,230.02 C368.57,225.878 365.212,222.52 361.07,222.52 C356.928,222.52 353.57,225.878 353.57,230.02 L353.57,274.915 L292.232,274.915 L292.232,235.619 C292.232,231.477 288.874,228.119 284.732,228.119 L246.43,228.119 L246.43,165.125 L353.57,165.125 L353.57,186.02 C353.57,190.162 356.928,193.52 361.07,193.52 z M277.232,243.119 L277.232,274.915 L246.43,274.915 L246.43,243.119 L277.232,243.119 z" fill="#000000"/>
    </g>
    <path d="M614,387 C614,428.421 580.421,462 539,462 C497.579,462 464,428.421 464,387 C464,345.579 497.579,312 539,312 C580.421,312 614,345.579 614,387 z" fill="#303C42"/>
    <path d="M559.221,356.598 L508.598,407.221 C505.101,410.718 504.427,415.705 507.092,418.37 C509.757,421.035 514.743,420.361 518.241,416.863 L568.863,366.241 C572.361,362.743 573.035,357.757 570.37,355.092 C567.705,352.427 562.718,353.101 559.221,356.598 z" fill="#303C42"/>
    <path d="M568.863,407.221 L518.241,356.598 C514.743,353.101 509.757,352.427 507.092,355.092 C504.427,357.757 505.101,362.743 508.598,366.241 L559.221,416.863 C562.718,420.361 567.705,421.035 570.37,418.37 C573.035,415.705 572.361,410.718 568.863,407.221 z" fill="#303C42"/>
    <path d="M567.724,357.998 L524.817,400.904 L509.183,385.271 C506.52,382.607 502.205,382.607 499.542,385.271 C496.879,387.934 496.879,392.249 499.542,394.912 L519.997,415.366 C521.328,416.698 523.073,417.364 524.818,417.364 C526.562,417.364 528.307,416.698 529.639,415.366 L577.366,367.639 C580.03,364.975 580.03,360.66 577.366,357.998 C574.702,355.335 570.387,355.335 567.724,357.998 z" fill="#303C42"/>
    <g>
      <path d="M614,386.682 C614,428.103 580.421,461.682 539,461.682 C497.579,461.682 464,428.103 464,386.682 C464,345.261 497.579,311.682 539,311.682 C580.421,311.682 614,345.261 614,386.682 z" fill="#303C42"/>
      <path d="M539,328.44 L539,444.925 C571.166,444.925 597.242,418.849 597.242,386.682 C597.242,354.516 571.166,328.44 539,328.44 z" fill="#D41915"/>
      <path d="M590.211,386.682 C590.211,354.516 567.283,328.44 539,328.44 C506.834,328.44 480.758,354.516 480.758,386.682 C480.758,418.849 506.834,444.925 539,444.925 C567.283,444.925 590.211,418.849 590.211,386.682 z" fill="#FF3636"/>
      <path d="M558.043,360.841 L551.012,360.841 L551.012,412.524 L558.043,412.524 C561.927,412.524 565.075,409.376 565.075,405.492 L565.075,367.872 C565.075,363.989 561.927,360.841 558.043,360.841 z" fill="#FFD8D8"/>
      <path d="M558.043,405.493 L558.043,367.872 C558.043,363.989 554.896,360.841 551.012,360.841 L520.423,360.841 C516.54,360.841 513.392,363.989 513.392,367.872 L513.392,405.492 C513.392,409.376 516.54,412.524 520.423,412.524 L551.012,412.524 C554.896,412.524 558.043,409.376 558.043,405.493 z" fill="#FFFFFF"/>
      <path d="M581.427,344.256 C570.094,332.924 555.027,326.682 539,326.682 C522.973,326.682 507.906,332.924 496.573,344.256 C485.241,355.589 479,370.656 479,386.682 C479,402.709 485.241,417.776 496.573,429.109 C507.906,440.441 522.973,446.682 539,446.682 C555.027,446.682 570.094,440.441 581.427,429.109 C592.759,417.776 599,402.709 599,386.682 C599,370.656 592.759,355.589 581.427,344.256 z M539,443.167 C507.854,443.167 482.516,417.828 482.516,386.682 C482.516,355.537 507.854,330.198 539,330.198 C570.146,330.198 595.484,355.537 595.484,386.682 C595.484,417.828 570.146,443.167 539,443.167 z" fill="#000000"/>
      <path d="M558.043,359.083 L520.423,359.083 C515.577,359.083 511.634,363.026 511.634,367.872 L511.634,383.167 C511.634,384.138 512.421,384.925 513.392,384.925 C514.363,384.925 515.15,384.138 515.15,383.167 L515.15,367.872 C515.15,364.964 517.515,362.599 520.423,362.599 L558.043,362.599 C560.951,362.599 563.317,364.964 563.317,367.872 L563.317,405.493 C563.317,408.401 560.951,410.766 558.043,410.766 L520.423,410.766 C517.515,410.766 515.15,408.401 515.15,405.493 L515.15,390.198 C515.15,389.227 514.363,388.44 513.392,388.44 C512.421,388.44 511.634,389.227 511.634,390.198 L511.634,405.493 C511.634,410.339 515.577,414.282 520.423,414.282 L558.043,414.282 C562.89,414.282 566.833,410.339 566.833,405.493 L566.833,367.872 C566.833,363.026 562.89,359.083 558.043,359.083 z" fill="#000000"/>
    </g>
  </g>
</svg>
