<svg height="512" viewBox="0 0 32 32" width="512" xmlns="http://www.w3.org/2000/svg"><g id="Arrow_FilledOutline" data-name="Arrow FilledOutline"><path d="m25.9912 22.4838-4.537-.5041a1.3208 1.3208 0 0 0 -1.08.3787l-.0015.0015a1.2118 1.2118 0 0 0 .6288 2.047l.9579.1873a10.3361 10.3361 0 0 1 -5.9813 1.877 10.4567 10.4567 0 0 1 -10.1031-13.127 1.5 1.5 0 0 0 -2.9-.7685 13.4332 13.4332 0 0 0 21.36 13.9607l.2924 1.4955a1.2117 1.2117 0 0 0 2.0468.6288l.0016-.0016a1.3206 1.3206 0 0 0 .3787-1.08l-.5045-4.5365a.6326.6326 0 0 0 -.5588-.5588z" fill="#ff5964"/><path d="m16.0215 2.5288a13.4916 13.4916 0 0 0 -8.3561 2.9348l-.2924-1.4955a1.2117 1.2117 0 0 0 -2.0468-.6288l-.0016.0016a1.3206 1.3206 0 0 0 -.3787 1.08l.5041 4.5365a.6326.6326 0 0 0 .5588.5588l4.537.5041a1.3208 1.3208 0 0 0 1.08-.3787l.0015-.0015a1.2118 1.2118 0 0 0 -.6288-2.047l-.9585-.1872a10.3362 10.3362 0 0 1 5.9813-1.8771 10.4567 10.4567 0 0 1 10.1037 13.127 1.5008 1.5008 0 0 0 1.0664 1.8342 1.52 1.52 0 0 0 .3848.05 1.5007 1.5007 0 0 0 1.4492-1.1162 13.4584 13.4584 0 0 0 -13.0039-16.895z" fill="#ff5964"/><g fill="#232526"><path d="m15.9785 29.9712a13.9585 13.9585 0 0 1 -13.4873-17.5234 2 2 0 0 1 3.8672 1.0244 9.96 9.96 0 0 0 14.2764 11.35 1.7122 1.7122 0 0 1 -.6153-2.8155 1.8244 1.8244 0 0 1 1.4893-.5239l4.5381.5044a1.126 1.126 0 0 1 1 1.001l.5039 4.5366a1.81 1.81 0 0 1 -.5215 1.4878 1.7117 1.7117 0 0 1 -2.8936-.8867l-.1386-.7124a14.0039 14.0039 0 0 1 -8.0186 2.5577zm-11.55-18.01a1.0055 1.0055 0 0 0 -.9707.7427 12.9334 12.9334 0 0 0 20.5666 13.4406.5007.5007 0 0 1 .8018.2964l.292 1.4951a.7109.7109 0 0 0 1.2021.3711.8142.8142 0 0 0 .2363-.6714l-.5039-4.538a.1327.1327 0 0 0 -.1172-.1167l-4.5371-.5044a.8073.8073 0 0 0 -.67.2348.7119.7119 0 0 0 .3672 1.2041l.96.188a.5.5 0 0 1 .1914.9 10.8467 10.8467 0 0 1 -6.2686 1.9678 10.9573 10.9573 0 0 1 -10.5868-13.7555.9966.9966 0 0 0 -.9629-1.2549z"/><path d="m27.5762 21.0405a2.03 2.03 0 0 1 -.5108-.0664 2.0035 2.0035 0 0 1 -1.4238-2.4463 9.96 9.96 0 0 0 -14.2764-11.35 1.712 1.712 0 0 1 .6153 2.8155 1.8223 1.8223 0 0 1 -1.4893.5239l-4.5381-.5044a1.126 1.126 0 0 1 -1-1.001l-.5039-4.5362a1.81 1.81 0 0 1 .5215-1.4878 1.7117 1.7117 0 0 1 2.8936.8867l.1386.7124a13.9434 13.9434 0 0 1 21.5059 14.9653 2 2 0 0 1 -1.9326 1.4883zm-11.5547-16.0117a10.9573 10.9573 0 0 1 10.5869 13.7554 1 1 0 0 0 1.9336.5122 12.9334 12.9334 0 0 0 -20.5664-13.4409.5007.5007 0 0 1 -.8018-.2964l-.292-1.4951a.7109.7109 0 0 0 -1.2018-.3711.8142.8142 0 0 0 -.2363.6714l.5039 4.538a.1327.1327 0 0 0 .1172.1167l4.5371.5044a.8268.8268 0 0 0 .67-.2348.7119.7119 0 0 0 -.3672-1.2041l-.96-.188a.5.5 0 0 1 -.1914-.9 10.8467 10.8467 0 0 1 6.2682-1.9677z"/></g></g></svg>