<svg id="icons" height="512" viewBox="0 0 60 60" width="512" xmlns="http://www.w3.org/2000/svg"><path d="m59 9v47a3 3 0 0 1 -3 3h-52a3 3 0 0 1 -3-3v-47l1-1h56z" fill="#e4f1ff"/><path d="m59 4v5h-58v-5a3 3 0 0 1 3-3h52a3 3 0 0 1 3 3z" fill="#6e7689"/><path d="m24 20v12.777a5.153 5.153 0 0 1 -4.5 5.2 5.007 5.007 0 0 1 -5.5-4.977v-13a2 2 0 0 0 -2-2 2 2 0 0 0 -2 2v13a9 9 0 0 0 9 9 9 9 0 0 0 9-9v-13a2 2 0 0 0 -2-2 2 2 0 0 0 -2 2z" fill="#69c784"/><path d="m49.992 39.823a2.012 2.012 0 0 1 -1.992 2.177h-13.888a2.075 2.075 0 0 1 -2.1-1.823 2.012 2.012 0 0 1 1.988-2.177h4a1 1 0 0 0 1-1v-14a1 1 0 0 0 -1-1h-3.888a2.075 2.075 0 0 1 -2.1-1.823 2.012 2.012 0 0 1 1.988-2.177h13.888a2.075 2.075 0 0 1 2.1 1.823 2.012 2.012 0 0 1 -1.988 2.177h-4a1 1 0 0 0 -1 1v14a1 1 0 0 0 1 1h3.888a2.075 2.075 0 0 1 2.104 1.823z" fill="#69c784"/><rect fill="#b5cedd" height="4" rx="2" width="42" x="9" y="46"/><g fill="#373737"><path d="m56 0h-52a4 4 0 0 0 -4 4v9a1 1 0 0 0 2 0v-3h56v46a2 2 0 0 1 -2 2h-52a2 2 0 0 1 -2-2v-38a1 1 0 0 0 -2 0v38a4 4 0 0 0 4 4h52a4 4 0 0 0 4-4v-52a4 4 0 0 0 -4-4zm2 8h-56v-4a2 2 0 0 1 2-2h52a2 2 0 0 1 2 2z"/><path d="m6 4h-1a1 1 0 0 0 0 2h1a1 1 0 0 0 0-2z"/><path d="m11 4h-1a1 1 0 0 0 0 2h1a1 1 0 0 0 0-2z"/><path d="m16 4h-1a1 1 0 0 0 0 2h1a1 1 0 0 0 0-2z"/><path d="m55 4h-6a1 1 0 0 0 0 2h6a1 1 0 0 0 0-2z"/><path d="m12 17a3 3 0 0 0 -3 3v13a10 10 0 0 0 20 0v-13a3 3 0 0 0 -6 0v12.777a4.157 4.157 0 0 1 -3.6 4.2 4 4 0 0 1 -4.4-3.977v-13a3 3 0 0 0 -3-3zm7.6 21.971a6.173 6.173 0 0 0 5.4-6.194v-12.777a1 1 0 0 1 2 0v13a8 8 0 0 1 -16 0v-13a1 1 0 0 1 2 0v13a6.006 6.006 0 0 0 6.6 5.971z"/><path d="m34 37a3.037 3.037 0 0 0 -2.988 3.261 3.076 3.076 0 0 0 3.1 2.739h13.888a3 3 0 1 0 -.112-6h-3.888v-14h4a2.92 2.92 0 0 0 2.107-.873 2.963 2.963 0 0 0 .881-2.388 3.076 3.076 0 0 0 -3.1-2.739h-13.888a2.92 2.92 0 0 0 -2.107.873 2.963 2.963 0 0 0 -.881 2.388 3.076 3.076 0 0 0 3.1 2.739h3.888v14zm4-16h-3.888a1.083 1.083 0 0 1 -1.112-.908.979.979 0 0 1 .3-.8.959.959 0 0 1 .7-.292h13.888a1.083 1.083 0 0 1 1.112.908.979.979 0 0 1 -.3.8.959.959 0 0 1 -.7.292h-4a2 2 0 0 0 -2 2v14a2 2 0 0 0 2 2h3.888a1.083 1.083 0 0 1 1.112.908 1.023 1.023 0 0 1 -1 1.092h-13.888a1.083 1.083 0 0 1 -1.112-.908 1.018 1.018 0 0 1 1-1.092h4a2 2 0 0 0 2-2v-14a2 2 0 0 0 -2-2z"/><path d="m8 48a3 3 0 0 0 3 3h38a3 3 0 0 0 0-6h-38a3 3 0 0 0 -3 3zm3-1h38a1 1 0 0 1 0 2h-38a1 1 0 0 1 0-2z"/></g></svg>