<?xml version="1.0" encoding="UTF-8" standalone="no"?>
<svg
   viewBox="0 0 24 24"
   version="1.1"
   id="svg826"
   sodipodi:docname="nextcloud-download.svg"
   inkscape:version="1.1.2 (b8e25be8, 2022-02-05)"
   xmlns:inkscape="http://www.inkscape.org/namespaces/inkscape"
   xmlns:sodipodi="http://sodipodi.sourceforge.net/DTD/sodipodi-0.dtd"
   xmlns="http://www.w3.org/2000/svg"
   xmlns:svg="http://www.w3.org/2000/svg">
  <defs
     id="defs830" />
  <sodipodi:namedview
     id="namedview828"
     pagecolor="#ffffff"
     bordercolor="#666666"
     borderopacity="1.0"
     inkscape:pageshadow="2"
     inkscape:pageopacity="0.0"
     inkscape:pagecheckerboard="0"
     showgrid="false"
     inkscape:zoom="21.609764"
     inkscape:cx="10.342547"
     inkscape:cy="12.887693"
     inkscape:window-width="1920"
     inkscape:window-height="1027"
     inkscape:window-x="1728"
     inkscape:window-y="25"
     inkscape:window-maximized="1"
     inkscape:current-layer="svg826" />
  <path
     d="m 14.33736,16.834043 h 2.983346 v -2.012542 l 3.48057,3.521949 -3.48057,3.521949 V 19.852856 H 14.33736 Z m -1.988898,-2.012542 h 0.994448 v 7.043898 h -0.994448 z"
     id="path911"
     style="stroke-width:0.500171" />
  <g
     id="g1068"
     transform="translate(-0.00591316,0.113704)">
    <path
       d="m 12.007389,7.7341151 c -1.320623,0 -2.4299579,0.9043667 -2.7685674,2.1209346 C 8.9430009,9.2042397 8.2916664,8.7430752 7.5352106,8.7430752 a 1.8858577,1.8858577 0 0 0 -1.8763488,1.8768868 1.8858577,1.8858577 0 0 0 1.8763488,1.876877 c 0.7564558,0 1.4072614,-0.461692 1.703083,-1.112498 0.3386096,1.217092 1.4484724,2.121459 2.7690954,2.121459 1.313758,0 2.417275,-0.89433 2.76328,-2.100856 0.300576,0.639183 0.941873,1.091895 1.689348,1.091895 a 1.8858577,1.8858577 0 0 0 1.876878,-1.876877 1.8858577,1.8858577 0 0 0 -1.876878,-1.8768868 c -0.748004,0 -1.389301,0.4532402 -1.689876,1.0919021 C 14.424664,8.6284447 13.321147,7.7335862 12.007389,7.7341151 m 0,1.1014045 c 0.992053,0 1.78443,0.7923808 1.78443,1.7844424 0,0.992057 -0.792377,1.784434 -1.78443,1.784434 a 1.7749249,1.7749249 0 0 1 -1.783903,-1.784434 c 0,-0.9920616 0.79238,-1.7844424 1.783903,-1.7844424 M 7.5352106,9.8444855 c 0.4342223,0 0.7749453,0.3407255 0.7749453,0.7754765 0,0.434751 -0.3401941,0.774945 -0.7749453,0.775473 A 0.76596461,0.76596461 0 0 1 6.7602653,10.619962 0.76596461,0.76596461 0 0 1 7.5352106,9.8450135 Z m 8.9248064,0 c 0.434751,0 0.775473,0.3407255 0.775473,0.7754765 0,0.434751 -0.340722,0.775473 -0.775473,0.775473 a 0.76596461,0.76596461 0 0 1 -0.774944,-0.775473 0.76596461,0.76596461 0 0 1 0.774944,-0.7749485 z"
       id="path824"
       style="stroke-width:0.528252" />
    <path
       style="stroke-width:0.72578"
       d="M 9.9166081,17.807754 H 3.3845785 V 3.2921459 h 5.2256174 l 2.4676621,2.4676529 0.435468,0.4354682 h 9.289986 v 5.806244 h 1.451561 V 6.195267 c 0,-0.7983582 -0.653203,-1.4515605 -1.451561,-1.4515605 H 12.093949 L 9.6262926,2.2760538 C 9.3359784,1.9857417 8.9730857,1.8405856 8.6101959,1.8405856 H 3.3845785 c -0.7983586,0 -1.4515602,0.6532022 -1.4515602,1.4515603 V 17.807754 c 0,0.798358 0.6532016,1.451561 1.4515602,1.451561 h 6.5320296 c 0,0 0,-1.451561 0,-1.451561 z"
       id="path912" />
  </g>
</svg>
