<svg xmlns="http://www.w3.org/2000/svg" viewBox="0 0 95.85 95.85" width="95.85" height="95.85">
	<defs>
		<style>.cls-1,.cls-2{fill:#0079c1;}.cls-2{fill-rule:evenodd;}</style>
	</defs>
	<title>MHI Logo</title>
	<path class="cls-2" d="M80.45,49.7a29.69,29.69,0,0,1-3.57,13.35H67.39A50,50,0,0,0,69.53,49.7S80.43,49.71,80.45,49.7Z"/>
	<path class="cls-2" d="M53.24,65C51.78,75.38,49.33,80.08,48,80.08S44.24,75.38,42.76,65Z"/>
	<path class="cls-2" d="M54.32,49.69a118.78,118.78,0,0,1-.82,13.36l-11,0a118.84,118.84,0,0,1-.83-13.39Z"/>
	<path class="cls-2" d="M39.75,30.25V47.77H28.54C28.86,39.17,32.94,32.83,39.75,30.25Z"/>
	<path class="cls-2" d="M56.43,30.25c6.8,2.58,10.87,8.92,11.19,17.52H56.43Z"/>
	<path class="cls-2" d="M26.56,49.7A50,50,0,0,0,28.7,63.05H19.22A29.7,29.7,0,0,1,15.65,49.7S26.57,49.7,26.56,49.7Z"/>
	<path class="cls-2" d="M39.75,49.69a119.14,119.14,0,0,0,.84,13.36h-9.9a46.23,46.23,0,0,1-2.15-13.36S39.76,49.7,39.75,49.69Z"/>
	<path class="cls-2" d="M40.83,65c.95,6.74,2.38,11.86,4.07,14.62C39.33,78.08,34.34,72.71,31.39,65Z"/>
	<path class="cls-2" d="M29.35,65c2.23,6.13,5.71,10.94,9.83,13.87A32.74,32.74,0,0,1,20.36,65Z"/>
	<path class="cls-2" d="M67.6,49.69a46,46,0,0,1-2.15,13.36h-9.9a117.62,117.62,0,0,0,.85-13.36Z"/>
	<path class="cls-2" d="M64.76,65c-3,7.72-8,13.09-13.52,14.62,1.69-2.77,3.13-7.89,4.07-14.62Z"/>
	<path class="cls-2" d="M75.79,65A32.71,32.71,0,0,1,57,78.86c4.12-2.93,7.6-7.74,9.83-13.87Z"/>
	<path class="cls-2" d="M39.64.14V14.66a34.24,34.24,0,1,0,16.48-.12h0V0h0A48.24,48.24,0,1,1,39.59.14Z"/>
</svg>