<?xml version="1.0" encoding="UTF-8" standalone="no"?>
<!-- Created with Inkscape (http://www.inkscape.org/) -->

<svg
   width="400mm"
   height="400mm"
   viewBox="0 0 400 400"
   version="1.1"
   id="svg1"
   inkscape:version="1.4 (e7c3feb100, 2024-10-09)"
   sodipodi:docname="spin2-fixarrow.svg"
   xmlns:inkscape="http://www.inkscape.org/namespaces/inkscape"
   xmlns:sodipodi="http://sodipodi.sourceforge.net/DTD/sodipodi-0.dtd"
   xmlns="http://www.w3.org/2000/svg"
   xmlns:svg="http://www.w3.org/2000/svg">
  <sodipodi:namedview
     id="namedview1"
     pagecolor="#ffffff"
     bordercolor="#999999"
     borderopacity="1"
     inkscape:showpageshadow="2"
     inkscape:pageopacity="0"
     inkscape:pagecheckerboard="0"
     inkscape:deskcolor="#d1d1d1"
     inkscape:document-units="mm"
     inkscape:zoom="0.45605445"
     inkscape:cx="803.63211"
     inkscape:cy="772.93402"
     inkscape:window-width="1745"
     inkscape:window-height="1024"
     inkscape:window-x="0"
     inkscape:window-y="0"
     inkscape:window-maximized="1"
     inkscape:current-layer="layer1" />
  <defs
     id="defs1">
    <marker
       style="overflow:visible"
       id="ArrowWideRounded_Fnone_S-0000ff"
       refX="0"
       refY="0"
       orient="auto-start-reverse"
       inkscape:stockid="Wide, rounded arrow"
       markerWidth="1"
       markerHeight="1"
       viewBox="0 0 1 1"
       inkscape:isstock="true"
       inkscape:collect="always"
       preserveAspectRatio="xMidYMid">
      <path
         style="fill:none;stroke:#0000ff;stroke-width:1;stroke-linecap:round"
         d="M 3,-3 0,0 3,3"
         transform="rotate(180,0.125,0)"
         sodipodi:nodetypes="ccc"
         id="path3" />
    </marker>
  </defs>
  <g
     inkscape:label="Ebene 1"
     inkscape:groupmode="layer"
     id="layer1">
    <path
       id="path1"
       style="display:inline;fill:#e60026;stroke:#000000;stroke-width:0.445055;stroke-linecap:round;stroke-linejoin:round;fill-opacity:1"
       d="M 390.25766,78.002531 A 36.439977,311.19743 55 0 0 201.56883,196.70725 36.439977,311.19743 55 0 0 22.021634,336.61113 28.030751,239.38265 55 0 0 216.08173,222.96254 28.030751,239.38265 55 0 0 390.25766,78.002531 Z" />
    <path
       id="path5"
       style="display:inline;fill:none;stroke:#000000;stroke-width:2.5;stroke-linecap:round;stroke-linejoin:round;stroke-dasharray:none"
       inkscape:label="rand unten"
       d="M 390.50674,77.842011 A 28.030751,239.38265 55 0 1 216.08152,222.96255 28.030751,239.38265 55 0 1 21.973511,336.64764" />
    <circle
       style="display:inline;fill:#fbec5d;stroke:#000000;stroke-width:1.78;stroke-linecap:round;stroke-linejoin:round;stroke-dasharray:none;fill-opacity:1"
       id="path6"
       cx="47.92831"
       cy="280.71259"
       r="62.633701"
       transform="rotate(-35)" />
    <rect
       style="display:inline;fill:#e60026;fill-opacity:1;stroke:#000000;stroke-width:2.5;stroke-linecap:round;stroke-linejoin:round;stroke-dasharray:none"
       id="rect1"
       width="172.26729"
       height="83.684586"
       x="-41.119911"
       y="179.9928"
       rx="6.2047272"
       transform="rotate(-35)" />
    <path
       id="path4"
       style="display:inline;fill:#e60026;stroke:#000000;stroke-width:0.445055;stroke-linecap:round;stroke-linejoin:round;fill-opacity:1"
       d="M 183.92617,177.03964 A 28.030751,239.38265 55 0 0 3.9129022,337.30552 28.030751,239.38265 55 0 0 22.021634,336.61113 36.439977,311.19743 55 0 1 201.56883,196.70725 36.439977,311.19743 55 0 1 390.25766,78.002531 28.030751,239.38265 55 0 0 396.09462,62.696933 28.030751,239.38265 55 0 0 183.92617,177.03964 Z" />
    <path
       id="ellipse2"
       style="display:none;fill:none;stroke:#000000;stroke-width:1.78;stroke-linecap:round;stroke-linejoin:round;stroke-dasharray:none"
       inkscape:label="rand oben backup"
       d="M 21.973511,336.64764 A 28.030751,239.38265 55 0 1 3.9129609,337.30536 28.030751,239.38265 55 0 1 183.92597,177.03966 28.030751,239.38265 55 0 1 396.09453,62.696867 v 0 a 28.030751,239.38265 55 0 1 -5.58779,15.145144" />
    <path
       id="path7"
       style="display:inline;fill:none;stroke:#000000;stroke-width:2.5;stroke-linecap:round;stroke-linejoin:round;stroke-dasharray:none"
       inkscape:label="rand oben vorn"
       d="m 316.99625,92.32458 a 28.030751,239.38265 55 0 1 79.09828,-29.627713 v 0 a 28.030751,239.38265 55 0 1 -5.58779,15.145144" />
    <path
       id="path9"
       style="display:inline;fill:none;stroke:#000000;stroke-width:2.5;stroke-linecap:round;stroke-linejoin:round;stroke-dasharray:none"
       inkscape:label="rand oben"
       d="M 21.973511,336.64764 A 28.030751,239.38265 55 0 1 3.9129609,337.30536 28.030751,239.38265 55 0 1 145.14044,204.88505" />
    <path
       id="path10"
       style="display:none;fill:none;stroke:#0000ff;stroke-width:4.45;stroke-linecap:round;stroke-linejoin:round;stroke-dasharray:none;marker-end:url(#ArrowWideRounded_Fnone_S-0000ff)"
       inkscape:label="pfeil"
       d="M 145.14044,204.88505 A 28.030751,239.38265 55 0 1 183.92597,177.03966 28.030751,239.38265 55 0 1 316.99625,92.32458" />
    <g
       id="path2"
       inkscape:label="pfeil"
       style="stroke-width:2.9;stroke-dasharray:none">
      <path
         style="fill:#6495ed;stroke-linecap:round;stroke-linejoin:round;fill-opacity:1;stroke-width:4.07668728;stroke-dasharray:none;stroke:#6495ed;stroke-opacity:1"
         d="m 317.60352,90.183594 a 2.2249999,2.2249999 0 0 0 -1.69141,0.197265 c -38.40062,21.419621 -85.72706,51.551811 -133.26172,84.835941 -13.14952,9.20739 -26.15891,18.54682 -38.83008,27.87695 a 2.2249999,2.2249999 0 0 0 -0.4707,3.11133 2.2249999,2.2249999 0 0 0 3.10937,0.4707 c 12.64192,-9.30859 25.62322,-18.62708 38.74414,-27.81445 47.43141,-33.21183 94.66861,-63.28138 132.87696,-84.593752 a 2.2249999,2.2249999 0 0 0 0.85937,-3.027344 2.2249999,2.2249999 0 0 0 -1.33593,-1.05664 z"
         id="path11" />
      <g
         id="g3"
         style="stroke-width:2.9;stroke-dasharray:none">
        <path
           style="fill:#6495ed;stroke-width:2.9555989;stroke-linecap:round;fill-opacity:1;stroke-dasharray:none;stroke:#6495ed;stroke-opacity:1"
           d="m 300.84139,84.709628 a 2.1780246,2.1780246 0 0 0 -2.68852,1.5059 2.1780246,2.1780246 0 0 0 1.4974,2.6885 l 15.68862,4.449634 -4.45816,15.688598 a 2.1780246,2.1780246 0 0 0 1.50589,2.6885 2.1780246,2.1780246 0 0 0 2.68851,-1.5059 l 5.64073,-19.874489 z"
           id="path8" />
      </g>
    </g>
  </g>
</svg>
