<svg xmlns="http://www.w3.org/2000/svg" xmlns:xlink="http://www.w3.org/1999/xlink" version="1.1" class="marks" width="649" height="473" viewBox="0 0 649 473"><rect width="649" height="473" fill="white"/><g fill="none" stroke-miterlimit="10" transform="translate(44,36)"><g class="mark-group role-frame root" role="graphics-object" aria-roledescription="group mark container"><g transform="translate(0,0)"><path class="background" aria-hidden="true" d="M0.5,0.5h600v400h-600Z" stroke="#ddd"/><g><g class="mark-group role-axis" aria-hidden="true"><g transform="translate(0.5,0.5)"><path class="background" aria-hidden="true" d="M0,0h0v0h0Z" pointer-events="none"/><g><g class="mark-rule role-axis-grid" pointer-events="none"><line transform="translate(0,400)" x2="600" y2="0" stroke="#ddd" stroke-width="1" opacity="1"/><line transform="translate(0,364)" x2="600" y2="0" stroke="#ddd" stroke-width="1" opacity="1"/><line transform="translate(0,328)" x2="600" y2="0" stroke="#ddd" stroke-width="1" opacity="1"/><line transform="translate(0,292)" x2="600" y2="0" stroke="#ddd" stroke-width="1" opacity="1"/><line transform="translate(0,256)" x2="600" y2="0" stroke="#ddd" stroke-width="1" opacity="1"/><line transform="translate(0,220)" x2="600" y2="0" stroke="#ddd" stroke-width="1" opacity="1"/><line transform="translate(0,185)" x2="600" y2="0" stroke="#ddd" stroke-width="1" opacity="1"/><line transform="translate(0,149)" x2="600" y2="0" stroke="#ddd" stroke-width="1" opacity="1"/><line transform="translate(0,113)" x2="600" y2="0" stroke="#ddd" stroke-width="1" opacity="1"/><line transform="translate(0,77)" x2="600" y2="0" stroke="#ddd" stroke-width="1" opacity="1"/><line transform="translate(0,41)" x2="600" y2="0" stroke="#ddd" stroke-width="1" opacity="1"/><line transform="translate(0,5)" x2="600" y2="0" stroke="#ddd" stroke-width="1" opacity="1"/></g></g><path class="foreground" aria-hidden="true" d="" pointer-events="none" display="none"/></g></g><g class="mark-group role-axis" role="graphics-symbol" aria-roledescription="axis" aria-label="X-axis titled 'Libraries' for a discrete scale with 7 values: toml_rs (0.0.6), rtoml (0.13.0), pytomlpp (1.0.13), tomllib (built-in), toml (0.10.2), qtoml (0.3.1), tomlkit (0.13.3)"><g transform="translate(0.5,400.5)"><path class="background" aria-hidden="true" d="M0,0h0v0h0Z" pointer-events="none"/><g><g class="mark-rule role-axis-tick" pointer-events="none"><line transform="translate(42,0)" x2="0" y2="5" stroke="#888" stroke-width="1" opacity="1"/><line transform="translate(128,0)" x2="0" y2="5" stroke="#888" stroke-width="1" opacity="1"/><line transform="translate(214,0)" x2="0" y2="5" stroke="#888" stroke-width="1" opacity="1"/><line transform="translate(299,0)" x2="0" y2="5" stroke="#888" stroke-width="1" opacity="1"/><line transform="translate(385,0)" x2="0" y2="5" stroke="#888" stroke-width="1" opacity="1"/><line transform="translate(471,0)" x2="0" y2="5" stroke="#888" stroke-width="1" opacity="1"/><line transform="translate(557,0)" x2="0" y2="5" stroke="#888" stroke-width="1" opacity="1"/></g><g class="mark-text role-axis-label" pointer-events="none"><text text-anchor="middle" transform="translate(42.35714285714285,15)" font-family="sans-serif" font-size="10px" fill="#000" opacity="1">toml_rs (0.0.6)</text><text text-anchor="middle" transform="translate(128.07142857142856,15)" font-family="sans-serif" font-size="10px" fill="#000" opacity="1">rtoml (0.13.0)</text><text text-anchor="middle" transform="translate(213.78571428571428,15)" font-family="sans-serif" font-size="10px" fill="#000" opacity="1">pytomlpp (1.0.13)</text><text text-anchor="middle" transform="translate(299.49999999999994,15)" font-family="sans-serif" font-size="10px" fill="#000" opacity="1">tomllib (built-in)</text><text text-anchor="middle" transform="translate(385.21428571428567,15)" font-family="sans-serif" font-size="10px" fill="#000" opacity="1">toml (0.10.2)</text><text text-anchor="middle" transform="translate(470.9285714285714,15)" font-family="sans-serif" font-size="10px" fill="#000" opacity="1">qtoml (0.3.1)</text><text text-anchor="middle" transform="translate(556.642857142857,15)" font-family="sans-serif" font-size="10px" fill="#000" opacity="1">tomlkit (0.13.3)</text></g><g class="mark-rule role-axis-domain" pointer-events="none"><line transform="translate(0,0)" x2="600" y2="0" stroke="#888" stroke-width="1" opacity="1"/></g><g class="mark-text role-axis-title" pointer-events="none"><text text-anchor="middle" transform="translate(300,30)" font-family="sans-serif" font-size="11px" font-weight="bold" fill="#000" opacity="1">Libraries</text></g></g><path class="foreground" aria-hidden="true" d="" pointer-events="none" display="none"/></g></g><g class="mark-group role-axis" role="graphics-symbol" aria-roledescription="axis" aria-label="Y-axis titled 'Execution Time (seconds, lower=better)' for a linear scale with values from 0 to 111"><g transform="translate(0.5,0.5)"><path class="background" aria-hidden="true" d="M0,0h0v0h0Z" pointer-events="none"/><g><g class="mark-rule role-axis-tick" pointer-events="none"><line transform="translate(0,400)" x2="-5" y2="0" stroke="#888" stroke-width="1" opacity="1"/><line transform="translate(0,364)" x2="-5" y2="0" stroke="#888" stroke-width="1" opacity="1"/><line transform="translate(0,328)" x2="-5" y2="0" stroke="#888" stroke-width="1" opacity="1"/><line transform="translate(0,292)" x2="-5" y2="0" stroke="#888" stroke-width="1" opacity="1"/><line transform="translate(0,256)" x2="-5" y2="0" stroke="#888" stroke-width="1" opacity="1"/><line transform="translate(0,220)" x2="-5" y2="0" stroke="#888" stroke-width="1" opacity="1"/><line transform="translate(0,185)" x2="-5" y2="0" stroke="#888" stroke-width="1" opacity="1"/><line transform="translate(0,149)" x2="-5" y2="0" stroke="#888" stroke-width="1" opacity="1"/><line transform="translate(0,113)" x2="-5" y2="0" stroke="#888" stroke-width="1" opacity="1"/><line transform="translate(0,77)" x2="-5" y2="0" stroke="#888" stroke-width="1" opacity="1"/><line transform="translate(0,41)" x2="-5" y2="0" stroke="#888" stroke-width="1" opacity="1"/><line transform="translate(0,5)" x2="-5" y2="0" stroke="#888" stroke-width="1" opacity="1"/></g><g class="mark-text role-axis-label" pointer-events="none"><text text-anchor="end" transform="translate(-7,403)" font-family="sans-serif" font-size="10px" fill="#000" opacity="1">0</text><text text-anchor="end" transform="translate(-7,367.0998148507374)" font-family="sans-serif" font-size="10px" fill="#000" opacity="1">10</text><text text-anchor="end" transform="translate(-7,331.19962970147486)" font-family="sans-serif" font-size="10px" fill="#000" opacity="1">20</text><text text-anchor="end" transform="translate(-7,295.2994445522123)" font-family="sans-serif" font-size="10px" fill="#000" opacity="1">30</text><text text-anchor="end" transform="translate(-7,259.3992594029497)" font-family="sans-serif" font-size="10px" fill="#000" opacity="1">40</text><text text-anchor="end" transform="translate(-7,223.49907425368716)" font-family="sans-serif" font-size="10px" fill="#000" opacity="1">50</text><text text-anchor="end" transform="translate(-7,187.59888910442461)" font-family="sans-serif" font-size="10px" fill="#000" opacity="1">60</text><text text-anchor="end" transform="translate(-7,151.69870395516207)" font-family="sans-serif" font-size="10px" fill="#000" opacity="1">70</text><text text-anchor="end" transform="translate(-7,115.79851880589948)" font-family="sans-serif" font-size="10px" fill="#000" opacity="1">80</text><text text-anchor="end" transform="translate(-7,79.89833365663694)" font-family="sans-serif" font-size="10px" fill="#000" opacity="1">90</text><text text-anchor="end" transform="translate(-7,43.99814850737435)" font-family="sans-serif" font-size="10px" fill="#000" opacity="1">100</text><text text-anchor="end" transform="translate(-7,8.097963358111812)" font-family="sans-serif" font-size="10px" fill="#000" opacity="1">110</text></g><g class="mark-rule role-axis-domain" pointer-events="none"><line transform="translate(0,400)" x2="0" y2="-400" stroke="#888" stroke-width="1" opacity="1"/></g><g class="mark-text role-axis-title" pointer-events="none"><text text-anchor="middle" transform="translate(-27.6845703125,200) rotate(-90) translate(0,-2)" font-family="sans-serif" font-size="11px" font-weight="bold" fill="#000" opacity="1">Execution Time (seconds, lower=better)</text></g></g><path class="foreground" aria-hidden="true" d="" pointer-events="none" display="none"/></g></g><g class="mark-group role-scope" role="graphics-object" aria-roledescription="group mark container"><g transform="translate(4.285714285714278,397.48491380386)"><path class="background" aria-hidden="true" d="M1.2575430980699878,0L75.88531404478715,0C76.5793709745607,0,77.14285714285714,0.5634861682964298,77.14285714285714,1.2575430980699878L77.14285714285714,2.5150861961399755C77.14285714285714,2.5150861961399755,77.14285714285714,2.5150861961399755,77.14285714285714,2.5150861961399755L0,2.5150861961399755C0,2.5150861961399755,0,2.5150861961399755,0,2.5150861961399755L0,1.2575430980699878C0,0.5634861682964298,0.5634861682964298,0,1.2575430980699878,0Z"/><g clip-path="url(#clip1)"><g class="mark-group role-scope" role="graphics-object" aria-roledescription="group mark container"><g transform="translate(0,-397.48491380386)"><path class="background" aria-hidden="true" d="M0,0h77.14285714285714v0h-77.14285714285714Z"/><g><g class="mark-rect role-mark layer_0_marks" role="graphics-object" aria-roledescription="rect mark container"><path aria-label="Libraries: toml_rs (0.0.6); Execution Time (seconds, lower=better): 0.7005775; parser: toml_rs (0.0.6); Execution Time (s): 0.7006" role="graphics-symbol" aria-roledescription="bar" d="M0,397.48491380386h77.14285714285714v2.5150861961399755h-77.14285714285714Z" fill="rgb(40, 174, 128)"/></g></g><path class="foreground" aria-hidden="true" d="" display="none"/></g></g></g><path class="foreground" aria-hidden="true" d="" display="none"/></g><g transform="translate(89.99999999999999,395.67219498506216)"><path class="background" aria-hidden="true" d="M2.1639025074689187,0L74.97895463538822,0C76.17324494080056,0,77.14285714285714,0.9696122020565824,77.14285714285714,2.1639025074689187L77.14285714285714,4.327805014937837C77.14285714285714,4.327805014937837,77.14285714285714,4.327805014937837,77.14285714285714,4.327805014937837L0,4.327805014937837C0,4.327805014937837,0,4.327805014937837,0,4.327805014937837L0,2.1639025074689187C0,0.9696122020565824,0.9696122020565824,0,2.1639025074689187,0Z"/><g clip-path="url(#clip2)"><g class="mark-group role-scope" role="graphics-object" aria-roledescription="group mark container"><g transform="translate(0,-395.67219498506216)"><path class="background" aria-hidden="true" d="M0,0h77.14285714285714v0h-77.14285714285714Z"/><g><g class="mark-rect role-mark layer_0_marks" role="graphics-object" aria-roledescription="rect mark container"><path aria-label="Libraries: rtoml (0.13.0); Execution Time (seconds, lower=better): 1.2055105; parser: rtoml (0.13.0); Execution Time (s): 1.2055" role="graphics-symbol" aria-roledescription="bar" d="M0,395.67219498506216h77.14285714285714v4.327805014937837h-77.14285714285714Z" fill="rgb(44, 114, 142)"/></g></g><path class="foreground" aria-hidden="true" d="" display="none"/></g></g></g><path class="foreground" aria-hidden="true" d="" display="none"/></g><g transform="translate(175.7142857142857,394.2654526920318)"><path class="background" aria-hidden="true" d="M2.867273653984114,0L74.27558348887302,0C75.85807489784267,0,77.14285714285714,1.2847822450144708,77.14285714285714,2.867273653984114L77.14285714285714,5.734547307968228C77.14285714285714,5.734547307968228,77.14285714285714,5.734547307968228,77.14285714285714,5.734547307968228L0,5.734547307968228C0,5.734547307968228,0,5.734547307968228,0,5.734547307968228L0,2.867273653984114C0,1.2847822450144708,1.2847822450144708,0,2.867273653984114,0Z"/><g clip-path="url(#clip3)"><g class="mark-group role-scope" role="graphics-object" aria-roledescription="group mark container"><g transform="translate(0,-394.2654526920318)"><path class="background" aria-hidden="true" d="M0,0h77.14285714285714v0h-77.14285714285714Z"/><g><g class="mark-rect role-mark layer_0_marks" role="graphics-object" aria-roledescription="rect mark container"><path aria-label="Libraries: pytomlpp (1.0.13); Execution Time (seconds, lower=better): 1.5973587; parser: pytomlpp (1.0.13); Execution Time (s): 1.5974" role="graphics-symbol" aria-roledescription="bar" d="M0,394.2654526920318h77.14285714285714v5.734547307968228h-77.14285714285714Z" fill="rgb(71, 45, 123)"/></g></g><path class="foreground" aria-hidden="true" d="" display="none"/></g></g></g><path class="foreground" aria-hidden="true" d="" display="none"/></g><g transform="translate(261.4285714285714,378.81309324104217)"><path class="background" aria-hidden="true" d="M6,0L71.14285714285714,0C74.45434728982114,0,77.14285714285714,2.688509853036,77.14285714285714,6L77.14285714285714,21.186906758957832C77.14285714285714,21.186906758957832,77.14285714285714,21.186906758957832,77.14285714285714,21.186906758957832L0,21.186906758957832C0,21.186906758957832,0,21.186906758957832,0,21.186906758957832L0,6C0,2.688509853036,2.688509853036,0,6,0Z"/><g clip-path="url(#clip4)"><g class="mark-group role-scope" role="graphics-object" aria-roledescription="group mark container"><g transform="translate(0,-378.81309324104217)"><path class="background" aria-hidden="true" d="M0,0h77.14285714285714v0h-77.14285714285714Z"/><g><g class="mark-rect role-mark layer_0_marks" role="graphics-object" aria-roledescription="rect mark container"><path aria-label="Libraries: tomllib (built-in); Execution Time (seconds, lower=better): 5.9016149; parser: tomllib (built-in); Execution Time (s): 5.9016" role="graphics-symbol" aria-roledescription="bar" d="M0,378.81309324104217h77.14285714285714v21.186906758957832h-77.14285714285714Z" fill="rgb(171, 220, 50)"/></g></g><path class="foreground" aria-hidden="true" d="" display="none"/></g></g></g><path class="foreground" aria-hidden="true" d="" display="none"/></g><g transform="translate(347.1428571428571,348.3804118725154)"><path class="background" aria-hidden="true" d="M6,0L71.14285714285714,0C74.45434728982114,0,77.14285714285714,2.688509853036,77.14285714285714,6L77.14285714285714,51.619588127484576C77.14285714285714,51.619588127484576,77.14285714285714,51.619588127484576,77.14285714285714,51.619588127484576L0,51.619588127484576C0,51.619588127484576,0,51.619588127484576,0,51.619588127484576L0,6C0,2.688509853036,2.688509853036,0,6,0Z"/><g clip-path="url(#clip5)"><g class="mark-group role-scope" role="graphics-object" aria-roledescription="group mark container"><g transform="translate(0,-348.3804118725154)"><path class="background" aria-hidden="true" d="M0,0h77.14285714285714v0h-77.14285714285714Z"/><g><g class="mark-rect role-mark layer_0_marks" role="graphics-object" aria-roledescription="rect mark container"><path aria-label="Libraries: toml (0.10.2); Execution Time (seconds, lower=better): 14.3786412; parser: toml (0.10.2); Execution Time (s): 14.3786" role="graphics-symbol" aria-roledescription="bar" d="M0,348.3804118725154h77.14285714285714v51.619588127484576h-77.14285714285714Z" fill="rgb(33, 145, 141)"/></g></g><path class="foreground" aria-hidden="true" d="" display="none"/></g></g></g><path class="foreground" aria-hidden="true" d="" display="none"/></g><g transform="translate(432.85714285714283,346.07739884010897)"><path class="background" aria-hidden="true" d="M6,0L71.14285714285714,0C74.45434728982114,0,77.14285714285714,2.688509853036,77.14285714285714,6L77.14285714285714,53.92260115989103C77.14285714285714,53.92260115989103,77.14285714285714,53.92260115989103,77.14285714285714,53.92260115989103L0,53.92260115989103C0,53.92260115989103,0,53.92260115989103,0,53.92260115989103L0,6C0,2.688509853036,2.688509853036,0,6,0Z"/><g clip-path="url(#clip6)"><g class="mark-group role-scope" role="graphics-object" aria-roledescription="group mark container"><g transform="translate(0,-346.07739884010897)"><path class="background" aria-hidden="true" d="M0,0h77.14285714285714v0h-77.14285714285714Z"/><g><g class="mark-rect role-mark layer_0_marks" role="graphics-object" aria-roledescription="rect mark container"><path aria-label="Libraries: qtoml (0.3.1); Execution Time (seconds, lower=better): 15.0201457; parser: qtoml (0.3.1); Execution Time (s): 15.0201" role="graphics-symbol" aria-roledescription="bar" d="M0,346.07739884010897h77.14285714285714v53.92260115989103h-77.14285714285714Z" fill="rgb(59, 82, 139)"/></g></g><path class="foreground" aria-hidden="true" d="" display="none"/></g></g></g><path class="foreground" aria-hidden="true" d="" display="none"/></g><g transform="translate(518.5714285714284,36.36363636363642)"><path class="background" aria-hidden="true" d="M6,0L71.14285714285714,0C74.45434728982114,0,77.14285714285714,2.688509853036,77.14285714285714,6L77.14285714285714,363.63636363636357C77.14285714285714,363.63636363636357,77.14285714285714,363.63636363636357,77.14285714285714,363.63636363636357L0,363.63636363636357C0,363.63636363636357,0,363.63636363636357,0,363.63636363636357L0,6C0,2.688509853036,2.688509853036,0,6,0Z"/><g clip-path="url(#clip7)"><g class="mark-group role-scope" role="graphics-object" aria-roledescription="group mark container"><g transform="translate(0,-36.36363636363642)"><path class="background" aria-hidden="true" d="M0,0h77.14285714285714v0h-77.14285714285714Z"/><g><g class="mark-rect role-mark layer_0_marks" role="graphics-object" aria-roledescription="rect mark container"><path aria-label="Libraries: tomlkit (0.13.3); Execution Time (seconds, lower=better): 101.2909438; parser: tomlkit (0.13.3); Execution Time (s): 101.2909" role="graphics-symbol" aria-roledescription="bar" d="M0,36.36363636363642h77.14285714285714v363.63636363636357h-77.14285714285714Z" fill="rgb(93, 201, 99)"/></g></g><path class="foreground" aria-hidden="true" d="" display="none"/></g></g></g><path class="foreground" aria-hidden="true" d="" display="none"/></g></g><g class="mark-text role-mark layer_1_marks" role="graphics-object" aria-roledescription="text mark container"><text aria-label="Libraries: toml_rs (0.0.6); Execution Time (seconds, lower=better): 0.7005775; parser: toml_rs (0.0.6); label: 0.7006 s; Execution Time (s): 0.7006" role="graphics-symbol" aria-roledescription="text mark" text-anchor="middle" transform="translate(42.85714285714285,389.48491380386)" font-family="sans-serif" font-size="14px" fill="rgb(40, 174, 128)">0.7006 s</text><text aria-label="Libraries: rtoml (0.13.0); Execution Time (seconds, lower=better): 1.2055105; parser: rtoml (0.13.0); label: 1.2055 s; Execution Time (s): 1.2055" role="graphics-symbol" aria-roledescription="text mark" text-anchor="middle" transform="translate(128.57142857142856,387.67219498506216)" font-family="sans-serif" font-size="14px" fill="rgb(44, 114, 142)">1.2055 s</text><text aria-label="Libraries: pytomlpp (1.0.13); Execution Time (seconds, lower=better): 1.5973587; parser: pytomlpp (1.0.13); label: 1.5974 s; Execution Time (s): 1.5974" role="graphics-symbol" aria-roledescription="text mark" text-anchor="middle" transform="translate(214.28571428571428,386.2654526920318)" font-family="sans-serif" font-size="14px" fill="rgb(71, 45, 123)">1.5974 s</text><text aria-label="Libraries: tomllib (built-in); Execution Time (seconds, lower=better): 5.9016149; parser: tomllib (built-in); label: 5.9016 s; Execution Time (s): 5.9016" role="graphics-symbol" aria-roledescription="text mark" text-anchor="middle" transform="translate(299.99999999999994,370.81309324104217)" font-family="sans-serif" font-size="14px" fill="rgb(171, 220, 50)">5.9016 s</text><text aria-label="Libraries: toml (0.10.2); Execution Time (seconds, lower=better): 14.3786412; parser: toml (0.10.2); label: 14.3786 s; Execution Time (s): 14.3786" role="graphics-symbol" aria-roledescription="text mark" text-anchor="middle" transform="translate(385.71428571428567,340.3804118725154)" font-family="sans-serif" font-size="14px" fill="rgb(33, 145, 141)">14.3786 s</text><text aria-label="Libraries: qtoml (0.3.1); Execution Time (seconds, lower=better): 15.0201457; parser: qtoml (0.3.1); label: 15.0201 s; Execution Time (s): 15.0201" role="graphics-symbol" aria-roledescription="text mark" text-anchor="middle" transform="translate(471.4285714285714,338.07739884010897)" font-family="sans-serif" font-size="14px" fill="rgb(59, 82, 139)">15.0201 s</text><text aria-label="Libraries: tomlkit (0.13.3); Execution Time (seconds, lower=better): 101.2909438; parser: tomlkit (0.13.3); label: 101.2909 s; Execution Time (s): 101.2909" role="graphics-symbol" aria-roledescription="text mark" text-anchor="middle" transform="translate(557.142857142857,28.363636363636417)" font-family="sans-serif" font-size="14px" fill="rgb(93, 201, 99)">101.2909 s</text></g><g class="mark-group role-title"><g transform="translate(300,-31)"><path class="background" aria-hidden="true" d="M0,0h0v0h0Z" pointer-events="none"/><g><g class="mark-text role-title-text" role="graphics-symbol" aria-roledescription="title" aria-label="Title text 'TOML parsers benchmark'" pointer-events="none"><text text-anchor="middle" transform="translate(0,10)" font-family="sans-serif" font-size="13px" font-weight="bold" fill="#000" opacity="1">TOML parsers benchmark</text></g><g class="mark-text role-title-subtitle" role="graphics-symbol" aria-roledescription="subtitle" aria-label="Subtitle text 'Python: 3.13.8 (Windows 10) | CPU: 11th Gen Intel(R) Core(TM) i5-11300H @ 3.10GHz'" pointer-events="none"><text text-anchor="middle" transform="translate(0,25)" font-family="sans-serif" font-size="12px" fill="#000" opacity="1">Python: 3.13.8 (Windows 10) | CPU: 11th Gen Intel(R) Core(TM) i5-11300H @ 3.10GHz</text></g></g><path class="foreground" aria-hidden="true" d="" pointer-events="none" display="none"/></g></g></g><path class="foreground" aria-hidden="true" d="" display="none"/></g></g></g><defs><clipPath id="clip1"><path d="M1.2575430980699878,0L75.88531404478715,0C76.5793709745607,0,77.14285714285714,0.5634861682964298,77.14285714285714,1.2575430980699878L77.14285714285714,2.5150861961399755C77.14285714285714,2.5150861961399755,77.14285714285714,2.5150861961399755,77.14285714285714,2.5150861961399755L0,2.5150861961399755C0,2.5150861961399755,0,2.5150861961399755,0,2.5150861961399755L0,1.2575430980699878C0,0.5634861682964298,0.5634861682964298,0,1.2575430980699878,0Z"/></clipPath><clipPath id="clip2"><path d="M2.1639025074689187,0L74.97895463538822,0C76.17324494080056,0,77.14285714285714,0.9696122020565824,77.14285714285714,2.1639025074689187L77.14285714285714,4.327805014937837C77.14285714285714,4.327805014937837,77.14285714285714,4.327805014937837,77.14285714285714,4.327805014937837L0,4.327805014937837C0,4.327805014937837,0,4.327805014937837,0,4.327805014937837L0,2.1639025074689187C0,0.9696122020565824,0.9696122020565824,0,2.1639025074689187,0Z"/></clipPath><clipPath id="clip3"><path d="M2.867273653984114,0L74.27558348887302,0C75.85807489784267,0,77.14285714285714,1.2847822450144708,77.14285714285714,2.867273653984114L77.14285714285714,5.734547307968228C77.14285714285714,5.734547307968228,77.14285714285714,5.734547307968228,77.14285714285714,5.734547307968228L0,5.734547307968228C0,5.734547307968228,0,5.734547307968228,0,5.734547307968228L0,2.867273653984114C0,1.2847822450144708,1.2847822450144708,0,2.867273653984114,0Z"/></clipPath><clipPath id="clip4"><path d="M6,0L71.14285714285714,0C74.45434728982114,0,77.14285714285714,2.688509853036,77.14285714285714,6L77.14285714285714,21.186906758957832C77.14285714285714,21.186906758957832,77.14285714285714,21.186906758957832,77.14285714285714,21.186906758957832L0,21.186906758957832C0,21.186906758957832,0,21.186906758957832,0,21.186906758957832L0,6C0,2.688509853036,2.688509853036,0,6,0Z"/></clipPath><clipPath id="clip5"><path d="M6,0L71.14285714285714,0C74.45434728982114,0,77.14285714285714,2.688509853036,77.14285714285714,6L77.14285714285714,51.619588127484576C77.14285714285714,51.619588127484576,77.14285714285714,51.619588127484576,77.14285714285714,51.619588127484576L0,51.619588127484576C0,51.619588127484576,0,51.619588127484576,0,51.619588127484576L0,6C0,2.688509853036,2.688509853036,0,6,0Z"/></clipPath><clipPath id="clip6"><path d="M6,0L71.14285714285714,0C74.45434728982114,0,77.14285714285714,2.688509853036,77.14285714285714,6L77.14285714285714,53.92260115989103C77.14285714285714,53.92260115989103,77.14285714285714,53.92260115989103,77.14285714285714,53.92260115989103L0,53.92260115989103C0,53.92260115989103,0,53.92260115989103,0,53.92260115989103L0,6C0,2.688509853036,2.688509853036,0,6,0Z"/></clipPath><clipPath id="clip7"><path d="M6,0L71.14285714285714,0C74.45434728982114,0,77.14285714285714,2.688509853036,77.14285714285714,6L77.14285714285714,363.63636363636357C77.14285714285714,363.63636363636357,77.14285714285714,363.63636363636357,77.14285714285714,363.63636363636357L0,363.63636363636357C0,363.63636363636357,0,363.63636363636357,0,363.63636363636357L0,6C0,2.688509853036,2.688509853036,0,6,0Z"/></clipPath></defs></svg>