<svg id="Capa_1" enable-background="new 0 0 512 512" height="512" viewBox="0 0 512 512" width="512" xmlns="http://www.w3.org/2000/svg"><g><path d="m471.245 131.73-.04.02-101.461 58.579c-11.526-19.931-28.143-36.548-48.074-48.074l58.58-101.46.02-.04c37.71 21.819 69.156 53.265 90.975 90.975z" fill="#fe9738"/><path d="m380.27 40.755-.02.04-58.579 101.461c-19.314-11.182-41.75-17.577-65.671-17.577v-117.179c45.275 0 87.712 12.112 124.27 33.255z" fill="#fea95c"/><path d="m504.5 256h-117.179c0-23.921-6.394-46.356-17.577-65.671l101.461-58.579.04-.02c21.143 36.558 33.255 78.995 33.255 124.27z" fill="#0573ce"/><path d="m387.321 256h117.179c0 45.275-12.112 87.712-33.255 124.27l-.04-.02-101.461-58.579c11.183-19.315 17.577-41.75 17.577-65.671z" fill="#528fd8"/><path d="m471.205 380.25.04.02c-21.82 37.709-53.266 69.156-90.975 90.975l-.02-.04-58.579-101.461c19.93-11.526 36.548-28.143 48.074-48.074z" fill="#01d0fb"/><path d="m380.25 471.205.02.04c-36.558 21.143-78.995 33.255-124.27 33.255v-117.179c23.921 0 46.356-6.394 65.671-17.577z" fill="#62dbfb"/><path d="m256 387.321v117.179c-45.275 0-87.712-12.112-124.27-33.255l.02-.04 58.579-101.461c19.315 11.183 41.75 17.577 65.671 17.577z" fill="#00f2a6"/><path d="m190.329 369.744-58.579 101.461-.02.04c-37.709-21.82-69.156-53.266-90.975-90.975l.04-.02 101.461-58.579c11.526 19.93 28.143 36.547 48.073 48.073z" fill="#6cf5c2"/><path d="m142.256 321.671-101.461 58.579-.04.02c-21.143-36.558-33.255-78.995-33.255-124.27h117.179c0 23.921 6.394 46.356 17.577 65.671z" fill="#fe73c5"/><path d="m40.795 131.75 101.461 58.579c-11.182 19.314-17.577 41.75-17.577 65.671h-117.179c0-45.275 12.112-87.712 33.255-124.27z" fill="#fe93d3"/><path d="m131.75 40.795 58.579 101.461c-19.931 11.526-36.548 28.143-48.074 48.074l-101.46-58.58-.04-.02c21.819-37.71 53.265-69.156 90.975-90.975z" fill="#ffd15b"/><path d="m256 7.5v117.179c-23.921 0-46.356 6.394-65.671 17.577l-58.579-101.461-.02-.04c36.558-21.143 78.995-33.255 124.27-33.255z" fill="#ffe177"/><path d="m438.839 190.339c0 22.731-3.069 44.742-8.786 65.661h74.447c0-45.276-12.112-87.712-33.254-124.27l-.04.02-35.29 20.375c1.922 12.458 2.923 25.219 2.923 38.214z" fill="#0067c5"/><path d="m430.054 256c-7.837 28.675-20.67 55.285-37.523 78.826l78.675 45.424.04.02c21.142-36.558 33.254-78.994 33.254-124.27z" fill="#0573ce"/><path d="m471.205 380.25-78.675-45.424c-15.933 22.256-35.448 41.771-57.704 57.704l45.424 78.675.02.04c37.709-21.819 69.156-53.266 90.975-90.975z" fill="#01c0fa"/><path d="m334.826 392.531c-23.542 16.853-50.151 29.686-78.826 37.523v74.446c45.276 0 87.712-12.112 124.27-33.255l-.02-.04z" fill="#01d0fb"/><path d="m190.339 438.839c-12.996 0-25.757-1.002-38.214-2.925l-20.375 35.29-.02.04c36.558 21.144 78.994 33.256 124.27 33.256v-74.446c-20.918 5.716-42.929 8.785-65.661 8.785z" fill="#05e39c"/><path d="m50.569 395.823c21.017 30.818 48.768 56.679 81.16 75.422l.02-.04 20.375-35.29c-37.223-5.746-71.716-19.756-101.555-40.092z" fill="#00f2a6"/><path d="m395.823 50.569c20.336 29.839 34.346 64.332 40.092 101.556l35.29-20.375.04-.02c-18.742-32.393-44.604-60.143-75.422-81.161z" fill="#fe860a"/><path d="m437.02 74.98c-48.352-48.351-112.64-74.98-181.02-74.98s-132.668 26.629-181.02 74.98-74.98 112.64-74.98 181.02 26.629 132.668 74.98 181.02 112.64 74.98 181.02 74.98 132.668-26.629 181.02-74.98 74.98-112.64 74.98-181.02-26.629-132.668-74.98-181.02zm10.53 188.52h49.323c-1.146 37.75-10.929 74.011-28.418 106.501l-88.674-51.196c8.543-16.768 13.777-35.491 14.837-55.305h17.933c4.143 0 7.5-3.357 7.5-7.5s-3.357-7.5-7.5-7.5h-17.933c-1.06-19.814-6.294-38.537-14.837-55.305l88.674-51.196c17.489 32.49 27.272 68.751 28.418 106.501h-49.323c-4.143 0-7.5 3.357-7.5 7.5s3.357 7.5 7.5 7.5zm-199.05 131.117v102.256c-37.75-1.146-74.011-10.929-106.501-28.419l51.196-88.674c16.768 8.543 35.491 13.777 55.305 14.837zm15 0c19.814-1.06 38.537-6.294 55.305-14.837l51.196 88.674c-32.49 17.489-68.751 27.272-106.501 28.419zm-7.5-14.796c-68.27 0-123.813-55.538-123.821-123.806 0-.005.001-.01.001-.015s-.001-.01-.001-.015c.008-68.263 55.542-123.797 123.806-123.806.005 0 .01.001.015.001s.01-.001.015-.001c68.263.008 123.797 55.542 123.806 123.806 0 .005-.001.01-.001.015s.001.01.001.015c-.008 68.269-55.551 123.806-123.821 123.806zm-215.21-131.321h-25.663c1.146-37.75 10.929-74.011 28.419-106.501l88.674 51.196c-8.543 16.768-13.777 35.491-14.837 55.305h-41.593c-4.143 0-7.5 3.357-7.5 7.5s3.357 7.5 7.5 7.5h41.593c1.06 19.814 6.294 38.537 14.837 55.305l-88.674 51.196c-17.489-32.49-27.272-68.751-28.419-106.501h25.663c4.143 0 7.5-3.357 7.5-7.5s-3.357-7.5-7.5-7.5zm215.21-200.25c4.143 0 7.5-3.357 7.5-7.5v-25.623c37.75 1.146 74.011 10.929 106.501 28.419l-51.196 88.674c-16.768-8.543-35.491-13.777-55.305-14.837v-41.633c0-4.143-3.357-7.5-7.5-7.5s-7.5 3.357-7.5 7.5v41.633c-19.814 1.06-38.537 6.294-55.305 14.837l-51.196-88.674c32.49-17.489 68.751-27.272 106.501-28.419v25.623c0 4.143 3.357 7.5 7.5 7.5zm204.925 80.775-88.67 51.194c-10.546-16.123-24.351-29.928-40.474-40.474l51.195-88.67c15.571 9.689 30.148 21.221 43.438 34.512s24.822 27.867 34.511 43.438zm-375.338-43.438c13.29-13.29 27.867-24.823 43.438-34.512l51.194 88.67c-16.123 10.546-29.928 24.351-40.474 40.474l-88.67-51.194c9.689-15.571 21.222-30.148 34.512-43.438zm-34.512 297.388 88.67-51.194c10.546 16.123 24.351 29.928 40.474 40.474l-51.194 88.67c-15.571-9.689-30.148-21.221-43.438-34.512s-24.823-27.867-34.512-43.438zm375.338 43.438c-13.291 13.29-27.867 24.823-43.438 34.512l-51.195-88.67c16.124-10.546 29.928-24.351 40.474-40.474l88.67 51.194c-9.688 15.571-21.22 30.148-34.511 43.438z"/></g></svg>