<?xml version="1.0" encoding="UTF-8"?>
<!DOCTYPE svg PUBLIC "-//W3C//DTD SVG 1.1//EN" "http://www.w3.org/Graphics/SVG/1.1/DTD/svg11.dtd">
<svg version="1.1" xmlns="http://www.w3.org/2000/svg" x="0" y="0" width="512" height="512"
     viewBox="0, 0, 512, 512">
  <g id="Background">
    <rect x="0" y="0" width="512" height="512" fill="#000000" fill-opacity="0"/>
  </g>
  <g id="Layer_1">
    <path d="M506.795,0.988 C503.723,-0.377 500.054,0.305 497.579,2.695 L107.093,373.724 C86.784,395.911 91.648,429.873 118.869,456.241 C133.973,470.833 154.794,481.158 176.213,481.158 C192.256,481.158 208.64,475.355 223.232,461.19 L509.355,185.051 C511.062,183.43 512,181.211 512,178.907 L512,8.839 C512,5.425 509.952,2.353 506.795,0.988 z M211.371,448.903 C195.926,463.922 177.664,466.396 160.939,461.703 C149.675,458.46 139.094,452.06 130.731,443.954 C114.262,427.911 103.68,402.738 119.211,385.671 L191.062,317.404 C191.318,317.745 223.318,354.012 244.566,378.076 C255.147,390.023 263.083,398.983 263.083,398.983 L211.371,448.903 z M275.371,387.121 C275.371,387.121 267.52,378.332 256.854,366.47 C256.769,366.385 256.598,366.214 256.513,366.129 C235.265,342.321 203.265,306.481 202.838,306.225 L263.083,248.966 C263.083,248.966 295.766,285.574 317.099,309.382 C327.424,320.817 335.019,329.35 335.19,329.435 L275.371,387.121 z M494.933,175.324 L347.051,318.001 C346.966,317.916 339.456,309.382 329.302,297.862 C308.054,273.969 275.457,237.19 275.457,237.19 L494.933,28.721 L494.933,175.324 z" fill="#000000" opacity="0.498"/>
    <path d="M494.933,28.721 L494.933,141.105 L329.301,297.863 C308.053,273.97 275.456,237.191 275.456,237.191 L494.933,28.721 z" fill="#FFF3AA" opacity="0.499"/>
    <path d="M494.933,141.105 L494.933,175.324 L347.051,318.001 C346.966,317.916 339.456,309.382 329.302,297.862 L494.933,141.105 z" fill="#FFE755" opacity="0.499"/>
    <path d="M335.189,329.436 L275.37,387.121 C275.37,387.121 267.519,378.332 256.853,366.47 L317.098,309.382 C327.424,320.817 335.019,329.351 335.189,329.436 z" fill="#7E939E"/>
    <path d="M317.099,309.383 L256.854,366.471 C256.769,366.386 256.598,366.215 256.513,366.13 C235.265,342.322 203.265,306.482 202.838,306.226 L263.083,248.967 C263.083,248.967 295.765,285.575 317.099,309.383 z" fill="#AFAFAF"/>
    <path d="M244.565,378.076 L160.938,461.703 C149.674,458.46 139.093,452.06 130.73,443.954 C114.261,427.911 103.679,402.738 119.21,385.671 L191.061,317.404 C191.317,317.745 223.317,354.012 244.565,378.076 z" fill="#FFAACE" opacity="0.499"/>
    <path d="M93.867,494.641 L8.533,494.641 C3.814,494.641 -0,498.464 -0,503.174 C-0,507.884 3.814,511.707 8.533,511.707 L93.866,511.707 C98.585,511.707 102.399,507.884 102.399,503.174 C102.399,498.464 98.586,494.641 93.867,494.641 z" fill="#000000" opacity="0.498"/>
    <path d="M503.467,494.641 L264.533,494.641 C259.814,494.641 256,498.464 256,503.174 C256,507.884 259.814,511.707 264.533,511.707 L503.466,511.707 C508.185,511.707 511.999,507.884 511.999,503.174 C511.999,498.464 508.186,494.641 503.467,494.641 z" fill="#000000" opacity="0.498"/>
    <path d="M263.083,398.983 L211.371,448.903 C195.926,463.922 177.664,466.396 160.939,461.703 L244.566,378.076 C255.147,390.023 263.083,398.983 263.083,398.983 z" fill="#FF80B6" opacity="0.499"/>
  </g>
</svg>
