<svg id="Layer_1" height="512" viewBox="0 0 64 64" width="512" xmlns="http://www.w3.org/2000/svg" xmlns:xlink="http://www.w3.org/1999/xlink" data-name="Layer 1"><linearGradient id="linear-gradient" gradientUnits="userSpaceOnUse" x1="30.929" x2="45.071" y1="25.071" y2="10.929"><stop offset="0" stop-color="#f9e4ca"/><stop offset="1" stop-color="#fed9a8"/></linearGradient><linearGradient id="linear-gradient-2" gradientUnits="userSpaceOnUse" x1="23.172" x2="52.828" y1="63.172" y2="33.515"><stop offset="0" stop-color="#617093"/><stop offset="1" stop-color="#3d4860"/></linearGradient><linearGradient id="linear-gradient-3" gradientUnits="userSpaceOnUse" x1="31.026" x2="44.974" y1="42.923" y2="28.974"><stop offset="0" stop-color="#d7e6f9"/><stop offset="1" stop-color="#ccd3dd"/></linearGradient><linearGradient id="linear-gradient-4" gradientUnits="userSpaceOnUse" x1="34.485" x2="41.515" y1="44.545" y2="37.515"><stop offset="0" stop-color="#f95555"/><stop offset="1" stop-color="#d81d1d"/></linearGradient><linearGradient id="linear-gradient-5" x1="50.707" x2="56.121" xlink:href="#linear-gradient-4" y1="20.707" y2="15.293"/><linearGradient id="linear-gradient-6" gradientTransform="matrix(-1 0 0 -1 44 36)" x1="19.879" x2="25.293" xlink:href="#linear-gradient-4" y1="20.707" y2="15.293"/><linearGradient id="linear-gradient-7" gradientUnits="userSpaceOnUse" x1="10.929" x2="25.071" y1="57.071" y2="42.929"><stop offset="0" stop-color="#ffce62"/><stop offset="1" stop-color="#f4a519"/></linearGradient><circle cx="38" cy="18" fill="url(#linear-gradient)" r="10"/><path d="m28 32h20a8 8 0 0 1 8 8v20a0 0 0 0 1 0 0h-36a0 0 0 0 1 0 0v-20a8 8 0 0 1 8-8z" fill="url(#linear-gradient-2)"/><path d="m28 32h20v4.584a8 8 0 0 1 -5.029 7.428l-4.971 1.988-4.971-1.988a8 8 0 0 1 -5.029-7.428z" fill="url(#linear-gradient-3)"/><path d="m36 32h4v4h-4z" fill="#aa1515"/><path d="m41.44 44.62-3.44 1.38-3.44-1.38 1.44-8.62h4z" fill="url(#linear-gradient-4)"/><path d="m52 14h2a2 2 0 0 1 2 2v4a2 2 0 0 1 -2 2h-2a0 0 0 0 1 0 0v-8a0 0 0 0 1 0 0z" fill="url(#linear-gradient-5)"/><path d="m20 14h2a2 2 0 0 1 2 2v4a2 2 0 0 1 -2 2h-2a0 0 0 0 1 0 0v-8a0 0 0 0 1 0 0z" fill="url(#linear-gradient-6)" transform="matrix(-1 0 0 -1 44 36)"/><circle cx="18" cy="50" fill="url(#linear-gradient-7)" r="10"/><path d="m49 31.059-1-.059h-20l-1 .059a9.013 9.013 0 0 0 -7.949 7.994c-.351-.033-.696-.053-1.051-.053a11 11 0 0 0 0 22c.338 0 .67-.021 1-.051v.051h38v-21a9.01 9.01 0 0 0 -8-8.941zm-2 1.941v3.583a6.967 6.967 0 0 1 -4.4 6.5l-.377.151-1.223-7.317v-2.917zm-10.153 4h2.306l1.169 6.994-2.322.929-2.322-.929zm2.153-4v2h-2v-2zm-4 0v2.917l-1.223 7.317-.377-.151a6.967 6.967 0 0 1 -4.4-6.5v-3.583zm-26 17a9 9 0 1 1 9 9 9.01 9.01 0 0 1 -9-9zm46 9h-30.695a10.982 10.982 0 0 0 -3.276-19.566 7 7 0 0 1 5.971-6.354v3.5a8.956 8.956 0 0 0 5.658 8.357l5.342 2.14 5.342-2.137a8.956 8.956 0 0 0 5.658-8.357v-3.5a7.006 7.006 0 0 1 6 6.917z"/><path d="m18 57a1.355 1.355 0 0 1 -.2-.02.636.636 0 0 1 -.18-.06.782.782 0 0 1 -.181-.09l-.149-.12a1.047 1.047 0 0 1 -.29-.71.838.838 0 0 1 .08-.38 1.032 1.032 0 0 1 .21-.33 1.7 1.7 0 0 1 .149-.12.782.782 0 0 1 .181-.09.636.636 0 0 1 .18-.06.852.852 0 0 1 .389 0 .609.609 0 0 1 .191.06.776.776 0 0 1 .18.09 1.712 1.712 0 0 1 .15.12 1.032 1.032 0 0 1 .21.33 1 1 0 0 1 .08.38 1.052 1.052 0 0 1 -.29.71l-.15.12a.776.776 0 0 1 -.18.09.609.609 0 0 1 -.191.06 1.2 1.2 0 0 1 -.189.02z"/><path d="m18 53a1 1 0 0 1 -1-1v-3h3a1 1 0 0 0 1-1v-2a1 1 0 0 0 -1-1h-4a1 1 0 0 0 -1 1 1 1 0 0 1 -2 0 3 3 0 0 1 3-3h4a3 3 0 0 1 3 3v2a3 3 0 0 1 -3 3h-1v1a1 1 0 0 1 -1 1z"/><path d="m54 13h-1.875a14.976 14.976 0 0 0 -28.25 0h-1.875a3 3 0 0 0 -3 3v4a3 3 0 0 0 3 3h3v-5a13 13 0 0 1 26 0v5h2v1.967a1 1 0 0 1 -1.4.919l-4.393-1.886a11.055 11.055 0 1 0 -1.294 1.621l4.905 2.1a2.995 2.995 0 0 0 2.834-.254 2.991 2.991 0 0 0 1.348-2.5v-2.151a3 3 0 0 0 2-2.816v-4a3 3 0 0 0 -3-3zm-31 8h-1a1 1 0 0 1 -1-1v-4a1 1 0 0 1 1-1h1zm15 6a9.027 9.027 0 1 1 7.334-3.8l-3.358-1.439a2 2 0 1 0 -.784 1.84l2.724 1.167a8.957 8.957 0 0 1 -5.916 2.232zm17-7a1 1 0 0 1 -1 1h-1v-6h1a1 1 0 0 1 1 1z"/></svg>