<?xml version="1.0" encoding="UTF-8"?>
<!DOCTYPE svg PUBLIC "-//W3C//DTD SVG 1.1//EN" "http://www.w3.org/Graphics/SVG/1.1/DTD/svg11.dtd">
<svg version="1.1" xmlns="http://www.w3.org/2000/svg" x="0" y="0" width="500" height="500"
     viewBox="0, 0, 500, 500">
  <g id="Background">
    <rect x="0" y="0" width="500" height="500" fill="#FFFFFF"/>
    <g stroke-width="1px">
      <line x1="10" y1="0" x2="10" y2="500" stroke="#AAAAAA" stroke-opacity="0.25"/>
      <line x1="20" y1="0" x2="20" y2="500" stroke="#AAAAAA" stroke-opacity="0.25"/>
      <line x1="30" y1="0" x2="30" y2="500" stroke="#AAAAAA" stroke-opacity="0.25"/>
      <line x1="40" y1="0" x2="40" y2="500" stroke="#AAAAAA" stroke-opacity="0.25"/>
      <line x1="50" y1="0" x2="50" y2="500" stroke="#AAAAAA" stroke-opacity="0.25"/>
      <line x1="60" y1="0" x2="60" y2="500" stroke="#AAAAAA" stroke-opacity="0.25"/>
      <line x1="70" y1="0" x2="70" y2="500" stroke="#AAAAAA" stroke-opacity="0.25"/>
      <line x1="80" y1="0" x2="80" y2="500" stroke="#AAAAAA" stroke-opacity="0.25"/>
      <line x1="90" y1="0" x2="90" y2="500" stroke="#AAAAAA" stroke-opacity="0.25"/>
      <line x1="100" y1="0" x2="100" y2="500" stroke="#AAAAAA" stroke-opacity="0.5"/>
      <line x1="110" y1="0" x2="110" y2="500" stroke="#AAAAAA" stroke-opacity="0.25"/>
      <line x1="120" y1="0" x2="120" y2="500" stroke="#AAAAAA" stroke-opacity="0.25"/>
      <line x1="130" y1="0" x2="130" y2="500" stroke="#AAAAAA" stroke-opacity="0.25"/>
      <line x1="140" y1="0" x2="140" y2="500" stroke="#AAAAAA" stroke-opacity="0.25"/>
      <line x1="150" y1="0" x2="150" y2="500" stroke="#AAAAAA" stroke-opacity="0.25"/>
      <line x1="160" y1="0" x2="160" y2="500" stroke="#AAAAAA" stroke-opacity="0.25"/>
      <line x1="170" y1="0" x2="170" y2="500" stroke="#AAAAAA" stroke-opacity="0.25"/>
      <line x1="180" y1="0" x2="180" y2="500" stroke="#AAAAAA" stroke-opacity="0.25"/>
      <line x1="190" y1="0" x2="190" y2="500" stroke="#AAAAAA" stroke-opacity="0.25"/>
      <line x1="200" y1="0" x2="200" y2="500" stroke="#AAAAAA" stroke-opacity="0.5"/>
      <line x1="210" y1="0" x2="210" y2="500" stroke="#AAAAAA" stroke-opacity="0.25"/>
      <line x1="220" y1="0" x2="220" y2="500" stroke="#AAAAAA" stroke-opacity="0.25"/>
      <line x1="230" y1="0" x2="230" y2="500" stroke="#AAAAAA" stroke-opacity="0.25"/>
      <line x1="240" y1="0" x2="240" y2="500" stroke="#AAAAAA" stroke-opacity="0.25"/>
      <line x1="250" y1="0" x2="250" y2="500" stroke="#AAAAAA" stroke-opacity="0.25"/>
      <line x1="260" y1="0" x2="260" y2="500" stroke="#AAAAAA" stroke-opacity="0.25"/>
      <line x1="270" y1="0" x2="270" y2="500" stroke="#AAAAAA" stroke-opacity="0.25"/>
      <line x1="280" y1="0" x2="280" y2="500" stroke="#AAAAAA" stroke-opacity="0.25"/>
      <line x1="290" y1="0" x2="290" y2="500" stroke="#AAAAAA" stroke-opacity="0.25"/>
      <line x1="300" y1="0" x2="300" y2="500" stroke="#AAAAAA" stroke-opacity="0.5"/>
      <line x1="310" y1="0" x2="310" y2="500" stroke="#AAAAAA" stroke-opacity="0.25"/>
      <line x1="320" y1="0" x2="320" y2="500" stroke="#AAAAAA" stroke-opacity="0.25"/>
      <line x1="330" y1="0" x2="330" y2="500" stroke="#AAAAAA" stroke-opacity="0.25"/>
      <line x1="340" y1="0" x2="340" y2="500" stroke="#AAAAAA" stroke-opacity="0.25"/>
      <line x1="350" y1="0" x2="350" y2="500" stroke="#AAAAAA" stroke-opacity="0.25"/>
      <line x1="360" y1="0" x2="360" y2="500" stroke="#AAAAAA" stroke-opacity="0.25"/>
      <line x1="370" y1="0" x2="370" y2="500" stroke="#AAAAAA" stroke-opacity="0.25"/>
      <line x1="380" y1="0" x2="380" y2="500" stroke="#AAAAAA" stroke-opacity="0.25"/>
      <line x1="390" y1="0" x2="390" y2="500" stroke="#AAAAAA" stroke-opacity="0.25"/>
      <line x1="400" y1="0" x2="400" y2="500" stroke="#AAAAAA" stroke-opacity="0.5"/>
      <line x1="410" y1="0" x2="410" y2="500" stroke="#AAAAAA" stroke-opacity="0.25"/>
      <line x1="420" y1="0" x2="420" y2="500" stroke="#AAAAAA" stroke-opacity="0.25"/>
      <line x1="430" y1="0" x2="430" y2="500" stroke="#AAAAAA" stroke-opacity="0.25"/>
      <line x1="440" y1="0" x2="440" y2="500" stroke="#AAAAAA" stroke-opacity="0.25"/>
      <line x1="450" y1="0" x2="450" y2="500" stroke="#AAAAAA" stroke-opacity="0.25"/>
      <line x1="460" y1="0" x2="460" y2="500" stroke="#AAAAAA" stroke-opacity="0.25"/>
      <line x1="470" y1="0" x2="470" y2="500" stroke="#AAAAAA" stroke-opacity="0.25"/>
      <line x1="480" y1="0" x2="480" y2="500" stroke="#AAAAAA" stroke-opacity="0.25"/>
      <line x1="490" y1="0" x2="490" y2="500" stroke="#AAAAAA" stroke-opacity="0.25"/>
      <line x1="500" y1="0" x2="500" y2="500" stroke="#AAAAAA" stroke-opacity="0.25"/>
      <line x1="0" y1="10" x2="500" y2="10" stroke="#AAAAAA" stroke-opacity="0.25"/>
      <line x1="0" y1="20" x2="500" y2="20" stroke="#AAAAAA" stroke-opacity="0.25"/>
      <line x1="0" y1="30" x2="500" y2="30" stroke="#AAAAAA" stroke-opacity="0.25"/>
      <line x1="0" y1="40" x2="500" y2="40" stroke="#AAAAAA" stroke-opacity="0.25"/>
      <line x1="0" y1="50" x2="500" y2="50" stroke="#AAAAAA" stroke-opacity="0.25"/>
      <line x1="0" y1="60" x2="500" y2="60" stroke="#AAAAAA" stroke-opacity="0.25"/>
      <line x1="0" y1="70" x2="500" y2="70" stroke="#AAAAAA" stroke-opacity="0.25"/>
      <line x1="0" y1="80" x2="500" y2="80" stroke="#AAAAAA" stroke-opacity="0.25"/>
      <line x1="0" y1="90" x2="500" y2="90" stroke="#AAAAAA" stroke-opacity="0.25"/>
      <line x1="0" y1="100" x2="500" y2="100" stroke="#AAAAAA" stroke-opacity="0.5"/>
      <line x1="0" y1="110" x2="500" y2="110" stroke="#AAAAAA" stroke-opacity="0.25"/>
      <line x1="0" y1="120" x2="500" y2="120" stroke="#AAAAAA" stroke-opacity="0.25"/>
      <line x1="0" y1="130" x2="500" y2="130" stroke="#AAAAAA" stroke-opacity="0.25"/>
      <line x1="0" y1="140" x2="500" y2="140" stroke="#AAAAAA" stroke-opacity="0.25"/>
      <line x1="0" y1="150" x2="500" y2="150" stroke="#AAAAAA" stroke-opacity="0.25"/>
      <line x1="0" y1="160" x2="500" y2="160" stroke="#AAAAAA" stroke-opacity="0.25"/>
      <line x1="0" y1="170" x2="500" y2="170" stroke="#AAAAAA" stroke-opacity="0.25"/>
      <line x1="0" y1="180" x2="500" y2="180" stroke="#AAAAAA" stroke-opacity="0.25"/>
      <line x1="0" y1="190" x2="500" y2="190" stroke="#AAAAAA" stroke-opacity="0.25"/>
      <line x1="0" y1="200" x2="500" y2="200" stroke="#AAAAAA" stroke-opacity="0.5"/>
      <line x1="0" y1="210" x2="500" y2="210" stroke="#AAAAAA" stroke-opacity="0.25"/>
      <line x1="0" y1="220" x2="500" y2="220" stroke="#AAAAAA" stroke-opacity="0.25"/>
      <line x1="0" y1="230" x2="500" y2="230" stroke="#AAAAAA" stroke-opacity="0.25"/>
      <line x1="0" y1="240" x2="500" y2="240" stroke="#AAAAAA" stroke-opacity="0.25"/>
      <line x1="0" y1="250" x2="500" y2="250" stroke="#AAAAAA" stroke-opacity="0.25"/>
      <line x1="0" y1="260" x2="500" y2="260" stroke="#AAAAAA" stroke-opacity="0.25"/>
      <line x1="0" y1="270" x2="500" y2="270" stroke="#AAAAAA" stroke-opacity="0.25"/>
      <line x1="0" y1="280" x2="500" y2="280" stroke="#AAAAAA" stroke-opacity="0.25"/>
      <line x1="0" y1="290" x2="500" y2="290" stroke="#AAAAAA" stroke-opacity="0.25"/>
      <line x1="0" y1="300" x2="500" y2="300" stroke="#AAAAAA" stroke-opacity="0.5"/>
      <line x1="0" y1="310" x2="500" y2="310" stroke="#AAAAAA" stroke-opacity="0.25"/>
      <line x1="0" y1="320" x2="500" y2="320" stroke="#AAAAAA" stroke-opacity="0.25"/>
      <line x1="0" y1="330" x2="500" y2="330" stroke="#AAAAAA" stroke-opacity="0.25"/>
      <line x1="0" y1="340" x2="500" y2="340" stroke="#AAAAAA" stroke-opacity="0.25"/>
      <line x1="0" y1="350" x2="500" y2="350" stroke="#AAAAAA" stroke-opacity="0.25"/>
      <line x1="0" y1="360" x2="500" y2="360" stroke="#AAAAAA" stroke-opacity="0.25"/>
      <line x1="0" y1="370" x2="500" y2="370" stroke="#AAAAAA" stroke-opacity="0.25"/>
      <line x1="0" y1="380" x2="500" y2="380" stroke="#AAAAAA" stroke-opacity="0.25"/>
      <line x1="0" y1="390" x2="500" y2="390" stroke="#AAAAAA" stroke-opacity="0.25"/>
      <line x1="0" y1="400" x2="500" y2="400" stroke="#AAAAAA" stroke-opacity="0.5"/>
      <line x1="0" y1="410" x2="500" y2="410" stroke="#AAAAAA" stroke-opacity="0.25"/>
      <line x1="0" y1="420" x2="500" y2="420" stroke="#AAAAAA" stroke-opacity="0.25"/>
      <line x1="0" y1="430" x2="500" y2="430" stroke="#AAAAAA" stroke-opacity="0.25"/>
      <line x1="0" y1="440" x2="500" y2="440" stroke="#AAAAAA" stroke-opacity="0.25"/>
      <line x1="0" y1="450" x2="500" y2="450" stroke="#AAAAAA" stroke-opacity="0.25"/>
      <line x1="0" y1="460" x2="500" y2="460" stroke="#AAAAAA" stroke-opacity="0.25"/>
      <line x1="0" y1="470" x2="500" y2="470" stroke="#AAAAAA" stroke-opacity="0.25"/>
      <line x1="0" y1="480" x2="500" y2="480" stroke="#AAAAAA" stroke-opacity="0.25"/>
      <line x1="0" y1="490" x2="500" y2="490" stroke="#AAAAAA" stroke-opacity="0.25"/>
      <line x1="0" y1="500" x2="500" y2="500" stroke="#AAAAAA" stroke-opacity="0.25"/>
    </g>
  </g>
  <g id="Circle" display="none">
    <path d="M250,490 C117.452,490 10,382.548 10,250 C10,117.452 117.452,10 250,10 C382.548,10 490,117.452 490,250 C490,382.548 382.548,490 250,490 z" fill="#404040" display="none"/>
    <path d="M250,420 C350,420 470,334.286 470,220 C470,105.714 387.5,20 250,20 C112.5,20 30,105.714 30,220 C30,334.286 150,420 250,420 z" fill="#808080" display="none"/>
    <path d="M250,490 C117.452,490 10,382.548 10,250 C10,117.452 117.452,10 250,10 C382.548,10 490,117.452 490,250 C490,382.548 382.548,490 250,490 z" fill="#FF862B"/>
    <path d="M250,420 C350,420 470,334.286 470,220 C470,105.714 387.5,20 250,20 C112.5,20 30,105.714 30,220 C30,334.286 150,420 250,420 z" fill="#FF9E55"/>
    <path d="M250,490 C117.452,490 10,382.548 10,250 C10,117.452 117.452,10 250,10 C382.548,10 490,117.452 490,250 C490,382.548 382.548,490 250,490 z" fill="#559B38" display="none"/>
    <path d="M250,420 C350,420 470,334.286 470,220 C470,105.714 387.5,20 250,20 C112.5,20 30,105.714 30,220 C30,334.286 150,420 250,420 z" fill="#6BC148" display="none"/>
    <path d="M250,490 C117.452,490 10,382.548 10,250 C10,117.452 117.452,10 250,10 C382.548,10 490,117.452 490,250 C490,382.548 382.548,490 250,490 z" fill="#AA2B24" display="none"/>
    <path d="M250,420 C350,420 470,334.286 470,220 C470,105.714 387.5,20 250,20 C112.5,20 30,105.714 30,220 C30,334.286 150,420 250,420 z" fill="#D24034" display="none"/>
    <path d="M250,0 C388.071,0 500,111.929 500,250 C500,388.071 388.071,500 250,500 C111.929,500 -0,388.071 -0,250 C-0,111.929 111.929,0 250,0 z M250,27.778 C127.27,27.778 27.778,127.27 27.778,250 C27.778,372.73 127.27,472.222 250,472.222 C372.73,472.222 472.222,372.73 472.222,250 C472.222,127.27 372.73,27.778 250,27.778 z" fill="#000000"/>
    <path d="M277.778,83.333 L277.778,120.37 C349.336,120.452 407.326,178.441 407.407,250 L444.444,250 C444.342,157.995 369.783,83.435 277.778,83.333 z" fill="#FFFFFF"/>
  </g>
  <g id="Rectangle">
    <path d="M51.739,10 L448.261,10 C471.313,10 490,28.29 490,50.851 L490,449.149 C490,471.71 471.313,490 448.261,490 L51.739,490 C28.687,490 10,471.71 10,449.149 L10,50.851 C10,28.29 28.687,10 51.739,10 z" fill="#404140"/>
    <path d="M58.333,20 L441.667,20 C462.838,20 480,36.629 480,57.143 L480,330 C480,350.513 440,410 390,410 C340,410 160,410 110,410 C60,410 20,350.513 20,330 L20,57.143 C20,36.629 37.162,20 58.333,20 z" fill="#808180"/>
    <path d="M51.739,10 L448.261,10 C471.313,10 490,28.29 490,50.851 L490,449.149 C490,471.71 471.313,490 448.261,490 L51.739,490 C28.687,490 10,471.71 10,449.149 L10,50.851 C10,28.29 28.687,10 51.739,10 z" fill="#AA2B25" display="none"/>
    <path d="M58.333,20 L441.667,20 C462.838,20 480,36.629 480,57.143 L480,330 C480,350.513 440,410 390,410 C340,410 160,410 110,410 C60,410 20,350.513 20,330 L20,57.143 C20,36.629 37.162,20 58.333,20 z" fill="#D24134" display="none"/>
    <path d="M51.739,10 L448.261,10 C471.313,10 490,28.29 490,50.851 L490,449.149 C490,471.71 471.313,490 448.261,490 L51.739,490 C28.687,490 10,471.71 10,449.149 L10,50.851 C10,28.29 28.687,10 51.739,10 z" fill="#FF862C" display="none"/>
    <path d="M58.333,20 L441.667,20 C462.838,20 480,36.629 480,57.143 L480,330 C480,350.513 440,410 390,410 C340,410 160,410 110,410 C60,410 20,350.513 20,330 L20,57.143 C20,36.629 37.162,20 58.333,20 z" fill="#FF9E55" display="none"/>
    <path d="M51.739,20 L448.261,20 C471.313,20 490,38.29 490,60.851 L490,459.149 C490,481.71 471.313,500 448.261,500 L51.739,500 C28.687,500 10,481.71 10,459.149 L10,60.851 C10,38.29 28.687,20 51.739,20 z" fill="#559B38" display="none"/>
    <path d="M58.333,20 L441.667,20 C462.838,20 480,36.629 480,57.143 L480,330 C480,350.513 440,410 390,410 C340,410 160,410 110,410 C60,410 20,350.513 20,330 L20,57.143 C20,36.629 37.162,20 58.333,20 z" fill="#6AC249" display="none"/>
    <path d="M460,0 C482.091,0 500,17.909 500,40 L500,460 C500,482.091 482.091,500 460,500 L40,500 C17.909,500 0,482.091 0,460 L0,40 C0,17.909 17.909,0 40,0 L460,0 z M443.2,20 L56.8,20 C36.476,20 20,36.476 20,56.8 L20,443.2 C20,463.524 36.476,480 56.8,480 L443.2,480 C463.524,480 480,463.524 480,443.2 L480,56.8 C480,36.476 463.524,20 443.2,20 z" fill="#000000"/>
    <path d="M410.001,50 C432.093,50 450.002,67.909 450.002,90 L450.001,240 C449.723,245.623 450.033,242.273 448.648,250 L420.002,250 L420.001,120 C420.002,97.909 402.093,80 380.002,80 L290.002,80 L290.002,50 L290,50 L290.001,50 L410.001,50 z" fill="#FFFFFF"/>
  </g>
</svg>
