<?xml version="1.0" encoding="UTF-8"?>
<!DOCTYPE svg PUBLIC "-//W3C//DTD SVG 1.1//EN" "http://www.w3.org/Graphics/SVG/1.1/DTD/svg11.dtd">
<svg version="1.1" xmlns="http://www.w3.org/2000/svg" x="0" y="0" width="512" height="512" viewBox="0, 0, 512, 512">
  <g id="Background">
    <rect x="0" y="0" width="512" height="512" fill="#000000" fill-opacity="0"/>
  </g>
  <g id="Background" display="none">
    <path d="M0,0 L512,0 L512,512 L0,512 z" fill="#FFFFFF"/>
  </g>
  <g id="Layer_1">
    <g>
      <path d="M286.524,350.1 L421.769,214.855 C438.776,197.849 438.776,170.275 421.769,153.27 L361.488,92.989 C344.481,75.982 316.908,75.982 299.902,92.989 L164.657,228.233 C142.345,250.545 119.084,271.886 94.939,292.2 L39.312,338.996 C5.365,367.555 3.15,419.053 34.518,450.421 L64.337,480.24 C95.705,511.609 147.204,509.393 175.762,475.447 L222.559,419.82 C242.871,395.672 264.212,372.411 286.524,350.1 z" fill="#EECC00"/>
      <path d="M340.221,217.32 C340.221,240.95 321.066,260.105 297.437,260.105 C273.808,260.105 254.652,240.95 254.652,217.32 C254.652,193.691 273.808,174.536 297.437,174.536 C321.066,174.536 340.221,193.691 340.221,217.32 z" fill="#E0E7EF"/>
      <path d="M99.601,446.67 L68.881,415.95 C58.681,405.75 58.681,389.213 68.881,379.014 C79.029,369.049 95.688,368.886 105.816,379.014 L136.537,409.734 C146.736,419.934 146.736,436.471 136.537,446.67 C126.389,456.634 109.73,456.798 99.601,446.67 z" fill="#9B98E7"/>
    </g>
    <g>
      <path d="M368.565,85.91 C347.683,65.029 313.708,65.031 292.825,85.91 L157.58,221.156 C135.566,243.171 112.323,264.496 88.497,284.541 L32.87,331.337 C-4.977,363.176 -7.544,422.512 27.441,457.497 L57.259,487.316 C92.254,522.31 151.578,519.737 183.42,481.888 L230.217,426.261 C250.263,402.433 271.589,379.189 293.602,357.176 L331.198,319.579 C335.106,315.671 335.106,309.334 331.198,305.425 C327.289,301.517 320.954,301.517 317.044,305.425 L279.447,343.023 C257.031,365.44 235.314,389.11 214.899,413.375 L168.103,469.002 C143.653,498.066 98.285,500.032 71.414,473.163 L41.596,443.345 C14.725,416.473 16.692,371.104 45.755,346.655 L101.382,299.858 C125.645,279.445 149.315,257.729 171.734,235.31 L306.98,100.064 C320.056,86.987 341.334,86.986 354.412,100.064 L414.693,160.345 C427.615,173.267 427.616,194.854 414.693,207.778 L378.86,243.611 C374.951,247.519 374.951,253.856 378.86,257.765 C382.769,261.673 389.104,261.673 393.014,257.765 L428.847,221.932 C449.485,201.294 449.486,166.831 428.847,146.192 z" fill="#000000"/>
      <path d="M334.767,179.99 C314.181,159.407 280.69,159.408 260.106,179.99 C239.523,200.574 239.523,234.066 260.106,254.649 C280.418,274.96 314.458,274.979 334.767,254.649 C355.351,234.066 355.351,200.574 334.767,179.99 z M320.614,240.496 C307.938,253.045 286.923,253.157 274.261,240.496 C261.482,227.717 261.482,206.923 274.261,194.144 C286.875,181.528 307.998,181.528 320.614,194.144 C333.392,206.923 333.392,227.717 320.614,240.496 z" fill="#000000"/>
      <path d="M306.682,213.492 C304.586,208.459 298.656,205.991 293.612,208.078 C288.57,210.164 286.112,216.108 288.197,221.148 C293.131,233.073 311.645,225.407 306.682,213.492 z" fill="#000000"/>
      <path d="M195.513,244.584 C191.605,248.492 191.605,254.83 195.513,258.739 L208.36,271.586 C212.218,275.443 218.656,275.443 222.514,271.586 C226.423,267.678 226.423,261.341 222.514,257.432 L209.667,244.584 C205.757,240.676 199.422,240.676 195.513,244.584 z" fill="#000000"/>
      <path d="M243.171,292.243 C239.263,296.151 239.263,302.488 243.171,306.397 L256.019,319.245 C259.877,323.102 266.315,323.102 270.173,319.245 C274.081,315.336 274.081,308.999 270.173,305.09 L257.326,292.243 C253.415,288.335 247.08,288.335 243.171,292.243 z" fill="#000000"/>
      <path d="M87.349,361.357 C77.7,361.357 68.628,365.115 61.805,371.937 C47.887,385.855 47.886,409.107 61.805,423.026 L92.526,453.747 C106.445,467.666 129.691,467.669 143.615,453.747 C157.533,439.829 157.534,416.577 143.615,402.658 L112.895,371.938 C106.071,365.115 96.998,361.357 87.349,361.357 z M134.179,428.202 C134.179,432.506 132.503,436.551 129.46,439.594 C123.263,445.791 112.872,445.794 106.679,439.594 L75.958,408.873 C69.758,402.673 69.755,392.292 75.958,386.091 C82.157,379.891 92.54,379.889 98.741,386.091 L129.46,416.811 C132.503,419.854 134.179,423.899 134.179,428.202 z" fill="#000000"/>
      <path d="M395.538,48.843 C390.012,48.843 385.53,53.324 385.53,58.851 C385.53,64.379 390.012,68.86 395.538,68.86 C420.264,68.86 440.381,88.976 440.381,113.702 C440.381,119.229 444.863,123.71 450.389,123.71 C455.916,123.71 460.397,119.229 460.397,113.702 C460.397,77.938 431.301,48.843 395.538,48.843 z" fill="#000000"/>
      <path d="M395.538,0 C390.012,0 385.53,4.481 385.53,10.008 C385.53,15.536 390.012,20.016 395.538,20.016 C447.196,20.016 489.223,62.043 489.223,113.702 C489.223,119.229 493.704,123.71 499.231,123.71 C504.757,123.71 509.239,119.229 509.239,113.702 C509.239,51.006 458.234,0 395.538,0 z" fill="#000000"/>
      <path d="M365.71,276.323 C363.613,271.291 357.684,268.816 352.638,270.909 C347.602,272.997 345.144,278.944 347.224,283.979 C349.307,289.023 355.261,291.472 360.296,289.393 C365.352,287.306 367.779,281.369 365.71,276.323 z" fill="#000000"/>
    </g>
  </g>
</svg>
