<svg enable-background="new 0 0 24 24" height="512" viewBox="0 0 24 24" width="512" xmlns="http://www.w3.org/2000/svg"><path d="m16.996 12.207-1.988-1.988-1.226-1.226-1.988-1.988c-.248-.248-.621-.321-.945-.188-.324.134-.535.451-.535.801v5.203c0 .479.388.867.867.867h5.203c.351 0 .667-.211.801-.535.134-.325.059-.698-.189-.946z" fill="#4caf50"/><path d="m6.965 22.917h-4.596c-.71 0-1.285-.576-1.285-1.285v-4.596c0-.71.576-1.285 1.285-1.285h4.596c.71 0 1.285.576 1.285 1.285v4.596c0 .709-.576 1.285-1.285 1.285z" fill="#2196f3"/><path d="m21.25 24h-18.5c-1.517 0-2.75-1.233-2.75-2.75v-18.5c0-1.517 1.233-2.75 2.75-2.75h18.5c1.517 0 2.75 1.233 2.75 2.75v18.5c0 1.517-1.233 2.75-2.75 2.75zm-18.5-22.5c-.689 0-1.25.561-1.25 1.25v18.5c0 .689.561 1.25 1.25 1.25h18.5c.689 0 1.25-.561 1.25-1.25v-18.5c0-.689-.561-1.25-1.25-1.25z"/><path d="m17.25 14h-6.5c-.414 0-.75-.336-.75-.75v-6.5c0-.304.183-.577.463-.693.28-.115.603-.052.817.163l6.5 6.5c.215.215.278.537.163.817-.116.28-.389.463-.693.463zm-5.75-1.5h3.939l-3.939-3.939z"/><path d="m14 10.75c-.192 0-.384-.073-.53-.22-.293-.293-.293-.768 0-1.061l5.25-5.25c.293-.293.768-.293 1.061 0s.293.768 0 1.061l-5.25 5.25c-.147.147-.339.22-.531.22z"/><path d="m8.25 24c-.414 0-.75-.336-.75-.75v-6.75h-6.75c-.414 0-.75-.336-.75-.75s.336-.75.75-.75h7.5c.414 0 .75.336.75.75v7.5c0 .414-.336.75-.75.75z"/></svg>