<?xml version="1.0" encoding="UTF-8"?>
<!DOCTYPE svg PUBLIC "-//W3C//DTD SVG 1.1//EN" "http://www.w3.org/Graphics/SVG/1.1/DTD/svg11.dtd">
<svg version="1.1" xmlns="http://www.w3.org/2000/svg" x="0" y="0" width="512" height="512" viewBox="0, 0, 512, 512">
  <g id="Background">
    <rect x="0" y="0" width="512" height="512" fill="#000000" fill-opacity="0"/>
  </g>
  <g id="STOP" display="none">
    <g>
      <path d="M472.175,357.016 L39.825,357.016 C21.972,357.016 7.5,342.544 7.5,324.691 L7.5,187.309 C7.5,169.456 21.972,154.984 39.825,154.984 L472.175,154.984 C490.028,154.984 504.5,169.456 504.5,187.309 L504.5,324.691 C504.5,342.544 490.027,357.016 472.175,357.016 z" fill="#FD8087"/>
      <path d="M472.175,154.984 L472.175,314.59 C472.175,320.169 467.652,324.692 462.073,324.692 L7.5,324.692 C7.5,342.545 21.973,357.017 39.825,357.017 L472.175,357.017 C490.028,357.017 504.5,342.545 504.5,324.692 L504.5,187.309 C504.5,169.456 490.027,154.984 472.175,154.984 z" fill="#FE646F"/>
      <g>
        <path d="M54.203,213.745 L115.189,213.745 C120.712,213.745 125.189,218.222 125.189,223.745 L125.189,283.882 C125.189,289.405 120.712,293.882 115.189,293.882 L54.203,293.882 C48.681,293.882 44.203,289.405 44.203,283.882 L44.203,223.745 C44.203,218.222 48.681,213.745 54.203,213.745 z" fill="#FFFFFF"/>
        <g>
          <path d="M57.187,214.108 L112.819,214.108 C119.646,214.108 125.181,219.643 125.181,226.47 L125.181,282.102 C125.181,288.929 119.646,294.464 112.819,294.464 L57.187,294.464 C50.36,294.464 44.825,288.929 44.825,282.102 L44.825,262.506" fill="#FFFFFF"/>
          <path d="M57.187,220.108 L112.819,220.108 L112.743,220.107 L113.062,220.111 L113.466,220.136 L113.787,220.177 L114.101,220.232 L114.408,220.303 L114.708,220.388 L115.002,220.487 L115.289,220.6 L115.569,220.726 L115.842,220.866 L116.108,221.018 L116.366,221.183 L116.616,221.361 L116.858,221.55 L117.09,221.75 L117.313,221.962 L117.525,222.184 L117.727,222.416 L117.917,222.657 L118.095,222.907 L118.262,223.166 L118.416,223.432 L118.556,223.706 L118.684,223.987 L118.798,224.275 L118.897,224.568 L118.983,224.868 L119.054,225.173 L119.11,225.485 L119.151,225.802 L119.176,226.125 L119.185,226.455 L119.182,226.546 L119.181,226.47 L119.181,282.102 L119.182,282.026 L119.178,282.345 L119.153,282.75 L119.113,283.07 L119.057,283.384 L118.986,283.691 L118.901,283.991 L118.802,284.285 L118.689,284.572 L118.563,284.852 L118.424,285.125 L118.271,285.391 L118.106,285.65 L117.929,285.9 L117.74,286.141 L117.539,286.373 L117.327,286.596 L117.105,286.808 L116.874,287.01 L116.632,287.2 L116.382,287.379 L116.123,287.545 L115.857,287.699 L115.583,287.84 L115.302,287.967 L115.015,288.081 L114.721,288.181 L114.421,288.266 L114.116,288.337 L113.804,288.393 L113.487,288.434 L113.164,288.459 L112.834,288.468 L112.743,288.465 L112.819,288.464 L57.187,288.464 L57.263,288.465 L56.944,288.461 L56.54,288.436 L56.219,288.396 L55.905,288.34 L55.598,288.27 L55.298,288.185 L55.004,288.085 L54.717,287.973 L54.437,287.846 L54.164,287.707 L53.898,287.554 L53.64,287.389 L53.39,287.212 L53.148,287.023 L52.916,286.822 L52.693,286.611 L52.481,286.389 L52.28,286.157 L52.089,285.915 L51.911,285.665 L51.744,285.406 L51.59,285.14 L51.45,284.866 L51.322,284.585 L51.208,284.298 L51.109,284.004 L51.023,283.704 L50.952,283.399 L50.896,283.088 L50.855,282.77 L50.83,282.447 L50.821,282.117 L50.824,282.026 L50.825,282.102 L50.825,262.506 L50.825,262.506 C50.825,259.192 48.139,256.506 44.825,256.506 C41.511,256.506 38.825,259.192 38.825,262.506 C38.825,262.506 38.825,262.506 38.825,262.506 L38.825,282.102 L38.825,282.102 C38.825,282.127 38.825,282.152 38.825,282.178 L38.825,282.178 L38.837,282.724 L38.892,283.659 L38.993,284.582 L39.14,285.493 L39.331,286.389 L39.564,287.268 L39.84,288.13 L40.156,288.972 L40.512,289.794 L40.905,290.594 L41.335,291.371 L41.801,292.124 L42.301,292.852 L42.834,293.553 L43.399,294.228 L43.996,294.874 L44.622,295.491 L45.278,296.077 L45.962,296.633 L46.672,297.155 L47.409,297.644 L48.17,298.099 L48.955,298.517 L49.763,298.898 L50.592,299.241 L51.441,299.544 L52.308,299.806 L53.193,300.026 L54.093,300.202 L55.007,300.334 L55.933,300.421 L56.792,300.46 L57.111,300.464 L57.111,300.464 C57.137,300.464 57.162,300.464 57.187,300.464 L57.187,300.464 L112.819,300.464 L112.819,300.464 C112.844,300.464 112.869,300.464 112.895,300.464 L112.895,300.464 L113.441,300.453 L114.376,300.398 L115.299,300.296 L116.21,300.149 L117.105,299.959 L117.985,299.725 L118.847,299.449 L119.689,299.133 L120.511,298.778 L121.311,298.384 L122.088,297.954 L122.841,297.488 L123.569,296.988 L124.27,296.455 L124.945,295.89 L125.591,295.293 L126.208,294.667 L126.794,294.011 L127.349,293.328 L127.872,292.617 L128.361,291.881 L128.816,291.119 L129.234,290.334 L129.615,289.527 L129.958,288.698 L130.261,287.849 L130.523,286.981 L130.743,286.096 L130.919,285.196 L131.051,284.282 L131.138,283.356 L131.177,282.497 L131.181,282.178 L131.181,282.178 C131.181,282.152 131.181,282.127 131.181,282.102 L131.181,282.102 L131.181,226.47 L131.181,226.47 C131.181,226.445 131.181,226.42 131.181,226.395 L131.181,226.395 L131.17,225.848 L131.115,224.913 L131.013,223.99 L130.866,223.079 L130.676,222.184 L130.442,221.304 L130.166,220.443 L129.85,219.6 L129.494,218.778 L129.101,217.978 L128.671,217.201 L128.205,216.448 L127.705,215.721 L127.172,215.019 L126.607,214.345 L126.01,213.698 L125.384,213.081 L124.728,212.495 L124.045,211.94 L123.334,211.417 L122.598,210.928 L121.836,210.473 L121.051,210.055 L120.244,209.674 L119.415,209.331 L118.566,209.028 L117.698,208.766 L116.813,208.546 L115.913,208.37 L114.999,208.238 L114.073,208.152 L113.214,208.112 L112.895,208.108 L112.895,208.108 C112.869,208.108 112.844,208.108 112.819,208.108 L112.819,208.108 L57.187,208.108 C53.874,208.108 51.187,210.794 51.187,214.108 C51.187,217.422 53.874,220.108 57.187,220.108 L57.187,220.108" fill="#000000"/>
        </g>
        <g>
          <path d="M44.825,236.217 L44.825,226.47 C44.825,219.643 50.36,214.108 57.187,214.108" fill="#FFFFFF"/>
          <path d="M50.825,236.217 L50.825,226.47 L50.824,226.546 L50.828,226.227 L50.853,225.823 L50.893,225.502 L50.949,225.188 L51.02,224.881 L51.105,224.581 L51.204,224.287 L51.317,224 L51.443,223.72 L51.583,223.447 L51.735,223.181 L51.9,222.923 L52.077,222.673 L52.267,222.431 L52.467,222.199 L52.679,221.977 L52.901,221.764 L53.133,221.563 L53.374,221.372 L53.624,221.194 L53.883,221.027 L54.149,220.874 L54.423,220.733 L54.704,220.605 L54.992,220.492 L55.285,220.392 L55.585,220.306 L55.89,220.235 L56.202,220.179 L56.519,220.138 L56.842,220.113 L57.172,220.104 L57.263,220.107 L57.263,220.107 C60.577,220.066 63.229,217.345 63.187,214.032 C63.145,210.719 60.425,208.066 57.111,208.108 L56.565,208.12 L55.63,208.175 L54.707,208.276 L53.796,208.423 L52.901,208.614 L52.021,208.848 L51.16,209.123 L50.317,209.439 L49.495,209.795 L48.695,210.188 L47.918,210.618 L47.165,211.084 L46.438,211.584 L45.736,212.117 L45.061,212.682 L44.415,213.279 L43.798,213.906 L43.212,214.561 L42.657,215.245 L42.134,215.955 L41.645,216.692 L41.19,217.453 L40.772,218.238 L40.391,219.046 L40.048,219.875 L39.745,220.724 L39.483,221.591 L39.263,222.476 L39.087,223.376 L38.955,224.29 L38.869,225.216 L38.829,226.075 L38.825,226.395 L38.825,226.395 C38.825,226.42 38.825,226.445 38.825,226.47 L38.825,226.47 L38.825,236.217 C38.825,239.531 41.511,242.217 44.825,242.217 C48.139,242.217 50.825,239.531 50.825,236.217 L50.825,236.217" fill="#000000"/>
        </g>
        <path d="M72,349.52 L39.83,349.52 C26.139,349.52 15,338.381 15,324.69 L15,187.31 C15,173.619 26.139,162.48 39.83,162.48 L405,162.48 C409.142,162.48 412.5,159.122 412.5,154.98 C412.5,150.838 409.142,147.48 405,147.48 L39.83,147.48 C17.868,147.48 0,165.348 0,187.31 L0,324.69 C0,346.652 17.868,364.52 39.83,364.52 L72,364.52 C76.142,364.52 79.5,361.162 79.5,357.02 C79.5,352.878 76.142,349.52 72,349.52 z" fill="#000000"/>
        <path d="M472.17,147.48 L440,147.48 C435.858,147.48 432.5,150.838 432.5,154.98 C432.5,159.122 435.858,162.48 440,162.48 L472.17,162.48 C485.861,162.48 497,173.619 497,187.31 L497,324.69 C497,338.381 485.861,349.52 472.17,349.52 L107,349.52 C102.858,349.52 99.5,352.878 99.5,357.02 C99.5,361.162 102.858,364.52 107,364.52 L472.17,364.52 C494.132,364.52 512,346.652 512,324.69 L512,187.31 C512,165.348 494.132,147.48 472.17,147.48 z" fill="#000000"/>
      </g>
    </g>
    <path d="M219.648,272.719 Q219.648,280.512 215.635,286.723 Q211.621,292.934 203.887,296.449 Q196.152,299.965 185.547,299.965 Q172.832,299.965 164.57,295.16 Q158.711,291.703 155.049,285.932 Q151.387,280.16 151.387,274.711 Q151.387,271.547 153.584,269.291 Q155.781,267.035 159.18,267.035 Q161.934,267.035 163.838,268.793 Q165.742,270.551 167.09,274.008 Q168.73,278.109 170.635,280.863 Q172.539,283.617 175.996,285.404 Q179.453,287.191 185.078,287.191 Q192.812,287.191 197.646,283.588 Q202.48,279.984 202.48,274.594 Q202.48,270.316 199.873,267.65 Q197.266,264.984 193.135,263.578 Q189.004,262.172 182.09,260.59 Q172.832,258.422 166.592,255.521 Q160.352,252.621 156.689,247.611 Q153.027,242.602 153.027,235.16 Q153.027,228.07 156.895,222.562 Q160.762,217.055 168.086,214.096 Q175.41,211.137 185.312,211.137 Q193.223,211.137 198.994,213.1 Q204.766,215.062 208.574,218.314 Q212.383,221.566 214.141,225.141 Q215.898,228.715 215.898,232.113 Q215.898,235.219 213.701,237.709 Q211.504,240.199 208.223,240.199 Q205.234,240.199 203.682,238.705 Q202.129,237.211 200.312,233.812 Q197.969,228.949 194.688,226.225 Q191.406,223.5 184.141,223.5 Q177.402,223.5 173.271,226.459 Q169.141,229.418 169.141,233.578 Q169.141,236.156 170.547,238.031 Q171.953,239.906 174.414,241.254 Q176.875,242.602 179.395,243.363 Q181.914,244.125 187.715,245.59 Q194.98,247.289 200.869,249.34 Q206.758,251.391 210.889,254.32 Q215.02,257.25 217.334,261.732 Q219.648,266.215 219.648,272.719 z" fill="#000000"/>
    <path d="M285.195,226.957 L266.211,226.957 L266.211,289.359 Q266.211,294.75 263.809,297.357 Q261.406,299.965 257.598,299.965 Q253.73,299.965 251.299,297.328 Q248.867,294.691 248.867,289.359 L248.867,226.957 L229.883,226.957 Q225.43,226.957 223.262,224.994 Q221.094,223.031 221.094,219.809 Q221.094,216.469 223.35,214.535 Q225.605,212.602 229.883,212.602 L285.195,212.602 Q289.707,212.602 291.904,214.594 Q294.102,216.586 294.102,219.809 Q294.102,223.031 291.875,224.994 Q289.648,226.957 285.195,226.957 z" fill="#000000"/>
    <path d="M335.625,211.137 Q348.984,211.137 358.564,216.557 Q368.145,221.977 373.066,231.967 Q377.988,241.957 377.988,255.434 Q377.988,265.395 375.293,273.539 Q372.598,281.684 367.207,287.66 Q361.816,293.637 353.965,296.801 Q346.113,299.965 335.977,299.965 Q325.898,299.965 317.93,296.713 Q309.961,293.461 304.629,287.543 Q299.297,281.625 296.572,273.305 Q293.848,264.984 293.848,255.316 Q293.848,245.414 296.689,237.152 Q299.531,228.891 304.922,223.09 Q310.312,217.289 318.047,214.213 Q325.781,211.137 335.625,211.137 z M360.352,255.316 Q360.352,245.883 357.305,238.969 Q354.258,232.055 348.604,228.51 Q342.949,224.965 335.625,224.965 Q330.41,224.965 325.986,226.928 Q321.562,228.891 318.369,232.641 Q315.176,236.391 313.33,242.221 Q311.484,248.051 311.484,255.316 Q311.484,262.641 313.33,268.559 Q315.176,274.477 318.545,278.373 Q321.914,282.27 326.279,284.203 Q330.645,286.137 335.859,286.137 Q342.539,286.137 348.135,282.797 Q353.73,279.457 357.041,272.484 Q360.352,265.512 360.352,255.316 z" fill="#000000"/>
    <path d="M421.211,265.043 L405.273,265.043 L405.273,289.359 Q405.273,294.574 402.812,297.27 Q400.352,299.965 396.602,299.965 Q392.676,299.965 390.273,297.299 Q387.871,294.633 387.871,289.477 L387.871,223.266 Q387.871,217.523 390.508,215.062 Q393.145,212.602 398.887,212.602 L421.211,212.602 Q431.113,212.602 436.445,214.125 Q441.719,215.59 445.557,218.988 Q449.395,222.387 451.387,227.309 Q453.379,232.23 453.379,238.383 Q453.379,251.508 445.293,258.275 Q437.207,265.043 421.211,265.043 z M416.992,225.668 L405.273,225.668 L405.273,251.918 L416.992,251.918 Q423.145,251.918 427.275,250.629 Q431.406,249.34 433.574,246.41 Q435.742,243.48 435.742,238.734 Q435.742,233.051 432.402,229.477 Q428.652,225.668 416.992,225.668 z" fill="#000000"/>
  </g>
  <g id="STOP_DISABLED">
    <g>
      <path d="M472.175,357.016 L39.825,357.016 C21.972,357.016 7.5,342.544 7.5,324.691 L7.5,187.309 C7.5,169.456 21.972,154.984 39.825,154.984 L472.175,154.984 C490.028,154.984 504.5,169.456 504.5,187.309 L504.5,324.691 C504.5,342.544 490.027,357.016 472.175,357.016 z" fill="#D5D5D5"/>
      <path d="M472.175,154.984 L472.175,314.59 C472.175,320.169 467.652,324.692 462.073,324.692 L7.5,324.692 C7.5,342.545 21.973,357.017 39.825,357.017 L472.175,357.017 C490.028,357.017 504.5,342.545 504.5,324.692 L504.5,187.309 C504.5,169.456 490.027,154.984 472.175,154.984 z" fill="#959595"/>
      <g>
        <path d="M54.203,213.745 L115.189,213.745 C120.712,213.745 125.189,218.222 125.189,223.745 L125.189,283.882 C125.189,289.405 120.712,293.882 115.189,293.882 L54.203,293.882 C48.681,293.882 44.203,289.405 44.203,283.882 L44.203,223.745 C44.203,218.222 48.681,213.745 54.203,213.745 z" fill="#FFFFFF"/>
        <path d="M57.187,220.108 L112.819,220.108 L112.743,220.107 L113.062,220.111 L113.466,220.136 L113.787,220.177 L114.101,220.232 L114.408,220.303 L114.708,220.388 L115.002,220.487 L115.289,220.6 L115.569,220.726 L115.842,220.866 L116.108,221.018 L116.366,221.183 L116.616,221.361 L116.858,221.55 L117.09,221.75 L117.313,221.962 L117.525,222.184 L117.727,222.416 L117.917,222.657 L118.095,222.907 L118.262,223.166 L118.416,223.432 L118.556,223.706 L118.684,223.987 L118.798,224.275 L118.897,224.568 L118.983,224.868 L119.054,225.173 L119.11,225.485 L119.151,225.802 L119.176,226.125 L119.185,226.455 L119.182,226.546 L119.181,226.47 L119.181,282.102 L119.182,282.026 L119.178,282.345 L119.153,282.75 L119.113,283.07 L119.057,283.384 L118.986,283.691 L118.901,283.991 L118.802,284.285 L118.689,284.572 L118.563,284.852 L118.424,285.125 L118.271,285.391 L118.106,285.65 L117.929,285.9 L117.74,286.141 L117.539,286.373 L117.327,286.596 L117.105,286.808 L116.874,287.01 L116.632,287.2 L116.382,287.379 L116.123,287.545 L115.857,287.699 L115.583,287.84 L115.302,287.967 L115.015,288.081 L114.721,288.181 L114.421,288.266 L114.116,288.337 L113.804,288.393 L113.487,288.434 L113.164,288.459 L112.834,288.468 L112.743,288.465 L112.819,288.464 L57.187,288.464 L57.263,288.465 L56.944,288.461 L56.54,288.436 L56.219,288.396 L55.905,288.34 L55.598,288.27 L55.298,288.185 L55.004,288.085 L54.717,287.973 L54.437,287.846 L54.164,287.707 L53.898,287.554 L53.64,287.389 L53.39,287.212 L53.148,287.023 L52.916,286.822 L52.693,286.611 L52.481,286.389 L52.28,286.157 L52.089,285.915 L51.911,285.665 L51.744,285.406 L51.59,285.14 L51.45,284.866 L51.322,284.585 L51.208,284.298 L51.109,284.004 L51.023,283.704 L50.952,283.399 L50.896,283.088 L50.855,282.77 L50.83,282.447 L50.821,282.117 L50.824,282.026 L50.825,282.102 L50.825,262.506 L50.825,262.506 C50.825,259.192 48.139,256.506 44.825,256.506 C41.511,256.506 38.825,259.192 38.825,262.506 C38.825,262.506 38.825,262.506 38.825,262.506 L38.825,282.102 L38.825,282.102 C38.825,282.127 38.825,282.152 38.825,282.178 L38.825,282.178 L38.837,282.724 L38.892,283.659 L38.993,284.582 L39.14,285.493 L39.331,286.389 L39.564,287.268 L39.84,288.13 L40.156,288.972 L40.512,289.794 L40.905,290.594 L41.335,291.371 L41.801,292.124 L42.301,292.852 L42.834,293.553 L43.399,294.228 L43.996,294.874 L44.622,295.491 L45.278,296.077 L45.962,296.633 L46.672,297.155 L47.409,297.644 L48.17,298.099 L48.955,298.517 L49.763,298.898 L50.592,299.241 L51.441,299.544 L52.308,299.806 L53.193,300.026 L54.093,300.202 L55.007,300.334 L55.933,300.421 L56.792,300.46 L57.111,300.464 L57.111,300.464 C57.137,300.464 57.162,300.464 57.187,300.464 L57.187,300.464 L112.819,300.464 L112.819,300.464 C112.844,300.464 112.869,300.464 112.895,300.464 L112.895,300.464 L113.441,300.453 L114.376,300.398 L115.299,300.296 L116.21,300.149 L117.105,299.959 L117.985,299.725 L118.847,299.449 L119.689,299.133 L120.511,298.778 L121.311,298.384 L122.088,297.954 L122.841,297.488 L123.569,296.988 L124.27,296.455 L124.945,295.89 L125.591,295.293 L126.208,294.667 L126.794,294.011 L127.349,293.328 L127.872,292.617 L128.361,291.881 L128.816,291.119 L129.234,290.334 L129.615,289.527 L129.958,288.698 L130.261,287.849 L130.523,286.981 L130.743,286.096 L130.919,285.196 L131.051,284.282 L131.138,283.356 L131.177,282.497 L131.181,282.178 L131.181,282.178 C131.181,282.152 131.181,282.127 131.181,282.102 L131.181,282.102 L131.181,226.47 L131.181,226.47 C131.181,226.445 131.181,226.42 131.181,226.395 L131.181,226.395 L131.17,225.848 L131.115,224.913 L131.013,223.99 L130.866,223.079 L130.676,222.184 L130.442,221.304 L130.166,220.443 L129.85,219.6 L129.494,218.778 L129.101,217.978 L128.671,217.201 L128.205,216.448 L127.705,215.721 L127.172,215.019 L126.607,214.345 L126.01,213.698 L125.384,213.081 L124.728,212.495 L124.045,211.94 L123.334,211.417 L122.598,210.928 L121.836,210.473 L121.051,210.055 L120.244,209.674 L119.415,209.331 L118.566,209.028 L117.698,208.766 L116.813,208.546 L115.913,208.37 L114.999,208.238 L114.073,208.152 L113.214,208.112 L112.895,208.108 L112.895,208.108 C112.869,208.108 112.844,208.108 112.819,208.108 L112.819,208.108 L57.187,208.108 C53.874,208.108 51.187,210.794 51.187,214.108 C51.187,217.422 53.874,220.108 57.187,220.108 L57.187,220.108" fill="#6A6A6A"/>
        <g>
          <path d="M44.825,236.217 L44.825,226.47 C44.825,219.643 50.36,214.108 57.187,214.108" fill="#6A6A6A"/>
          <path d="M50.825,236.217 L50.825,226.47 L50.824,226.546 L50.828,226.227 L50.853,225.823 L50.893,225.502 L50.949,225.188 L51.02,224.881 L51.105,224.581 L51.204,224.287 L51.317,224 L51.443,223.72 L51.583,223.447 L51.735,223.181 L51.9,222.923 L52.077,222.673 L52.267,222.431 L52.467,222.199 L52.679,221.977 L52.901,221.764 L53.133,221.563 L53.374,221.372 L53.624,221.194 L53.883,221.027 L54.149,220.874 L54.423,220.733 L54.704,220.605 L54.992,220.492 L55.285,220.392 L55.585,220.306 L55.89,220.235 L56.202,220.179 L56.519,220.138 L56.842,220.113 L57.172,220.104 L57.263,220.107 L57.263,220.107 C60.577,220.066 63.229,217.345 63.187,214.032 C63.145,210.719 60.425,208.066 57.111,208.108 L56.565,208.12 L55.63,208.175 L54.707,208.276 L53.796,208.423 L52.901,208.614 L52.021,208.848 L51.16,209.123 L50.317,209.439 L49.495,209.795 L48.695,210.188 L47.918,210.618 L47.165,211.084 L46.438,211.584 L45.736,212.117 L45.061,212.682 L44.415,213.279 L43.798,213.906 L43.212,214.561 L42.657,215.245 L42.134,215.955 L41.645,216.692 L41.19,217.453 L40.772,218.238 L40.391,219.046 L40.048,219.875 L39.745,220.724 L39.483,221.591 L39.263,222.476 L39.087,223.376 L38.955,224.29 L38.869,225.216 L38.829,226.075 L38.825,226.395 L38.825,226.395 C38.825,226.42 38.825,226.445 38.825,226.47 L38.825,226.47 L38.825,236.217 C38.825,239.531 41.511,242.217 44.825,242.217 C48.139,242.217 50.825,239.531 50.825,236.217 L50.825,236.217" fill="#6A6A6A"/>
        </g>
        <path d="M72,349.52 L39.83,349.52 C26.139,349.52 15,338.381 15,324.69 L15,187.31 C15,173.619 26.139,162.48 39.83,162.48 L405,162.48 C409.142,162.48 412.5,159.122 412.5,154.98 C412.5,150.838 409.142,147.48 405,147.48 L39.83,147.48 C17.868,147.48 0,165.348 0,187.31 L0,324.69 C0,346.652 17.868,364.52 39.83,364.52 L72,364.52 C76.142,364.52 79.5,361.162 79.5,357.02 C79.5,352.878 76.142,349.52 72,349.52 z" fill="#6A6A6A"/>
        <path d="M472.17,147.48 L440,147.48 C435.858,147.48 432.5,150.838 432.5,154.98 C432.5,159.122 435.858,162.48 440,162.48 L472.17,162.48 C485.861,162.48 497,173.619 497,187.31 L497,324.69 C497,338.381 485.861,349.52 472.17,349.52 L107,349.52 C102.858,349.52 99.5,352.878 99.5,357.02 C99.5,361.162 102.858,364.52 107,364.52 L472.17,364.52 C494.132,364.52 512,346.652 512,324.69 L512,187.31 C512,165.348 494.132,147.48 472.17,147.48 z" fill="#6A6A6A"/>
      </g>
    </g>
    <path d="M219.648,272.719 Q219.648,280.512 215.635,286.723 Q211.621,292.934 203.887,296.449 Q196.152,299.965 185.547,299.965 Q172.832,299.965 164.57,295.16 Q158.711,291.703 155.049,285.932 Q151.387,280.16 151.387,274.711 Q151.387,271.547 153.584,269.291 Q155.781,267.035 159.18,267.035 Q161.934,267.035 163.838,268.793 Q165.742,270.551 167.09,274.008 Q168.73,278.109 170.635,280.863 Q172.539,283.617 175.996,285.404 Q179.453,287.191 185.078,287.191 Q192.812,287.191 197.646,283.588 Q202.48,279.984 202.48,274.594 Q202.48,270.316 199.873,267.65 Q197.266,264.984 193.135,263.578 Q189.004,262.172 182.09,260.59 Q172.832,258.422 166.592,255.521 Q160.352,252.621 156.689,247.611 Q153.027,242.602 153.027,235.16 Q153.027,228.07 156.895,222.562 Q160.762,217.055 168.086,214.096 Q175.41,211.137 185.312,211.137 Q193.223,211.137 198.994,213.1 Q204.766,215.062 208.574,218.314 Q212.383,221.566 214.141,225.141 Q215.898,228.715 215.898,232.113 Q215.898,235.219 213.701,237.709 Q211.504,240.199 208.223,240.199 Q205.234,240.199 203.682,238.705 Q202.129,237.211 200.312,233.812 Q197.969,228.949 194.688,226.225 Q191.406,223.5 184.141,223.5 Q177.402,223.5 173.271,226.459 Q169.141,229.418 169.141,233.578 Q169.141,236.156 170.547,238.031 Q171.953,239.906 174.414,241.254 Q176.875,242.602 179.395,243.363 Q181.914,244.125 187.715,245.59 Q194.98,247.289 200.869,249.34 Q206.758,251.391 210.889,254.32 Q215.02,257.25 217.334,261.732 Q219.648,266.215 219.648,272.719 z" fill="#6A6A6A"/>
    <path d="M285.195,226.957 L266.211,226.957 L266.211,289.359 Q266.211,294.75 263.809,297.357 Q261.406,299.965 257.598,299.965 Q253.73,299.965 251.299,297.328 Q248.867,294.691 248.867,289.359 L248.867,226.957 L229.883,226.957 Q225.43,226.957 223.262,224.994 Q221.094,223.031 221.094,219.809 Q221.094,216.469 223.35,214.535 Q225.605,212.602 229.883,212.602 L285.195,212.602 Q289.707,212.602 291.904,214.594 Q294.102,216.586 294.102,219.809 Q294.102,223.031 291.875,224.994 Q289.648,226.957 285.195,226.957 z" fill="#6A6A6A"/>
    <path d="M335.625,211.137 Q348.984,211.137 358.564,216.557 Q368.145,221.977 373.066,231.967 Q377.988,241.957 377.988,255.434 Q377.988,265.395 375.293,273.539 Q372.598,281.684 367.207,287.66 Q361.816,293.637 353.965,296.801 Q346.113,299.965 335.977,299.965 Q325.898,299.965 317.93,296.713 Q309.961,293.461 304.629,287.543 Q299.297,281.625 296.572,273.305 Q293.848,264.984 293.848,255.316 Q293.848,245.414 296.689,237.152 Q299.531,228.891 304.922,223.09 Q310.312,217.289 318.047,214.213 Q325.781,211.137 335.625,211.137 z M360.352,255.316 Q360.352,245.883 357.305,238.969 Q354.258,232.055 348.604,228.51 Q342.949,224.965 335.625,224.965 Q330.41,224.965 325.986,226.928 Q321.562,228.891 318.369,232.641 Q315.176,236.391 313.33,242.221 Q311.484,248.051 311.484,255.316 Q311.484,262.641 313.33,268.559 Q315.176,274.477 318.545,278.373 Q321.914,282.27 326.279,284.203 Q330.645,286.137 335.859,286.137 Q342.539,286.137 348.135,282.797 Q353.73,279.457 357.041,272.484 Q360.352,265.512 360.352,255.316 z" fill="#6A6A6A"/>
    <path d="M421.211,265.043 L405.273,265.043 L405.273,289.359 Q405.273,294.574 402.812,297.27 Q400.352,299.965 396.602,299.965 Q392.676,299.965 390.273,297.299 Q387.871,294.633 387.871,289.477 L387.871,223.266 Q387.871,217.523 390.508,215.062 Q393.145,212.602 398.887,212.602 L421.211,212.602 Q431.113,212.602 436.445,214.125 Q441.719,215.59 445.557,218.988 Q449.395,222.387 451.387,227.309 Q453.379,232.23 453.379,238.383 Q453.379,251.508 445.293,258.275 Q437.207,265.043 421.211,265.043 z M416.992,225.668 L405.273,225.668 L405.273,251.918 L416.992,251.918 Q423.145,251.918 427.275,250.629 Q431.406,249.34 433.574,246.41 Q435.742,243.48 435.742,238.734 Q435.742,233.051 432.402,229.477 Q428.652,225.668 416.992,225.668 z" fill="#6A6A6A"/>
  </g>
  <g id="START" display="none">
    <g>
      <path d="M472.175,357.016 L39.825,357.016 C21.972,357.016 7.5,342.544 7.5,324.691 L7.5,187.309 C7.5,169.456 21.972,154.984 39.825,154.984 L472.175,154.984 C490.028,154.984 504.5,169.456 504.5,187.309 L504.5,324.691 C504.5,342.544 490.027,357.016 472.175,357.016 z" fill="#51AA2E"/>
      <path d="M472.175,154.984 L472.175,314.59 C472.175,320.169 467.652,324.692 462.073,324.692 L7.5,324.692 C7.5,342.545 21.973,357.017 39.825,357.017 L472.175,357.017 C490.028,357.017 504.5,342.545 504.5,324.692 L504.5,187.309 C504.5,169.456 490.027,154.984 472.175,154.984 z" fill="#006F10"/>
      <path d="M52.604,286.273 L52.604,225.727 C52.604,220.023 58.997,216.653 63.703,219.877 L107.885,250.15 C111.996,252.966 111.996,259.033 107.885,261.849 L63.703,292.122 C58.997,295.347 52.604,291.977 52.604,286.273 z" fill="#F2FBFF"/>
      <g>
        <path d="M112.134,268.034 C116.103,265.31 118.473,260.811 118.473,256 C118.473,251.189 116.103,246.689 112.129,243.962 L67.948,213.698 C63.473,210.623 57.707,210.282 52.899,212.813 C48.088,215.344 45.1,220.293 45.1,225.73 L45.1,286.27 C45.1,291.706 48.088,296.656 52.899,299.187 C55.042,300.314 57.374,300.872 59.698,300.872 C62.588,300.872 65.463,300.009 67.939,298.308 L74.509,293.808 C77.926,291.468 78.799,286.8 76.458,283.382 C74.118,279.965 69.451,279.091 66.032,281.433 L60.1,285.495 L60.1,226.505 L103.159,256 L94.904,261.651 C91.486,263.991 90.612,268.658 92.951,272.076 C95.291,275.494 99.959,276.368 103.376,274.029 z" fill="#000000"/>
        <path d="M72,349.52 L39.83,349.52 C26.139,349.52 15,338.381 15,324.69 L15,187.31 C15,173.619 26.139,162.48 39.83,162.48 L405,162.48 C409.142,162.48 412.5,159.122 412.5,154.98 C412.5,150.838 409.142,147.48 405,147.48 L39.83,147.48 C17.868,147.48 0,165.348 0,187.31 L0,324.69 C0,346.652 17.868,364.52 39.83,364.52 L72,364.52 C76.142,364.52 79.5,361.162 79.5,357.02 C79.5,352.878 76.142,349.52 72,349.52 z" fill="#000000"/>
        <path d="M472.17,147.48 L440,147.48 C435.858,147.48 432.5,150.838 432.5,154.98 C432.5,159.122 435.858,162.48 440,162.48 L472.17,162.48 C485.861,162.48 497,173.619 497,187.31 L497,324.69 C497,338.381 485.861,349.52 472.17,349.52 L107,349.52 C102.858,349.52 99.5,352.878 99.5,357.02 C99.5,361.162 102.858,364.52 107,364.52 L472.17,364.52 C494.132,364.52 512,346.652 512,324.69 L512,187.31 C512,165.348 494.132,147.48 472.17,147.48 z" fill="#000000"/>
      </g>
    </g>
    <path d="M189.207,267.016 Q189.207,273.51 185.862,278.686 Q182.518,283.861 176.072,286.791 Q169.627,289.721 160.789,289.721 Q150.193,289.721 143.309,285.717 Q138.426,282.836 135.374,278.026 Q132.322,273.217 132.322,268.676 Q132.322,266.039 134.153,264.159 Q135.984,262.279 138.816,262.279 Q141.111,262.279 142.698,263.744 Q144.285,265.209 145.408,268.09 Q146.775,271.508 148.362,273.803 Q149.949,276.098 152.83,277.587 Q155.711,279.076 160.398,279.076 Q166.844,279.076 170.872,276.073 Q174.9,273.07 174.9,268.578 Q174.9,265.014 172.728,262.792 Q170.555,260.57 167.112,259.398 Q163.67,258.227 157.908,256.908 Q150.193,255.102 144.993,252.685 Q139.793,250.268 136.741,246.093 Q133.689,241.918 133.689,235.717 Q133.689,229.809 136.912,225.219 Q140.135,220.629 146.238,218.163 Q152.342,215.697 160.594,215.697 Q167.186,215.697 171.995,217.333 Q176.805,218.969 179.979,221.679 Q183.152,224.389 184.617,227.367 Q186.082,230.346 186.082,233.178 Q186.082,235.766 184.251,237.841 Q182.42,239.916 179.686,239.916 Q177.195,239.916 175.901,238.671 Q174.607,237.426 173.094,234.594 Q171.141,230.541 168.406,228.271 Q165.672,226 159.617,226 Q154.002,226 150.56,228.466 Q147.117,230.932 147.117,234.398 Q147.117,236.547 148.289,238.109 Q149.461,239.672 151.512,240.795 Q153.563,241.918 155.662,242.553 Q157.762,243.188 162.596,244.408 Q168.65,245.824 173.558,247.533 Q178.465,249.242 181.907,251.684 Q185.35,254.125 187.278,257.86 Q189.207,261.596 189.207,267.016 z" fill="#000000"/>
    <path d="M247.996,228.881 L232.176,228.881 L232.176,280.883 Q232.176,285.375 230.174,287.548 Q228.172,289.721 224.998,289.721 Q221.775,289.721 219.749,287.523 Q217.723,285.326 217.723,280.883 L217.723,228.881 L201.902,228.881 Q198.191,228.881 196.385,227.245 Q194.578,225.609 194.578,222.924 Q194.578,220.141 196.458,218.529 Q198.338,216.918 201.902,216.918 L247.996,216.918 Q251.756,216.918 253.587,218.578 Q255.418,220.238 255.418,222.924 Q255.418,225.609 253.563,227.245 Q251.707,228.881 247.996,228.881 z" fill="#000000"/>
    <path d="M309.813,280.395 L306.395,271.41 L277.293,271.41 L273.875,280.59 Q271.873,285.961 270.457,287.841 Q269.041,289.721 265.818,289.721 Q263.084,289.721 260.984,287.719 Q258.885,285.717 258.885,283.178 Q258.885,281.713 259.373,280.15 Q259.861,278.588 260.984,275.805 L279.295,229.32 Q280.076,227.318 281.175,224.511 Q282.273,221.703 283.519,219.848 Q284.764,217.992 286.79,216.845 Q288.816,215.697 291.795,215.697 Q294.822,215.697 296.849,216.845 Q298.875,217.992 300.12,219.799 Q301.365,221.605 302.22,223.681 Q303.074,225.756 304.393,229.223 L323.094,275.414 Q325.291,280.688 325.291,283.08 Q325.291,285.57 323.216,287.646 Q321.141,289.721 318.211,289.721 Q316.502,289.721 315.281,289.11 Q314.061,288.5 313.23,287.45 Q312.4,286.4 311.448,284.228 Q310.496,282.055 309.813,280.395 z M281.102,260.521 L302.488,260.521 L291.697,230.98 z" fill="#000000"/>
    <path d="M355.418,257.885 L350.34,257.885 L350.34,280.883 Q350.34,285.424 348.338,287.572 Q346.336,289.721 343.113,289.721 Q339.647,289.721 337.742,287.475 Q335.838,285.229 335.838,280.883 L335.838,225.805 Q335.838,221.117 337.938,219.018 Q340.037,216.918 344.725,216.918 L368.309,216.918 Q373.191,216.918 376.658,217.333 Q380.125,217.748 382.908,219.018 Q386.277,220.434 388.865,223.07 Q391.453,225.707 392.796,229.198 Q394.139,232.689 394.139,236.596 Q394.139,244.604 389.622,249.389 Q385.105,254.174 375.926,256.176 Q379.783,258.227 383.299,262.23 Q386.814,266.234 389.573,270.751 Q392.332,275.268 393.87,278.905 Q395.408,282.543 395.408,283.91 Q395.408,285.326 394.505,286.718 Q393.602,288.109 392.039,288.915 Q390.477,289.721 388.426,289.721 Q385.984,289.721 384.324,288.573 Q382.664,287.426 381.468,285.668 Q380.272,283.91 378.221,280.492 L372.41,270.824 Q369.285,265.502 366.819,262.719 Q364.354,259.936 361.814,258.91 Q359.275,257.885 355.418,257.885 z M363.719,227.807 L350.34,227.807 L350.34,247.484 L363.328,247.484 Q368.553,247.484 372.117,246.581 Q375.682,245.678 377.562,243.505 Q379.441,241.332 379.441,237.523 Q379.441,234.545 377.928,232.274 Q376.414,230.004 373.729,228.881 Q371.189,227.807 363.719,227.807 z" fill="#000000"/>
    <path d="M454.344,228.881 L438.523,228.881 L438.523,280.883 Q438.523,285.375 436.522,287.548 Q434.52,289.721 431.346,289.721 Q428.123,289.721 426.097,287.523 Q424.07,285.326 424.07,280.883 L424.07,228.881 L408.25,228.881 Q404.539,228.881 402.732,227.245 Q400.926,225.609 400.926,222.924 Q400.926,220.141 402.806,218.529 Q404.686,216.918 408.25,216.918 L454.344,216.918 Q458.104,216.918 459.935,218.578 Q461.766,220.238 461.766,222.924 Q461.766,225.609 459.91,227.245 Q458.055,228.881 454.344,228.881 z" fill="#000000"/>
  </g>
  <g id="START_DISABLED" display="none">
    <g>
      <path d="M472.175,357.016 L39.825,357.016 C21.972,357.016 7.5,342.544 7.5,324.691 L7.5,187.309 C7.5,169.456 21.972,154.984 39.825,154.984 L472.175,154.984 C490.028,154.984 504.5,169.456 504.5,187.309 L504.5,324.691 C504.5,342.544 490.027,357.016 472.175,357.016 z" fill="#BFBFBF"/>
      <path d="M472.175,154.984 L472.175,314.59 C472.175,320.169 467.652,324.692 462.073,324.692 L7.5,324.692 C7.5,342.545 21.973,357.017 39.825,357.017 L472.175,357.017 C490.028,357.017 504.5,342.545 504.5,324.692 L504.5,187.309 C504.5,169.456 490.027,154.984 472.175,154.984 z" fill="#959595"/>
      <path d="M52.604,286.273 L52.604,225.727 C52.604,220.023 58.997,216.653 63.703,219.877 L107.885,250.15 C111.996,252.966 111.996,259.033 107.885,261.849 L63.703,292.122 C58.997,295.347 52.604,291.977 52.604,286.273 z" fill="#F2FBFF"/>
      <g>
        <path d="M112.134,268.034 C116.103,265.31 118.473,260.811 118.473,256 C118.473,251.189 116.103,246.689 112.129,243.962 L67.948,213.698 C63.473,210.623 57.707,210.282 52.899,212.813 C48.088,215.344 45.1,220.293 45.1,225.73 L45.1,286.27 C45.1,291.706 48.088,296.656 52.899,299.187 C55.042,300.314 57.374,300.872 59.698,300.872 C62.588,300.872 65.463,300.009 67.939,298.308 L74.509,293.808 C77.926,291.468 78.799,286.8 76.458,283.382 C74.118,279.965 69.451,279.091 66.032,281.433 L60.1,285.495 L60.1,226.505 L103.159,256 L94.904,261.651 C91.486,263.991 90.612,268.658 92.951,272.076 C95.291,275.494 99.959,276.368 103.376,274.029 z" fill="#6A6A6A"/>
        <path d="M72,349.52 L39.83,349.52 C26.139,349.52 15,338.381 15,324.69 L15,187.31 C15,173.619 26.139,162.48 39.83,162.48 L405,162.48 C409.142,162.48 412.5,159.122 412.5,154.98 C412.5,150.838 409.142,147.48 405,147.48 L39.83,147.48 C17.868,147.48 0,165.348 0,187.31 L0,324.69 C0,346.652 17.868,364.52 39.83,364.52 L72,364.52 C76.142,364.52 79.5,361.162 79.5,357.02 C79.5,352.878 76.142,349.52 72,349.52 z" fill="#555555"/>
        <path d="M472.17,147.48 L440,147.48 C435.858,147.48 432.5,150.838 432.5,154.98 C432.5,159.122 435.858,162.48 440,162.48 L472.17,162.48 C485.861,162.48 497,173.619 497,187.31 L497,324.69 C497,338.381 485.861,349.52 472.17,349.52 L107,349.52 C102.858,349.52 99.5,352.878 99.5,357.02 C99.5,361.162 102.858,364.52 107,364.52 L472.17,364.52 C494.132,364.52 512,346.652 512,324.69 L512,187.31 C512,165.348 494.132,147.48 472.17,147.48 z" fill="#555555"/>
      </g>
    </g>
    <path d="M189.207,267.016 Q189.207,273.51 185.862,278.686 Q182.518,283.861 176.072,286.791 Q169.627,289.721 160.789,289.721 Q150.193,289.721 143.309,285.717 Q138.426,282.836 135.374,278.026 Q132.322,273.217 132.322,268.676 Q132.322,266.039 134.153,264.159 Q135.984,262.279 138.816,262.279 Q141.111,262.279 142.698,263.744 Q144.285,265.209 145.408,268.09 Q146.775,271.508 148.362,273.803 Q149.949,276.098 152.83,277.587 Q155.711,279.076 160.398,279.076 Q166.844,279.076 170.872,276.073 Q174.9,273.07 174.9,268.578 Q174.9,265.014 172.728,262.792 Q170.555,260.57 167.112,259.398 Q163.67,258.227 157.908,256.908 Q150.193,255.102 144.993,252.685 Q139.793,250.268 136.741,246.093 Q133.689,241.918 133.689,235.717 Q133.689,229.809 136.912,225.219 Q140.135,220.629 146.238,218.163 Q152.342,215.697 160.594,215.697 Q167.186,215.697 171.995,217.333 Q176.805,218.969 179.979,221.679 Q183.152,224.389 184.617,227.367 Q186.082,230.346 186.082,233.178 Q186.082,235.766 184.251,237.841 Q182.42,239.916 179.686,239.916 Q177.195,239.916 175.901,238.671 Q174.607,237.426 173.094,234.594 Q171.141,230.541 168.406,228.271 Q165.672,226 159.617,226 Q154.002,226 150.56,228.466 Q147.117,230.932 147.117,234.398 Q147.117,236.547 148.289,238.109 Q149.461,239.672 151.512,240.795 Q153.563,241.918 155.662,242.553 Q157.762,243.188 162.596,244.408 Q168.65,245.824 173.558,247.533 Q178.465,249.242 181.907,251.684 Q185.35,254.125 187.278,257.86 Q189.207,261.596 189.207,267.016 z" fill="#6A6A6A"/>
    <path d="M247.996,228.881 L232.176,228.881 L232.176,280.883 Q232.176,285.375 230.174,287.548 Q228.172,289.721 224.998,289.721 Q221.775,289.721 219.749,287.523 Q217.723,285.326 217.723,280.883 L217.723,228.881 L201.902,228.881 Q198.191,228.881 196.385,227.245 Q194.578,225.609 194.578,222.924 Q194.578,220.141 196.458,218.529 Q198.338,216.918 201.902,216.918 L247.996,216.918 Q251.756,216.918 253.587,218.578 Q255.418,220.238 255.418,222.924 Q255.418,225.609 253.563,227.245 Q251.707,228.881 247.996,228.881 z" fill="#6A6A6A"/>
    <path d="M309.813,280.395 L306.395,271.41 L277.293,271.41 L273.875,280.59 Q271.873,285.961 270.457,287.841 Q269.041,289.721 265.818,289.721 Q263.084,289.721 260.984,287.719 Q258.885,285.717 258.885,283.178 Q258.885,281.713 259.373,280.15 Q259.861,278.588 260.984,275.805 L279.295,229.32 Q280.076,227.318 281.175,224.511 Q282.273,221.703 283.519,219.848 Q284.764,217.992 286.79,216.845 Q288.816,215.697 291.795,215.697 Q294.822,215.697 296.849,216.845 Q298.875,217.992 300.12,219.799 Q301.365,221.605 302.22,223.681 Q303.074,225.756 304.393,229.223 L323.094,275.414 Q325.291,280.688 325.291,283.08 Q325.291,285.57 323.216,287.646 Q321.141,289.721 318.211,289.721 Q316.502,289.721 315.281,289.11 Q314.061,288.5 313.23,287.45 Q312.4,286.4 311.448,284.228 Q310.496,282.055 309.813,280.395 z M281.102,260.521 L302.488,260.521 L291.697,230.98 z" fill="#6A6A6A"/>
    <path d="M355.418,257.885 L350.34,257.885 L350.34,280.883 Q350.34,285.424 348.338,287.572 Q346.336,289.721 343.113,289.721 Q339.647,289.721 337.742,287.475 Q335.838,285.229 335.838,280.883 L335.838,225.805 Q335.838,221.117 337.938,219.018 Q340.037,216.918 344.725,216.918 L368.309,216.918 Q373.191,216.918 376.658,217.333 Q380.125,217.748 382.908,219.018 Q386.277,220.434 388.865,223.07 Q391.453,225.707 392.796,229.198 Q394.139,232.689 394.139,236.596 Q394.139,244.604 389.622,249.389 Q385.105,254.174 375.926,256.176 Q379.783,258.227 383.299,262.23 Q386.814,266.234 389.573,270.751 Q392.332,275.268 393.87,278.905 Q395.408,282.543 395.408,283.91 Q395.408,285.326 394.505,286.718 Q393.602,288.109 392.039,288.915 Q390.477,289.721 388.426,289.721 Q385.984,289.721 384.324,288.573 Q382.664,287.426 381.468,285.668 Q380.272,283.91 378.221,280.492 L372.41,270.824 Q369.285,265.502 366.819,262.719 Q364.354,259.936 361.814,258.91 Q359.275,257.885 355.418,257.885 z M363.719,227.807 L350.34,227.807 L350.34,247.484 L363.328,247.484 Q368.553,247.484 372.117,246.581 Q375.682,245.678 377.562,243.505 Q379.441,241.332 379.441,237.523 Q379.441,234.545 377.928,232.274 Q376.414,230.004 373.729,228.881 Q371.189,227.807 363.719,227.807 z" fill="#6A6A6A"/>
    <path d="M454.344,228.881 L438.523,228.881 L438.523,280.883 Q438.523,285.375 436.522,287.548 Q434.52,289.721 431.346,289.721 Q428.123,289.721 426.097,287.523 Q424.07,285.326 424.07,280.883 L424.07,228.881 L408.25,228.881 Q404.539,228.881 402.732,227.245 Q400.926,225.609 400.926,222.924 Q400.926,220.141 402.806,218.529 Q404.686,216.918 408.25,216.918 L454.344,216.918 Q458.104,216.918 459.935,218.578 Q461.766,220.238 461.766,222.924 Q461.766,225.609 459.91,227.245 Q458.055,228.881 454.344,228.881 z" fill="#6A6A6A"/>
  </g>
</svg>
