<?xml version="1.0" encoding="UTF-8"?>
<!DOCTYPE svg PUBLIC "-//W3C//DTD SVG 1.1//EN" "http://www.w3.org/Graphics/SVG/1.1/DTD/svg11.dtd">
<svg version="1.1" xmlns="http://www.w3.org/2000/svg" xmlns:xlink="http://www.w3.org/1999/xlink" x="0" y="0" width="500" height="250" viewBox="0, 0, 500, 250">
  <g id="RED_-_OFF" display="none">
    <g>
      <path d="M275.87,5 L474.13,5 C485.656,5 495,14.145 495,25.426 L495,224.574 C495,235.855 485.656,245 474.13,245 L275.87,245 C264.344,245 255,235.855 255,224.574 L255,25.426 C255,14.145 264.344,5 275.87,5 z" fill="#AA2B25"/>
      <path d="M279.167,10 L470.833,10 C481.419,10 490,18.315 490,28.571 L490,165 C490,175.257 470,205 445,205 C420,205 330,205 305,205 C280,205 260,175.257 260,165 L260,28.571 C260,18.315 268.581,10 279.167,10 z" fill="#D24134"/>
      <path d="M275.87,5 L474.13,5 C485.656,5 495,14.145 495,25.426 L495,224.574 C495,235.855 485.656,245 474.13,245 L275.87,245 C264.344,245 255,235.855 255,224.574 L255,25.426 C255,14.145 264.344,5 275.87,5 z" fill="#404140" display="none"/>
      <path d="M279.167,10 L470.833,10 C481.419,10 490,18.315 490,28.571 L490,165 C490,175.257 470,205 445,205 C420,205 330,205 305,205 C280,205 260,175.257 260,165 L260,28.571 C260,18.315 268.581,10 279.167,10 z" fill="#808180" display="none"/>
      <path d="M275.87,5 L474.13,5 C485.656,5 495,14.145 495,25.426 L495,224.574 C495,235.855 485.656,245 474.13,245 L275.87,245 C264.344,245 255,235.855 255,224.574 L255,25.426 C255,14.145 264.344,5 275.87,5 z" fill="#FF862C" display="none"/>
      <path d="M279.167,10 L470.833,10 C481.419,10 490,18.315 490,28.571 L490,165 C490,175.257 470,205 445,205 C420,205 330,205 305,205 C280,205 260,175.257 260,165 L260,28.571 C260,18.315 268.581,10 279.167,10 z" fill="#FF9E55" display="none"/>
      <path d="M275.87,10 L474.13,10 C485.656,10 495,19.145 495,30.426 L495,229.574 C495,240.855 485.656,250 474.13,250 L275.87,250 C264.344,250 255,240.855 255,229.574 L255,30.426 C255,19.145 264.344,10 275.87,10 z" fill="#559B38" display="none"/>
      <path d="M279.167,10 L470.833,10 C481.419,10 490,18.315 490,28.571 L490,165 C490,175.257 470,205 445,205 C420,205 330,205 305,205 C280,205 260,175.257 260,165 L260,28.571 C260,18.315 268.581,10 279.167,10 z" fill="#6AC249" display="none"/>
      <path d="M480,-0 C491.046,-0 500,8.954 500,20 L500,230 C500,241.046 491.046,250 480,250 L270,250 C258.954,250 250,241.046 250,230 L250,20 C250,8.954 258.954,-0 270,-0 L480,-0 z M471.6,10 L278.4,10 C268.238,10 260,18.238 260,28.4 L260,221.6 C260,231.762 268.238,240 278.4,240 L471.6,240 C481.762,240 490,231.762 490,221.6 L490,28.4 C490,18.238 481.762,10 471.6,10 z" fill="#000000"/>
      <path d="M455.001,25 C466.047,25 475.001,33.954 475.001,45 L475.001,120 C474.861,122.811 475.017,121.137 474.324,125 L460.001,125 L460.001,60 C460.001,48.954 451.047,40 440.001,40 L395.001,40 L395.001,25 L395,25 L395.001,25 L455.001,25 z" fill="#FFFFFF"/>
    </g>
    <g>
      <path d="M25.87,5 L224.13,5 C235.656,5 245,14.145 245,25.426 L245,224.574 C245,235.855 235.656,245 224.13,245 L25.87,245 C14.344,245 5,235.855 5,224.574 L5,25.426 C5,14.145 14.344,5 25.87,5 z" fill="#AA2B25" display="none"/>
      <path d="M29.167,10 L220.833,10 C231.419,10 240,18.315 240,28.571 L240,165 C240,175.257 220,205 195,205 C170,205 80,205 55,205 C30,205 10,175.257 10,165 L10,28.571 C10,18.315 18.581,10 29.167,10 z" fill="#D24134" display="none"/>
      <path d="M25.87,5 L224.13,5 C235.656,5 245,14.145 245,25.426 L245,224.574 C245,235.855 235.656,245 224.13,245 L25.87,245 C14.344,245 5,235.855 5,224.574 L5,25.426 C5,14.145 14.344,5 25.87,5 z" fill="#D5D5D5"/>
      <path d="M29.167,10 L220.833,10 C231.419,10 240,18.315 240,28.571 L240,165 C240,175.257 220,205 195,205 C170,205 80,205 55,205 C30,205 10,175.257 10,165 L10,28.571 C10,18.315 18.581,10 29.167,10 z" fill="#EAEAEA"/>
      <path d="M25.87,5 L224.13,5 C235.656,5 245,14.145 245,25.426 L245,224.574 C245,235.855 235.656,245 224.13,245 L25.87,245 C14.344,245 5,235.855 5,224.574 L5,25.426 C5,14.145 14.344,5 25.87,5 z" fill="#FF862C" display="none"/>
      <path d="M29.167,10 L220.833,10 C231.419,10 240,18.315 240,28.571 L240,165 C240,175.257 220,205 195,205 C170,205 80,205 55,205 C30,205 10,175.257 10,165 L10,28.571 C10,18.315 18.581,10 29.167,10 z" fill="#FF9E55" display="none"/>
      <path d="M25.87,10 L224.13,10 C235.656,10 245,19.145 245,30.426 L245,229.574 C245,240.855 235.656,250 224.13,250 L25.87,250 C14.344,250 5,240.855 5,229.574 L5,30.426 C5,19.145 14.344,10 25.87,10 z" fill="#559B38" display="none"/>
      <path d="M29.167,10 L220.833,10 C231.419,10 240,18.315 240,28.571 L240,165 C240,175.257 220,205 195,205 C170,205 80,205 55,205 C30,205 10,175.257 10,165 L10,28.571 C10,18.315 18.581,10 29.167,10 z" fill="#6AC249" display="none"/>
      <path d="M230,-0 C241.046,-0 250,8.954 250,20 L250,230 C250,241.046 241.046,250 230,250 L20,250 C8.954,250 -0,241.046 -0,230 L-0,20 C-0,8.954 8.954,-0 20,-0 L230,-0 z M221.6,10 L28.4,10 C18.238,10 10,18.238 10,28.4 L10,221.6 C10,231.762 18.238,240 28.4,240 L221.6,240 C231.762,240 240,231.762 240,221.6 L240,28.4 C240,18.238 231.762,10 221.6,10 z" fill="#000000"/>
      <path d="M205.001,25 C216.047,25 225.001,33.954 225.001,45 L225.001,120 C224.861,122.811 225.017,121.137 224.324,125 L210.001,125 L210.001,60 C210.001,48.954 201.047,40 190.001,40 L145.001,40 L145.001,25 L145,25 L145.001,25 L205.001,25 z" fill="#FFFFFF" display="none"/>
      <path d="M61.206,73.974 Q73.23,73.974 81.852,78.852 Q90.474,83.73 94.904,92.721 Q99.333,101.712 99.333,113.841 Q99.333,122.806 96.908,130.136 Q94.482,137.466 89.63,142.845 Q84.779,148.224 77.712,151.071 Q70.646,153.919 61.523,153.919 Q52.453,153.919 45.281,150.992 Q38.109,148.066 33.31,142.739 Q28.511,137.413 26.059,129.925 Q23.607,122.437 23.607,113.736 Q23.607,104.823 26.164,97.388 Q28.722,89.952 33.574,84.732 Q38.425,79.511 45.386,76.742 Q52.347,73.974 61.206,73.974 z M83.46,113.736 Q83.46,105.245 80.718,99.023 Q77.976,92.8 72.887,89.61 Q67.798,86.419 61.206,86.419 Q56.513,86.419 52.532,88.186 Q48.55,89.952 45.676,93.327 Q42.802,96.702 41.141,101.949 Q39.48,107.196 39.48,113.736 Q39.48,120.327 41.141,125.654 Q42.802,130.98 45.834,134.487 Q48.867,137.993 52.795,139.734 Q56.724,141.474 61.417,141.474 Q67.429,141.474 72.465,138.468 Q77.501,135.462 80.481,129.187 Q83.46,122.911 83.46,113.736 z" fill="#000000"/>
      <path d="M158.923,87.368 L128.074,87.368 L128.074,107.144 L153.861,107.144 Q157.447,107.144 159.213,108.752 Q160.98,110.361 160.98,113.05 Q160.98,115.739 159.187,117.321 Q157.394,118.904 153.861,118.904 L128.074,118.904 L128.074,144.374 Q128.074,149.226 125.885,151.572 Q123.697,153.919 120.269,153.919 Q116.788,153.919 114.6,151.546 Q112.412,149.173 112.412,144.374 L112.412,84.89 Q112.412,81.515 113.413,79.379 Q114.415,77.243 116.551,76.268 Q118.687,75.292 122.009,75.292 L158.923,75.292 Q162.667,75.292 164.487,76.953 Q166.306,78.614 166.306,81.304 Q166.306,84.046 164.487,85.707 Q162.667,87.368 158.923,87.368 z" fill="#000000"/>
      <path d="M224.156,87.368 L193.306,87.368 L193.306,107.144 L219.093,107.144 Q222.679,107.144 224.446,108.752 Q226.212,110.361 226.212,113.05 Q226.212,115.739 224.419,117.321 Q222.626,118.904 219.093,118.904 L193.306,118.904 L193.306,144.374 Q193.306,149.226 191.118,151.572 Q188.929,153.919 185.501,153.919 Q182.021,153.919 179.832,151.546 Q177.644,149.173 177.644,144.374 L177.644,84.89 Q177.644,81.515 178.646,79.379 Q179.648,77.243 181.784,76.268 Q183.919,75.292 187.242,75.292 L224.156,75.292 Q227.9,75.292 229.719,76.953 Q231.538,78.614 231.538,81.304 Q231.538,84.046 229.719,85.707 Q227.9,87.368 224.156,87.368 z" fill="#000000"/>
    </g>
  </g>
  <g id="GREEN_-_ON">
    <g>
      <path d="M275.87,5 L474.13,5 C485.656,5 495,14.145 495,25.426 L495,224.574 C495,235.855 485.656,245 474.13,245 L275.87,245 C264.344,245 255,235.855 255,224.574 L255,25.426 C255,14.145 264.344,5 275.87,5 z" fill="#AA2B25" display="none"/>
      <path d="M279.167,10 L470.833,10 C481.419,10 490,18.315 490,28.571 L490,165 C490,175.257 470,205 445,205 C420,205 330,205 305,205 C280,205 260,175.257 260,165 L260,28.571 C260,18.315 268.581,10 279.167,10 z" fill="#D24134" display="none"/>
      <path d="M275.87,5 L474.13,5 C485.656,5 495,14.145 495,25.426 L495,224.574 C495,235.855 485.656,245 474.13,245 L275.87,245 C264.344,245 255,235.855 255,224.574 L255,25.426 C255,14.145 264.344,5 275.87,5 z" fill="#D5D5D5"/>
      <path d="M279.167,10 L470.833,10 C481.419,10 490,18.315 490,28.571 L490,165 C490,175.257 470,205 445,205 C420,205 330,205 305,205 C280,205 260,175.257 260,165 L260,28.571 C260,18.315 268.581,10 279.167,10 z" fill="#EAEAEA"/>
      <path d="M275.87,5 L474.13,5 C485.656,5 495,14.145 495,25.426 L495,224.574 C495,235.855 485.656,245 474.13,245 L275.87,245 C264.344,245 255,235.855 255,224.574 L255,25.426 C255,14.145 264.344,5 275.87,5 z" fill="#FF862C" display="none"/>
      <path d="M279.167,10 L470.833,10 C481.419,10 490,18.315 490,28.571 L490,165 C490,175.257 470,205 445,205 C420,205 330,205 305,205 C280,205 260,175.257 260,165 L260,28.571 C260,18.315 268.581,10 279.167,10 z" fill="#FF9E55" display="none"/>
      <path d="M275.87,10 L474.13,10 C485.656,10 495,19.145 495,30.426 L495,229.574 C495,240.855 485.656,250 474.13,250 L275.87,250 C264.344,250 255,240.855 255,229.574 L255,30.426 C255,19.145 264.344,10 275.87,10 z" fill="#559B38" display="none"/>
      <path d="M279.167,10 L470.833,10 C481.419,10 490,18.315 490,28.571 L490,165 C490,175.257 470,205 445,205 C420,205 330,205 305,205 C280,205 260,175.257 260,165 L260,28.571 C260,18.315 268.581,10 279.167,10 z" fill="#6AC249" display="none"/>
      <path d="M480,-0 C491.046,-0 500,8.954 500,20 L500,230 C500,241.046 491.046,250 480,250 L270,250 C258.954,250 250,241.046 250,230 L250,20 C250,8.954 258.954,-0 270,-0 L480,-0 z M471.6,10 L278.4,10 C268.238,10 260,18.238 260,28.4 L260,221.6 C260,231.762 268.238,240 278.4,240 L471.6,240 C481.762,240 490,231.762 490,221.6 L490,28.4 C490,18.238 481.762,10 471.6,10 z" fill="#000000"/>
      <path d="M455.001,25 C466.047,25 475.001,33.954 475.001,45 L475.001,120 C474.861,122.811 475.017,121.137 474.324,125 L460.001,125 L460.001,60 C460.001,48.954 451.047,40 440.001,40 L395.001,40 L395.001,25 L395,25 L395.001,25 L455.001,25 z" fill="#FFFFFF" display="none"/>
      <path d="M333.714,70.442 Q345.737,70.442 354.359,75.32 Q362.981,80.198 367.411,89.189 Q371.841,98.18 371.841,110.309 Q371.841,119.274 369.415,126.604 Q366.989,133.934 362.137,139.313 Q357.286,144.692 350.219,147.54 Q343.153,150.388 334.03,150.388 Q324.96,150.388 317.788,147.461 Q310.616,144.534 305.817,139.208 Q301.018,133.882 298.566,126.393 Q296.114,118.905 296.114,110.204 Q296.114,101.292 298.672,93.856 Q301.229,86.421 306.081,81.2 Q310.932,75.979 317.893,73.211 Q324.854,70.442 333.714,70.442 z M355.968,110.204 Q355.968,101.714 353.225,95.491 Q350.483,89.268 345.394,86.078 Q340.305,82.888 333.714,82.888 Q329.02,82.888 325.039,84.654 Q321.057,86.421 318.183,89.796 Q315.309,93.171 313.648,98.418 Q311.987,103.665 311.987,110.204 Q311.987,116.796 313.648,122.122 Q315.309,127.448 318.342,130.955 Q321.374,134.462 325.302,136.202 Q329.231,137.942 333.925,137.942 Q339.936,137.942 344.972,134.936 Q350.009,131.93 352.988,125.655 Q355.968,119.38 355.968,110.204 z" fill="#000000"/>
      <path d="M405.643,79.829 L435.755,125.391 L435.755,79.407 Q435.755,74.925 437.679,72.683 Q439.604,70.442 442.874,70.442 Q446.249,70.442 448.2,72.683 Q450.151,74.925 450.151,79.407 L450.151,140.21 Q450.151,150.388 441.714,150.388 Q439.604,150.388 437.917,149.781 Q436.229,149.175 434.753,147.856 Q433.276,146.538 432.01,144.771 Q430.745,143.005 429.479,141.159 L400.106,96.124 L400.106,141.423 Q400.106,145.852 398.05,148.12 Q395.993,150.388 392.776,150.388 Q389.454,150.388 387.45,148.094 Q385.446,145.8 385.446,141.423 L385.446,81.78 Q385.446,77.983 386.29,75.821 Q387.292,73.448 389.612,71.945 Q391.932,70.442 394.622,70.442 Q396.731,70.442 398.234,71.128 Q399.737,71.813 400.871,72.973 Q402.005,74.134 403.191,75.979 Q404.378,77.825 405.643,79.829 z" fill="#000000"/>
    </g>
    <g>
      <path d="M25.87,5 L224.13,5 C235.656,5 245,14.145 245,25.426 L245,224.574 C245,235.855 235.656,245 224.13,245 L25.87,245 C14.344,245 5,235.855 5,224.574 L5,25.426 C5,14.145 14.344,5 25.87,5 z" fill="#AA2B25" display="none"/>
      <path d="M29.167,10 L220.833,10 C231.419,10 240,18.315 240,28.571 L240,165 C240,175.257 220,205 195,205 C170,205 80,205 55,205 C30,205 10,175.257 10,165 L10,28.571 C10,18.315 18.581,10 29.167,10 z" fill="#D24134" display="none"/>
      <path d="M25.87,5 L224.13,5 C235.656,5 245,14.145 245,25.426 L245,224.574 C245,235.855 235.656,245 224.13,245 L25.87,245 C14.344,245 5,235.855 5,224.574 L5,25.426 C5,14.145 14.344,5 25.87,5 z" fill="#404140" display="none"/>
      <path d="M29.167,10 L220.833,10 C231.419,10 240,18.315 240,28.571 L240,165 C240,175.257 220,205 195,205 C170,205 80,205 55,205 C30,205 10,175.257 10,165 L10,28.571 C10,18.315 18.581,10 29.167,10 z" fill="#808180" display="none"/>
      <path d="M25.87,5 L224.13,5 C235.656,5 245,14.145 245,25.426 L245,224.574 C245,235.855 235.656,245 224.13,245 L25.87,245 C14.344,245 5,235.855 5,224.574 L5,25.426 C5,14.145 14.344,5 25.87,5 z" fill="#FF862C" display="none"/>
      <path d="M29.167,10 L220.833,10 C231.419,10 240,18.315 240,28.571 L240,165 C240,175.257 220,205 195,205 C170,205 80,205 55,205 C30,205 10,175.257 10,165 L10,28.571 C10,18.315 18.581,10 29.167,10 z" fill="#FF9E55" display="none"/>
      <path d="M25.87,10 L224.13,10 C235.656,10 245,19.145 245,30.426 L245,229.574 C245,240.855 235.656,250 224.13,250 L25.87,250 C14.344,250 5,240.855 5,229.574 L5,30.426 C5,19.145 14.344,10 25.87,10 z" fill="#559B38"/>
      <path d="M29.167,10 L220.833,10 C231.419,10 240,18.315 240,28.571 L240,165 C240,175.257 220,205 195,205 C170,205 80,205 55,205 C30,205 10,175.257 10,165 L10,28.571 C10,18.315 18.581,10 29.167,10 z" fill="#6AC249"/>
      <path d="M230,-0 C241.046,-0 250,8.954 250,20 L250,230 C250,241.046 241.046,250 230,250 L20,250 C8.954,250 0,241.046 0,230 L0,20 C0,8.954 8.954,-0 20,-0 L230,-0 z M221.6,10 L28.4,10 C18.238,10 10,18.238 10,28.4 L10,221.6 C10,231.762 18.238,240 28.4,240 L221.6,240 C231.762,240 240,231.762 240,221.6 L240,28.4 C240,18.238 231.762,10 221.6,10 z" fill="#000000"/>
      <path d="M205.001,25 C216.047,25 225.001,33.954 225.001,45 L225.001,120 C224.861,122.811 225.017,121.137 224.324,125 L210.001,125 L210.001,60 C210.001,48.954 201.047,40 190.001,40 L145.001,40 L145.001,25 L145,25 L145.001,25 L205.001,25 z" fill="#FFFFFF"/>
    </g>
  </g>
  <g id="DISABLED" display="none">
    <g>
      <path d="M275.87,5 L474.13,5 C485.656,5 495,14.145 495,25.426 L495,224.574 C495,235.855 485.656,245 474.13,245 L275.87,245 C264.344,245 255,235.855 255,224.574 L255,25.426 C255,14.145 264.344,5 275.87,5 z" fill="#AA2B25" display="none"/>
      <path d="M279.167,10 L470.833,10 C481.419,10 490,18.315 490,28.571 L490,165 C490,175.257 470,205 445,205 C420,205 330,205 305,205 C280,205 260,175.257 260,165 L260,28.571 C260,18.315 268.581,10 279.167,10 z" fill="#D24134" display="none"/>
      <path d="M275.87,5 L474.13,5 C485.656,5 495,14.145 495,25.426 L495,224.574 C495,235.855 485.656,245 474.13,245 L275.87,245 C264.344,245 255,235.855 255,224.574 L255,25.426 C255,14.145 264.344,5 275.87,5 z" fill="#AAAAAA"/>
      <path d="M279.167,10 L470.833,10 C481.419,10 490,18.315 490,28.571 L490,165 C490,175.257 470,205 445,205 C420,205 330,205 305,205 C280,205 260,175.257 260,165 L260,28.571 C260,18.315 268.581,10 279.167,10 z" fill="#BFBFBF"/>
      <path d="M275.87,5 L474.13,5 C485.656,5 495,14.145 495,25.426 L495,224.574 C495,235.855 485.656,245 474.13,245 L275.87,245 C264.344,245 255,235.855 255,224.574 L255,25.426 C255,14.145 264.344,5 275.87,5 z" fill="#FF862C" display="none"/>
      <path d="M279.167,10 L470.833,10 C481.419,10 490,18.315 490,28.571 L490,165 C490,175.257 470,205 445,205 C420,205 330,205 305,205 C280,205 260,175.257 260,165 L260,28.571 C260,18.315 268.581,10 279.167,10 z" fill="#FF9E55" display="none"/>
      <path d="M275.87,10 L474.13,10 C485.656,10 495,19.145 495,30.426 L495,229.574 C495,240.855 485.656,250 474.13,250 L275.87,250 C264.344,250 255,240.855 255,229.574 L255,30.426 C255,19.145 264.344,10 275.87,10 z" fill="#559B38" display="none"/>
      <path d="M279.167,10 L470.833,10 C481.419,10 490,18.315 490,28.571 L490,165 C490,175.257 470,205 445,205 C420,205 330,205 305,205 C280,205 260,175.257 260,165 L260,28.571 C260,18.315 268.581,10 279.167,10 z" fill="#6AC249" display="none"/>
      <path d="M480,-0 C491.046,-0 500,8.954 500,20 L500,230 C500,241.046 491.046,250 480,250 L270,250 C258.954,250 250,241.046 250,230 L250,20 C250,8.954 258.954,-0 270,-0 L480,-0 z M471.6,10 L278.4,10 C268.238,10 260,18.238 260,28.4 L260,221.6 C260,231.762 268.238,240 278.4,240 L471.6,240 C481.762,240 490,231.762 490,221.6 L490,28.4 C490,18.238 481.762,10 471.6,10 z" fill="#000000"/>
      <path d="M455.001,25 C466.047,25 475.001,33.954 475.001,45 L475.001,120 C474.861,122.811 475.017,121.137 474.324,125 L460.001,125 L460.001,60 C460.001,48.954 451.047,40 440.001,40 L395.001,40 L395.001,25 L395,25 L395.001,25 L455.001,25 z" fill="#FFFFFF"/>
    </g>
    <g>
      <path d="M25.87,5 L224.13,5 C235.656,5 245,14.145 245,25.426 L245,224.574 C245,235.855 235.656,245 224.13,245 L25.87,245 C14.344,245 5,235.855 5,224.574 L5,25.426 C5,14.145 14.344,5 25.87,5 z" fill="#AA2B25" display="none"/>
      <path d="M29.167,10 L220.833,10 C231.419,10 240,18.315 240,28.571 L240,165 C240,175.257 220,205 195,205 C170,205 80,205 55,205 C30,205 10,175.257 10,165 L10,28.571 C10,18.315 18.581,10 29.167,10 z" fill="#D24134" display="none"/>
      <path d="M25.87,5 L224.13,5 C235.656,5 245,14.145 245,25.426 L245,224.574 C245,235.855 235.656,245 224.13,245 L25.87,245 C14.344,245 5,235.855 5,224.574 L5,25.426 C5,14.145 14.344,5 25.87,5 z" fill="#AAAAAA"/>
      <path d="M29.167,10 L220.833,10 C231.419,10 240,18.315 240,28.571 L240,165 C240,175.257 220,205 195,205 C170,205 80,205 55,205 C30,205 10,175.257 10,165 L10,28.571 C10,18.315 18.581,10 29.167,10 z" fill="#BFBFBF"/>
      <path d="M25.87,5 L224.13,5 C235.656,5 245,14.145 245,25.426 L245,224.574 C245,235.855 235.656,245 224.13,245 L25.87,245 C14.344,245 5,235.855 5,224.574 L5,25.426 C5,14.145 14.344,5 25.87,5 z" fill="#FF862C" display="none"/>
      <path d="M29.167,10 L220.833,10 C231.419,10 240,18.315 240,28.571 L240,165 C240,175.257 220,205 195,205 C170,205 80,205 55,205 C30,205 10,175.257 10,165 L10,28.571 C10,18.315 18.581,10 29.167,10 z" fill="#FF9E55" display="none"/>
      <path d="M25.87,10 L224.13,10 C235.656,10 245,19.145 245,30.426 L245,229.574 C245,240.855 235.656,250 224.13,250 L25.87,250 C14.344,250 5,240.855 5,229.574 L5,30.426 C5,19.145 14.344,10 25.87,10 z" fill="#559B38" display="none"/>
      <path d="M29.167,10 L220.833,10 C231.419,10 240,18.315 240,28.571 L240,165 C240,175.257 220,205 195,205 C170,205 80,205 55,205 C30,205 10,175.257 10,165 L10,28.571 C10,18.315 18.581,10 29.167,10 z" fill="#6AC249" display="none"/>
      <path d="M230,-0 C241.046,-0 250,8.954 250,20 L250,230 C250,241.046 241.046,250 230,250 L20,250 C8.954,250 0,241.046 0,230 L0,20 C0,8.954 8.954,-0 20,-0 L230,-0 z M221.6,10 L28.4,10 C18.238,10 10,18.238 10,28.4 L10,221.6 C10,231.762 18.238,240 28.4,240 L221.6,240 C231.762,240 240,231.762 240,221.6 L240,28.4 C240,18.238 231.762,10 221.6,10 z" fill="#000000"/>
      <path d="M205.001,25 C216.047,25 225.001,33.954 225.001,45 L225.001,120 C224.861,122.811 225.017,121.137 224.324,125 L210.001,125 L210.001,60 C210.001,48.954 201.047,40 190.001,40 L145.001,40 L145.001,25 L145,25 L145.001,25 L205.001,25 z" fill="#FFFFFF"/>
    </g>
  </g>
</svg>
