<?xml version="1.0" encoding="UTF-8"?>
<!DOCTYPE svg PUBLIC "-//W3C//DTD SVG 1.1//EN" "http://www.w3.org/Graphics/SVG/1.1/DTD/svg11.dtd">
<svg version="1.1" xmlns="http://www.w3.org/2000/svg" x="0" y="0" width="512" height="512"
     viewBox="0, 0, 512, 512">
  <g id="Background">
    <rect x="0" y="0" width="512" height="512" fill="#000000" fill-opacity="0"/>
  </g>
  <g id="Layer_1" opacity="0.504">
    <path d="M373.333,117.333 L138.667,117.333 C62.083,117.333 0,179.417 0,256 C0,332.583 62.083,394.667 138.667,394.667 L373.334,394.667 C449.917,394.667 512,332.583 512,256 C512,179.417 449.917,117.333 373.333,117.333 z" fill="#CFD8DC"/>
    <path d="M351.667,256 C351.667,309.019 308.686,352 255.667,352 C202.648,352 159.667,309.019 159.667,256 C159.667,202.981 202.648,160 255.667,160 C308.686,160 351.667,202.981 351.667,256 z" fill="#959595"/>
    <path d="M255.667,352 C202.648,352 159.667,309.019 159.667,256 C159.667,202.981 202.648,160 255.667,160 C308.686,160 351.667,202.981 351.667,256 C351.667,309.019 308.686,352 255.667,352 L255.667,352 z M255.667,181.333 C214.429,181.333 181,214.763 181,256 C181,297.237 214.429,330.667 255.667,330.667 C296.905,330.667 330.334,297.238 330.334,256 C330.334,214.762 296.904,181.333 255.667,181.333 z" fill="#000000"/>
    <path d="M373,394.667 L138.334,394.667 C61.75,394.667 -0.333,332.583 -0.333,256 C-0.333,179.417 61.75,117.333 138.334,117.333 L373.001,117.333 C449.584,117.333 511.667,179.417 511.667,256 C511.667,332.583 449.584,394.667 373,394.667 z M138.334,138.667 C73.533,138.667 21.001,191.199 21.001,256 C21.001,320.801 73.533,373.333 138.334,373.333 L373.001,373.333 C437.802,373.333 490.334,320.801 490.334,256 C490.334,191.199 437.802,138.667 373.001,138.667 L138.334,138.667 z" fill="#000000"/>
    <path d="M298.333,244.666 L213,244.666 C207.104,244.666 202.333,249.437 202.333,255.333 C202.333,261.229 207.104,266 213,266 L298.333,266 C304.229,266 309,261.229 309,255.333 C309,249.437 304.229,244.666 298.333,244.666 z" fill="#303C42"/>
  </g>
</svg>
