solid STL generated by MeshLab
  facet normal  4.934885e-05 -1.000000e+00  1.897112e-05
    outer loop
      vertex   3.001134e-02  5.314747e-02  2.238104e-02
      vertex  -1.766090e-02  5.314532e-02  3.288923e-02
      vertex   3.762668e-02  5.314735e-02 -4.104926e-03
    endloop
  endfacet
  facet normal  9.614400e-01 -1.530230e-02 -2.745885e-01
    outer loop
      vertex   3.690552e-02  8.997665e-02 -8.682440e-03
      vertex   3.762668e-02  5.314735e-02 -4.104926e-03
      vertex   3.422857e-02  5.314763e-02 -1.600304e-02
    endloop
  endfacet
  facet normal  9.996713e-01  1.721297e-02 -1.900353e-02
    outer loop
      vertex   3.690552e-02  8.997665e-02 -8.682440e-03
      vertex   3.717363e-02  8.990510e-02  5.356497e-03
      vertex   3.762668e-02  5.314735e-02 -4.104926e-03
    endloop
  endfacet
  facet normal  3.406587e-02  2.309443e-02 -9.991528e-01
    outer loop
      vertex   2.392484e-03  5.314762e-02 -3.803716e-02
      vertex  -8.608468e-03  8.986516e-02 -3.756355e-02
      vertex   1.030468e-02  8.980589e-02 -3.692008e-02
    endloop
  endfacet
  facet normal -4.786093e-01  1.851704e-02 -8.778327e-01
    outer loop
      vertex  -8.608468e-03  8.986516e-02 -3.756355e-02
      vertex  -2.236963e-02  5.314761e-02 -3.083525e-02
      vertex  -2.584136e-02  9.006862e-02 -2.816359e-02
    endloop
  endfacet
  facet normal  2.145792e-05 -1.000000e+00 -2.271174e-05
    outer loop
      vertex  -1.766090e-02  5.314532e-02  3.288923e-02
      vertex   2.318456e-02  5.314763e-02 -3.021566e-02
      vertex   3.762668e-02  5.314735e-02 -4.104926e-03
    endloop
  endfacet
  facet normal  1.038979e-02  9.999312e-01 -5.454274e-03
    outer loop
      vertex   2.161655e-02  9.874828e-02 -2.153246e-02
      vertex   2.263639e-02  9.895945e-02  1.912294e-02
      vertex   3.061352e-02  9.873302e-02 -7.192982e-03
    endloop
  endfacet
  facet normal  9.136183e-01  1.435813e-02 -4.063192e-01
    outer loop
      vertex   3.422857e-02  5.314763e-02 -1.600304e-02
      vertex   3.105967e-02  8.990506e-02 -2.182949e-02
      vertex   3.690552e-02  8.997665e-02 -8.682440e-03
    endloop
  endfacet
  facet normal  8.730560e-05 -1.000000e+00  2.988458e-05
    outer loop
      vertex   3.762668e-02  5.314735e-02 -4.104926e-03
      vertex   3.612745e-02  5.314764e-02  9.998140e-03
      vertex   3.001134e-02  5.314747e-02  2.238104e-02
    endloop
  endfacet
  facet normal  9.942858e-01 -1.495163e-02  1.056985e-01
    outer loop
      vertex   3.717363e-02  8.990510e-02  5.356497e-03
      vertex   3.612745e-02  5.314764e-02  9.998140e-03
      vertex   3.762668e-02  5.314735e-02 -4.104926e-03
    endloop
  endfacet
  facet normal -1.091458e-04 -1.000000e+00 -4.882910e-07
    outer loop
      vertex  -1.766090e-02  5.314532e-02  3.288923e-02
      vertex  -3.609439e-02  5.314734e-02  1.057944e-02
      vertex  -3.720708e-02  5.314747e-02 -7.730111e-03
    endloop
  endfacet
  facet normal -9.977987e-01 -2.684956e-02  6.063675e-02
    outer loop
      vertex  -3.720708e-02  5.314747e-02 -7.730111e-03
      vertex  -3.609439e-02  5.314734e-02  1.057944e-02
      vertex  -3.747909e-02  8.993021e-02  4.080974e-03
    endloop
  endfacet
  facet normal -9.558305e-01  1.586871e-02  2.934896e-01
    outer loop
      vertex  -3.403079e-02  8.990198e-02  1.531285e-02
      vertex  -3.747909e-02  8.993021e-02  4.080974e-03
      vertex  -3.609439e-02  5.314734e-02  1.057944e-02
    endloop
  endfacet
  facet normal -2.866637e-01  5.584314e-01  7.784460e-01
    outer loop
      vertex  -1.909327e-02  8.985760e-02  3.190280e-02
      vertex  -6.128767e-03  8.997343e-02  3.659390e-02
      vertex  -1.346457e-02  9.872833e-02  2.761202e-02
    endloop
  endfacet
  facet normal  3.073939e-02  3.378571e-01  9.406953e-01
    outer loop
      vertex  -6.128767e-03  8.997343e-02  3.659390e-02
      vertex  -2.648346e-04  7.088593e-02  4.325769e-02
      vertex   8.973958e-03  8.995440e-02  3.610722e-02
    endloop
  endfacet
  facet normal -4.498903e-01 -1.733911e-01  8.760903e-01
    outer loop
      vertex  -3.541019e-03  6.823686e-02  4.312691e-02
      vertex  -1.766090e-02  5.314532e-02  3.288923e-02
      vertex  -1.570290e-03  6.509449e-02  4.351700e-02
    endloop
  endfacet
  facet normal -5.862224e-01 -1.104138e-03  8.101494e-01
    outer loop
      vertex  -1.766090e-02  5.314532e-02  3.288923e-02
      vertex  -3.541019e-03  6.823686e-02  4.312691e-02
      vertex  -1.909327e-02  8.985760e-02  3.190280e-02
    endloop
  endfacet
  facet normal -9.248994e-02  6.533560e-02  9.935677e-01
    outer loop
      vertex  -2.648346e-04  7.088593e-02  4.325769e-02
      vertex  -3.541019e-03  6.823686e-02  4.312691e-02
      vertex  -1.570290e-03  6.509449e-02  4.351700e-02
    endloop
  endfacet
  facet normal -3.325858e-01  2.349153e-01  9.133464e-01
    outer loop
      vertex  -6.128767e-03  8.997343e-02  3.659390e-02
      vertex  -1.909327e-02  8.985760e-02  3.190280e-02
      vertex  -3.541019e-03  6.823686e-02  4.312691e-02
    endloop
  endfacet
  facet normal -2.417904e-01  2.527808e-01  9.368240e-01
    outer loop
      vertex  -6.128767e-03  8.997343e-02  3.659390e-02
      vertex  -3.541019e-03  6.823686e-02  4.312691e-02
      vertex  -2.648346e-04  7.088593e-02  4.325769e-02
    endloop
  endfacet
  facet normal -4.490473e-01  6.035980e-01  6.588064e-01
    outer loop
      vertex  -1.909327e-02  8.985760e-02  3.190280e-02
      vertex  -1.346457e-02  9.872833e-02  2.761202e-02
      vertex  -2.012744e-02  9.791750e-02  2.381343e-02
    endloop
  endfacet
  facet normal -5.282391e-01  5.667750e-01  6.322418e-01
    outer loop
      vertex  -1.909327e-02  8.985760e-02  3.190280e-02
      vertex  -2.012744e-02  9.791750e-02  2.381343e-02
      vertex  -2.857819e-02  8.990508e-02  2.393558e-02
    endloop
  endfacet
  facet normal -9.948428e-01  2.426610e-02 -9.848241e-02
    outer loop
      vertex  -3.582922e-02  8.986583e-02 -1.260145e-02
      vertex  -3.720708e-02  5.314747e-02 -7.730111e-03
      vertex  -3.747909e-02  8.993021e-02  4.080974e-03
    endloop
  endfacet
  facet normal -4.155326e-01  4.806691e-01 -7.721980e-01
    outer loop
      vertex  -8.608468e-03  8.986516e-02 -3.756355e-02
      vertex  -2.584136e-02  9.006862e-02 -2.816359e-02
      vertex  -1.361686e-02  9.242838e-02 -3.327292e-02
    endloop
  endfacet
  facet normal  7.360709e-01  1.740318e-02  6.766807e-01
    outer loop
      vertex   3.001134e-02  5.314747e-02  2.238104e-02
      vertex   3.256355e-02  8.978233e-02  1.866264e-02
      vertex   2.227472e-02  8.983815e-02  2.985305e-02
    endloop
  endfacet
  facet normal  8.964612e-01 -1.751171e-02  4.427761e-01
    outer loop
      vertex   3.612745e-02  5.314764e-02  9.998140e-03
      vertex   3.256355e-02  8.978233e-02  1.866264e-02
      vertex   3.001134e-02  5.314747e-02  2.238104e-02
    endloop
  endfacet
  facet normal  9.447559e-01  1.446102e-02  3.274557e-01
    outer loop
      vertex   3.612745e-02  5.314764e-02  9.998140e-03
      vertex   3.717363e-02  8.990510e-02  5.356497e-03
      vertex   3.256355e-02  8.978233e-02  1.866264e-02
    endloop
  endfacet
  facet normal  2.479741e-01  6.171545e-01  7.467457e-01
    outer loop
      vertex   1.462402e-02  9.866091e-02  2.703542e-02
      vertex   6.726250e-03  9.890740e-02  2.945434e-02
      vertex   8.973958e-03  8.995440e-02  3.610722e-02
    endloop
  endfacet
  facet normal  3.588593e-01  5.516436e-01  7.529338e-01
    outer loop
      vertex   2.227472e-02  8.983815e-02  2.985305e-02
      vertex   1.462402e-02  9.866091e-02  2.703542e-02
      vertex   8.973958e-03  8.995440e-02  3.610722e-02
    endloop
  endfacet
  facet normal  6.156579e-02  9.930998e-01  9.981257e-02
    outer loop
      vertex   6.726250e-03  9.890740e-02  2.945434e-02
      vertex   1.462402e-02  9.866091e-02  2.703542e-02
      vertex   2.263639e-02  9.895945e-02  1.912294e-02
    endloop
  endfacet
  facet normal -2.446722e-01 -4.393130e-01  8.643723e-01
    outer loop
      vertex  -1.766090e-02  5.314532e-02  3.288923e-02
      vertex  -3.584600e-03  5.314801e-02  3.687508e-02
      vertex  -1.570290e-03  6.509449e-02  4.351700e-02
    endloop
  endfacet
  facet normal  1.304269e-05 -9.999998e-01  6.287404e-04
    outer loop
      vertex   9.478249e-03  5.314761e-02  3.596421e-02
      vertex  -3.584600e-03  5.314801e-02  3.687508e-02
      vertex  -1.766090e-02  5.314532e-02  3.288923e-02
    endloop
  endfacet
  facet normal  6.536362e-05 -1.000000e+00  9.162488e-05
    outer loop
      vertex   3.001134e-02  5.314747e-02  2.238104e-02
      vertex   2.065985e-02  5.314763e-02  3.080053e-02
      vertex  -1.766090e-02  5.314532e-02  3.288923e-02
    endloop
  endfacet
  facet normal  6.813629e-05 -1.000000e+00  1.424946e-04
    outer loop
      vertex   2.065985e-02  5.314763e-02  3.080053e-02
      vertex   9.478249e-03  5.314761e-02  3.596421e-02
      vertex  -1.766090e-02  5.314532e-02  3.288923e-02
    endloop
  endfacet
  facet normal  6.690677e-01 -1.025761e-02  7.431307e-01
    outer loop
      vertex   2.227472e-02  8.983815e-02  2.985305e-02
      vertex   2.065985e-02  5.314763e-02  3.080053e-02
      vertex   3.001134e-02  5.314747e-02  2.238104e-02
    endloop
  endfacet
  facet normal  1.913029e-01 -1.138208e-02 -9.814650e-01
    outer loop
      vertex   1.030468e-02  8.980589e-02 -3.692008e-02
      vertex   1.250279e-02  5.314763e-02 -3.606651e-02
      vertex   2.392484e-03  5.314762e-02 -3.803716e-02
    endloop
  endfacet
  facet normal  6.345626e-06 -1.000000e+00 -3.066528e-05
    outer loop
      vertex  -1.766090e-02  5.314532e-02  3.288923e-02
      vertex   2.392484e-03  5.314762e-02 -3.803716e-02
      vertex   1.250279e-02  5.314763e-02 -3.606651e-02
    endloop
  endfacet
  facet normal  1.505791e-05 -1.000000e+00 -2.685423e-05
    outer loop
      vertex  -1.766090e-02  5.314532e-02  3.288923e-02
      vertex   1.250279e-02  5.314763e-02 -3.606651e-02
      vertex   2.318456e-02  5.314763e-02 -3.021566e-02
    endloop
  endfacet
  facet normal  5.600190e-02  9.983955e-01  8.385316e-03
    outer loop
      vertex   3.061352e-02  9.873302e-02 -7.192982e-03
      vertex   2.263639e-02  9.895945e-02  1.912294e-02
      vertex   2.844065e-02  9.868677e-02  1.282488e-02
    endloop
  endfacet
  facet normal  7.889323e-01  5.478003e-01  2.783896e-01
    outer loop
      vertex   2.844065e-02  9.868677e-02  1.282488e-02
      vertex   3.256355e-02  8.978233e-02  1.866264e-02
      vertex   3.717363e-02  8.990510e-02  5.356497e-03
    endloop
  endfacet
  facet normal  8.151253e-01  5.791472e-01 -1.261502e-02
    outer loop
      vertex   3.690552e-02  8.997665e-02 -8.682440e-03
      vertex   3.526494e-02  9.241038e-02 -2.958619e-03
      vertex   3.717363e-02  8.990510e-02  5.356497e-03
    endloop
  endfacet
  facet normal  8.106429e-01  5.853078e-01 -1.651925e-02
    outer loop
      vertex   3.061352e-02  9.873302e-02 -7.192982e-03
      vertex   3.526494e-02  9.241038e-02 -2.958619e-03
      vertex   3.690552e-02  8.997665e-02 -8.682440e-03
    endloop
  endfacet
  facet normal  4.538982e-01  6.469409e-03 -8.910301e-01
    outer loop
      vertex   1.030468e-02  8.980589e-02 -3.692008e-02
      vertex   2.264357e-02  8.990507e-02 -3.063383e-02
      vertex   1.250279e-02  5.314763e-02 -3.606651e-02
    endloop
  endfacet
  facet normal  4.803951e-01 -2.907285e-03 -8.770474e-01
    outer loop
      vertex   1.250279e-02  5.314763e-02 -3.606651e-02
      vertex   2.264357e-02  8.990507e-02 -3.063383e-02
      vertex   2.318456e-02  5.314763e-02 -3.021566e-02
    endloop
  endfacet
  facet normal  5.343403e-02  9.980435e-01 -3.246337e-02
    outer loop
      vertex   3.061352e-02  9.873302e-02 -7.192982e-03
      vertex   2.800313e-02  9.863666e-02 -1.445180e-02
      vertex   2.161655e-02  9.874828e-02 -2.153246e-02
    endloop
  endfacet
  facet normal  7.564411e-01  5.911573e-01 -2.798748e-01
    outer loop
      vertex   3.690552e-02  8.997665e-02 -8.682440e-03
      vertex   2.800313e-02  9.863666e-02 -1.445180e-02
      vertex   3.061352e-02  9.873302e-02 -7.192982e-03
    endloop
  endfacet
  facet normal  7.596569e-01  5.538755e-01 -3.407981e-01
    outer loop
      vertex   3.105967e-02  8.990506e-02 -2.182949e-02
      vertex   2.800313e-02  9.863666e-02 -1.445180e-02
      vertex   3.690552e-02  8.997665e-02 -8.682440e-03
    endloop
  endfacet
  facet normal  8.617458e-01 -6.120930e-03 -5.073034e-01
    outer loop
      vertex   3.105967e-02  8.990506e-02 -2.182949e-02
      vertex   3.422857e-02  5.314763e-02 -1.600304e-02
      vertex   3.010972e-02  5.314763e-02 -2.299965e-02
    endloop
  endfacet
  facet normal  7.954235e-05 -1.000000e+00 -4.682599e-05
    outer loop
      vertex   3.422857e-02  5.314763e-02 -1.600304e-02
      vertex   3.762668e-02  5.314735e-02 -4.104926e-03
      vertex   3.010972e-02  5.314763e-02 -2.299965e-02
    endloop
  endfacet
  facet normal  2.793860e-05 -1.000000e+00 -2.629627e-05
    outer loop
      vertex   2.318456e-02  5.314763e-02 -3.021566e-02
      vertex   3.010972e-02  5.314763e-02 -2.299965e-02
      vertex   3.762668e-02  5.314735e-02 -4.104926e-03
    endloop
  endfacet
  facet normal  7.214947e-01  2.741624e-03 -6.924145e-01
    outer loop
      vertex   2.264357e-02  8.990507e-02 -3.063383e-02
      vertex   3.010972e-02  5.314763e-02 -2.299965e-02
      vertex   2.318456e-02  5.314763e-02 -3.021566e-02
    endloop
  endfacet
  facet normal  7.228608e-01  3.315867e-03 -6.909857e-01
    outer loop
      vertex   2.264357e-02  8.990507e-02 -3.063383e-02
      vertex   3.105967e-02  8.990506e-02 -2.182949e-02
      vertex   3.010972e-02  5.314763e-02 -2.299965e-02
    endloop
  endfacet
  facet normal  4.198151e-01  1.805714e-01  8.894657e-01
    outer loop
      vertex   2.227472e-02  8.983815e-02  2.985305e-02
      vertex   8.973958e-03  8.995440e-02  3.610722e-02
      vertex   3.527660e-03  6.762332e-02  4.321126e-02
    endloop
  endfacet
  facet normal  2.229460e-01  2.457280e-01  9.433519e-01
    outer loop
      vertex  -2.648346e-04  7.088593e-02  4.325769e-02
      vertex   3.527660e-03  6.762332e-02  4.321126e-02
      vertex   8.973958e-03  8.995440e-02  3.610722e-02
    endloop
  endfacet
  facet normal  5.840163e-01 -4.742809e-03  8.117281e-01
    outer loop
      vertex   2.065985e-02  5.314763e-02  3.080053e-02
      vertex   2.227472e-02  8.983815e-02  2.985305e-02
      vertex   3.527660e-03  6.762332e-02  4.321126e-02
    endloop
  endfacet
  facet normal  4.245388e-02  3.513772e-02  9.984804e-01
    outer loop
      vertex  -1.570290e-03  6.509449e-02  4.351700e-02
      vertex   3.527660e-03  6.762332e-02  4.321126e-02
      vertex  -2.648346e-04  7.088593e-02  4.325769e-02
    endloop
  endfacet
  facet normal -1.615446e-02  9.966504e-01  8.016884e-02
    outer loop
      vertex  -1.346457e-02  9.872833e-02  2.761202e-02
      vertex  -5.608431e-03  9.865403e-02  3.011872e-02
      vertex   6.726250e-03  9.890740e-02  2.945434e-02
    endloop
  endfacet
  facet normal -2.404575e-01  5.895903e-01  7.710795e-01
    outer loop
      vertex  -6.128767e-03  8.997343e-02  3.659390e-02
      vertex  -5.608431e-03  9.865403e-02  3.011872e-02
      vertex  -1.346457e-02  9.872833e-02  2.761202e-02
    endloop
  endfacet
  facet normal -8.755491e-01 -1.303858e-02  4.829532e-01
    outer loop
      vertex  -3.609439e-02  5.314734e-02  1.057944e-02
      vertex  -2.901646e-02  5.314761e-02  2.341107e-02
      vertex  -3.403079e-02  8.990198e-02  1.531285e-02
    endloop
  endfacet
  facet normal -8.451917e-01  2.451199e-03  5.344576e-01
    outer loop
      vertex  -2.857819e-02  8.990508e-02  2.393558e-02
      vertex  -3.403079e-02  8.990198e-02  1.531285e-02
      vertex  -2.901646e-02  5.314761e-02  2.341107e-02
    endloop
  endfacet
  facet normal -4.062359e-04 -9.999999e-01  2.449828e-04
    outer loop
      vertex  -2.901646e-02  5.314761e-02  2.341107e-02
      vertex  -3.609439e-02  5.314734e-02  1.057944e-02
      vertex  -1.766090e-02  5.314532e-02  3.288923e-02
    endloop
  endfacet
  facet normal -6.407844e-01 -4.373292e-03  7.677084e-01
    outer loop
      vertex  -1.909327e-02  8.985760e-02  3.190280e-02
      vertex  -2.901646e-02  5.314761e-02  2.341107e-02
      vertex  -1.766090e-02  5.314532e-02  3.288923e-02
    endloop
  endfacet
  facet normal -6.431932e-01 -3.256900e-03  7.656970e-01
    outer loop
      vertex  -2.857819e-02  8.990508e-02  2.393558e-02
      vertex  -2.901646e-02  5.314761e-02  2.341107e-02
      vertex  -1.909327e-02  8.985760e-02  3.190280e-02
    endloop
  endfacet
  facet normal -7.200984e-01  5.235685e-01 -4.553397e-01
    outer loop
      vertex  -3.582922e-02  8.986583e-02 -1.260145e-02
      vertex  -2.838578e-02  9.239843e-02 -2.146081e-02
      vertex  -2.584136e-02  9.006862e-02 -2.816359e-02
    endloop
  endfacet
  facet normal -7.164885e-01 -1.690791e-02 -6.973940e-01
    outer loop
      vertex  -2.236963e-02  5.314761e-02 -3.083525e-02
      vertex  -3.086439e-02  5.314761e-02 -2.210790e-02
      vertex  -2.584136e-02  9.006862e-02 -2.816359e-02
    endloop
  endfacet
  facet normal -8.414513e-01  2.595602e-02 -5.397092e-01
    outer loop
      vertex  -3.582922e-02  8.986583e-02 -1.260145e-02
      vertex  -2.584136e-02  9.006862e-02 -2.816359e-02
      vertex  -3.086439e-02  5.314761e-02 -2.210790e-02
    endloop
  endfacet
  facet normal -9.147596e-01 -1.921051e-02 -4.035416e-01
    outer loop
      vertex  -3.582922e-02  8.986583e-02 -1.260145e-02
      vertex  -3.086439e-02  5.314761e-02 -2.210790e-02
      vertex  -3.720708e-02  5.314747e-02 -7.730111e-03
    endloop
  endfacet
  facet normal -4.707869e-05 -1.000000e+00 -3.035523e-05
    outer loop
      vertex  -3.086439e-02  5.314761e-02 -2.210790e-02
      vertex  -1.766090e-02  5.314532e-02  3.288923e-02
      vertex  -3.720708e-02  5.314747e-02 -7.730111e-03
    endloop
  endfacet
  facet normal -3.433062e-05 -1.000000e+00 -3.341572e-05
    outer loop
      vertex  -1.766090e-02  5.314532e-02  3.288923e-02
      vertex  -3.086439e-02  5.314761e-02 -2.210790e-02
      vertex  -2.236963e-02  5.314761e-02 -3.083525e-02
    endloop
  endfacet
  facet normal  2.995568e-03  9.999816e-01 -5.269053e-03
    outer loop
      vertex   2.161655e-02  9.874828e-02 -2.153246e-02
      vertex  -4.643581e-03  9.877512e-02 -3.136867e-02
      vertex   2.263639e-02  9.895945e-02  1.912294e-02
    endloop
  endfacet
  facet normal  2.698149e-03  9.999834e-01 -5.108368e-03
    outer loop
      vertex  -4.643581e-03  9.877512e-02 -3.136867e-02
      vertex  -2.277094e-02  9.888187e-02 -2.004611e-02
      vertex   2.263639e-02  9.895945e-02  1.912294e-02
    endloop
  endfacet
  facet normal -1.200979e-02  9.993331e-01  3.448486e-02
    outer loop
      vertex   6.726250e-03  9.890740e-02  2.945434e-02
      vertex  -2.104660e-02  9.886375e-02  2.104710e-02
      vertex  -1.346457e-02  9.872833e-02  2.761202e-02
    endloop
  endfacet
  facet normal -3.331654e-01  8.526995e-01  4.023733e-01
    outer loop
      vertex  -2.012744e-02  9.791750e-02  2.381343e-02
      vertex  -1.346457e-02  9.872833e-02  2.761202e-02
      vertex  -2.104660e-02  9.886375e-02  2.104710e-02
    endloop
  endfacet
  facet normal -2.112051e-03  9.999961e-01  1.784761e-03
    outer loop
      vertex   2.263639e-02  9.895945e-02  1.912294e-02
      vertex  -2.104660e-02  9.886375e-02  2.104710e-02
      vertex   6.726250e-03  9.890740e-02  2.945434e-02
    endloop
  endfacet
  facet normal -2.167242e-03  9.999975e-01  5.318842e-04
    outer loop
      vertex  -2.277094e-02  9.888187e-02 -2.004611e-02
      vertex  -2.104660e-02  9.886375e-02  2.104710e-02
      vertex   2.263639e-02  9.895945e-02  1.912294e-02
    endloop
  endfacet
  facet normal -5.084511e-06 -1.000000e+00 -3.389698e-05
    outer loop
      vertex  -1.766090e-02  5.314532e-02  3.288923e-02
      vertex  -7.022540e-03  5.314762e-02 -3.651503e-02
      vertex   2.392484e-03  5.314762e-02 -3.803716e-02
    endloop
  endfacet
  facet normal -7.734317e-06 -1.000000e+00 -3.430315e-05
    outer loop
      vertex  -1.093484e-02  5.314761e-02 -3.552432e-02
      vertex  -7.022540e-03  5.314762e-02 -3.651503e-02
      vertex  -1.766090e-02  5.314532e-02  3.288923e-02
    endloop
  endfacet
  facet normal -1.443315e-05 -1.000000e+00 -3.488599e-05
    outer loop
      vertex  -2.236963e-02  5.314761e-02 -3.083525e-02
      vertex  -1.471441e-02  5.314761e-02 -3.410918e-02
      vertex  -1.766090e-02  5.314532e-02  3.288923e-02
    endloop
  endfacet
  facet normal -1.303904e-05 -1.000000e+00 -3.482468e-05
    outer loop
      vertex  -1.471441e-02  5.314761e-02 -3.410918e-02
      vertex  -1.093484e-02  5.314761e-02 -3.552432e-02
      vertex  -1.766090e-02  5.314532e-02  3.288923e-02
    endloop
  endfacet
  facet normal  6.109414e-01  5.606750e-01  5.589224e-01
    outer loop
      vertex   3.256355e-02  8.978233e-02  1.866264e-02
      vertex   2.123872e-02  9.783568e-02  2.296287e-02
      vertex   2.227472e-02  8.983815e-02  2.985305e-02
    endloop
  endfacet
  facet normal  3.389663e-01  8.624882e-01  3.757869e-01
    outer loop
      vertex   1.462402e-02  9.866091e-02  2.703542e-02
      vertex   2.123872e-02  9.783568e-02  2.296287e-02
      vertex   2.263639e-02  9.895945e-02  1.912294e-02
    endloop
  endfacet
  facet normal  4.690595e-01  6.105431e-01  6.381381e-01
    outer loop
      vertex   1.462402e-02  9.866091e-02  2.703542e-02
      vertex   2.227472e-02  8.983815e-02  2.985305e-02
      vertex   2.123872e-02  9.783568e-02  2.296287e-02
    endloop
  endfacet
  facet normal  4.726105e-01  7.844504e-01  4.015931e-01
    outer loop
      vertex   2.844065e-02  9.868677e-02  1.282488e-02
      vertex   2.263639e-02  9.895945e-02  1.912294e-02
      vertex   2.123872e-02  9.783568e-02  2.296287e-02
    endloop
  endfacet
  facet normal  7.733940e-01  6.031406e-01  1.951486e-01
    outer loop
      vertex   3.717363e-02  8.990510e-02  5.356497e-03
      vertex   3.146900e-02  9.777863e-02  3.629979e-03
      vertex   2.844065e-02  9.868677e-02  1.282488e-02
    endloop
  endfacet
  facet normal  4.157594e-01  9.082476e-01  4.722740e-02
    outer loop
      vertex   2.844065e-02  9.868677e-02  1.282488e-02
      vertex   3.146900e-02  9.777863e-02  3.629979e-03
      vertex   3.061352e-02  9.873302e-02 -7.192982e-03
    endloop
  endfacet
  facet normal  8.107683e-01  5.852857e-01 -9.765440e-03
    outer loop
      vertex   3.526494e-02  9.241038e-02 -2.958619e-03
      vertex   3.146900e-02  9.777863e-02  3.629979e-03
      vertex   3.717363e-02  8.990510e-02  5.356497e-03
    endloop
  endfacet
  facet normal  8.093230e-01  5.872373e-01 -1.218829e-02
    outer loop
      vertex   3.146900e-02  9.777863e-02  3.629979e-03
      vertex   3.526494e-02  9.241038e-02 -2.958619e-03
      vertex   3.061352e-02  9.873302e-02 -7.192982e-03
    endloop
  endfacet
  facet normal  5.939279e-01  5.700206e-01 -5.677376e-01
    outer loop
      vertex   2.264357e-02  8.990507e-02 -3.063383e-02
      vertex   2.193969e-02  9.787731e-02 -2.336588e-02
      vertex   3.105967e-02  8.990506e-02 -2.182949e-02
    endloop
  endfacet
  facet normal  3.898945e-01  8.565168e-01 -3.381735e-01
    outer loop
      vertex   2.800313e-02  9.863666e-02 -1.445180e-02
      vertex   2.193969e-02  9.787731e-02 -2.336588e-02
      vertex   2.161655e-02  9.874828e-02 -2.153246e-02
    endloop
  endfacet
  facet normal  6.227627e-01  6.205945e-01 -4.764756e-01
    outer loop
      vertex   2.800313e-02  9.863666e-02 -1.445180e-02
      vertex   3.105967e-02  8.990506e-02 -2.182949e-02
      vertex   2.193969e-02  9.787731e-02 -2.336588e-02
    endloop
  endfacet
  facet normal  7.501086e-02 -3.070916e-02  9.967097e-01
    outer loop
      vertex  -1.570290e-03  6.509449e-02  4.351700e-02
      vertex   2.387263e-03  6.476739e-02  4.320909e-02
      vertex   3.527660e-03  6.762332e-02  4.321126e-02
    endloop
  endfacet
  facet normal  2.738426e-02 -4.892625e-01  8.717066e-01
    outer loop
      vertex  -3.584600e-03  5.314801e-02  3.687508e-02
      vertex   2.387263e-03  6.476739e-02  4.320909e-02
      vertex  -1.570290e-03  6.509449e-02  4.351700e-02
    endloop
  endfacet
  facet normal  6.016936e-02 -5.014246e-01  8.631066e-01
    outer loop
      vertex  -3.584600e-03  5.314801e-02  3.687508e-02
      vertex   9.478249e-03  5.314761e-02  3.596421e-02
      vertex   2.387263e-03  6.476739e-02  4.320909e-02
    endloop
  endfacet
  facet normal  4.004321e-01 -2.962736e-01  8.671079e-01
    outer loop
      vertex   2.065985e-02  5.314763e-02  3.080053e-02
      vertex   2.387263e-03  6.476739e-02  4.320909e-02
      vertex   9.478249e-03  5.314761e-02  3.596421e-02
    endloop
  endfacet
  facet normal  4.675245e-01 -1.873425e-01  8.639002e-01
    outer loop
      vertex   3.527660e-03  6.762332e-02  4.321126e-02
      vertex   2.387263e-03  6.476739e-02  4.320909e-02
      vertex   2.065985e-02  5.314763e-02  3.080053e-02
    endloop
  endfacet
  facet normal  2.731923e-02  5.633910e-01  8.257387e-01
    outer loop
      vertex  -6.128767e-03  8.997343e-02  3.659390e-02
      vertex   8.973958e-03  8.995440e-02  3.610722e-02
      vertex   4.240850e-03  9.787753e-02  3.085796e-02
    endloop
  endfacet
  facet normal -1.295444e-02  5.983623e-01  8.011209e-01
    outer loop
      vertex   4.240850e-03  9.787753e-02  3.085796e-02
      vertex  -5.608431e-03  9.865403e-02  3.011872e-02
      vertex  -6.128767e-03  8.997343e-02  3.659390e-02
    endloop
  endfacet
  facet normal  1.786060e-01  6.153496e-01  7.677531e-01
    outer loop
      vertex   6.726250e-03  9.890740e-02  2.945434e-02
      vertex   4.240850e-03  9.787753e-02  3.085796e-02
      vertex   8.973958e-03  8.995440e-02  3.610722e-02
    endloop
  endfacet
  facet normal  1.661401e-02  7.918862e-01  6.104428e-01
    outer loop
      vertex  -5.608431e-03  9.865403e-02  3.011872e-02
      vertex   4.240850e-03  9.787753e-02  3.085796e-02
      vertex   6.726250e-03  9.890740e-02  2.945434e-02
    endloop
  endfacet
  facet normal -4.558528e-01  6.226866e-01 -6.359714e-01
    outer loop
      vertex  -2.214183e-02  9.787729e-02 -2.316979e-02
      vertex  -1.283149e-02  9.859084e-02 -2.914464e-02
      vertex  -2.584136e-02  9.006862e-02 -2.816359e-02
    endloop
  endfacet
  facet normal -4.109047e-01  5.429748e-01 -7.323495e-01
    outer loop
      vertex  -1.361686e-02  9.242838e-02 -3.327292e-02
      vertex  -2.584136e-02  9.006862e-02 -2.816359e-02
      vertex  -1.283149e-02  9.859084e-02 -2.914464e-02
    endloop
  endfacet
  facet normal -3.628204e-01  5.501140e-01 -7.521542e-01
    outer loop
      vertex  -1.361686e-02  9.242838e-02 -3.327292e-02
      vertex  -1.283149e-02  9.859084e-02 -2.914464e-02
      vertex  -8.608468e-03  8.986516e-02 -3.756355e-02
    endloop
  endfacet
  facet normal -2.184919e-01  6.207396e-01 -7.529566e-01
    outer loop
      vertex  -8.608468e-03  8.986516e-02 -3.756355e-02
      vertex  -1.283149e-02  9.859084e-02 -2.914464e-02
      vertex  -4.643581e-03  9.877512e-02 -3.136867e-02
    endloop
  endfacet
  facet normal -2.350832e-02  9.997227e-01  1.427270e-03
    outer loop
      vertex  -3.066177e-02  9.865993e-02  5.445713e-03
      vertex  -2.104660e-02  9.886375e-02  2.104710e-02
      vertex  -2.277094e-02  9.888187e-02 -2.004611e-02
    endloop
  endfacet
  facet normal -1.264814e-04 -9.999999e-01 -3.378065e-04
    outer loop
      vertex  -1.471441e-02  5.314761e-02 -3.410918e-02
      vertex  -1.003714e-02  5.314799e-02 -3.696323e-02
      vertex  -1.093484e-02  5.314761e-02 -3.552432e-02
    endloop
  endfacet
  facet normal -7.672998e-05 -9.999999e-01 -3.067677e-04
    outer loop
      vertex  -1.003714e-02  5.314799e-02 -3.696323e-02
      vertex  -7.022540e-03  5.314762e-02 -3.651503e-02
      vertex  -1.093484e-02  5.314761e-02 -3.552432e-02
    endloop
  endfacet
  facet normal -4.449877e-01  2.672738e-03 -8.955327e-01
    outer loop
      vertex  -8.608468e-03  8.986516e-02 -3.756355e-02
      vertex  -1.003714e-02  5.314799e-02 -3.696323e-02
      vertex  -2.236963e-02  5.314761e-02 -3.083525e-02
    endloop
  endfacet
  facet normal -1.849947e-04 -9.999999e-01 -4.336993e-04
    outer loop
      vertex  -1.003714e-02  5.314799e-02 -3.696323e-02
      vertex  -1.471441e-02  5.314761e-02 -3.410918e-02
      vertex  -2.236963e-02  5.314761e-02 -3.083525e-02
    endloop
  endfacet
  facet normal -8.607364e-02 -1.293864e-02 -9.962047e-01
    outer loop
      vertex   2.392484e-03  5.314762e-02 -3.803716e-02
      vertex  -1.003714e-02  5.314799e-02 -3.696323e-02
      vertex  -8.608468e-03  8.986516e-02 -3.756355e-02
    endloop
  endfacet
  facet normal -6.354119e-05 -9.999999e-01 -3.954755e-04
    outer loop
      vertex  -7.022540e-03  5.314762e-02 -3.651503e-02
      vertex  -1.003714e-02  5.314799e-02 -3.696323e-02
      vertex   2.392484e-03  5.314762e-02 -3.803716e-02
    endloop
  endfacet
  facet normal  6.245517e-01  6.093968e-01  4.884371e-01
    outer loop
      vertex   2.844065e-02  9.868677e-02  1.282488e-02
      vertex   3.014199e-02  9.239682e-02  1.849706e-02
      vertex   3.256355e-02  8.978233e-02  1.866264e-02
    endloop
  endfacet
  facet normal  6.201043e-01  6.059052e-01  4.983470e-01
    outer loop
      vertex   3.256355e-02  8.978233e-02  1.866264e-02
      vertex   3.014199e-02  9.239682e-02  1.849706e-02
      vertex   2.123872e-02  9.783568e-02  2.296287e-02
    endloop
  endfacet
  facet normal  6.200855e-01  6.112366e-01  4.918168e-01
    outer loop
      vertex   2.123872e-02  9.783568e-02  2.296287e-02
      vertex   3.014199e-02  9.239682e-02  1.849706e-02
      vertex   2.844065e-02  9.868677e-02  1.282488e-02
    endloop
  endfacet
  facet normal  1.351785e-02  9.993519e-01 -3.336255e-02
    outer loop
      vertex  -4.643581e-03  9.877512e-02 -3.136867e-02
      vertex   2.161655e-02  9.874828e-02 -2.153246e-02
      vertex   1.498445e-02  9.862289e-02 -2.797573e-02
    endloop
  endfacet
  facet normal  3.302270e-01  8.738221e-01 -3.569106e-01
    outer loop
      vertex   2.193969e-02  9.787731e-02 -2.336588e-02
      vertex   1.498445e-02  9.862289e-02 -2.797573e-02
      vertex   2.161655e-02  9.874828e-02 -2.153246e-02
    endloop
  endfacet
  facet normal  4.809164e-01  6.134966e-01 -6.263716e-01
    outer loop
      vertex   2.264357e-02  8.990507e-02 -3.063383e-02
      vertex   1.498445e-02  9.862289e-02 -2.797573e-02
      vertex   2.193969e-02  9.787731e-02 -2.336588e-02
    endloop
  endfacet
  facet normal  3.740318e-01  5.551288e-01 -7.429214e-01
    outer loop
      vertex   1.030468e-02  8.980589e-02 -3.692008e-02
      vertex   1.498445e-02  9.862289e-02 -2.797573e-02
      vertex   2.264357e-02  8.990507e-02 -3.063383e-02
    endloop
  endfacet
  facet normal -3.153195e-02  9.977069e-01 -5.988908e-02
    outer loop
      vertex  -4.643581e-03  9.877512e-02 -3.136867e-02
      vertex  -2.095722e-02  9.881058e-02 -2.218875e-02
      vertex  -2.277094e-02  9.888187e-02 -2.004611e-02
    endloop
  endfacet
  facet normal -4.532536e-02  9.954012e-01 -8.439247e-02
    outer loop
      vertex  -1.283149e-02  9.859084e-02 -2.914464e-02
      vertex  -2.095722e-02  9.881058e-02 -2.218875e-02
      vertex  -4.643581e-03  9.877512e-02 -3.136867e-02
    endloop
  endfacet
  facet normal -3.819735e-01  8.546071e-01 -3.517711e-01
    outer loop
      vertex  -2.277094e-02  9.888187e-02 -2.004611e-02
      vertex  -2.095722e-02  9.881058e-02 -2.218875e-02
      vertex  -2.214183e-02  9.787729e-02 -2.316979e-02
    endloop
  endfacet
  facet normal -3.290837e-01  8.500302e-01 -4.112817e-01
    outer loop
      vertex  -2.214183e-02  9.787729e-02 -2.316979e-02
      vertex  -2.095722e-02  9.881058e-02 -2.218875e-02
      vertex  -1.283149e-02  9.859084e-02 -2.914464e-02
    endloop
  endfacet
  facet normal -8.441716e-01  5.292058e-01 -8.553009e-02
    outer loop
      vertex  -3.747909e-02  8.993021e-02  4.080974e-03
      vertex  -3.120093e-02  9.845155e-02 -5.159098e-03
      vertex  -3.582922e-02  8.986583e-02 -1.260145e-02
    endloop
  endfacet
  facet normal -7.899619e-01  6.125103e-01  2.812746e-02
    outer loop
      vertex  -3.066177e-02  9.865993e-02  5.445713e-03
      vertex  -3.120093e-02  9.845155e-02 -5.159098e-03
      vertex  -3.747909e-02  8.993021e-02  4.080974e-03
    endloop
  endfacet
  facet normal -7.842842e-02  9.967977e-01 -1.559836e-02
    outer loop
      vertex  -2.277094e-02  9.888187e-02 -2.004611e-02
      vertex  -3.120093e-02  9.845155e-02 -5.159098e-03
      vertex  -3.066177e-02  9.865993e-02  5.445713e-03
    endloop
  endfacet
  facet normal -7.948848e-01  5.549061e-01  2.454329e-01
    outer loop
      vertex  -3.403079e-02  8.990198e-02  1.531285e-02
      vertex  -3.353021e-02  9.241593e-02  1.125022e-02
      vertex  -3.747909e-02  8.993021e-02  4.080974e-03
    endloop
  endfacet
  facet normal -7.838923e-01  5.758820e-01  2.321053e-01
    outer loop
      vertex  -3.747909e-02  8.993021e-02  4.080974e-03
      vertex  -3.353021e-02  9.241593e-02  1.125022e-02
      vertex  -3.066177e-02  9.865993e-02  5.445713e-03
    endloop
  endfacet
  facet normal -1.158103e-01  9.915518e-01  5.841992e-02
    outer loop
      vertex  -3.066177e-02  9.865993e-02  5.445713e-03
      vertex  -2.727777e-02  9.849825e-02  1.489821e-02
      vertex  -2.104660e-02  9.886375e-02  2.104710e-02
    endloop
  endfacet
  facet normal -6.958120e-01  5.678266e-01  4.397939e-01
    outer loop
      vertex  -2.857819e-02  8.990508e-02  2.393558e-02
      vertex  -2.727777e-02  9.849825e-02  1.489821e-02
      vertex  -3.403079e-02  8.990198e-02  1.531285e-02
    endloop
  endfacet
  facet normal -7.483290e-01  6.013713e-01  2.799219e-01
    outer loop
      vertex  -2.727777e-02  9.849825e-02  1.489821e-02
      vertex  -3.353021e-02  9.241593e-02  1.125022e-02
      vertex  -3.403079e-02  8.990198e-02  1.531285e-02
    endloop
  endfacet
  facet normal -7.482238e-01  6.023157e-01  2.781670e-01
    outer loop
      vertex  -3.353021e-02  9.241593e-02  1.125022e-02
      vertex  -2.727777e-02  9.849825e-02  1.489821e-02
      vertex  -3.066177e-02  9.865993e-02  5.445713e-03
    endloop
  endfacet
  facet normal -5.871894e-01  6.271139e-01  5.117974e-01
    outer loop
      vertex  -2.012744e-02  9.791750e-02  2.381343e-02
      vertex  -2.727777e-02  9.849825e-02  1.489821e-02
      vertex  -2.857819e-02  8.990508e-02  2.393558e-02
    endloop
  endfacet
  facet normal -4.607484e-01  7.816209e-01  4.204518e-01
    outer loop
      vertex  -2.104660e-02  9.886375e-02  2.104710e-02
      vertex  -2.727777e-02  9.849825e-02  1.489821e-02
      vertex  -2.012744e-02  9.791750e-02  2.381343e-02
    endloop
  endfacet
  facet normal  2.365118e-02  9.954634e-01 -9.215785e-02
    outer loop
      vertex   1.498445e-02  9.862289e-02 -2.797573e-02
      vertex   5.054344e-03  9.853029e-02 -3.152444e-02
      vertex  -4.643581e-03  9.877512e-02 -3.136867e-02
    endloop
  endfacet
  facet normal  2.599376e-01  6.162167e-01 -7.434443e-01
    outer loop
      vertex   5.054344e-03  9.853029e-02 -3.152444e-02
      vertex   1.498445e-02  9.862289e-02 -2.797573e-02
      vertex   1.030468e-02  8.980589e-02 -3.692008e-02
    endloop
  endfacet
  facet normal  3.032962e-02  5.388869e-01 -8.418320e-01
    outer loop
      vertex  -8.608468e-03  8.986516e-02 -3.756355e-02
      vertex   5.054344e-03  9.853029e-02 -3.152444e-02
      vertex   1.030468e-02  8.980589e-02 -3.692008e-02
    endloop
  endfacet
  facet normal  1.210768e-03  5.704921e-01 -8.213022e-01
    outer loop
      vertex  -4.643581e-03  9.877512e-02 -3.136867e-02
      vertex   5.054344e-03  9.853029e-02 -3.152444e-02
      vertex  -8.608468e-03  8.986516e-02 -3.756355e-02
    endloop
  endfacet
  facet normal -7.343417e-01  6.251290e-01 -2.644919e-01
    outer loop
      vertex  -3.120093e-02  9.845155e-02 -5.159098e-03
      vertex  -2.740296e-02  9.848894e-02 -1.561550e-02
      vertex  -3.582922e-02  8.986583e-02 -1.260145e-02
    endloop
  endfacet
  facet normal -7.133935e-01  5.417360e-01 -4.445129e-01
    outer loop
      vertex  -2.838578e-02  9.239843e-02 -2.146081e-02
      vertex  -3.582922e-02  8.986583e-02 -1.260145e-02
      vertex  -2.740296e-02  9.848894e-02 -1.561550e-02
    endloop
  endfacet
  facet normal -4.090306e-01  8.414785e-01 -3.529983e-01
    outer loop
      vertex  -2.740296e-02  9.848894e-02 -1.561550e-02
      vertex  -2.277094e-02  9.888187e-02 -2.004611e-02
      vertex  -2.214183e-02  9.787729e-02 -2.316979e-02
    endloop
  endfacet
  facet normal -1.236845e-01  9.914584e-01 -4.137960e-02
    outer loop
      vertex  -2.277094e-02  9.888187e-02 -2.004611e-02
      vertex  -2.740296e-02  9.848894e-02 -1.561550e-02
      vertex  -3.120093e-02  9.845155e-02 -5.159098e-03
    endloop
  endfacet
  facet normal -6.274357e-01  6.082076e-01 -4.862178e-01
    outer loop
      vertex  -2.214183e-02  9.787729e-02 -2.316979e-02
      vertex  -2.584136e-02  9.006862e-02 -2.816359e-02
      vertex  -2.740296e-02  9.848894e-02 -1.561550e-02
    endloop
  endfacet
  facet normal -6.984761e-01  5.509899e-01 -4.566632e-01
    outer loop
      vertex  -2.838578e-02  9.239843e-02 -2.146081e-02
      vertex  -2.740296e-02  9.848894e-02 -1.561550e-02
      vertex  -2.584136e-02  9.006862e-02 -2.816359e-02
    endloop
  endfacet
endsolid vcg
