<?xml version="1.0" encoding="UTF-8" standalone="no"?>
<svg
   version="1.1"
   id="svg1"
   width="300.00977"
   height="105.64928"
   viewBox="0 0 300.00977 105.64929"
   xmlns="http://www.w3.org/2000/svg"
   xmlns:svg="http://www.w3.org/2000/svg">
  <defs
     id="defs1" />
  <path
     id="path1"
     d="m 761.505,285.545 c 0,-13.621 -5.642,-22.193 -16.914,-25.727 -4.704,-1.409 -15.987,-2.11 -33.832,-2.11 -18.33,0 -27.486,9.271 -27.486,27.837 V 563.256 L 452.433,278.505 c -12.22,-15.036 -28.794,-22.564 -49.695,-22.564 -21.148,0 -37.84,7.528 -50.051,22.564 L 117.62,564.647 V 285.545 c 0,-18.566 -9.167,-27.837 -27.491,-27.837 -18.087,0 -29.373,0.701 -33.833,2.11 -11.277,3.534 -16.917,12.106 -16.917,25.727 v 360.171 c 0,26.542 14.565,39.82 43.702,39.82 19.035,0 34.308,-6.823 45.822,-20.437 L 403.797,339.817 672.345,665.456 c 11.274,13.627 26.078,20.431 44.398,20.431 29.837,0 44.762,-14.445 44.762,-43.35 V 285.545"
     style="fill:#ffffff;fill-opacity:1;fill-rule:nonzero;stroke:none"
     transform="matrix(0.1626078,0,0,-0.1626078,0,135.75637)"
     clip-path="none" />
  <path
     id="path3"
     d="m 1295.65,283.792 c 0,-18.58 -9.17,-27.851 -27.48,-27.851 h -250.93 c -57.344,0 -102.097,5.169 -134.284,15.519 -49.573,17.143 -74.365,49.694 -74.365,97.618 v 288.611 c 0,18.327 9.173,27.493 27.496,27.493 17.614,0 28.897,-0.694 33.827,-2.105 11.286,-3.309 16.917,-11.762 16.917,-25.388 V 369.078 c 0,-22.33 18.092,-37.013 54.274,-44.062 11.506,-3.046 38.305,-4.569 80.355,-4.569 h 246.71 c 18.31,0 27.48,-12.231 27.48,-36.655"
     style="fill:#ffffff;fill-opacity:1;fill-rule:nonzero;stroke:none"
     transform="matrix(0.1626078,0,0,-0.1626078,0,135.75637)"
     clip-path="none" />
  <path
     id="path5"
     d="m 1777.07,320.447 h -339.74 l 351.72,297.419 c 10.57,8.683 15.86,18.56 15.86,29.597 0,0.37 -0.04,0.704 -0.06,1.061 0,0.08 0.02,0.159 0.02,0.237 0,18.442 -14.95,33.401 -33.39,33.401 h -400.77 c -18.43,0 -33.38,-14.959 -33.38,-33.401 0,-18.44 14.95,-33.393 33.38,-33.393 h 303.27 L 1332.65,325.374 c -8.22,-7.048 -12.33,-15.51 -12.33,-25.377 0,-15.285 7.28,-26.793 21.85,-34.534 11.51,-6.345 25.73,-9.522 42.65,-9.522 h 392.25 c 19.03,0 28.54,10.802 28.54,32.42 0,21.379 -9.51,32.086 -28.54,32.086"
     style="fill:#ffffff;fill-opacity:1;fill-rule:nonzero;stroke:none"
     transform="matrix(0.1626078,0,0,-0.1626078,0,135.75637)"
     clip-path="none" />
  <path
     id="path9"
     d="M 41.421,199.769 H 1803.57 v 10.26 H 41.421 Z"
     style="fill:#ffffff;fill-opacity:1;fill-rule:nonzero;stroke:none"
     transform="matrix(0.1626078,0,0,-0.39427544,0,184.41329)"
     clip-path="none" />
  <path
     id="path11"
     d="m 150.0057,7.0565281 c 52.42312,0 103.06082,4.0095829 150.00406,9.2499449 C 258.30574,6.0734013 206.3493,0 150.0057,0 93.662093,0 41.70386,6.0734013 0,16.306473 48.497289,9.7301255 97.581591,7.0565281 150.0057,7.0565281"
     style="fill:#ffffff;fill-opacity:1;fill-rule:nonzero;stroke:none;stroke-width:0.162608"
     clip-path="none" />
</svg>
