<?xml version="1.0" standalone="no"?>
<!DOCTYPE svg PUBLIC "-//W3C//DTD SVG 20010904//EN"
 "http://www.w3.org/TR/2001/REC-SVG-20010904/DTD/svg10.dtd">
<svg version="1.0" xmlns="http://www.w3.org/2000/svg"
 width="1024.000000pt" height="1024.000000pt" viewBox="0 0 1024.000000 1024.000000"
 preserveAspectRatio="xMidYMid meet">

<style>
  <![CDATA[
    .theme-responsive {
      fill: #000000;
    }

    @media (prefers-color-scheme: dark) {
      .theme-responsive {
        fill: #ffffff;
      }
    }
  ]]>
</style>

<g transform="translate(0.000000,1024.000000) scale(0.100000,-0.100000)"
class="theme-responsive" stroke="none">
<path d="M5015 8985 c-267 -58 -533 -252 -777 -563 -208 -266 -364 -536 -526
-914 l-11 -27 -43 24 c-85 47 -272 115 -376 137 -83 17 -140 22 -252 22 -129
0 -155 -3 -233 -27 -122 -38 -262 -107 -330 -165 -224 -190 -377 -557 -427
-1029 l-12 -111 -40 -18 c-53 -24 -105 -87 -123 -148 -19 -63 -19 -90 1 -156
31 -105 149 -190 264 -190 88 0 179 55 228 138 23 40 27 58 27 122 0 64 -4 83
-29 128 -26 46 -86 104 -120 115 -16 5 91 143 184 235 190 189 365 254 480
178 106 -70 216 -282 286 -548 l15 -58 -40 -72 c-97 -178 -141 -344 -141 -538
0 -193 38 -310 158 -479 38 -53 74 -112 82 -131 52 -138 164 -318 271 -435
l50 -54 -125 -93 c-69 -51 -242 -166 -385 -256 -363 -228 -487 -318 -617 -447
-116 -115 -177 -198 -216 -294 -22 -54 -23 -68 -26 -430 -2 -274 0 -382 9
-403 23 -55 51 -62 289 -62 199 -1 218 1 250 19 64 37 70 63 70 298 l0 208 30
59 c16 32 53 84 82 115 l53 56 120 -20 c66 -12 131 -21 145 -21 51 -1 51 -2
20 -220 -31 -222 -95 -801 -125 -1142 l-7 -78 -124 0 c-177 0 -166 17 -162
-263 3 -202 5 -225 23 -257 32 -54 60 -59 320 -59 285 -1 410 11 479 42 124
57 153 109 172 310 l13 142 164 160 c90 88 272 275 405 415 132 140 264 278
292 305 l52 50 194 -200 c107 -110 213 -226 236 -257 24 -32 45 -57 48 -58 3
0 3 1565 0 3477 l-5 3478 -90 2 c-49 1 -117 -4 -150 -12z m-50 -2352 l48 -6
-7 -971 c-4 -533 -9 -972 -11 -974 -7 -7 -244 18 -307 33 -254 59 -503 208
-587 353 -5 9 -27 4 -86 -22 -44 -19 -81 -39 -83 -45 -6 -17 45 -119 92 -185
174 -245 485 -393 865 -415 l113 -6 -1 -155 c-1 -85 -4 -156 -7 -159 -10 -10
-335 19 -429 39 -312 64 -546 191 -781 425 -221 219 -331 425 -380 709 -24
134 -14 349 20 474 130 470 568 822 1114 897 105 14 350 19 427 8z"/>
<path d="M4009 5956 c-104 -28 -195 -107 -224 -197 -14 -40 -15 -58 -5 -103
21 -100 116 -218 215 -266 63 -30 134 -40 299 -40 126 0 158 4 191 19 53 25
95 70 105 115 20 91 -54 273 -143 351 -128 112 -298 159 -438 121z"/>
<path d="M6276 8919 c-63 -15 -155 -70 -193 -113 -172 -198 -118 -500 111
-620 l49 -26 -2 -203 c-1 -111 -4 -232 -7 -269 l-6 -66 -122 -7 c-66 -4 -219
-8 -338 -9 l-218 -1 0 -2823 0 -2822 255 6 256 7 -3 -139 -3 -139 -84 -5 c-75
-5 -86 -9 -107 -33 -36 -42 -44 -90 -44 -275 0 -138 3 -179 16 -203 30 -59 33
-59 602 -59 337 0 530 4 549 10 47 17 53 43 53 245 0 289 -11 313 -140 323
l-70 5 0 138 0 139 78 0 c199 0 361 89 430 238 l27 57 -2 448 -1 447 453 0
c519 0 487 -6 509 90 10 43 11 133 5 405 -5 193 -11 363 -15 378 -11 53 -28
56 -310 63 l-259 7 -25 -27 c-24 -27 -25 -31 -28 -227 l-4 -199 -158 0 -157 0
-7 88 c-13 165 -55 277 -140 369 -57 63 -113 98 -199 125 -80 25 -435 42 -689
33 l-178 -6 0 151 0 152 168 -9 c92 -4 259 -8 372 -7 229 1 319 14 425 64 125
59 282 223 326 339 22 61 38 185 46 378 l6 132 143 3 c160 3 182 12 217 79 16
31 17 71 15 501 -3 535 3 499 -99 551 -43 22 -74 28 -151 34 l-96 6 -6 96 c-4
53 -12 123 -17 156 -34 203 -148 401 -304 528 -71 57 -234 139 -322 162 -79
20 -264 38 -325 32 l-48 -4 0 127 c0 70 -3 194 -6 276 l-7 149 39 14 c50 18
153 122 181 182 33 71 47 165 34 235 -25 137 -121 260 -239 305 -64 24 -176
33 -236 18z m304 -2264 c108 -38 211 -133 264 -245 30 -62 31 -71 31 -191 0
-125 0 -125 -38 -201 -119 -241 -396 -336 -629 -217 -54 28 -139 109 -179 170
-90 140 -92 344 -6 491 37 64 128 145 202 179 103 49 242 54 355 14z"/>
</g>
</svg>
