<?xml version="1.0" encoding="UTF-8" standalone="no"?>
<svg
   viewBox="0 0 24 24"
   version="1.1"
   id="svg919"
   sodipodi:docname="postgresql.svg"
   inkscape:version="1.1.2 (b8e25be8, 2022-02-05)"
   xmlns:inkscape="http://www.inkscape.org/namespaces/inkscape"
   xmlns:sodipodi="http://sodipodi.sourceforge.net/DTD/sodipodi-0.dtd"
   xmlns="http://www.w3.org/2000/svg"
   xmlns:svg="http://www.w3.org/2000/svg">
  <defs
     id="defs923" />
  <sodipodi:namedview
     id="namedview921"
     pagecolor="#ffffff"
     bordercolor="#666666"
     borderopacity="1.0"
     inkscape:pageshadow="2"
     inkscape:pageopacity="0.0"
     inkscape:pagecheckerboard="0"
     showgrid="false"
     inkscape:zoom="17.192681"
     inkscape:cx="12.35991"
     inkscape:cy="12.883389"
     inkscape:window-width="1920"
     inkscape:window-height="1027"
     inkscape:window-x="1728"
     inkscape:window-y="25"
     inkscape:window-maximized="0"
     inkscape:current-layer="svg919" />
  <path
     d="m 21.296342,14.115915 a 0.40209284,0.38851625 0 0 0 -0.04584,-0.09324 Q 21.081623,13.715747 20.440687,13.84318 c -1.330124,0.264191 -1.844802,0.101015 -2.031373,-0.01554 1.079217,-1.591363 1.966234,-3.513741 2.445528,-5.3071321 0.218739,-0.8158842 0.64174,-2.7374855 0.09811,-3.6753637 A 1.2866971,1.243252 0 0 0 20.832327,4.6617605 C 19.794928,3.382765 18.272604,2.6950913 16.431019,2.6764425 15.228761,2.66401 14.203424,2.9452957 13.925176,3.0486411 a 8.0418568,7.7703249 0 0 0 -0.41496,-0.063717 6.4334854,6.2162599 0 0 0 -1.055091,-0.098683 C 11.504577,2.8714776 10.683504,3.0913778 10.002358,3.5389486 9.3139755,3.2895211 6.1527216,2.2607301 4.1961379,3.6003341 3.1016412,4.3486164 2.5982209,5.6851123 2.6955274,7.5740783 2.728499,8.2096909 3.1032495,10.164705 3.6951302,12.037353 q 0.5548881,1.756093 1.1523981,2.78333 0.6674741,1.16011 1.3783742,1.390888 c 0.3602752,0.115001 0.9111424,0.111116 1.494177,-0.566456 a 45.034398,43.51382 0 0 1 1.5641412,-1.714134 c 0.3498207,0.182603 0.7285923,0.281286 1.1178183,0.292941 v 0.0031 a 8.8460425,8.5473574 0 0 0 -0.198634,0.236995 c -0.272619,0.334124 -0.3297162,0.404057 -1.2062786,0.57889 -0.2492976,0.04973 -0.9119466,0.181048 -0.9215968,0.630173 a 0.48251141,0.4662195 0 0 0 0.073181,0.25409 c 0.1825501,0.328684 0.7414592,0.473989 0.8162485,0.491861 1.0735879,0.258752 2.0144849,0.07149 2.7117139,-0.527605 -0.01367,1.73356 0.06192,3.43293 0.277444,3.953541 0.177725,0.429699 0.61279,1.47947 1.986339,1.47947 q 0.301569,7.77e-4 0.66667,-0.07304 c 1.433059,-0.296826 2.055498,-0.909128 2.29595,-2.258056 0.120628,-0.676018 0.323282,-2.233969 0.433456,-3.18661 0.01367,-0.05439 0.02895,-0.09324 0.04584,-0.105677 0,0 0.05629,-0.0373 0.343388,0.02331 l 0.03538,0.0054 0.204263,0.01709 0.01206,7.77e-4 c 0.681145,0.0303 1.536799,-0.110339 2.035394,-0.334124 0.517895,-0.23311 1.452359,-0.802674 1.282676,-1.297644 M 4.2556476,11.903703 C 3.6573335,10.011629 3.3083169,8.1078996 3.2809746,7.5748553 3.1933183,5.8871407 3.61632,4.7130447 4.5371126,4.0836483 6.0144017,3.0742831 8.4293713,3.6640508 9.4490787,3.9826341 l -0.00804,0.00777 C 7.8141692,5.5771048 7.8527702,8.2905022 7.8583995,8.4567872 c 0,0.063717 0.00483,0.1546295 0.012867,0.2797317 0.027342,0.455341 0.080419,1.3054141 -0.05951,2.2673811 -0.1286697,0.893587 0.156012,1.768526 0.7824727,2.400253 q 0.096502,0.09791 0.2026547,0.184157 c -0.2790524,0.288279 -0.8846042,0.927 -1.5303653,1.676836 -0.4567775,0.529936 -0.7720183,0.428145 -0.874954,0.394732 C 6.076324,15.558864 5.7377618,15.20376 5.3951787,14.632641 5.0091696,13.980711 4.6207479,13.053711 4.257256,11.903703 m 4.8307434,3.953542 A 1.2866971,1.243252 0 0 1 8.7405911,15.718933 c 0.071573,-0.0303 0.1905921,-0.06993 0.3884217,-0.108785 1.0325742,-0.205913 1.1918032,-0.350441 1.5400152,-0.777032 0.07961,-0.09868 0.169684,-0.209799 0.295137,-0.344226 a 0.32167427,0.310813 0 0 0 0.05951,-0.101014 c 0.136712,-0.117332 0.218739,-0.08547 0.350625,-0.03264 0.125453,0.05051 0.247689,0.202028 0.297549,0.36909 0.02413,0.07926 0.04986,0.229225 -0.03619,0.34578 -0.726984,0.983723 -1.786901,0.97129 -2.5476606,0.787134 m 1.6839646,-3.098806 -0.04182,0.108785 c -0.106957,0.2774 -0.206676,0.535375 -0.268598,0.78014 C 9.9251567,13.64581 9.402436,13.423579 9.0059724,13.023407 8.5009438,12.514451 8.2717509,11.806574 8.376295,11.080826 8.523461,10.064467 8.4695806,9.1794274 8.4406299,8.7038835 L 8.4301755,8.5329364 C 8.6682144,8.3293539 9.7699488,7.759012 10.555638,7.9330673 c 0.358667,0.079257 0.577406,0.3154752 0.667474,0.7210862 0.470449,2.1010955 0.06273,2.9760345 -0.265381,3.6800255 a 7.2376711,6.9932924 0 0 0 -0.184963,0.42426 m 5.922024,3.552593 q -0.0193,0.20669 -0.04986,0.463111 l -0.117411,0.34034 a 0.32167427,0.310813 0 0 0 -0.01448,0.08392 c -0.0048,0.36909 -0.04343,0.504294 -0.09248,0.676018 -0.05147,0.17794 -0.108565,0.379192 -0.144753,0.821323 -0.08846,1.098724 -0.706075,1.730452 -1.943717,1.986095 -1.218341,0.252536 -1.434667,-0.385408 -1.624455,-0.948756 a 5.6292998,5.4392274 0 0 0 -0.06273,-0.176387 c -0.1729,-0.455341 -0.152796,-1.09717 -0.126258,-1.985318 0.01287,-0.435915 -0.0201,-1.477138 -0.265381,-2.056028 q 0.0048,-0.341894 0.01528,-0.693113 a 0.32167427,0.310813 0 0 0 -0.01287,-0.0878 1.6083714,1.554065 0 0 0 -0.03538,-0.161623 c -0.09811,-0.33257 -0.337758,-0.610748 -0.627265,-0.726525 -0.114195,-0.04584 -0.324087,-0.129765 -0.576601,-0.0676 0.05388,-0.214461 0.147166,-0.456118 0.248493,-0.718755 l 0.04262,-0.110339 c 0.04825,-0.124325 0.107761,-0.252535 0.171291,-0.388516 0.342583,-0.736627 0.812228,-1.745215 0.302374,-4.0234744 C 11.590625,7.6844169 10.952906,7.2679275 9.9862748,7.3642795 9.4072611,7.422557 8.8764985,7.6486734 8.6119214,7.7776608 A 4.8251141,4.662195 0 0 0 8.454301,7.8584722 C 8.5282861,6.9990742 8.8073386,5.392171 9.8503674,4.3758126 a 3.2167427,3.10813 0 0 1 0.2436686,-0.214461 0.28146499,0.27196137 0 0 0 0.116607,-0.04973 C 10.81539,3.668713 11.573737,3.4511439 12.463971,3.4643534 q 0.495378,0.00777 0.944114,0.06294 c 1.56012,0.2758465 2.608778,1.124366 3.245693,1.8516684 0.654607,0.7475053 1.009253,1.5004497 1.15079,1.9068377 -1.063938,-0.1041223 -1.787705,0.098683 -2.155218,0.6060854 -0.797752,1.101832 0.437477,3.2417791 1.030966,4.2705701 0.108565,0.188042 0.202655,0.351219 0.23241,0.419598 0.193005,0.45301 0.443106,0.755275 0.625656,0.975953 0.05629,0.0676 0.110978,0.132872 0.151992,0.190372 -0.321675,0.09014 -0.900688,0.297604 -0.848416,1.334165 -0.01046,0.121217 -0.03458,0.347334 -0.06755,0.633282 -0.03699,0.161622 -0.05629,0.357435 -0.08042,0.595207 m 0.715725,-1.25957 c -0.03217,-0.646491 0.21713,-0.714093 0.480099,-0.784803 l 0.108565,-0.03186 a 0.80418568,0.77703249 0 0 0 0.107761,0.08003 c 0.458385,0.292164 1.273026,0.327131 2.418186,0.104123 -0.162446,0.137534 -0.417372,0.310813 -0.766389,0.466996 -0.329716,0.147636 -0.881388,0.258752 -1.404912,0.28284 -0.579014,0.02642 -0.873346,-0.06216 -0.94331,-0.117332 m 0.458386,-7.203868 c -0.0048,0.2719614 -0.04343,0.5198348 -0.08444,0.7778095 -0.04423,0.2781777 -0.09007,0.5656797 -0.102131,0.9145673 -0.01126,0.3387862 0.03217,0.6915582 0.07479,1.0334532 0.08605,0.689228 0.173704,1.398658 -0.166467,2.098764 a 3.2167427,3.10813 0 0 1 -0.151187,-0.299157 6.4334854,6.2162599 0 0 0 -0.26136,-0.479429 C 16.681926,11.035752 15.523094,9.0263463 16.115779,8.2073541 16.42137,7.7854254 17.194996,7.7675537 17.8681,7.847588 m 0.183354,5.449329 -0.06836,-0.08314 -0.02815,-0.03419 c 0.583838,-0.932439 0.469644,-1.854777 0.367513,-2.672215 -0.04182,-0.335678 -0.08042,-0.652707 -0.07077,-0.9495335 0.01045,-0.3162522 0.05308,-0.5866595 0.09489,-0.8485194 0.05147,-0.3224685 0.104544,-0.6558155 0.08926,-1.0489939 a 0.48251141,0.4662195 0 0 0 0.0097,-0.1476362 C 18.408511,7.1350549 17.962993,6.0068038 17.054263,4.985006 a 6.2726483,6.0608534 0 0 0 -2.161651,-1.5851463 7.4789268,7.2264022 0 0 1 1.626867,-0.144528 c 1.650189,0.035743 2.955383,0.6325044 3.879392,1.7739652 a 0.80418568,0.77703249 0 0 1 0.05388,0.077703 C 21.034178,6.1606562 20.230796,9.982879 18.050649,13.296923 M 10.960948,8.5445919 C 10.940843,8.6844577 10.71165,8.8732766 10.461549,8.8732766 A 0.80418568,0.77703249 0 0 1 10.396409,8.8686144 0.64334854,0.62162599 0 0 1 9.9894915,8.6238492 C 9.952499,8.5772272 9.8929892,8.4855374 9.9042478,8.4023949 a 0.17692085,0.17094715 0 0 1 0.074789,-0.1157778 c 0.094894,-0.069156 0.2830732,-0.094798 0.4905532,-0.066825 0.254123,0.034189 0.516288,0.1499673 0.490554,0.3247996 m 6.377192,-0.3193604 c 0.0088,0.062163 -0.03941,0.1554065 -0.12304,0.2408801 a 0.57901369,0.55946339 0 0 1 -0.328108,0.1732782 0.80418568,0.77703249 0 0 1 -0.06031,0.00389 c -0.235626,0 -0.435064,-0.1818256 -0.450344,-0.2882791 -0.0193,-0.1375347 0.212305,-0.24088 0.450344,-0.2735154 0.239647,-0.032635 0.492162,0.00699 0.511462,0.143751"
     id="path917"
     style="stroke-width:0.790493" />
</svg>
