<svg xmlns="http://www.w3.org/2000/svg" viewBox="0 0 101.52 7.88" class="email"><path d="M.9 6.58H.13v-4.4h.79zm-.39-5.2q-.21 0-.36-.14Q0 1.09 0 .86 0 .62.14.48.3.34.51.34t.36.14q.15.14.15.38 0 .23-.15.38-.15.13-.36.13zM3.76 6h.5q.22-.02.36-.06V4.64q-.08-.04-.28-.07-.19-.03-.46-.03l-.38.02q-.2.03-.36.11-.16.08-.27.22-.11.14-.11.37 0 .42.27.6.27.15.73.15zM3.7 2.06q.47 0 .8.13.32.12.52.35.2.22.29.53.08.3.08.68V6.5l-.28.05-.41.05-.5.05-.53.02q-.37 0-.69-.07-.3-.08-.54-.24-.23-.17-.36-.44-.12-.27-.12-.65 0-.37.14-.63.15-.26.4-.43.26-.16.6-.23.34-.08.72-.08l.24.02q.13 0 .24.03l.2.03.12.03v-.22q0-.2-.04-.38-.04-.2-.15-.34-.11-.15-.3-.24-.2-.1-.5-.1-.4 0-.69.07-.29.05-.43.1l-.1-.65q.16-.06.52-.12.35-.07.77-.07zm3 .24q.27-.07.72-.15.45-.07 1.03-.07.53 0 .87.15.35.14.55.42.22.26.3.63.09.38.09.83v2.47h-.8v-2.3q0-.41-.05-.7t-.18-.47q-.13-.18-.34-.25-.21-.09-.53-.09l-.26.01q-.13 0-.26.03-.12 0-.22.02l-.14.03v3.72H6.7zm5.8 3.82q0 .23-.16.4-.15.17-.41.17t-.42-.17q-.15-.17-.15-.4t.15-.4q.16-.17.42-.17t.42.17q.15.17.15.4zm3.07.56q-.54 0-.94-.17-.4-.17-.68-.47-.27-.3-.4-.72-.15-.43-.15-.93 0-.51.15-.94.15-.42.42-.73t.66-.48q.4-.18.89-.18.3 0 .6.05.29.05.56.16l-.18.67q-.18-.08-.42-.13-.22-.05-.49-.05-.66 0-1.01.41-.35.42-.35 1.22 0 .35.07.65.09.3.26.5.18.22.45.34.27.1.66.1.31 0 .57-.05.25-.06.4-.13l.1.66q-.06.05-.19.09l-.29.06-.34.05-.35.02zm3.52-.67h.49q.22-.02.36-.06V4.64q-.08-.04-.28-.07-.18-.03-.46-.03l-.38.02q-.2.03-.36.11-.16.08-.27.22-.11.14-.11.37 0 .42.27.6.27.15.74.15zm-.07-3.95q.47 0 .8.13.33.12.52.35.2.22.29.53.08.3.08.68V6.5l-.28.05-.41.06-.5.04q-.26.02-.53.02-.37 0-.68-.07-.32-.08-.55-.24-.23-.17-.35-.44-.13-.27-.13-.65 0-.37.14-.63.16-.26.41-.43.25-.16.6-.23.33-.08.7-.08.13 0 .25.02.13 0 .24.03l.2.04.12.02V3.8q0-.2-.04-.38-.04-.2-.15-.34-.11-.15-.3-.24-.2-.1-.5-.1-.39 0-.69.07-.29.05-.43.1l-.1-.64q.16-.07.52-.13.35-.07.77-.07zm4.02 3.95q.49 0 .72-.12.23-.13.23-.41 0-.29-.23-.46-.23-.17-.75-.38l-.5-.2q-.22-.11-.4-.26-.16-.14-.26-.35-.1-.2-.1-.5 0-.58.43-.92.43-.35 1.18-.35.18 0 .37.03.19.01.35.05.16.02.28.06l.2.06-.15.67q-.13-.06-.4-.13-.27-.08-.65-.08-.33 0-.58.14-.25.13-.25.4 0 .15.05.26.06.11.17.2.12.09.3.16.16.08.4.17l.56.23q.25.11.42.27.17.15.27.37.09.21.09.53 0 .6-.46.92-.45.31-1.29.31-.58 0-.91-.1l-.45-.14.14-.68.43.15q.3.1.8.1zm3.49-3.84h1.67v.66h-1.67v2.04q0 .33.05.55.05.21.15.34.1.12.26.17.15.05.36.05.35 0 .56-.08l.3-.12.16.66q-.12.06-.42.14-.3.1-.67.1-.45 0-.75-.12-.29-.12-.47-.34-.17-.23-.25-.56-.07-.34-.07-.78V.94l.79-.13zm4 4.5q-.73-.02-1.04-.32-.3-.3-.3-.92V.13l.79-.13v5.3q0 .2.03.32.03.13.11.2.08.08.2.13l.32.06zm.75-2.29q0-.58.17-1.01.17-.44.45-.73.28-.3.64-.44.37-.14.75-.14.89 0 1.36.56.48.55.48 1.69v.13l-.01.15H32.1q.05.69.4 1.04.35.36 1.09.36.41 0 .69-.07.29-.08.43-.14l.11.66q-.14.07-.5.16-.36.08-.82.08-.58 0-1-.17-.42-.17-.69-.48-.27-.3-.4-.72t-.13-.92zm3.02-.43q.01-.53-.27-.87-.27-.35-.75-.35-.27 0-.48.11-.2.1-.35.27-.15.17-.23.4-.08.21-.1.44zm4.81-.85q-.14-.11-.41-.23-.28-.1-.6-.1-.34 0-.58.12-.24.12-.4.34-.15.21-.21.51-.07.3-.07.64 0 .77.38 1.2.38.4 1.02.4.32 0 .53-.02.22-.03.34-.07zm0-2.96L39.9 0v6.45q-.27.08-.7.16-.42.07-.97.07-.51 0-.92-.16-.4-.16-.7-.46-.28-.3-.44-.72-.16-.43-.16-.96 0-.51.13-.94.14-.42.4-.73.25-.3.61-.47.38-.17.85-.17.38 0 .67.1.3.1.44.2zm1.9 4.25q0-.6.18-1.02.17-.44.45-.73.28-.3.64-.44.37-.14.75-.14.89 0 1.36.56.48.55.48 1.69v.13l-.01.15h-3.02q.05.69.4 1.04.35.36 1.08.36.42 0 .7-.07.29-.08.43-.14l.11.66q-.14.07-.5.16-.36.08-.82.08-.58 0-1-.17-.42-.17-.69-.48-.27-.3-.4-.72t-.13-.92zm3.04-.44q0-.53-.28-.87-.27-.35-.75-.35-.27 0-.49.11-.2.1-.34.27-.15.17-.23.4-.08.21-.1.44zM46 2.3q.27-.07.72-.15.45-.07 1.04-.07.52 0 .87.15.35.14.55.42.21.26.3.63.08.38.08.83v2.47h-.79v-2.3q0-.41-.06-.7-.05-.29-.17-.47-.13-.18-.34-.25-.22-.09-.53-.09l-.26.01q-.14 0-.26.03-.12 0-.22.02l-.14.03v3.72H46zm10.04 3.92q-.27 0-.45-.08-.17-.08-.3-.2-.18.1-.44.17-.27.07-.53.07-.4 0-.74-.12-.33-.13-.58-.38-.25-.25-.38-.62-.14-.36-.14-.84 0-.41.13-.77.13-.36.37-.63.26-.27.61-.42.37-.15.83-.15.43 0 .78.07.37.06.56.13v2.6q0 .27.1.38.09.1.24.1.22 0 .38-.14.17-.16.28-.4.1-.25.16-.55.05-.32.05-.64 0-.53-.19-1-.18-.48-.53-.83-.35-.36-.85-.56-.5-.2-1.11-.2-.62 0-1.14.2-.52.21-.89.6-.37.38-.58.94-.2.56-.2 1.27 0 .75.21 1.32.22.56.61.94.4.37.94.56.54.2 1.18.2.5 0 .83-.07.33-.05.42-.09l.09.63q-.15.05-.53.1-.37.07-.8.07-.76 0-1.43-.22-.67-.21-1.17-.66-.5-.44-.8-1.13-.29-.7-.29-1.65 0-.91.3-1.6.28-.69.76-1.14.5-.45 1.13-.68.65-.23 1.36-.23.7 0 1.31.23.62.22 1.09.65.46.42.74 1.04.27.6.27 1.36 0 .58-.14 1.02-.13.44-.35.74-.22.3-.52.45-.3.16-.65.16zm-1.7-.7l.36-.02q.19-.05.33-.12L55 5.16V2.95q-.06-.02-.2-.03-.15-.02-.33-.02-.6 0-.9.37-.3.38-.3.94 0 .6.3.96.28.36.78.36zm8.1.93q-.28.07-.73.15-.44.07-1.03.07-.5 0-.85-.14-.35-.15-.56-.42-.21-.28-.3-.64-.1-.37-.1-.82V2.17h.79v2.3q0 .81.25 1.16t.86.35h.26q.13 0 .26-.03l.2-.02.15-.03V2.16h.8zm4.95.13q-.23-.6-.5-1.39-.27-.79-.49-1.64-.22.85-.48 1.64-.26.78-.5 1.4h-.69q-.39-.88-.76-2t-.7-2.42h.84l.2.87.25.93.28.9.27.75q.15-.4.28-.84.15-.45.27-.9L65.9 3q.12-.44.2-.82h.66q.07.38.18.82l.24.9.26.9.3.83.26-.75.28-.9.25-.93q.12-.47.2-.87h.82q-.33 1.3-.7 2.42-.38 1.12-.77 2zm4.48-.57h.5q.22-.02.36-.06V4.64q-.08-.04-.28-.07-.19-.03-.46-.03l-.38.02q-.2.03-.36.11-.16.08-.27.22-.11.14-.11.37 0 .42.27.6.27.15.73.15zm-.06-3.95q.47 0 .8.13.32.12.52.35.2.22.29.53.08.3.08.68V6.5l-.28.05-.41.06-.5.04q-.26.02-.53.02-.37 0-.68-.07-.32-.08-.55-.24-.23-.17-.35-.44-.13-.27-.13-.65 0-.37.14-.63.16-.26.41-.43.25-.16.6-.23.33-.08.7-.08.13 0 .25.02.13 0 .24.03l.2.04.12.02V3.8q0-.2-.04-.38-.04-.2-.15-.34-.11-.15-.3-.24-.2-.1-.5-.1-.4 0-.69.07-.29.05-.43.1l-.1-.64q.16-.07.51-.13.36-.07.78-.07zm3.93 4.06q0 .23-.15.4-.16.17-.42.17t-.42-.17q-.15-.17-.15-.4t.15-.4q.16-.17.42-.17t.41.17q.16.17.16.4zm.9-1.74q0-.58.18-1.01.17-.44.45-.73.28-.3.64-.44t.75-.14q.89 0 1.36.56.48.55.48 1.69v.13l-.01.15h-3.02q.05.69.4 1.04.35.36 1.08.36.42 0 .7-.07.29-.08.43-.14l.11.66q-.14.07-.5.16-.36.08-.82.08-.58 0-1-.17-.42-.17-.69-.48-.27-.3-.4-.72t-.13-.92zm3.03-.43q.01-.53-.27-.87-.27-.35-.75-.35-.27 0-.49.11-.2.1-.34.27-.15.17-.23.4-.08.21-.1.44zm4.8-.85q-.13-.11-.4-.23-.28-.1-.6-.1-.34 0-.59.12-.23.12-.39.34-.15.21-.22.51-.06.3-.06.64 0 .77.38 1.2.38.4 1.02.4.32 0 .53-.02.22-.03.34-.07zm0-2.96l.8-.14v6.45q-.27.08-.7.16-.42.07-.97.07-.51 0-.92-.16-.4-.16-.7-.46-.28-.3-.44-.72-.16-.43-.16-.96 0-.51.13-.94.14-.42.4-.73.25-.3.61-.47.37-.17.85-.17.38 0 .67.1.3.1.44.2zm5.67 6.31q-.27.07-.72.15-.44.07-1.02.07-.51 0-.86-.14-.35-.15-.56-.42-.21-.28-.3-.64-.1-.37-.1-.82V2.17h.79v2.3q0 .81.25 1.16.26.35.86.35h.26l.26-.03.21-.02.14-.03V2.16h.8zm2.3-.33q0 .23-.16.4-.15.17-.41.17t-.42-.17q-.15-.17-.15-.4t.15-.4q.15-.17.42-.17t.41.17q.15.17.15.4zm2.64-.1l.5-.01q.21-.02.36-.06V4.64q-.09-.04-.28-.07-.19-.03-.46-.03l-.38.02q-.2.03-.37.11-.16.08-.27.22-.1.14-.1.37 0 .42.26.6.28.15.74.15zm-.07-3.96q.48 0 .8.13.33.12.53.35.2.22.28.53.09.3.09.68V6.5l-.29.05-.4.06-.5.04-.53.02q-.37 0-.69-.07-.31-.08-.54-.24-.23-.17-.36-.44-.13-.27-.13-.65 0-.37.15-.63t.4-.43q.26-.16.6-.23.34-.08.71-.08l.25.02q.13 0 .24.03l.2.04.12.02V3.8q0-.2-.05-.38-.04-.2-.15-.34-.1-.15-.3-.24-.19-.1-.5-.1-.39 0-.68.07-.29.05-.43.1l-.1-.64q.15-.07.51-.13.36-.07.77-.07zm6.51 4.4l-.72.14q-.44.07-1.02.07-.51 0-.86-.14-.35-.15-.56-.42-.21-.28-.3-.64-.1-.37-.1-.82V2.17h.79v2.3q0 .81.25 1.16.26.35.86.35h.26l.26-.03.2-.02.15-.03V2.16h.8z"/></svg>
