<svg xmlns="http://www.w3.org/2000/svg" width="17.5" height="20" viewBox="0 0 17.5 20" fill="white">
  <path d="m 7.25,14 c 0,-0.8284 0.6716,-1.5 1.5,-1.5 0.8284,0 1.5,0.6716 1.5,1.5 v 1.5 c 0,0.8284 -0.6716,1.5 -1.5,1.5 -0.8284,0 -1.5,-0.6716 -1.5,-1.5 z" />
  <path fill-rule="evenodd" clip-rule="evenodd" d="M 3.5,5.25 C 3.5,2.3505 5.85051,0 8.75,0 11.6495,0 14,2.35051 14,5.25 v 1.875 h 1.25 c 1.2426,0 2.25,1.0074 2.25,2.25 v 5.8745 c 0,2.6234 -2.1266,4.75 -4.75,4.75 h -8 C 2.12665,19.9995 0,17.8729 0,15.2495 V 9.375 C 0,8.1324 1.00736,7.125 2.25,7.125 H 3.5 Z M 5,7.125 h 7.5 V 5.25 C 12.5,3.17893 10.8211,1.5 8.75,1.5 6.67893,1.5 5,3.17893 5,5.25 Z m -2.75,1.5 c -0.41421,0 -0.75,0.3358 -0.75,0.75 v 5.8745 c 0,1.7949 1.45507,3.25 3.25,3.25 h 8 c 1.7949,0 3.25,-1.4551 3.25,-3.25 V 9.375 c 0,-0.4142 -0.3358,-0.75 -0.75,-0.75 z" />
</svg>
