<?xml version="1.0" encoding="UTF-8"?>
<!DOCTYPE svg PUBLIC "-//W3C//DTD SVG 1.1//EN" "http://www.w3.org/Graphics/SVG/1.1/DTD/svg11.dtd">
<svg version="1.1" xmlns="http://www.w3.org/2000/svg" xmlns:xlink="http://www.w3.org/1999/xlink" x="0" y="0" width="570" height="450" viewBox="0, 0, 570, 450">
  <g id="Layer_1">
    <g id="aeu_cs-stopped">
      <g id="not_active">
        <path d="M503,333.672 L63,333.672 C51.954,333.672 43,324.718 43,313.672 L43,55.672 C43,44.626 51.954,35.672 63,35.672 L503,35.672 C514.046,35.672 523,44.626 523,55.672 L523,313.672 C523,324.718 514.046,333.672 503,333.672 z" fill="#72C2E9" display="none"/>
        <path d="M503,322.672 L97.284,322.672 C94.522,322.672 92.284,320.434 92.284,317.672 C92.284,314.91 94.522,312.672 97.284,312.672 L502,312.672 L502,55.672 C502,52.91 504.238,50.672 507,50.672 C509.762,50.672 512,52.91 512,55.672 L512,313.672 C512,318.636 507.962,322.672 503,322.672 z M77.284,322.672 L63,322.672 C60.238,322.672 58,320.434 58,317.672 C58,314.91 60.238,312.672 63,312.672 L77.284,312.672 C80.046,312.672 82.284,314.91 82.284,317.672 C82.284,320.434 80.046,322.672 77.284,322.672 z" fill="#C5E5FF" display="none"/>
        <path d="M261,152.672 L89,152.672 C85.686,152.672 83,149.986 83,146.672 L83,78.672 C83,75.358 85.686,72.672 89,72.672 L261,72.672 C264.314,72.672 267,75.358 267,78.672 L267,146.672 C267,149.986 264.314,152.672 261,152.672 z" fill="#EFEFEF" display="none"/>
        <g>
          <path d="M107,188.672 C107,195.299 101.627,200.672 95,200.672 C88.373,200.672 83,195.299 83,188.672 C83,182.045 88.373,176.672 95,176.672 C101.627,176.672 107,182.045 107,188.672 z" fill="#FC5D3D" display="none"/>
          <path d="M160.334,188.672 C160.334,195.299 154.961,200.672 148.334,200.672 C141.707,200.672 136.334,195.299 136.334,188.672 C136.334,182.045 141.707,176.672 148.334,176.672 C154.961,176.672 160.334,182.045 160.334,188.672 z" fill="#FC5D3D" display="none"/>
          <path d="M213.666,188.672 C213.666,195.299 208.293,200.672 201.666,200.672 C195.039,200.672 189.666,195.299 189.666,188.672 C189.666,182.045 195.039,176.672 201.666,176.672 C208.293,176.672 213.666,182.045 213.666,188.672 z" fill="#FC5D3D" display="none"/>
          <path d="M267,188.672 C267,195.299 261.627,200.672 255,200.672 C248.373,200.672 243,195.299 243,188.672 C243,182.045 248.373,176.672 255,176.672 C261.627,176.672 267,182.045 267,188.672 z" fill="#FC5D3D" display="none"/>
          <path d="M123,272.672 C123,285.927 112.255,296.672 99,296.672 C85.745,296.672 75,285.927 75,272.672 C75,259.417 85.745,248.672 99,248.672 C112.255,248.672 123,259.417 123,272.672 z" fill="#FC5D3D" display="none"/>
        </g>
        <path d="M267,272.672 C267,281.509 259.837,288.672 251,288.672 C242.163,288.672 235,281.509 235,272.672 C235,263.835 242.163,256.672 251,256.672 C259.837,256.672 267,263.835 267,272.672 z" fill="#AFAFAF" display="none"/>
        <path d="M211,272.672 C211,281.509 203.837,288.672 195,288.672 C186.163,288.672 179,281.509 179,272.672 C179,263.835 186.163,256.672 195,256.672 C203.837,256.672 211,263.835 211,272.672 z" fill="#AFAFAF" display="none"/>
        <path d="M323,232.672 L483,232.672 L483,296.672 L323,296.672 z" fill="#F0C020" display="none"/>
        <path d="M499,333.672 L499,368.672 C499,371.992 496.32,374.672 493,374.672 L73,374.672 C69.68,374.672 67,371.992 67,368.672 L67,333.672 z" fill="#AFAFAF" display="none"/>
        <path d="M67,333.672 L499,333.672 L499,344.672 L67,344.672 z" fill="#7D7B79" display="none"/>
        <path d="M375,113.672 C375,129.136 362.464,141.672 347,141.672 C331.536,141.672 319,129.136 319,113.672 C319,98.208 331.536,85.672 347,85.672 C362.464,85.672 375,98.208 375,113.672 z" fill="#F0C020" display="none"/>
        <path d="M483,113.672 C483,129.136 470.464,141.672 455,141.672 C439.536,141.672 427,129.136 427,113.672 C427,98.208 439.536,85.672 455,85.672 C470.464,85.672 483,98.208 483,113.672 z" fill="#F0C020" display="none"/>
        <path d="M387,181.672 C387,190.509 379.837,197.672 371,197.672 C362.163,197.672 355,190.509 355,181.672 C355,172.835 362.163,165.672 371,165.672 C379.837,165.672 387,172.835 387,181.672 z" fill="#AFAFAF" display="none"/>
        <path d="M443,181.672 C443,190.509 435.837,197.672 427,197.672 C418.163,197.672 411,190.509 411,181.672 C411,172.835 418.163,165.672 427,165.672 C435.837,165.672 443,172.835 443,181.672 z" fill="#AFAFAF" display="none"/>
        <g>
          <path d="M112,188.672 C112,179.292 104.38,171.672 95,171.672 C85.64,171.672 78,179.292 78,188.672 C78,198.052 85.64,205.672 95,205.672 C104.38,205.672 112,198.052 112,188.672 z M88,188.672 C88,184.812 91.14,181.672 95,181.672 C98.86,181.672 102,184.812 102,188.672 C102,192.532 98.86,195.672 95,195.672 C91.14,195.672 88,192.532 88,188.672 z" fill="#000000" display="none"/>
          <path d="M165.34,188.672 C165.34,179.292 157.7,171.672 148.34,171.672 C138.96,171.672 131.34,179.292 131.34,188.672 C131.34,198.052 138.96,205.672 148.34,205.672 C157.7,205.672 165.34,198.052 165.34,188.672 z M141.34,188.672 C141.34,184.812 144.48,181.672 148.34,181.672 C152.18,181.672 155.32,184.812 155.34,188.672 C155.32,192.532 152.18,195.672 148.34,195.672 C144.48,195.672 141.34,192.532 141.34,188.672 z" fill="#000000" display="none"/>
          <path d="M218.66,188.672 C218.66,179.292 211.04,171.672 201.66,171.672 C192.3,171.672 184.68,179.292 184.66,188.672 C184.68,198.052 192.3,205.672 201.66,205.672 C211.04,205.672 218.66,198.052 218.66,188.672 z M194.66,188.672 C194.68,184.812 197.82,181.672 201.66,181.672 C205.52,181.672 208.66,184.812 208.66,188.672 C208.66,192.532 205.52,195.672 201.66,195.672 C197.82,195.672 194.68,192.532 194.66,188.672 z" fill="#000000" display="none"/>
          <path d="M255,171.672 C245.62,171.672 238,179.292 238,188.672 C238,198.052 245.62,205.672 255,205.672 C264.38,205.672 272,198.052 272,188.672 C272,179.292 264.38,171.672 255,171.672 z M255,195.672 C251.14,195.672 248,192.532 248,188.672 C248,184.812 251.14,181.672 255,181.672 C258.86,181.672 262,184.812 262,188.672 C262,192.532 258.86,195.672 255,195.672 z" fill="#000000" display="none"/>
          <path d="M267,219.672 L215,219.672 C212.24,219.672 210,221.912 210,224.672 C210,227.432 212.24,229.672 215,229.672 L267,229.672 C269.76,229.672 272,227.432 272,224.672 C272,221.912 269.76,219.672 267,219.672 z" fill="#000000" display="none"/>
          <path d="M200,224.672 C200,227.433 197.761,229.672 195,229.672 C192.239,229.672 190,227.433 190,224.672 C190,221.911 192.239,219.672 195,219.672 C197.761,219.672 200,221.911 200,224.672 z" fill="#000000" display="none"/>
          <path d="M180,224.672 C180,221.912 177.76,219.672 175,219.672 L75,219.672 C72.24,219.672 70,221.912 70,224.672 C70,227.432 72.24,229.672 75,229.672 L175,229.672 C177.76,229.672 180,227.432 180,224.672 z" fill="#000000" display="none"/>
          <path d="M503,30.672 L478.14,30.672 C475.38,30.672 473.14,32.912 473.14,35.672 C473.14,38.432 475.38,40.672 478.14,40.672 L503,40.672 C511.26,40.692 517.98,47.412 518,55.672 L518,313.672 C518,322.146 511.054,328.672 503,328.672 L63,328.672 C54.74,328.652 48.02,321.932 48,313.672 L48,55.672 C48.02,47.412 54.74,40.692 63,40.672 L438.14,40.672 C440.9,40.672 443.14,38.432 443.14,35.672 C443.14,32.912 440.9,30.672 438.14,30.672 L63,30.672 C49.22,30.672 38,41.892 38,55.672 L38,313.672 C38,327.114 48.684,338.09 62,338.622 L62,368.672 C62,374.732 66.94,379.672 73,379.672 L357.42,379.672 C360.18,379.672 362.42,377.432 362.42,374.672 C362.42,371.932 360.2,369.692 357.46,369.672 C357.44,369.672 357.44,369.672 357.42,369.672 L73,369.672 C72.46,369.672 72,369.212 72,368.672 L72,338.672 L494,338.672 L494,368.672 C494,369.212 493.54,369.672 493,369.672 L397.42,369.672 C394.68,369.672 392.42,371.912 392.42,374.672 C392.42,377.432 394.68,379.672 397.42,379.672 L493,379.672 C499.06,379.672 504,374.732 504,368.672 L504,338.632 C517.62,338.102 528,326.906 528,313.672 L528,55.672 C528,41.892 516.78,30.672 503,30.672 z" fill="#000000" display="none"/>
          <path d="M463.14,35.672 C463.14,38.433 460.901,40.672 458.14,40.672 C455.379,40.672 453.14,38.433 453.14,35.672 C453.14,32.911 455.379,30.672 458.14,30.672 C460.901,30.672 463.14,32.911 463.14,35.672 z" fill="#000000" display="none"/>
          <path d="M272,78.672 C272,72.606 267.066,67.672 261,67.672 L89,67.672 C82.934,67.672 78,72.606 78,78.672 L78,146.672 C78,152.738 82.934,157.672 89,157.672 L261,157.672 C267.066,157.672 272,152.738 272,146.672 z M262,146.672 C262,147.224 261.552,147.672 261,147.672 L89,147.672 C88.448,147.672 88,147.224 88,146.672 L88,117.672 L123,117.672 C124,117.672 124.94,117.392 125.78,116.832 L146.74,102.852 L183.88,132.572 C185.338,133.766 187.426,134.034 189.24,133.152 L220.18,117.672 L262,117.672 z M262,107.672 L219,107.672 C218.22,107.672 217.48,107.852 216.76,108.192 L187.62,122.772 L150.12,92.772 C148.46,91.452 146,91.332 144.22,92.512 L121.48,107.672 L88,107.672 L88,78.672 C88,78.12 88.448,77.672 89,77.672 L261,77.672 C261.552,77.672 262,78.12 262,78.672 z" fill="#000000" display="none"/>
          <path d="M347,146.672 C365.2,146.672 380,131.872 380,113.672 C380,95.472 365.2,80.672 347,80.672 C328.8,80.672 314,95.472 314,113.672 C314,131.872 328.8,146.672 347,146.672 z M342,91.244 L342,109.672 C342,112.432 344.24,114.672 347,114.672 C349.76,114.672 352,112.432 352,109.672 L352,91.244 C362.266,93.552 369.982,102.73 370,113.672 C369.98,126.332 359.66,136.652 347,136.672 C334.34,136.652 324.02,126.332 324,113.672 C324.016,102.73 331.734,93.552 342,91.244 z" fill="#000000" display="none"/>
          <path d="M403.84,109.672 C403.84,106.912 401.6,104.672 398.84,104.672 L390.82,104.672 C388.06,104.672 385.82,106.912 385.82,109.672 C385.82,112.432 388.06,114.672 390.82,114.672 L398.84,114.672 C401.6,114.672 403.84,112.432 403.84,109.672 z" fill="#000000" display="none"/>
          <path d="M303.18,104.672 L295.16,104.672 C292.4,104.672 290.16,106.912 290.16,109.672 C290.16,112.432 292.4,114.672 295.16,114.672 L303.18,114.672 C305.94,114.672 308.18,112.432 308.18,109.672 C308.18,106.912 305.94,104.672 303.18,104.672 z" fill="#000000" display="none"/>
          <path d="M314.4,84.152 C316.478,86.188 319.624,86.01 321.48,84.152 C323.42,82.192 323.42,79.032 321.48,77.072 L315.84,71.432 C313.94,69.552 310.66,69.552 308.76,71.432 C306.902,73.288 306.724,76.434 308.76,78.512 z" fill="#000000" display="none"/>
          <path d="M352,69.672 L352,61.672 C352,58.912 349.76,56.672 347,56.672 C344.24,56.672 342,58.912 342,61.672 L342,69.672 C342,72.432 344.24,74.672 347,74.672 C349.76,74.672 352,72.432 352,69.672 z" fill="#000000" display="none"/>
          <path d="M378.16,71.432 L372.52,77.072 C370.568,79.026 370.574,82.208 372.52,84.152 C374.412,86.046 377.554,86.156 379.6,84.152 L385.24,78.512 C387.18,76.552 387.18,73.392 385.24,71.432 C383.34,69.552 380.06,69.552 378.16,71.432 z" fill="#000000" display="none"/>
          <path d="M455,80.672 C436.8,80.672 422,95.472 422,113.672 C422,131.872 436.8,146.672 455,146.672 C473.2,146.672 488,131.872 488,113.672 C488,95.472 473.2,80.672 455,80.672 z M455,136.672 C442.34,136.652 432.02,126.332 432,113.672 C432.016,102.73 439.734,93.552 450,91.244 L450,109.672 C450,112.432 452.24,114.672 455,114.672 C457.76,114.672 460,112.432 460,109.672 L460,91.244 C470.266,93.552 477.982,102.73 478,113.672 C477.98,126.332 467.66,136.652 455,136.672 z" fill="#000000" display="none"/>
          <path d="M371,160.672 C359.42,160.672 350,170.092 350,181.672 C350,193.252 359.42,202.672 371,202.672 C382.58,202.672 392,193.252 392,181.672 C392,170.092 382.58,160.672 371,160.672 z M371,192.672 C364.94,192.672 360.02,187.732 360,181.672 C360.02,175.612 364.94,170.692 371,170.672 C377.06,170.692 381.98,175.612 382,181.672 C381.98,187.732 377.06,192.672 371,192.672 z" fill="#000000" display="none"/>
          <path d="M448,181.672 C448,170.092 438.58,160.672 427,160.672 C415.42,160.672 406,170.092 406,181.672 C406,193.252 415.42,202.672 427,202.672 C438.58,202.672 448,193.252 448,181.672 z M416,181.672 C416.02,175.612 420.94,170.692 427,170.672 C433.06,170.692 438,175.612 438,181.672 C438,187.732 433.06,192.672 427,192.672 C420.94,192.672 416.02,187.732 416,181.672 z" fill="#000000" display="none"/>
          <path d="M323,301.672 L483,301.672 C485.738,301.672 488,299.476 488,296.672 L488,232.672 C488,229.892 485.732,227.672 483,227.672 L323,227.672 C320.266,227.672 318,229.896 318,232.672 L318,296.672 C318,299.404 320.222,301.672 323,301.672 z M456,237.672 L478,237.672 L478,259.672 L456,259.672 z M456,269.672 L478,269.672 L478,291.672 L456,291.672 z M424,237.672 L446,237.672 L446,259.672 L424,259.672 z M424,269.672 L446,269.672 L446,291.672 L424,291.672 z M392,237.672 L414,237.672 L414,259.672 L392,259.672 z M392,269.672 L414,269.672 L414,291.672 L392,291.672 z M360,237.672 L382,237.672 L382,259.672 L360,259.672 z M360,269.672 L382,269.672 L382,291.672 L360,291.672 z M328,237.672 L350,237.672 L350,259.672 L328,259.672 z M328,269.672 L350,269.672 L350,291.672 L328,291.672 z" fill="#000000" display="none"/>
          <path d="M70,272.672 C70,288.652 83.02,301.672 99,301.672 C114.98,301.672 128,288.652 128,272.672 C128,256.692 114.98,243.672 99,243.672 C83.02,243.672 70,256.692 70,272.672 z M118,272.672 C117.98,283.132 109.46,291.652 99,291.672 C88.54,291.652 80.02,283.132 80,272.672 C80.02,262.212 88.54,253.692 99,253.672 C109.46,253.692 117.98,262.212 118,272.672 z" fill="#000000" display="none"/>
          <path d="M251,251.672 C239.42,251.672 230,261.092 230,272.672 C230,284.252 239.42,293.672 251,293.672 C262.58,293.672 272,284.252 272,272.672 C272,261.092 262.58,251.672 251,251.672 z M251,283.672 C244.94,283.652 240.02,278.732 240,272.672 C240.02,266.612 244.94,261.692 251,261.672 C257.06,261.692 261.98,266.612 262,272.672 C261.98,278.732 257.06,283.652 251,283.672 z" fill="#000000" display="none"/>
          <path d="M195,293.672 C206.58,293.672 216,284.252 216,272.672 C216,261.092 206.58,251.672 195,251.672 C183.42,251.672 174,261.092 174,272.672 C174,284.252 183.42,293.672 195,293.672 z M195,261.672 C201.06,261.692 205.98,266.612 206,272.672 C205.98,278.732 201.06,283.652 195,283.672 C188.94,283.652 184,278.732 184,272.672 C184,266.612 188.94,261.692 195,261.672 z" fill="#000000" display="none"/>
          <path d="M382.42,374.672 C382.42,377.433 380.181,379.672 377.42,379.672 C374.659,379.672 372.42,377.433 372.42,374.672 C372.42,371.911 374.659,369.672 377.42,369.672 C380.181,369.672 382.42,371.911 382.42,374.672 z" fill="#000000" display="none"/>
        </g>
        <g>
          <path d="M538.334,341.334 C538.334,382.755 504.755,416.334 463.334,416.334 C421.913,416.334 388.334,382.755 388.334,341.334 C388.334,299.913 421.913,266.334 463.334,266.334 C504.755,266.334 538.334,299.913 538.334,341.334 z" fill="#303C42" display="none"/>
          <path d="M524.698,341.334 C524.698,375.224 497.224,402.698 463.334,402.698 C429.444,402.698 401.97,375.224 401.97,341.334 C401.97,307.444 429.444,279.97 463.334,279.97 C497.224,279.97 524.698,307.444 524.698,341.334 z" fill="#7CB342" display="none"/>
          <path d="M492.604,316.059 L449.697,358.965 L434.063,343.332 C431.4,340.668 427.085,340.668 424.422,343.332 C421.759,345.995 421.759,350.31 424.422,352.973 L444.877,373.427 C446.208,374.759 447.953,375.425 449.698,375.425 C451.442,375.425 453.187,374.759 454.519,373.427 L502.246,325.7 C504.91,323.036 504.91,318.721 502.246,316.059 C499.582,313.396 495.267,313.396 492.604,316.059 z" fill="#303C42" display="none"/>
        </g>
      </g>
      <g id="active">
        <path d="M503,333.672 L63,333.672 C51.954,333.672 43,324.718 43,313.672 L43,55.672 C43,44.626 51.954,35.672 63,35.672 L503,35.672 C514.046,35.672 523,44.626 523,55.672 L523,313.672 C523,324.718 514.046,333.672 503,333.672 z" fill="#72C2E9"/>
        <path d="M503,322.672 L97.284,322.672 C94.522,322.672 92.284,320.434 92.284,317.672 C92.284,314.91 94.522,312.672 97.284,312.672 L502,312.672 L502,55.672 C502,52.91 504.238,50.672 507,50.672 C509.762,50.672 512,52.91 512,55.672 L512,313.672 C512,318.636 507.962,322.672 503,322.672 z M77.284,322.672 L63,322.672 C60.238,322.672 58,320.434 58,317.672 C58,314.91 60.238,312.672 63,312.672 L77.284,312.672 C80.046,312.672 82.284,314.91 82.284,317.672 C82.284,320.434 80.046,322.672 77.284,322.672 z" fill="#C5E5FF"/>
        <path d="M261,152.672 L89,152.672 C85.686,152.672 83,149.986 83,146.672 L83,78.672 C83,75.358 85.686,72.672 89,72.672 L261,72.672 C264.314,72.672 267,75.358 267,78.672 L267,146.672 C267,149.986 264.314,152.672 261,152.672 z" fill="#EFEFEF"/>
        <g>
          <path d="M107,188.672 C107,195.299 101.627,200.672 95,200.672 C88.373,200.672 83,195.299 83,188.672 C83,182.045 88.373,176.672 95,176.672 C101.627,176.672 107,182.045 107,188.672 z" fill="#FC5D3D"/>
          <path d="M160.334,188.672 C160.334,195.299 154.961,200.672 148.334,200.672 C141.707,200.672 136.334,195.299 136.334,188.672 C136.334,182.045 141.707,176.672 148.334,176.672 C154.961,176.672 160.334,182.045 160.334,188.672 z" fill="#FC5D3D"/>
          <path d="M213.666,188.672 C213.666,195.299 208.293,200.672 201.666,200.672 C195.039,200.672 189.666,195.299 189.666,188.672 C189.666,182.045 195.039,176.672 201.666,176.672 C208.293,176.672 213.666,182.045 213.666,188.672 z" fill="#FC5D3D"/>
          <path d="M267,188.672 C267,195.299 261.627,200.672 255,200.672 C248.373,200.672 243,195.299 243,188.672 C243,182.045 248.373,176.672 255,176.672 C261.627,176.672 267,182.045 267,188.672 z" fill="#FC5D3D"/>
          <path d="M123,272.672 C123,285.927 112.255,296.672 99,296.672 C85.745,296.672 75,285.927 75,272.672 C75,259.417 85.745,248.672 99,248.672 C112.255,248.672 123,259.417 123,272.672 z" fill="#FC5D3D"/>
        </g>
        <path d="M267,272.672 C267,281.509 259.837,288.672 251,288.672 C242.163,288.672 235,281.509 235,272.672 C235,263.835 242.163,256.672 251,256.672 C259.837,256.672 267,263.835 267,272.672 z" fill="#AFAFAF"/>
        <path d="M211,272.672 C211,281.509 203.837,288.672 195,288.672 C186.163,288.672 179,281.509 179,272.672 C179,263.835 186.163,256.672 195,256.672 C203.837,256.672 211,263.835 211,272.672 z" fill="#AFAFAF"/>
        <path d="M323,232.672 L483,232.672 L483,296.672 L323,296.672 z" fill="#F0C020"/>
        <path d="M499,333.672 L499,368.672 C499,371.992 496.32,374.672 493,374.672 L73,374.672 C69.68,374.672 67,371.992 67,368.672 L67,333.672 z" fill="#AFAFAF"/>
        <path d="M67,333.672 L499,333.672 L499,344.672 L67,344.672 z" fill="#7D7B79"/>
        <path d="M375,113.672 C375,129.136 362.464,141.672 347,141.672 C331.536,141.672 319,129.136 319,113.672 C319,98.208 331.536,85.672 347,85.672 C362.464,85.672 375,98.208 375,113.672 z" fill="#F0C020"/>
        <path d="M483,113.672 C483,129.136 470.464,141.672 455,141.672 C439.536,141.672 427,129.136 427,113.672 C427,98.208 439.536,85.672 455,85.672 C470.464,85.672 483,98.208 483,113.672 z" fill="#F0C020"/>
        <path d="M387,181.672 C387,190.509 379.837,197.672 371,197.672 C362.163,197.672 355,190.509 355,181.672 C355,172.835 362.163,165.672 371,165.672 C379.837,165.672 387,172.835 387,181.672 z" fill="#AFAFAF"/>
        <path d="M443,181.672 C443,190.509 435.837,197.672 427,197.672 C418.163,197.672 411,190.509 411,181.672 C411,172.835 418.163,165.672 427,165.672 C435.837,165.672 443,172.835 443,181.672 z" fill="#AFAFAF"/>
        <g>
          <path d="M112,188.672 C112,179.292 104.38,171.672 95,171.672 C85.64,171.672 78,179.292 78,188.672 C78,198.052 85.64,205.672 95,205.672 C104.38,205.672 112,198.052 112,188.672 z M88,188.672 C88,184.812 91.14,181.672 95,181.672 C98.86,181.672 102,184.812 102,188.672 C102,192.532 98.86,195.672 95,195.672 C91.14,195.672 88,192.532 88,188.672 z" fill="#000000"/>
          <path d="M165.34,188.672 C165.34,179.292 157.7,171.672 148.34,171.672 C138.96,171.672 131.34,179.292 131.34,188.672 C131.34,198.052 138.96,205.672 148.34,205.672 C157.7,205.672 165.34,198.052 165.34,188.672 z M141.34,188.672 C141.34,184.812 144.48,181.672 148.34,181.672 C152.18,181.672 155.32,184.812 155.34,188.672 C155.32,192.532 152.18,195.672 148.34,195.672 C144.48,195.672 141.34,192.532 141.34,188.672 z" fill="#000000"/>
          <path d="M218.66,188.672 C218.66,179.292 211.04,171.672 201.66,171.672 C192.3,171.672 184.68,179.292 184.66,188.672 C184.68,198.052 192.3,205.672 201.66,205.672 C211.04,205.672 218.66,198.052 218.66,188.672 z M194.66,188.672 C194.68,184.812 197.82,181.672 201.66,181.672 C205.52,181.672 208.66,184.812 208.66,188.672 C208.66,192.532 205.52,195.672 201.66,195.672 C197.82,195.672 194.68,192.532 194.66,188.672 z" fill="#000000"/>
          <path d="M255,171.672 C245.62,171.672 238,179.292 238,188.672 C238,198.052 245.62,205.672 255,205.672 C264.38,205.672 272,198.052 272,188.672 C272,179.292 264.38,171.672 255,171.672 z M255,195.672 C251.14,195.672 248,192.532 248,188.672 C248,184.812 251.14,181.672 255,181.672 C258.86,181.672 262,184.812 262,188.672 C262,192.532 258.86,195.672 255,195.672 z" fill="#000000"/>
          <path d="M267,219.672 L215,219.672 C212.24,219.672 210,221.912 210,224.672 C210,227.432 212.24,229.672 215,229.672 L267,229.672 C269.76,229.672 272,227.432 272,224.672 C272,221.912 269.76,219.672 267,219.672 z" fill="#000000"/>
          <path d="M200,224.672 C200,227.433 197.761,229.672 195,229.672 C192.239,229.672 190,227.433 190,224.672 C190,221.911 192.239,219.672 195,219.672 C197.761,219.672 200,221.911 200,224.672 z" fill="#000000"/>
          <path d="M180,224.672 C180,221.912 177.76,219.672 175,219.672 L75,219.672 C72.24,219.672 70,221.912 70,224.672 C70,227.432 72.24,229.672 75,229.672 L175,229.672 C177.76,229.672 180,227.432 180,224.672 z" fill="#000000"/>
          <path d="M503,30.672 L478.14,30.672 C475.38,30.672 473.14,32.912 473.14,35.672 C473.14,38.432 475.38,40.672 478.14,40.672 L503,40.672 C511.26,40.692 517.98,47.412 518,55.672 L518,313.672 C518,322.146 511.054,328.672 503,328.672 L63,328.672 C54.74,328.652 48.02,321.932 48,313.672 L48,55.672 C48.02,47.412 54.74,40.692 63,40.672 L438.14,40.672 C440.9,40.672 443.14,38.432 443.14,35.672 C443.14,32.912 440.9,30.672 438.14,30.672 L63,30.672 C49.22,30.672 38,41.892 38,55.672 L38,313.672 C38,327.114 48.684,338.09 62,338.622 L62,368.672 C62,374.732 66.94,379.672 73,379.672 L357.42,379.672 C360.18,379.672 362.42,377.432 362.42,374.672 C362.42,371.932 360.2,369.692 357.46,369.672 C357.44,369.672 357.44,369.672 357.42,369.672 L73,369.672 C72.46,369.672 72,369.212 72,368.672 L72,338.672 L494,338.672 L494,368.672 C494,369.212 493.54,369.672 493,369.672 L397.42,369.672 C394.68,369.672 392.42,371.912 392.42,374.672 C392.42,377.432 394.68,379.672 397.42,379.672 L493,379.672 C499.06,379.672 504,374.732 504,368.672 L504,338.632 C517.62,338.102 528,326.906 528,313.672 L528,55.672 C528,41.892 516.78,30.672 503,30.672 z" fill="#000000"/>
          <path d="M463.14,35.672 C463.14,38.433 460.901,40.672 458.14,40.672 C455.379,40.672 453.14,38.433 453.14,35.672 C453.14,32.911 455.379,30.672 458.14,30.672 C460.901,30.672 463.14,32.911 463.14,35.672 z" fill="#000000"/>
          <path d="M272,78.672 C272,72.606 267.066,67.672 261,67.672 L89,67.672 C82.934,67.672 78,72.606 78,78.672 L78,146.672 C78,152.738 82.934,157.672 89,157.672 L261,157.672 C267.066,157.672 272,152.738 272,146.672 z M262,146.672 C262,147.224 261.552,147.672 261,147.672 L89,147.672 C88.448,147.672 88,147.224 88,146.672 L88,117.672 L123,117.672 C124,117.672 124.94,117.392 125.78,116.832 L146.74,102.852 L183.88,132.572 C185.338,133.766 187.426,134.034 189.24,133.152 L220.18,117.672 L262,117.672 z M262,107.672 L219,107.672 C218.22,107.672 217.48,107.852 216.76,108.192 L187.62,122.772 L150.12,92.772 C148.46,91.452 146,91.332 144.22,92.512 L121.48,107.672 L88,107.672 L88,78.672 C88,78.12 88.448,77.672 89,77.672 L261,77.672 C261.552,77.672 262,78.12 262,78.672 z" fill="#000000"/>
          <path d="M347,146.672 C365.2,146.672 380,131.872 380,113.672 C380,95.472 365.2,80.672 347,80.672 C328.8,80.672 314,95.472 314,113.672 C314,131.872 328.8,146.672 347,146.672 z M342,91.244 L342,109.672 C342,112.432 344.24,114.672 347,114.672 C349.76,114.672 352,112.432 352,109.672 L352,91.244 C362.266,93.552 369.982,102.73 370,113.672 C369.98,126.332 359.66,136.652 347,136.672 C334.34,136.652 324.02,126.332 324,113.672 C324.016,102.73 331.734,93.552 342,91.244 z" fill="#000000"/>
          <path d="M403.84,109.672 C403.84,106.912 401.6,104.672 398.84,104.672 L390.82,104.672 C388.06,104.672 385.82,106.912 385.82,109.672 C385.82,112.432 388.06,114.672 390.82,114.672 L398.84,114.672 C401.6,114.672 403.84,112.432 403.84,109.672 z" fill="#000000"/>
          <path d="M303.18,104.672 L295.16,104.672 C292.4,104.672 290.16,106.912 290.16,109.672 C290.16,112.432 292.4,114.672 295.16,114.672 L303.18,114.672 C305.94,114.672 308.18,112.432 308.18,109.672 C308.18,106.912 305.94,104.672 303.18,104.672 z" fill="#000000"/>
          <path d="M314.4,84.152 C316.478,86.188 319.624,86.01 321.48,84.152 C323.42,82.192 323.42,79.032 321.48,77.072 L315.84,71.432 C313.94,69.552 310.66,69.552 308.76,71.432 C306.902,73.288 306.724,76.434 308.76,78.512 z" fill="#000000"/>
          <path d="M352,69.672 L352,61.672 C352,58.912 349.76,56.672 347,56.672 C344.24,56.672 342,58.912 342,61.672 L342,69.672 C342,72.432 344.24,74.672 347,74.672 C349.76,74.672 352,72.432 352,69.672 z" fill="#000000"/>
          <path d="M378.16,71.432 L372.52,77.072 C370.568,79.026 370.574,82.208 372.52,84.152 C374.412,86.046 377.554,86.156 379.6,84.152 L385.24,78.512 C387.18,76.552 387.18,73.392 385.24,71.432 C383.34,69.552 380.06,69.552 378.16,71.432 z" fill="#000000"/>
          <path d="M455,80.672 C436.8,80.672 422,95.472 422,113.672 C422,131.872 436.8,146.672 455,146.672 C473.2,146.672 488,131.872 488,113.672 C488,95.472 473.2,80.672 455,80.672 z M455,136.672 C442.34,136.652 432.02,126.332 432,113.672 C432.016,102.73 439.734,93.552 450,91.244 L450,109.672 C450,112.432 452.24,114.672 455,114.672 C457.76,114.672 460,112.432 460,109.672 L460,91.244 C470.266,93.552 477.982,102.73 478,113.672 C477.98,126.332 467.66,136.652 455,136.672 z" fill="#000000"/>
          <path d="M371,160.672 C359.42,160.672 350,170.092 350,181.672 C350,193.252 359.42,202.672 371,202.672 C382.58,202.672 392,193.252 392,181.672 C392,170.092 382.58,160.672 371,160.672 z M371,192.672 C364.94,192.672 360.02,187.732 360,181.672 C360.02,175.612 364.94,170.692 371,170.672 C377.06,170.692 381.98,175.612 382,181.672 C381.98,187.732 377.06,192.672 371,192.672 z" fill="#000000"/>
          <path d="M448,181.672 C448,170.092 438.58,160.672 427,160.672 C415.42,160.672 406,170.092 406,181.672 C406,193.252 415.42,202.672 427,202.672 C438.58,202.672 448,193.252 448,181.672 z M416,181.672 C416.02,175.612 420.94,170.692 427,170.672 C433.06,170.692 438,175.612 438,181.672 C438,187.732 433.06,192.672 427,192.672 C420.94,192.672 416.02,187.732 416,181.672 z" fill="#000000"/>
          <path d="M323,301.672 L483,301.672 C485.738,301.672 488,299.476 488,296.672 L488,232.672 C488,229.892 485.732,227.672 483,227.672 L323,227.672 C320.266,227.672 318,229.896 318,232.672 L318,296.672 C318,299.404 320.222,301.672 323,301.672 z M456,237.672 L478,237.672 L478,259.672 L456,259.672 z M456,269.672 L478,269.672 L478,291.672 L456,291.672 z M424,237.672 L446,237.672 L446,259.672 L424,259.672 z M424,269.672 L446,269.672 L446,291.672 L424,291.672 z M392,237.672 L414,237.672 L414,259.672 L392,259.672 z M392,269.672 L414,269.672 L414,291.672 L392,291.672 z M360,237.672 L382,237.672 L382,259.672 L360,259.672 z M360,269.672 L382,269.672 L382,291.672 L360,291.672 z M328,237.672 L350,237.672 L350,259.672 L328,259.672 z M328,269.672 L350,269.672 L350,291.672 L328,291.672 z" fill="#000000"/>
          <path d="M70,272.672 C70,288.652 83.02,301.672 99,301.672 C114.98,301.672 128,288.652 128,272.672 C128,256.692 114.98,243.672 99,243.672 C83.02,243.672 70,256.692 70,272.672 z M118,272.672 C117.98,283.132 109.46,291.652 99,291.672 C88.54,291.652 80.02,283.132 80,272.672 C80.02,262.212 88.54,253.692 99,253.672 C109.46,253.692 117.98,262.212 118,272.672 z" fill="#000000"/>
          <path d="M251,251.672 C239.42,251.672 230,261.092 230,272.672 C230,284.252 239.42,293.672 251,293.672 C262.58,293.672 272,284.252 272,272.672 C272,261.092 262.58,251.672 251,251.672 z M251,283.672 C244.94,283.652 240.02,278.732 240,272.672 C240.02,266.612 244.94,261.692 251,261.672 C257.06,261.692 261.98,266.612 262,272.672 C261.98,278.732 257.06,283.652 251,283.672 z" fill="#000000"/>
          <path d="M195,293.672 C206.58,293.672 216,284.252 216,272.672 C216,261.092 206.58,251.672 195,251.672 C183.42,251.672 174,261.092 174,272.672 C174,284.252 183.42,293.672 195,293.672 z M195,261.672 C201.06,261.692 205.98,266.612 206,272.672 C205.98,278.732 201.06,283.652 195,283.672 C188.94,283.652 184,278.732 184,272.672 C184,266.612 188.94,261.692 195,261.672 z" fill="#000000"/>
          <path d="M382.42,374.672 C382.42,377.433 380.181,379.672 377.42,379.672 C374.659,379.672 372.42,377.433 372.42,374.672 C372.42,371.911 374.659,369.672 377.42,369.672 C380.181,369.672 382.42,371.911 382.42,374.672 z" fill="#000000"/>
        </g>
        <path d="M538.334,340.334 C538.334,381.755 504.755,415.334 463.334,415.334 C421.913,415.334 388.334,381.755 388.334,340.334 C388.334,298.913 421.913,265.334 463.334,265.334 C504.755,265.334 538.334,298.913 538.334,340.334 z" fill="#303C42"/>
      </g>
    </g>
    <path d="M492.36,310.634 L449.453,353.54 L433.819,337.907 C431.156,335.243 426.841,335.243 424.178,337.907 C421.515,340.57 421.515,344.885 424.178,347.548 L444.633,368.002 C445.964,369.334 447.709,370 449.454,370 C451.198,370 452.943,369.334 454.275,368.002 L502.002,320.275 C504.666,317.611 504.666,313.296 502.002,310.634 C499.338,307.971 495.023,307.971 492.36,310.634 z" fill="#303C42"/>
    <g>
      <path d="M464.848,281.076 L464.848,397.561 C497.014,397.561 523.09,371.485 523.09,339.318 C523.09,307.152 497.014,281.076 464.848,281.076 z" fill="#009916"/>
      <path d="M516.059,339.318 C516.059,307.152 493.131,281.076 464.848,281.076 C432.682,281.076 406.606,307.152 406.606,339.318 C406.606,371.485 432.682,397.561 464.848,397.561 C493.131,397.561 516.059,371.485 516.059,339.318 z" fill="#38C300"/>
      <path d="M494.96,333.227 C494.96,333.225 455.069,310.194 455.069,310.194 C453.859,309.496 452.46,309.172 451.062,309.268 L451.06,369.369 C452.459,369.464 453.858,369.14 455.067,368.442 L494.96,345.41 C497.064,344.194 498.481,341.922 498.481,339.318 C498.481,336.714 497.064,334.442 494.96,333.227 z" fill="#AAFFB6"/>
      <path d="M488.388,345.41 C490.217,344.194 491.45,341.923 491.45,339.318 C491.45,336.714 490.217,334.442 488.388,333.227 C488.388,333.225 453.694,310.194 453.694,310.194 C452.888,309.66 451.986,309.344 451.061,309.268 C450.026,309.338 448.991,309.638 448.032,310.192 C445.776,311.494 444.517,313.857 444.517,316.286 C444.515,316.288 444.515,362.35 444.515,362.35 C444.517,364.78 445.776,367.143 448.032,368.446 C448.99,368.999 450.026,369.299 451.06,369.369 C451.985,369.293 452.887,368.977 453.692,368.442 z" fill="#FFFFFF"/>
      <path d="M505.517,296.892 C494.184,285.56 479.117,279.318 463.09,279.318 C447.064,279.318 431.997,285.56 420.664,296.892 C409.332,308.225 403.09,323.292 403.09,339.318 C403.09,355.345 409.332,370.412 420.664,381.745 C431.997,393.077 447.064,399.318 463.09,399.318 C479.117,399.318 494.184,393.077 505.517,381.745 C516.849,370.412 523.09,355.345 523.09,339.318 C523.09,323.292 516.849,308.225 505.517,296.892 z M463.09,395.803 C431.945,395.803 406.606,370.464 406.606,339.318 C406.606,308.173 431.945,282.834 463.09,282.834 C494.236,282.834 519.575,308.173 519.575,339.318 C519.575,370.464 494.236,395.803 463.09,395.803 z" fill="#000000"/>
      <path d="M495.84,331.705 C495.691,331.619 495.541,331.532 495.392,331.446 L455.947,308.671 C453.231,307.106 449.861,307.106 447.153,308.669 C444.443,310.234 442.76,313.152 442.759,316.286 L442.776,316.286 C442.759,316.536 442.759,316.814 442.759,317.125 L442.757,335.803 C442.757,336.774 443.544,337.561 444.515,337.561 C445.486,337.561 446.273,336.774 446.273,335.803 C446.273,335.611 446.274,316.681 446.275,316.298 L446.275,316.286 C446.275,314.404 447.285,312.652 448.911,311.714 C450.536,310.776 452.559,310.777 454.19,311.716 C454.585,311.944 493.554,334.443 494.07,334.743 C494.074,334.745 494.077,334.747 494.081,334.749 C495.711,335.691 496.723,337.441 496.723,339.318 C496.723,341.195 495.711,342.946 494.082,343.887 L454.189,366.919 C452.559,367.86 450.537,367.861 448.911,366.923 C447.286,365.985 446.275,364.231 446.273,362.349 L446.273,342.834 C446.273,341.863 445.486,341.076 444.515,341.076 C443.544,341.076 442.757,341.863 442.757,342.834 L442.757,362.351 C442.76,365.485 444.445,368.404 447.153,369.967 C448.507,370.749 450.025,371.14 451.544,371.14 C453.066,371.14 454.588,370.748 455.946,369.964 L495.84,346.932 C498.553,345.364 500.239,342.447 500.239,339.318 C500.239,336.19 498.553,333.273 495.84,331.705 z" fill="#000000"/>
    </g>
  </g>
</svg>
