<?xml version="1.0" encoding="UTF-8"?>
<!DOCTYPE svg PUBLIC "-//W3C//DTD SVG 1.1//EN" "http://www.w3.org/Graphics/SVG/1.1/DTD/svg11.dtd">
<svg version="1.1" xmlns="http://www.w3.org/2000/svg" xmlns:xlink="http://www.w3.org/1999/xlink" x="0" y="0" width="512" height="512" viewBox="0, 0, 512, 512">
  <g id="Background">
    <rect x="0" y="0" width="512" height="512" fill="#000000" fill-opacity="0"/>
  </g>
  <g id="Layer_1">
    <path d="M503.893,231.467 L267.093,4.48 C260.907,-1.493 251.093,-1.493 244.907,4.48 L7.893,231.68 C2.773,236.587 0,243.627 0,250.667 C0,265.387 11.947,277.333 26.667,277.333 L64,277.333 L64,469.333 C64,492.8 83.2,512 106.667,512 L405.333,512 C428.8,512 448,492.8 448,469.333 L448,277.333 L485.333,277.333 C500.053,277.333 512,265.387 512,250.667 C512,243.627 509.227,236.587 503.893,231.467 z" fill="#ECEFF1"/>
    <path d="M192,341.333 L320,341.333 L320,512 L192,512 z" fill="#2196F3"/>
    <path d="M410.667,512 L101.333,512 C80.747,512 64,495.253 64,474.667 L64,277.333 L26.667,277.333 C11.968,277.333 0,265.365 0,250.667 C0,243.605 2.88,236.693 7.893,231.68 L244.928,4.437 C251.115,-1.493 260.885,-1.493 267.072,4.437 L503.872,231.424 C509.12,236.693 512,243.605 512,250.667 C512,265.365 500.032,277.333 485.333,277.333 L448,277.333 L448,474.667 C448,495.253 431.253,512 410.667,512 z M39.872,245.333 L80,245.333 C88.832,245.333 96,252.501 96,261.333 L96,474.667 C96,477.568 98.432,480 101.333,480 L410.667,480 C413.568,480 416,477.568 416,474.667 L416,261.333 C416,252.501 423.168,245.333 432,245.333 L472.128,245.333 L256,38.165 z" fill="#000000"/>
    <path d="M304,512 L208,512 C187.413,512 170.667,495.253 170.667,474.667 L170.667,357.333 C170.667,336.747 187.413,320 208,320 L304,320 C324.587,320 341.333,336.747 341.333,357.333 L341.333,474.667 C341.333,495.253 324.587,512 304,512 z M208,352 C205.056,352 202.667,354.389 202.667,357.333 L202.667,474.667 C202.667,477.611 205.056,480 208,480 L304,480 C306.944,480 309.333,477.611 309.333,474.667 L309.333,357.333 C309.333,354.389 306.944,352 304,352 z" fill="#000000"/>
  </g>
</svg>
