<?xml version="1.0" encoding="UTF-8"?>
<!DOCTYPE svg PUBLIC "-//W3C//DTD SVG 1.1//EN" "http://www.w3.org/Graphics/SVG/1.1/DTD/svg11.dtd">
<svg version="1.1" xmlns="http://www.w3.org/2000/svg" xmlns:xlink="http://www.w3.org/1999/xlink" x="0" y="0" width="512" height="512" viewBox="0, 0, 512, 512">
  <g id="Observing_OFF" display="none">
    <g>
      <g>
        <path d="M502.002,256.772 C502.002,392.495 391.956,502.521 256.207,502.521 C120.458,502.521 10.411,392.495 10.411,256.772 C10.411,121.048 120.458,11.022 256.207,11.022 C391.956,11.022 502.002,121.048 502.002,256.772 z" fill="#BFBFBF"/>
        <path d="M412.642,243.019 C412.642,290.119 374.452,328.302 327.342,328.302 C280.233,328.302 242.043,290.119 242.043,243.019 C242.043,195.918 280.233,157.735 327.342,157.735 C374.452,157.735 412.642,195.918 412.642,243.019 z" fill="#404040"/>
        <g>
          <path d="M164.688,278.073 C150.578,278.073 139.14,266.636 139.14,252.53 L139.14,233.508 C139.14,219.401 150.579,207.965 164.688,207.965 C178.798,207.965 190.236,219.402 190.236,233.508 L190.236,252.53 C190.236,266.636 178.797,278.073 164.688,278.073 z" fill="#43689E"/>
          <path d="M327.342,278.073 C313.232,278.073 301.795,266.636 301.795,252.53 L301.795,233.508 C301.795,219.401 313.233,207.965 327.342,207.965 C341.453,207.965 352.89,219.402 352.89,233.508 L352.89,252.53 C352.89,266.636 341.452,278.073 327.342,278.073 z" fill="#43689E"/>
        </g>
      </g>
      <g>
        <path d="M467.208,111.421 C464.083,106.867 457.858,105.712 453.306,108.835 C448.753,111.961 447.595,118.185 450.721,122.737 C514.927,216.278 503.193,342.491 422.823,422.848 C408.254,437.414 392.235,449.665 375.231,459.619 L371.854,435.742 C368.513,411.615 379.922,388.046 400.92,375.696 L416.668,366.433 C440.892,352.185 455.651,326.905 456.148,298.809 C456.625,271.878 443.907,247.075 421.974,231.77 C416.391,184.513 376.084,147.734 327.342,147.734 C274.794,147.734 232.043,190.477 232.043,243.017 C232.043,295.556 274.793,338.3 327.342,338.3 C374.807,338.3 414.274,303.423 421.466,257.958 C431.106,268.993 436.423,283.274 436.154,298.455 C435.781,319.536 424.706,338.505 406.53,349.195 L390.782,358.458 C362.799,374.917 347.594,406.329 352.049,438.512 L356.433,469.5 C268.954,510.549 161.282,495.005 89.111,422.847 C44.542,378.289 19.997,319.043 19.997,256.027 C19.997,193.01 44.542,133.765 89.11,89.204 C169.402,8.93 295.562,-2.857 389.091,61.18 C393.649,64.298 399.871,63.135 402.989,58.578 C406.11,54.022 404.945,47.799 400.388,44.68 C298.922,-24.792 162.064,-12.016 74.971,75.064 C26.625,123.4 -0,187.668 -0,256.027 C-0,324.385 26.625,388.653 74.971,436.989 C123.317,485.327 187.595,511.948 255.966,511.948 C324.337,511.948 388.615,485.327 436.961,436.99 C524.143,349.824 536.865,212.904 467.208,111.421 z M327.342,318.305 C285.821,318.305 252.04,284.532 252.04,243.019 C252.04,201.506 285.821,167.734 327.342,167.734 C368.864,167.734 402.643,201.506 402.643,243.019 C402.643,284.531 368.864,318.305 327.342,318.305 z" fill="#000000"/>
        <path d="M420.074,88.257 C421.677,92.102 425.617,94.64 429.796,94.421 C433.912,94.206 437.557,91.416 438.822,87.492 C440.101,83.521 438.705,79.043 435.394,76.503 C432.036,73.925 427.276,73.77 423.754,76.119 C419.837,78.729 418.266,83.916 420.074,88.257 z" fill="#000000"/>
        <path d="M200.234,252.529 L200.234,233.508 C200.234,213.909 184.288,197.966 164.688,197.966 C145.088,197.966 129.142,213.909 129.142,233.508 L129.142,252.529 C129.142,272.127 145.088,288.071 164.688,288.071 C184.288,288.071 200.234,272.127 200.234,252.529 z M180.237,252.529 C180.237,261.1 173.262,268.073 164.688,268.073 C156.114,268.073 149.139,261.1 149.139,252.529 L149.139,233.508 C149.139,224.937 156.114,217.963 164.688,217.963 C173.262,217.963 180.237,224.937 180.237,233.508 z" fill="#000000"/>
        <path d="M187.552,379.324 C191.428,380.363 197.464,380.396 204.193,374.658 C216.39,364.254 233.853,361.394 249.768,367.2 C274.854,376.35 295.178,380.949 310.456,380.948 C315.694,380.948 320.341,380.407 324.381,379.324 C329.714,377.894 332.88,372.41 331.449,367.077 C330.018,361.744 324.533,358.579 319.201,360.009 C312.574,361.79 295.632,362.646 256.62,348.414 C233.946,340.143 208.884,344.37 191.214,359.444 C191.1,359.541 190.998,359.625 190.907,359.695 C186.192,359.34 181.748,362.352 180.482,367.078 C179.053,372.412 182.218,377.895 187.552,379.324 z" fill="#000000"/>
        <path d="M207.764,137.901 C194.953,130.844 176.374,130.423 156.792,136.746 C142.617,141.321 124.897,150.88 117.676,163.984 C115.011,168.821 116.771,174.902 121.609,177.567 C123.139,178.41 124.793,178.81 126.425,178.81 C129.951,178.81 133.369,176.941 135.191,173.635 C142.392,160.567 180.275,145.59 198.117,155.416 C202.953,158.079 209.034,156.32 211.699,151.482 C214.363,146.646 212.602,140.565 207.764,137.901 z" fill="#000000"/>
        <path d="M327.342,197.966 C307.742,197.966 291.796,213.909 291.796,233.508 L291.796,252.529 C291.796,272.127 307.742,288.071 327.342,288.071 C346.943,288.071 362.889,272.127 362.889,252.529 L362.889,233.508 C362.889,213.909 346.943,197.966 327.342,197.966 z M342.891,252.529 C342.891,261.1 335.916,268.073 327.342,268.073 C318.769,268.073 311.793,261.1 311.793,252.529 L311.793,233.508 C311.793,224.937 318.769,217.963 327.342,217.963 C335.916,217.963 342.891,224.937 342.891,233.508 z" fill="#000000"/>
        <path d="M358.166,104.535 C343.872,100.347 323.845,98.288 310.503,105.063 C305.579,107.563 303.615,113.582 306.115,118.504 C308.615,123.428 314.635,125.396 319.557,122.892 C332.862,116.138 372.611,125.051 381.837,143.21 C383.602,146.682 387.114,148.682 390.759,148.682 C392.283,148.682 393.829,148.332 395.279,147.595 C400.203,145.095 402.166,139.075 399.665,134.153 C393.041,121.116 377.915,110.32 358.166,104.535 z" fill="#000000"/>
      </g>
    </g>
  </g>
  <g id="Observing_ON">
    <g>
      <g>
        <path d="M502.002,256.772 C502.002,392.496 391.956,502.521 256.207,502.521 C120.458,502.521 10.412,392.496 10.412,256.772 C10.412,121.048 120.458,11.023 256.207,11.023 C391.956,11.023 502.002,121.048 502.002,256.772 z" fill="#FFF08A"/>
        <path d="M412.642,243.019 C412.642,290.12 374.452,328.302 327.342,328.302 C280.233,328.302 242.043,290.12 242.043,243.019 C242.043,195.918 280.233,157.735 327.342,157.735 C374.452,157.735 412.642,195.918 412.642,243.019 z" fill="#FAF7F5"/>
        <g>
          <path d="M164.688,278.073 C150.578,278.073 139.141,266.637 139.141,252.53 L139.141,233.508 C139.141,219.401 150.579,207.965 164.688,207.965 C178.798,207.965 190.236,219.402 190.236,233.508 L190.236,252.53 C190.236,266.637 178.797,278.073 164.688,278.073 z" fill="#43689E"/>
          <path d="M327.343,278.073 C313.232,278.073 301.795,266.637 301.795,252.53 L301.795,233.508 C301.795,219.401 313.233,207.965 327.343,207.965 C341.453,207.965 352.89,219.402 352.89,233.508 L352.89,252.53 C352.89,266.637 341.452,278.073 327.343,278.073 z" fill="#43689E"/>
        </g>
      </g>
      <g>
        <path d="M467.208,111.421 C464.083,106.867 457.858,105.712 453.306,108.836 C448.753,111.961 447.596,118.185 450.721,122.738 C514.927,216.278 503.193,342.492 422.823,422.848 C408.254,437.414 392.235,449.665 375.231,459.619 L371.854,435.742 C368.513,411.615 379.923,388.046 400.92,375.696 L416.668,366.433 C440.892,352.185 455.651,326.906 456.148,298.809 C456.625,271.878 443.907,247.075 421.974,231.77 C416.391,184.513 376.084,147.734 327.343,147.734 C274.794,147.734 232.043,190.478 232.043,243.017 C232.043,295.556 274.794,338.3 327.343,338.3 C374.807,338.3 414.274,303.424 421.466,257.958 C431.106,268.993 436.423,283.274 436.154,298.455 C435.781,319.537 424.707,338.505 406.53,349.196 L390.782,358.458 C362.799,374.917 347.594,406.329 352.049,438.512 L356.433,469.501 C268.954,510.549 161.283,495.005 89.111,422.847 C44.542,378.289 19.997,319.044 19.997,256.027 C19.997,193.01 44.542,133.765 89.11,89.204 C169.403,8.93 295.562,-2.857 389.091,61.18 C393.649,64.298 399.871,63.136 402.989,58.578 C406.11,54.022 404.945,47.8 400.388,44.68 C298.922,-24.792 162.064,-12.015 74.971,75.064 C26.625,123.401 0,187.668 0,256.027 C0,324.385 26.625,388.653 74.971,436.989 C123.317,485.328 187.595,511.948 255.966,511.948 C324.337,511.948 388.615,485.328 436.961,436.99 C524.143,349.825 536.865,212.904 467.208,111.421 z M327.343,318.305 C285.821,318.305 252.041,284.532 252.041,243.019 C252.041,201.506 285.821,167.734 327.343,167.734 C368.864,167.734 402.644,201.506 402.644,243.019 C402.644,284.531 368.864,318.305 327.343,318.305 z" fill="#000000"/>
        <path d="M420.074,88.257 C421.677,92.102 425.617,94.64 429.796,94.421 C433.912,94.206 437.557,91.416 438.822,87.492 C440.102,83.521 438.705,79.044 435.394,76.503 C432.036,73.925 427.276,73.77 423.754,76.119 C419.837,78.73 418.266,83.916 420.074,88.257 z" fill="#000000"/>
        <path d="M200.234,252.529 L200.234,233.508 C200.234,213.91 184.289,197.966 164.688,197.966 C145.088,197.966 129.142,213.91 129.142,233.508 L129.142,252.529 C129.142,272.127 145.088,288.071 164.688,288.071 C184.289,288.071 200.234,272.127 200.234,252.529 z M180.237,252.529 C180.237,261.1 173.262,268.073 164.688,268.073 C156.114,268.073 149.139,261.1 149.139,252.529 L149.139,233.508 C149.139,224.937 156.114,217.963 164.688,217.963 C173.262,217.963 180.237,224.937 180.237,233.508 z" fill="#000000"/>
        <path d="M187.552,379.325 C191.429,380.363 197.464,380.396 204.193,374.658 C216.39,364.255 233.853,361.394 249.768,367.2 C274.854,376.35 295.178,380.949 310.456,380.948 C315.694,380.948 320.341,380.407 324.381,379.325 C329.714,377.894 332.88,372.411 331.449,367.077 C330.018,361.744 324.533,358.579 319.202,360.009 C312.574,361.79 295.632,362.646 256.62,348.414 C233.946,340.143 208.884,344.37 191.215,359.444 C191.101,359.541 190.998,359.625 190.907,359.695 C186.192,359.34 181.748,362.352 180.482,367.078 C179.053,372.413 182.218,377.895 187.552,379.325 z" fill="#000000"/>
        <path d="M207.764,137.902 C194.953,130.845 176.375,130.424 156.792,136.746 C142.617,141.321 124.897,150.88 117.676,163.984 C115.011,168.822 116.771,174.902 121.609,177.567 C123.139,178.41 124.793,178.81 126.425,178.81 C129.951,178.81 133.369,176.941 135.191,173.635 C142.392,160.568 180.275,145.591 198.117,155.416 C202.953,158.079 209.034,156.32 211.699,151.482 C214.364,146.647 212.602,140.565 207.764,137.902 z" fill="#000000"/>
        <path d="M327.343,197.966 C307.742,197.966 291.796,213.91 291.796,233.508 L291.796,252.529 C291.796,272.127 307.742,288.071 327.343,288.071 C346.943,288.071 362.889,272.127 362.889,252.529 L362.889,233.508 C362.889,213.91 346.943,197.966 327.343,197.966 z M342.891,252.529 C342.891,261.1 335.916,268.073 327.343,268.073 C318.769,268.073 311.794,261.1 311.794,252.529 L311.794,233.508 C311.794,224.937 318.769,217.963 327.343,217.963 C335.916,217.963 342.891,224.937 342.891,233.508 z" fill="#000000"/>
        <path d="M358.166,104.535 C343.872,100.348 323.845,98.288 310.503,105.063 C305.579,107.563 303.615,113.582 306.115,118.504 C308.615,123.429 314.635,125.396 319.558,122.893 C332.862,116.139 372.612,125.051 381.837,143.21 C383.602,146.683 387.115,148.682 390.759,148.682 C392.283,148.682 393.829,148.332 395.28,147.595 C400.203,145.095 402.167,139.076 399.665,134.153 C393.041,121.116 377.915,110.32 358.166,104.535 z" fill="#000000"/>
      </g>
    </g>
  </g>
</svg>
