<svg id="Capa_1" enable-background="new 0 0 512 512" height="512" viewBox="0 0 512 512" width="512" xmlns="http://www.w3.org/2000/svg"><path d="m256 7.5c-137.243 0-248.5 111.257-248.5 248.5s111.257 248.5 248.5 248.5 248.5-111.257 248.5-248.5-111.257-248.5-248.5-248.5zm0 456.75c-115.013 0-208.25-93.237-208.25-208.25s93.237-208.25 208.25-208.25 208.25 93.237 208.25 208.25-93.237 208.25-208.25 208.25z" fill="#9ef1e5"/><path d="m256 7.5c-5.546 0-11.044.201-16.5.559 129.548 8.495 232 116.245 232 247.941s-102.452 239.447-232 247.941c5.456.358 10.954.559 16.5.559 137.243 0 248.5-111.257 248.5-248.5s-111.257-248.5-248.5-248.5z" fill="#3bdfc7"/><path d="m292.373 193h-72.746l-36.373 63 36.373 63h72.746l36.373-63z" style="fill:none;stroke:#000;stroke-width:15;stroke-linecap:round;stroke-linejoin:round;stroke-miterlimit:10"/><path d="m183.451 255.658-.197.342.197-.342-80.981-140.347c-33.978 37.059-54.72 86.449-54.72 140.689 0 21.961 3.409 43.124 9.711 63h162.539z" fill="#888dc4"/><path d="m292 193h162.539c-22.31-70.371-80.992-124.542-153.976-140.455l-80.984 140.455z" fill="#888dc4"/><path d="m219.579 193h-.579.579l80.985-140.455c-14.36-3.13-29.266-4.795-44.564-4.795-60.774 0-115.46 26.039-153.531 67.562l80.981 140.347z" fill="#a1a7cb"/><path d="m220 319h-162.539c22.233 70.128 80.587 124.169 153.22 140.29l81.652-140.29z" fill="#a1a7cb"/><path d="m292 193h-72.421l-36.128 62.658 36.549 63.342h72.333l37.134-63.094z" fill="#293067"/><path d="m329.467 255.906-37.134 63.094h.667-.667l-81.652 140.29c14.591 3.239 29.753 4.96 45.319 4.96 61.999 0 117.659-27.103 155.808-70.096z" fill="#888dc4"/><path d="m454.539 193h-162.539l119.808 201.154c32.621-36.762 52.442-85.14 52.442-138.154 0-21.961-3.409-43.124-9.711-63z" fill="#a1a7cb"/><path d="m140.327 91.905c7.902-5.581-.751-17.832-8.654-12.252-57.246 40.43-91.423 106.355-91.423 176.347 0 57.629 22.441 111.809 63.191 152.558 40.75 40.75 94.93 63.192 152.559 63.192 117.763 0 215.75-98.024 215.75-215.75 0-57.629-22.441-111.809-63.191-152.558-40.75-40.75-94.93-63.192-152.559-63.192-29.488 0-58.071 5.845-84.956 17.373-8.892 3.813-2.981 17.597 5.912 13.786 25.005-10.722 51.6-16.159 79.044-16.159 11.139 0 22.065.927 32.715 2.68l-105.245 182.67-71.624-124.27c8.641-8.934 18.152-17.13 28.481-24.425zm-72.287 234.595h211.304l-72.209 124.224c-64.124-16.098-116.1-63.118-139.095-124.224zm219.692-126 32.354 55.5-32.043 55.5h-63.709l-32.204-55.875 31.827-55.125zm-31.732 256.25c-11.376 0-22.529-.966-33.393-2.793l106.674-183.516 73.003 122.888c-36.645 39.012-88.664 63.421-146.284 63.421zm156.643-75.352-100.92-169.881-6.36-11.016h143.578c5.08 17.634 7.809 36.254 7.809 55.5 0 47.404-16.527 91.014-44.107 125.397zm31.317-195.898h-211.431l71.666-124.388c64.431 15.938 116.69 63.07 139.765 124.388zm-237.323 126h-143.578c-5.08-17.634-7.809-36.254-7.809-55.5 0-47.135 16.669-92.282 46.07-127.896z"/><path d="m437.02 74.98c-48.352-48.351-112.64-74.98-181.02-74.98s-132.668 26.629-181.02 74.98c-48.351 48.353-74.98 112.64-74.98 181.02s26.629 132.667 74.98 181.02c48.352 48.351 112.64 74.98 181.02 74.98 43.251 0 86-10.988 123.627-31.777 8.468-4.678 1.214-17.809-7.254-13.13-35.412 19.566-75.653 29.907-116.373 29.907-64.374 0-124.894-25.068-170.413-70.587s-70.587-106.039-70.587-170.413 25.068-124.894 70.587-170.413 106.039-70.587 170.413-70.587 124.894 25.068 170.413 70.587 70.587 106.039 70.587 170.413c0 73.677-33.052 142.341-90.682 188.387-7.559 6.039 1.805 17.758 9.363 11.719 61.213-48.908 96.319-121.844 96.319-200.106 0-68.38-26.629-132.667-74.98-181.02z"/></svg>