<svg id="Capa_1" enable-background="new 0 0 512 512" height="512" viewBox="0 0 512 512" width="512" xmlns="http://www.w3.org/2000/svg"><path d="m83.975 178.651c0-94.855 77.17-172.026 172.025-172.026s172.025 77.17 172.025 172.025h-344.05z" fill="#818181"/><g fill="#595959"><path d="m83.975 178.651h60.715v-60.715h-49.64c-7.15 18.89-11.075 39.351-11.075 60.715z"/><path d="m256 6.625c-3.226 0-6.43.097-9.613.273 62.547 3.463 116.289 40.491 143.469 93.329 4.158 8.084-1.712 17.708-10.803 17.708h-11.743v60.715h60.715c0-94.854-77.17-172.025-172.025-172.025z"/><path d="m62.486 300.08h10.357v-121.43h-10.357c-11.046 0-20 8.954-20 20v81.43c0 11.046 8.954 20 20 20z"/></g><path d="m92.843 340.557h31.608v-202.383h-31.608c-11.046 0-20 8.954-20 20v162.383c0 11.046 8.955 20 20 20z" fill="#cbcbcb"/><path d="m449.514 300.08h-10.357v-121.43h10.357c11.046 0 20 8.954 20 20v81.43c0 11.046-8.955 20-20 20z" fill="#595959"/><path d="m419.156 340.557h-31.608v-202.383h31.608c11.046 0 20 8.954 20 20v162.383c0 11.046-8.954 20-20 20z" fill="#cbcbcb"/><path d="m202.368 434.665h107.263v69.822h-107.263z" fill="#fcd0a3"/><path d="m202.368 468.024c16.794 5.913 34.841 9.142 53.631 9.142s36.838-3.229 53.631-9.142v-33.359h-107.262z" fill="#fba65c"/><path d="m256 46.09c-78.241 0-141.668 63.427-141.668 141.668v127.501c0 78.241 63.427 141.668 141.668 141.668s141.668-63.427 141.668-141.668v-127.501c0-78.241-63.427-141.668-141.668-141.668z" fill="#fcd0a3"/><path d="m256 46.09c-5.65 0-11.219.341-16.697.984 70.371 8.264 124.971 68.092 124.971 140.684v127.501c0 72.591-54.6 132.42-124.971 140.684 5.477.643 11.047.984 16.697.984 78.241 0 141.668-63.427 141.668-141.668v-127.501c0-78.241-63.427-141.668-141.668-141.668z" fill="#fba65c"/><path d="m296.477 51.968c-12.827-3.818-26.41-5.878-40.477-5.878s-27.65 2.06-40.477 5.878v45.73h80.953v-45.73z" fill="#595959"/><path d="m316.715 117.936v30.357h-121.43v-30.357c0-11.177 9.061-20.238 20.238-20.238h80.953c11.178-.001 20.239 9.06 20.239 20.238z" fill="#cbcbcb"/><path d="m256 148.293h116.37c22.355 0 40.477 18.122 40.477 40.477v101.191c0 22.355-18.122 40.477-40.477 40.477h-44.64c-12.568 0-24.963-2.926-36.203-8.546l-17.425-8.712c-11.395-5.698-24.808-5.698-36.203 0l-17.425 8.712c-11.241 5.62-23.636 8.546-36.203 8.546h-44.64c-22.355 0-40.477-18.122-40.477-40.477v-101.191c0-22.355 18.122-40.477 40.477-40.477z" fill="#818181"/><path d="m316.715 133.114h-60.715-60.715v15.179h121.43z" fill="#ababab"/><path d="m372.37 148.293h-18.214c22.355 0 40.477 18.122 40.477 40.477v105.239c0 11.177-9.061 20.238-20.238 20.238h-46.665c-12.568 0-24.963-2.926-36.203-8.546l-17.425-8.712c-11.395-5.698-24.808-5.698-36.203 0l-17.425 8.712c-11.241 5.62-23.636 8.546-36.203 8.546h-44.64c-22.355 0-40.477-18.122-40.477-40.477v16.191c0 22.355 18.122 40.477 40.477 40.477h44.64c12.568 0 24.963-2.926 36.203-8.546l17.425-8.712c11.395-5.698 24.808-5.698 36.203 0l17.425 8.712c11.241 5.62 23.636 8.546 36.203 8.546h26.426 18.214c22.355 0 40.477-18.122 40.477-40.477v-101.191c0-22.355-18.122-40.477-40.477-40.477z" fill="#595959"/><path d="m281.477 204.96h-50.953c-8.284 0-15-6.716-15-15v-.357c0-8.284 6.716-15 15-15h50.953c8.284 0 15 6.716 15 15v.357c0 8.285-6.716 15-15 15z" fill="#62d8f9"/><path d="m449.275 171.137h-2.606v-12.725c0-11.515-7.051-21.412-17.061-25.607-19.02-72.048-80.973-125.2-155.294-132.765-4.123-.423-7.816 2.585-8.235 6.713-.42 4.128 2.586 7.815 6.713 8.236 66.022 6.721 121.394 52.708 140.588 115.673h-19.542c-17.032-41.041-51.929-73.017-95.215-85.899-13.783-4.103-28.124-6.183-42.623-6.183s-28.84 2.08-42.623 6.182c-43.286 12.882-78.183 44.858-95.215 85.899h-19.542c19.194-62.965 74.566-108.952 140.588-115.673 4.128-.42 7.133-4.107 6.713-8.236-.42-4.128-4.102-7.134-8.235-6.713-74.32 7.565-136.274 60.717-155.294 132.766-10.01 4.195-17.061 14.092-17.061 25.607v12.725h-2.606c-15.302 0-27.752 12.449-27.752 27.751v80.954c0 15.302 12.449 27.751 27.752 27.751h2.606v12.725c0 15.302 12.449 27.751 27.751 27.751h17.361c6.355 28.385 20.91 54.35 42.319 74.878 12.479 11.966 26.714 21.519 42.094 28.433v53.106c0 4.149 3.364 7.513 7.513 7.513s7.513-3.364 7.513-7.513v-47.308c14.724 4.774 30.252 7.259 46.118 7.259s31.394-2.485 46.118-7.259v47.308c0 4.149 3.364 7.513 7.513 7.513s7.513-3.364 7.513-7.513v-53.106c15.38-6.914 29.615-16.468 42.094-28.433 21.409-20.528 35.964-46.493 42.319-74.878h17.361c15.302 0 27.751-12.449 27.751-27.751v-12.725h2.606c15.302 0 27.752-12.449 27.752-27.751v-80.954c0-15.301-12.449-27.751-27.752-27.751zm-67.233-29.377c-3.125-.642-6.36-.98-9.672-.98h-48.142v-22.845c0-12.698-8.576-23.424-20.238-26.709v-28.765c36.233 13.886 64.795 43.001 78.052 79.299zm-179.244-.98v-22.845c0-7.016 5.709-12.725 12.725-12.725h80.954c7.017 0 12.725 5.709 12.725 12.725v22.845zm86.166-83.082v32.486h-65.928v-32.486c10.73-2.71 21.791-4.092 32.964-4.092s22.234 1.382 32.964 4.092zm-226.24 234.869c-7.017 0-12.726-5.708-12.726-12.725v-80.954c0-7.016 5.709-12.725 12.726-12.725h2.606v106.404zm30.358 40.477c-7.017 0-12.725-5.708-12.725-12.725v-161.907c0-7.016 5.709-12.725 12.725-12.725h19.778c-.397 1.352-.775 2.71-1.134 4.077-12.149 8.716-20.086 22.947-20.086 39.006v101.192c0 13.945 5.983 26.515 15.512 35.291.173 2.611.412 5.208.718 7.791zm162.918 116.368c-67.291 0-123.136-49.207-132.704-114.327 5.101 1.852 10.601 2.866 16.334 2.866h44.64c13.663 0 27.344-3.23 39.563-9.34l17.425-8.712c9.231-4.615 20.253-4.616 29.484 0l17.425 8.712c12.219 6.11 25.9 9.34 39.563 9.34 4.149 0 7.513-3.364 7.513-7.513s-3.364-7.513-7.513-7.513c-11.342 0-22.699-2.681-32.843-7.754l-17.425-8.712c-13.438-6.719-29.485-6.719-42.923 0l-17.425 8.712c-10.145 5.072-21.501 7.753-32.844 7.753h-44.64c-18.176 0-32.964-14.787-32.964-32.963v-101.191c0-18.176 14.787-32.963 32.964-32.963h5.663c4.149 0 7.513-3.364 7.513-7.513s-3.364-7.513-7.513-7.513h-5.663c-3.312 0-6.547.338-9.672.98 13.256-36.298 41.819-65.413 78.052-79.299v28.765c-11.662 3.285-20.238 14.011-20.238 26.709v22.845h-7.282c-4.149 0-7.513 3.364-7.513 7.513s3.364 7.513 7.513 7.513h191.88c18.176 0 32.964 14.787 32.964 32.963v101.192c0 18.176-14.787 32.963-32.964 32.963h-9.536c-4.149 0-7.513 3.364-7.513 7.513s3.364 7.513 7.513 7.513h9.536c5.733 0 11.233-1.014 16.334-2.866-9.568 65.12-65.413 114.327-132.704 114.327zm175.643-129.093c0 7.017-5.709 12.725-12.725 12.725h-14.789c.306-2.583.546-5.181.718-7.791 9.529-8.776 15.512-21.346 15.512-35.291v-101.192c0-16.059-7.937-30.29-20.085-39.005-.359-1.367-.737-2.725-1.134-4.077h19.778c7.017 0 12.725 5.709 12.725 12.725zm30.358-40.477c0 7.017-5.709 12.725-12.726 12.725h-2.606v-106.404h2.606c7.017 0 12.726 5.709 12.726 12.725z"/><path d="m281.451 167.09h-50.902c-12.428 0-22.539 10.111-22.539 22.539v.305c0 12.428 10.111 22.539 22.539 22.539h50.902c12.428 0 22.539-10.111 22.539-22.539v-.305c0-12.428-10.111-22.539-22.539-22.539zm7.513 22.844c0 4.143-3.37 7.513-7.513 7.513h-50.902c-4.143 0-7.513-3.37-7.513-7.513v-.305c0-4.143 3.37-7.513 7.513-7.513h50.902c4.143 0 7.513 3.37 7.513 7.513z"/></svg>