<?xml version="1.0" encoding="UTF-8"?>
<!DOCTYPE svg PUBLIC "-//W3C//DTD SVG 1.1//EN" "http://www.w3.org/Graphics/SVG/1.1/DTD/svg11.dtd">
<svg version="1.1" xmlns="http://www.w3.org/2000/svg" xmlns:xlink="http://www.w3.org/1999/xlink" x="0" y="0" width="512" height="512" viewBox="0, 0, 512, 512">
  <g id="Background">
    <rect x="0" y="0" width="512" height="512" fill="#000000" fill-opacity="0"/>
  </g>
  <g id="Layer_1">
    <g>
      <path d="M256,7.5 L256,504.5 C393.243,504.5 504.5,393.243 504.5,256 C504.5,118.757 393.243,7.5 256,7.5 z" fill="#D41915"/>
      <path d="M474.5,256 C474.5,118.757 376.674,7.5 256,7.5 C118.757,7.5 7.5,118.757 7.5,256 C7.5,393.243 118.757,504.5 256,504.5 C376.674,504.5 474.5,393.243 474.5,256 z" fill="#FF3636"/>
      <path d="M337.252,145.743 L307.252,145.743 L307.252,366.256 L337.252,366.256 C353.821,366.256 367.252,352.825 367.252,336.256 L367.252,175.743 C367.252,159.175 353.821,145.743 337.252,145.743 z" fill="#FFD8D8"/>
      <path d="M337.252,336.257 L337.252,175.743 C337.252,159.174 323.821,145.743 307.252,145.743 L176.739,145.743 C160.17,145.743 146.739,159.174 146.739,175.743 L146.739,336.256 C146.739,352.825 160.17,366.256 176.739,366.256 L307.252,366.256 C323.821,366.257 337.252,352.825 337.252,336.257 z" fill="#FFFFFF"/>
      <path d="M437.02,74.98 C388.668,26.629 324.38,0 256,0 C187.62,0 123.333,26.629 74.98,74.98 C26.629,123.333 -0,187.62 -0,256 C-0,324.38 26.629,388.667 74.98,437.02 C123.333,485.371 187.62,512 256,512 C324.38,512 388.668,485.371 437.02,437.02 C485.371,388.667 512,324.38 512,256 C512,187.62 485.371,123.333 437.02,74.98 z M256,497 C123.112,497 15,388.888 15,256 C15,123.112 123.112,15 256,15 C388.888,15 497,123.112 497,256 C497,388.888 388.888,497 256,497 z" fill="#000000"/>
      <path d="M337.252,138.243 L176.739,138.243 C156.061,138.243 139.239,155.065 139.239,175.743 L139.239,241 C139.239,245.142 142.597,248.5 146.739,248.5 C150.881,248.5 154.239,245.142 154.239,241 L154.239,175.743 C154.239,163.336 164.332,153.243 176.739,153.243 L337.252,153.243 C349.658,153.243 359.752,163.336 359.752,175.743 L359.752,336.257 C359.752,348.664 349.658,358.757 337.252,358.757 L176.739,358.757 C164.332,358.757 154.239,348.664 154.239,336.257 L154.239,271 C154.239,266.858 150.881,263.5 146.739,263.5 C142.597,263.5 139.239,266.858 139.239,271 L139.239,336.257 C139.239,356.935 156.061,373.757 176.739,373.757 L337.252,373.757 C357.93,373.757 374.752,356.935 374.752,336.257 L374.752,175.743 C374.752,155.065 357.93,138.243 337.252,138.243 z" fill="#000000"/>
    </g>
  </g>
</svg>
