<?xml version="1.0" encoding="UTF-8"?>
<!DOCTYPE svg PUBLIC "-//W3C//DTD SVG 1.1//EN" "http://www.w3.org/Graphics/SVG/1.1/DTD/svg11.dtd">
<svg version="1.1" xmlns="http://www.w3.org/2000/svg" x="0" y="0" width="500" height="500"
     viewBox="0, 0, 500, 500">
  <g id="Background">
    <rect x="0" y="0" width="500" height="500" fill="#000000" fill-opacity="0"/>
  </g>
  <g id="Layer_1">
    <path d="M250,490 C117.452,490 10,382.548 10,250 C10,117.452 117.452,10 250,10 C382.548,10 490,117.452 490,250 C490,382.548 382.548,490 250,490 z" fill="#404040"/>
    <path d="M250,420 C350,420 470,334.286 470,220 C470,105.714 387.5,20 250,20 C112.5,20 30,105.714 30,220 C30,334.286 150,420 250,420 z" fill="#808080"/>
    <path d="M250,490 C117.452,490 10,382.548 10,250 C10,117.452 117.452,10 250,10 C382.548,10 490,117.452 490,250 C490,382.548 382.548,490 250,490 z" fill="#FF862B" display="none"/>
    <path d="M250,420 C350,420 470,334.286 470,220 C470,105.714 387.5,20 250,20 C112.5,20 30,105.714 30,220 C30,334.286 150,420 250,420 z" fill="#FF9E55" display="none"/>
    <path d="M250,490 C117.452,490 10,382.548 10,250 C10,117.452 117.452,10 250,10 C382.548,10 490,117.452 490,250 C490,382.548 382.548,490 250,490 z" fill="#559B38" display="none"/>
    <path d="M250,420 C350,420 470,334.286 470,220 C470,105.714 387.5,20 250,20 C112.5,20 30,105.714 30,220 C30,334.286 150,420 250,420 z" fill="#6BC148" display="none"/>
    <path d="M250,490 C117.452,490 10,382.548 10,250 C10,117.452 117.452,10 250,10 C382.548,10 490,117.452 490,250 C490,382.548 382.548,490 250,490 z" fill="#AA2B24" display="none"/>
    <path d="M250,420 C350,420 470,334.286 470,220 C470,105.714 387.5,20 250,20 C112.5,20 30,105.714 30,220 C30,334.286 150,420 250,420 z" fill="#D24034" display="none"/>
    <path d="M250,0 C388.071,0 500,111.929 500,250 C500,388.071 388.071,500 250,500 C111.929,500 -0,388.071 -0,250 C-0,111.929 111.929,0 250,0 z M250,27.778 C127.27,27.778 27.778,127.27 27.778,250 C27.778,372.73 127.27,472.222 250,472.222 C372.73,472.222 472.222,372.73 472.222,250 C472.222,127.27 372.73,27.778 250,27.778 z" fill="#000000"/>
    <path d="M277.778,83.333 L277.778,120.37 C349.336,120.452 407.326,178.441 407.407,250 L444.444,250 C444.342,157.995 369.783,83.435 277.778,83.333 z" fill="#FFFFFF"/>
  </g>
</svg>
