<?xml version="1.0" encoding="UTF-8"?>
<!DOCTYPE svg PUBLIC "-//W3C//DTD SVG 1.1//EN" "http://www.w3.org/Graphics/SVG/1.1/DTD/svg11.dtd">
<svg version="1.1" xmlns="http://www.w3.org/2000/svg" xmlns:xlink="http://www.w3.org/1999/xlink" x="0" y="0" width="50" height="50" viewBox="0, 0, 500, 500">
  <g id="Background">
    <rect x="0" y="0" width="500" height="500" fill="#FFFFFF"/>
    <g stroke-width="1px">
      <line x1="10" y1="0" x2="10" y2="500" stroke="#AAAAAA" stroke-opacity="0.25"/>
      <line x1="20" y1="0" x2="20" y2="500" stroke="#AAAAAA" stroke-opacity="0.25"/>
      <line x1="30" y1="0" x2="30" y2="500" stroke="#AAAAAA" stroke-opacity="0.25"/>
      <line x1="40" y1="0" x2="40" y2="500" stroke="#AAAAAA" stroke-opacity="0.25"/>
      <line x1="50" y1="0" x2="50" y2="500" stroke="#AAAAAA" stroke-opacity="0.25"/>
      <line x1="60" y1="0" x2="60" y2="500" stroke="#AAAAAA" stroke-opacity="0.25"/>
      <line x1="70" y1="0" x2="70" y2="500" stroke="#AAAAAA" stroke-opacity="0.25"/>
      <line x1="80" y1="0" x2="80" y2="500" stroke="#AAAAAA" stroke-opacity="0.25"/>
      <line x1="90" y1="0" x2="90" y2="500" stroke="#AAAAAA" stroke-opacity="0.25"/>
      <line x1="100" y1="0" x2="100" y2="500" stroke="#AAAAAA" stroke-opacity="0.5"/>
      <line x1="110" y1="0" x2="110" y2="500" stroke="#AAAAAA" stroke-opacity="0.25"/>
      <line x1="120" y1="0" x2="120" y2="500" stroke="#AAAAAA" stroke-opacity="0.25"/>
      <line x1="130" y1="0" x2="130" y2="500" stroke="#AAAAAA" stroke-opacity="0.25"/>
      <line x1="140" y1="0" x2="140" y2="500" stroke="#AAAAAA" stroke-opacity="0.25"/>
      <line x1="150" y1="0" x2="150" y2="500" stroke="#AAAAAA" stroke-opacity="0.25"/>
      <line x1="160" y1="0" x2="160" y2="500" stroke="#AAAAAA" stroke-opacity="0.25"/>
      <line x1="170" y1="0" x2="170" y2="500" stroke="#AAAAAA" stroke-opacity="0.25"/>
      <line x1="180" y1="0" x2="180" y2="500" stroke="#AAAAAA" stroke-opacity="0.25"/>
      <line x1="190" y1="0" x2="190" y2="500" stroke="#AAAAAA" stroke-opacity="0.25"/>
      <line x1="200" y1="0" x2="200" y2="500" stroke="#AAAAAA" stroke-opacity="0.5"/>
      <line x1="210" y1="0" x2="210" y2="500" stroke="#AAAAAA" stroke-opacity="0.25"/>
      <line x1="220" y1="0" x2="220" y2="500" stroke="#AAAAAA" stroke-opacity="0.25"/>
      <line x1="230" y1="0" x2="230" y2="500" stroke="#AAAAAA" stroke-opacity="0.25"/>
      <line x1="240" y1="0" x2="240" y2="500" stroke="#AAAAAA" stroke-opacity="0.25"/>
      <line x1="250" y1="0" x2="250" y2="500" stroke="#AAAAAA" stroke-opacity="0.25"/>
      <line x1="260" y1="0" x2="260" y2="500" stroke="#AAAAAA" stroke-opacity="0.25"/>
      <line x1="270" y1="0" x2="270" y2="500" stroke="#AAAAAA" stroke-opacity="0.25"/>
      <line x1="280" y1="0" x2="280" y2="500" stroke="#AAAAAA" stroke-opacity="0.25"/>
      <line x1="290" y1="0" x2="290" y2="500" stroke="#AAAAAA" stroke-opacity="0.25"/>
      <line x1="300" y1="0" x2="300" y2="500" stroke="#AAAAAA" stroke-opacity="0.5"/>
      <line x1="310" y1="0" x2="310" y2="500" stroke="#AAAAAA" stroke-opacity="0.25"/>
      <line x1="320" y1="0" x2="320" y2="500" stroke="#AAAAAA" stroke-opacity="0.25"/>
      <line x1="330" y1="0" x2="330" y2="500" stroke="#AAAAAA" stroke-opacity="0.25"/>
      <line x1="340" y1="0" x2="340" y2="500" stroke="#AAAAAA" stroke-opacity="0.25"/>
      <line x1="350" y1="0" x2="350" y2="500" stroke="#AAAAAA" stroke-opacity="0.25"/>
      <line x1="360" y1="0" x2="360" y2="500" stroke="#AAAAAA" stroke-opacity="0.25"/>
      <line x1="370" y1="0" x2="370" y2="500" stroke="#AAAAAA" stroke-opacity="0.25"/>
      <line x1="380" y1="0" x2="380" y2="500" stroke="#AAAAAA" stroke-opacity="0.25"/>
      <line x1="390" y1="0" x2="390" y2="500" stroke="#AAAAAA" stroke-opacity="0.25"/>
      <line x1="400" y1="0" x2="400" y2="500" stroke="#AAAAAA" stroke-opacity="0.5"/>
      <line x1="410" y1="0" x2="410" y2="500" stroke="#AAAAAA" stroke-opacity="0.25"/>
      <line x1="420" y1="0" x2="420" y2="500" stroke="#AAAAAA" stroke-opacity="0.25"/>
      <line x1="430" y1="0" x2="430" y2="500" stroke="#AAAAAA" stroke-opacity="0.25"/>
      <line x1="440" y1="0" x2="440" y2="500" stroke="#AAAAAA" stroke-opacity="0.25"/>
      <line x1="450" y1="0" x2="450" y2="500" stroke="#AAAAAA" stroke-opacity="0.25"/>
      <line x1="460" y1="0" x2="460" y2="500" stroke="#AAAAAA" stroke-opacity="0.25"/>
      <line x1="470" y1="0" x2="470" y2="500" stroke="#AAAAAA" stroke-opacity="0.25"/>
      <line x1="480" y1="0" x2="480" y2="500" stroke="#AAAAAA" stroke-opacity="0.25"/>
      <line x1="490" y1="0" x2="490" y2="500" stroke="#AAAAAA" stroke-opacity="0.25"/>
      <line x1="500" y1="0" x2="500" y2="500" stroke="#AAAAAA" stroke-opacity="0.25"/>
      <line x1="0" y1="10" x2="500" y2="10" stroke="#AAAAAA" stroke-opacity="0.25"/>
      <line x1="0" y1="20" x2="500" y2="20" stroke="#AAAAAA" stroke-opacity="0.25"/>
      <line x1="0" y1="30" x2="500" y2="30" stroke="#AAAAAA" stroke-opacity="0.25"/>
      <line x1="0" y1="40" x2="500" y2="40" stroke="#AAAAAA" stroke-opacity="0.25"/>
      <line x1="0" y1="50" x2="500" y2="50" stroke="#AAAAAA" stroke-opacity="0.25"/>
      <line x1="0" y1="60" x2="500" y2="60" stroke="#AAAAAA" stroke-opacity="0.25"/>
      <line x1="0" y1="70" x2="500" y2="70" stroke="#AAAAAA" stroke-opacity="0.25"/>
      <line x1="0" y1="80" x2="500" y2="80" stroke="#AAAAAA" stroke-opacity="0.25"/>
      <line x1="0" y1="90" x2="500" y2="90" stroke="#AAAAAA" stroke-opacity="0.25"/>
      <line x1="0" y1="100" x2="500" y2="100" stroke="#AAAAAA" stroke-opacity="0.5"/>
      <line x1="0" y1="110" x2="500" y2="110" stroke="#AAAAAA" stroke-opacity="0.25"/>
      <line x1="0" y1="120" x2="500" y2="120" stroke="#AAAAAA" stroke-opacity="0.25"/>
      <line x1="0" y1="130" x2="500" y2="130" stroke="#AAAAAA" stroke-opacity="0.25"/>
      <line x1="0" y1="140" x2="500" y2="140" stroke="#AAAAAA" stroke-opacity="0.25"/>
      <line x1="0" y1="150" x2="500" y2="150" stroke="#AAAAAA" stroke-opacity="0.25"/>
      <line x1="0" y1="160" x2="500" y2="160" stroke="#AAAAAA" stroke-opacity="0.25"/>
      <line x1="0" y1="170" x2="500" y2="170" stroke="#AAAAAA" stroke-opacity="0.25"/>
      <line x1="0" y1="180" x2="500" y2="180" stroke="#AAAAAA" stroke-opacity="0.25"/>
      <line x1="0" y1="190" x2="500" y2="190" stroke="#AAAAAA" stroke-opacity="0.25"/>
      <line x1="0" y1="200" x2="500" y2="200" stroke="#AAAAAA" stroke-opacity="0.5"/>
      <line x1="0" y1="210" x2="500" y2="210" stroke="#AAAAAA" stroke-opacity="0.25"/>
      <line x1="0" y1="220" x2="500" y2="220" stroke="#AAAAAA" stroke-opacity="0.25"/>
      <line x1="0" y1="230" x2="500" y2="230" stroke="#AAAAAA" stroke-opacity="0.25"/>
      <line x1="0" y1="240" x2="500" y2="240" stroke="#AAAAAA" stroke-opacity="0.25"/>
      <line x1="0" y1="250" x2="500" y2="250" stroke="#AAAAAA" stroke-opacity="0.25"/>
      <line x1="0" y1="260" x2="500" y2="260" stroke="#AAAAAA" stroke-opacity="0.25"/>
      <line x1="0" y1="270" x2="500" y2="270" stroke="#AAAAAA" stroke-opacity="0.25"/>
      <line x1="0" y1="280" x2="500" y2="280" stroke="#AAAAAA" stroke-opacity="0.25"/>
      <line x1="0" y1="290" x2="500" y2="290" stroke="#AAAAAA" stroke-opacity="0.25"/>
      <line x1="0" y1="300" x2="500" y2="300" stroke="#AAAAAA" stroke-opacity="0.5"/>
      <line x1="0" y1="310" x2="500" y2="310" stroke="#AAAAAA" stroke-opacity="0.25"/>
      <line x1="0" y1="320" x2="500" y2="320" stroke="#AAAAAA" stroke-opacity="0.25"/>
      <line x1="0" y1="330" x2="500" y2="330" stroke="#AAAAAA" stroke-opacity="0.25"/>
      <line x1="0" y1="340" x2="500" y2="340" stroke="#AAAAAA" stroke-opacity="0.25"/>
      <line x1="0" y1="350" x2="500" y2="350" stroke="#AAAAAA" stroke-opacity="0.25"/>
      <line x1="0" y1="360" x2="500" y2="360" stroke="#AAAAAA" stroke-opacity="0.25"/>
      <line x1="0" y1="370" x2="500" y2="370" stroke="#AAAAAA" stroke-opacity="0.25"/>
      <line x1="0" y1="380" x2="500" y2="380" stroke="#AAAAAA" stroke-opacity="0.25"/>
      <line x1="0" y1="390" x2="500" y2="390" stroke="#AAAAAA" stroke-opacity="0.25"/>
      <line x1="0" y1="400" x2="500" y2="400" stroke="#AAAAAA" stroke-opacity="0.5"/>
      <line x1="0" y1="410" x2="500" y2="410" stroke="#AAAAAA" stroke-opacity="0.25"/>
      <line x1="0" y1="420" x2="500" y2="420" stroke="#AAAAAA" stroke-opacity="0.25"/>
      <line x1="0" y1="430" x2="500" y2="430" stroke="#AAAAAA" stroke-opacity="0.25"/>
      <line x1="0" y1="440" x2="500" y2="440" stroke="#AAAAAA" stroke-opacity="0.25"/>
      <line x1="0" y1="450" x2="500" y2="450" stroke="#AAAAAA" stroke-opacity="0.25"/>
      <line x1="0" y1="460" x2="500" y2="460" stroke="#AAAAAA" stroke-opacity="0.25"/>
      <line x1="0" y1="470" x2="500" y2="470" stroke="#AAAAAA" stroke-opacity="0.25"/>
      <line x1="0" y1="480" x2="500" y2="480" stroke="#AAAAAA" stroke-opacity="0.25"/>
      <line x1="0" y1="490" x2="500" y2="490" stroke="#AAAAAA" stroke-opacity="0.25"/>
      <line x1="0" y1="500" x2="500" y2="500" stroke="#AAAAAA" stroke-opacity="0.25"/>
    </g>
  </g>
  <g id="Rectangle">
    <path d="M48.4,260 L451.6,260 C472.808,260 490,280.467 490,305.714 L490,454.286 C490,479.533 472.808,500 451.6,500 L48.4,500 C27.192,500 10,479.533 10,454.286 L10,305.714 C10,280.467 27.192,260 48.4,260 z" fill="#000000"/>
    <path d="M56.8,269.6 L443.2,269.6 C463.524,269.6 480,288.43 480,311.657 L480,448.343 C480,471.57 463.524,490.4 443.2,490.4 L56.8,490.4 C36.476,490.4 20,471.57 20,448.343 L20,311.657 C20,288.43 36.476,269.6 56.8,269.6 z" fill="#6AC249" display="none"/>
    <path d="M56.8,270 L443.2,270 C463.524,270 480,288.83 480,312.057 L480,448.743 C480,471.97 463.524,490.8 443.2,490.8 L56.8,490.8 C36.476,490.8 20,471.97 20,448.743 L20,312.057 C20,288.83 36.476,270 56.8,270 z" fill="#C40000"/>
    <path d="M48.4,0 L451.6,0 C472.808,0 490,20.467 490,45.714 L490,194.286 C490,219.533 472.808,240 451.6,240 L48.4,240 C27.192,240 10,219.533 10,194.286 L10,45.714 C10,20.467 27.192,0 48.4,0 z" fill="#000000"/>
    <path d="M56.8,9.6 L443.2,9.6 C463.524,9.6 480,28.43 480,51.657 L480,188.343 C480,211.57 463.524,230.4 443.2,230.4 L56.8,230.4 C36.476,230.4 20,211.57 20,188.343 L20,51.657 C20,28.43 36.476,9.6 56.8,9.6 z" fill="#6AC249"/>
    <path d="M56.8,10 L443.2,10 C463.524,10 480,28.83 480,52.057 L480,188.743 C480,211.97 463.524,230.8 443.2,230.8 L56.8,230.8 C36.476,230.8 20,211.97 20,188.743 L20,52.057 C20,28.83 36.476,10 56.8,10 z" fill="#C40000" display="none"/>
  </g>
</svg>
