<?xml version="1.0" encoding="UTF-8"?>
<!DOCTYPE svg PUBLIC "-//W3C//DTD SVG 1.1//EN" "http://www.w3.org/Graphics/SVG/1.1/DTD/svg11.dtd">
<svg version="1.1" xmlns="http://www.w3.org/2000/svg" xmlns:xlink="http://www.w3.org/1999/xlink" x="0" y="0" width="512" height="512" viewBox="0, 0, 512, 512">
  <g id="Background">
    <rect x="0" y="0" width="512" height="512" fill="#000000" fill-opacity="0"/>
  </g>
  <g id="Layer_1">
    <g>
      <path d="M256,7.5 L256,504.5 C393.243,504.5 504.5,393.243 504.5,256 C504.5,118.757 393.243,7.5 256,7.5 z" fill="#009916"/>
      <path d="M474.5,256 C474.5,118.757 376.674,7.5 256,7.5 C118.757,7.5 7.5,118.757 7.5,256 C7.5,393.243 118.757,504.5 256,504.5 C376.674,504.5 474.5,393.243 474.5,256 z" fill="#38C300"/>
      <path d="M384.478,230.011 C384.478,230.001 214.277,131.735 214.277,131.735 C209.112,128.76 203.145,127.376 197.177,127.784 L197.172,384.216 C203.14,384.623 209.107,383.239 214.268,380.26 L384.478,281.989 C393.454,276.804 399.5,267.111 399.5,256 C399.5,244.889 393.455,235.196 384.478,230.011 z" fill="#AAFFB6"/>
      <path d="M356.435,281.989 C364.242,276.804 369.5,267.111 369.5,256 C369.5,244.889 364.242,235.196 356.435,230.011 C356.435,230.001 208.409,131.735 208.409,131.735 C204.97,129.457 201.121,128.109 197.176,127.784 C192.759,128.085 188.342,129.363 184.249,131.726 C174.626,137.282 169.255,147.364 169.253,157.73 C169.244,157.735 169.244,354.267 169.244,354.267 C169.255,364.638 174.626,374.72 184.249,380.276 C188.34,382.638 192.757,383.916 197.171,384.217 C201.116,383.892 204.964,382.542 208.401,380.261 z" fill="#FFFFFF"/>
      <path d="M437.02,74.98 C388.667,26.629 324.38,0 256,0 C187.62,0 123.333,26.629 74.98,74.98 C26.629,123.333 -0,187.62 -0,256 C-0,324.38 26.629,388.667 74.98,437.02 C123.333,485.371 187.62,512 256,512 C324.38,512 388.667,485.371 437.02,437.02 C485.371,388.667 512,324.38 512,256 C512,187.62 485.371,123.333 437.02,74.98 z M256,497 C123.112,497 15,388.888 15,256 C15,123.112 123.112,15 256,15 C388.888,15 497,123.112 497,256 C497,388.888 388.888,497 256,497 z" fill="#000000"/>
      <path d="M388.23,223.517 C387.597,223.15 386.956,222.78 386.319,222.412 L218.02,125.236 C206.433,118.562 192.055,118.56 180.5,125.231 C168.939,131.905 161.756,144.357 161.754,157.729 L161.826,157.729 C161.753,158.796 161.753,159.981 161.753,161.307 L161.746,241 C161.746,245.143 165.103,248.5 169.246,248.5 C173.389,248.5 176.746,245.142 176.746,241 C176.746,240.182 176.749,159.416 176.754,157.781 L176.754,157.73 C176.755,149.7 181.064,142.225 188,138.221 C194.934,134.218 203.568,134.222 210.527,138.23 C212.209,139.201 378.478,235.197 380.679,236.477 C380.695,236.486 380.711,236.496 380.727,236.505 C387.681,240.522 392,247.992 392,256 C392,264.008 387.681,271.478 380.729,275.494 L210.52,373.764 C203.565,377.778 194.937,377.783 188.001,373.779 C181.067,369.776 176.754,362.296 176.746,354.265 L176.746,271 C176.746,266.858 173.388,263.5 169.246,263.5 C165.104,263.5 161.746,266.858 161.746,271 L161.745,354.273 C161.759,367.646 168.945,380.098 180.5,386.769 C186.276,390.104 192.755,391.771 199.237,391.771 C205.729,391.771 212.223,390.099 218.018,386.754 L388.23,288.483 C399.808,281.795 407,269.349 407,256 C407,242.651 399.808,230.205 388.23,223.517 z" fill="#000000"/>
    </g>
  </g>
</svg>
