<?xml version="1.0" encoding="UTF-8"?>
<!DOCTYPE svg PUBLIC "-//W3C//DTD SVG 1.1//EN" "http://www.w3.org/Graphics/SVG/1.1/DTD/svg11.dtd">
<svg version="1.1" xmlns="http://www.w3.org/2000/svg" xmlns:xlink="http://www.w3.org/1999/xlink" x="0" y="0" width="512" height="512" viewBox="0, 0, 512, 512">
  <g id="RED" display="none">
    <g>
      <path d="M255.957,500.87 C120.957,500.87 11.13,391.036 11.13,256.036 C11.13,120.996 120.957,11.13 255.957,11.13 C391,11.13 500.87,120.996 500.87,256.036 C500.87,391.036 391,500.87 255.957,500.87 z" fill="#FF8080"/>
      <path d="M255.957,500.87 C120.957,500.87 11.13,391.036 11.13,256.036 C11.13,120.996 120.957,11.13 255.957,11.13 C391,11.13 500.87,120.996 500.87,256.036 C500.87,391.036 391,500.87 255.957,500.87 z M255.957,25.971 C129.145,25.971 25.971,129.178 25.971,256.036 C25.971,382.855 129.145,486.029 255.957,486.029 C382.819,486.029 486.029,382.855 486.029,256.036 C486.029,129.178 382.819,25.971 255.957,25.971 z" fill="#000000"/>
      <path d="M135.925,379.414 C69.71,313.199 69.71,205.469 135.925,139.254 C148.574,126.614 169.064,126.614 181.713,139.254 C194.362,151.902 194.362,172.402 181.713,185.051 C140.759,226.01 140.759,292.659 181.713,333.617 C222.754,374.659 289.219,374.674 330.28,333.622 C371.234,292.659 371.234,226.01 330.28,185.051 C317.631,172.402 317.631,151.902 330.28,139.254 C342.928,126.614 363.419,126.614 376.068,139.254 C442.283,205.469 442.283,313.199 376.068,379.414 C309.731,445.761 202.297,445.777 135.925,379.414 z" fill="#000000"/>
      <path d="M255.996,284.365 C238.117,284.365 223.616,269.869 223.616,251.984 L223.616,115.235 C223.616,97.351 238.117,82.855 255.996,82.855 C273.876,82.855 288.377,97.351 288.377,115.235 L288.377,251.984 C288.377,269.869 273.876,284.365 255.996,284.365 z" fill="#000000"/>
    </g>
  </g>
  <g id="SEC" display="none">
    <g>
      <path d="M255.957,500.87 C120.957,500.87 11.13,391.036 11.13,256.036 C11.13,120.996 120.957,11.13 255.957,11.13 C391,11.13 500.87,120.996 500.87,256.036 C500.87,391.036 391,500.87 255.957,500.87 z M255.957,25.971 C129.145,25.971 25.971,129.178 25.971,256.036 C25.971,382.855 129.145,486.029 255.957,486.029 C382.819,486.029 486.029,382.855 486.029,256.036 C486.029,129.178 382.819,25.971 255.957,25.971 z" fill="#000000"/>
      <path d="M135.925,379.414 C69.71,313.199 69.71,205.469 135.925,139.254 C148.574,126.614 169.064,126.614 181.713,139.254 C194.362,151.902 194.362,172.402 181.713,185.051 C140.759,226.01 140.759,292.659 181.713,333.617 C222.754,374.659 289.219,374.674 330.28,333.622 C371.234,292.659 371.234,226.01 330.28,185.051 C317.631,172.402 317.631,151.902 330.28,139.254 C342.928,126.614 363.419,126.614 376.068,139.254 C442.283,205.469 442.283,313.199 376.068,379.414 C309.731,445.761 202.297,445.777 135.925,379.414 z" fill="#000000"/>
      <path d="M255.996,284.365 C238.117,284.365 223.616,269.869 223.616,251.984 L223.616,115.235 C223.616,97.351 238.117,82.855 255.996,82.855 C273.876,82.855 288.377,97.351 288.377,115.235 L288.377,251.984 C288.377,269.869 273.876,284.365 255.996,284.365 z" fill="#000000"/>
    </g>
  </g>
  <g id="GREEN">
    <g>
      <path d="M255.957,500.87 C120.957,500.87 11.13,391.036 11.13,256.036 C11.13,120.996 120.957,11.13 255.957,11.13 C391,11.13 500.87,120.996 500.87,256.036 C500.87,391.036 391,500.87 255.957,500.87 z" fill="#6AC249"/>
      <path d="M255.957,500.87 C120.957,500.87 11.13,391.036 11.13,256.036 C11.13,120.996 120.957,11.13 255.957,11.13 C391,11.13 500.87,120.996 500.87,256.036 C500.87,391.036 391,500.87 255.957,500.87 z M255.957,25.971 C129.145,25.971 25.971,129.178 25.971,256.036 C25.971,382.855 129.145,486.029 255.957,486.029 C382.819,486.029 486.029,382.855 486.029,256.036 C486.029,129.178 382.819,25.971 255.957,25.971 z" fill="#000000"/>
      <path d="M135.925,379.414 C69.71,313.199 69.71,205.469 135.925,139.254 C148.574,126.614 169.064,126.614 181.713,139.254 C194.362,151.902 194.362,172.402 181.713,185.051 C140.759,226.01 140.759,292.659 181.713,333.617 C222.754,374.659 289.219,374.674 330.28,333.622 C371.234,292.659 371.234,226.01 330.28,185.051 C317.631,172.402 317.631,151.902 330.28,139.254 C342.928,126.614 363.419,126.614 376.068,139.254 C442.283,205.469 442.283,313.199 376.068,379.414 C309.731,445.761 202.297,445.777 135.925,379.414 z" fill="#000000"/>
      <path d="M255.996,284.365 C238.117,284.365 223.616,269.869 223.616,251.984 L223.616,115.235 C223.616,97.351 238.117,82.855 255.996,82.855 C273.876,82.855 288.377,97.351 288.377,115.235 L288.377,251.984 C288.377,269.869 273.876,284.365 255.996,284.365 z" fill="#000000"/>
    </g>
  </g>
</svg>
