<svg id="_x31__x2C_5_px" enable-background="new 0 0 24 24" height="512" viewBox="0 0 24 24" width="512" xmlns="http://www.w3.org/2000/svg"><path d="m12 18.25c-3.446 0-6.25-2.804-6.25-6.25s2.804-6.25 6.25-6.25 6.25 2.804 6.25 6.25-2.804 6.25-6.25 6.25z" fill="#eceff1"/><g fill="#64b5f6"><path d="m6.309 14.027-.157-.386c-.272-.666-.41-1.382-.41-2.129 0-2.656 1.795-4.961 4.365-5.605l.315-.079.245.214c1.042.914 1.071 1.955 1.071 2.848 0 1.144-1.315 1.9-2.437 2.143-.375.075-.644.415-.644.783-.011.521-.217 1.508-.58 1.882-.691.669-.843.329-1.768.329z"/><path d="m12.591 18.212-.86-1.048c-.884-1.09-.805-2.662.182-3.659.719-.719 1.627-.62 2.973-.454 2.156-.55 3.084-.235 3.084-.235l-.04.382c-.277 2.628-2.388 4.724-5.019 4.983z"/><path d="m14.574 9.252c-.706-1.202-.379-2.196-.224-2.835l.507.191c1.261.475 2.232 1.483 2.664 2.764l.189.559-1.385.166c-.751.086-1.394-.263-1.751-.845z"/></g><path d="m12 19c-3.86 0-7-3.14-7-7s3.14-7 7-7 7 3.14 7 7-3.14 7-7 7zm0-12.5c-3.033 0-5.5 2.467-5.5 5.5s2.467 5.5 5.5 5.5 5.5-2.467 5.5-5.5-2.467-5.5-5.5-5.5z"/><path d="m6.73 15.04h-.54v-1.5h.54c.239 0 .466-.092.639-.26.105-.11.254-.325.261-.626 0-.562.195-1.101.564-1.544.349-.437.853-.744 1.41-.855.659-.143 1.146-.743 1.146-1.425v-.6c0-.653-.286-1.279-.785-1.716l.989-1.128c.823.722 1.295 1.758 1.295 2.844v.6c0 1.383-.985 2.6-2.342 2.893-.223.044-.415.163-.552.335-.152.184-.225.386-.225.612-.014.63-.262 1.218-.701 1.671-.472.457-1.07.699-1.699.699z"/><path d="m12.04 18.696-.82-1c-1.105-1.362-1.006-3.327.227-4.573.87-.87 2.168-1.164 3.38-.704l.335.136c.271.106.599.005.772-.244.453-.705 1.51-.958 2.282-.525l.387.23-.767 1.289-.37-.22c-.063-.035-.226-.033-.286.062-.591.848-1.645 1.168-2.576.802l-.327-.133c-.618-.235-1.315-.087-1.768.365-.691.699-.748 1.804-.128 2.567l.818.997z"/><path d="m16.42 10.94c-.979 0-1.872-.504-2.389-1.348-.653-1.113-.846-2.39-.55-3.609l1.458.354c-.204.839-.07 1.721.378 2.484.263.43.757.661 1.263.606l1.261-.151.179 1.489-1.25.15c-.134.015-.236.025-.35.025z"/><path d="m21.25 6h-2.5c-.414 0-.75-.336-.75-.75s.336-.75.75-.75h1.75v-1.75c0-.414.336-.75.75-.75s.75.336.75.75v2.5c0 .414-.336.75-.75.75z"/><path d="m1.229 16c-.322 0-.62-.209-.718-.534-.339-1.128-.511-2.294-.511-3.466 0-6.617 5.383-12 12-12 3.69 0 7.108 1.653 9.379 4.536.256.325.2.797-.125 1.053-.324.255-.797.2-1.053-.125-1.985-2.519-4.973-3.964-8.201-3.964-5.79 0-10.5 4.71-10.5 10.5 0 1.025.151 2.046.448 3.034.119.396-.105.815-.502.935-.072.021-.145.031-.217.031z"/><path d="m2.75 22c-.414 0-.75-.336-.75-.75v-2.5c0-.414.336-.75.75-.75h2.5c.414 0 .75.336.75.75s-.336.75-.75.75h-1.75v1.75c0 .414-.336.75-.75.75z"/><path d="m12 24c-3.69 0-7.108-1.653-9.379-4.536-.256-.325-.2-.797.125-1.053s.796-.2 1.053.125c1.985 2.519 4.973 3.964 8.201 3.964 5.79 0 10.5-4.71 10.5-10.5 0-1.025-.151-2.046-.448-3.034-.119-.396.105-.815.502-.935.396-.118.815.105.935.502.339 1.129.511 2.295.511 3.467 0 6.617-5.383 12-12 12z"/></svg>