<?xml version="1.0" encoding="UTF-8"?>
<!DOCTYPE svg PUBLIC "-//W3C//DTD SVG 1.1//EN" "http://www.w3.org/Graphics/SVG/1.1/DTD/svg11.dtd">
<svg version="1.1" xmlns="http://www.w3.org/2000/svg" x="0" y="0" width="512" height="512" viewBox="0, 0, 512, 512">
  <g id="Background">
    <rect x="0" y="0" width="512" height="512" fill="#000000" fill-opacity="0"/>
  </g>
  <g id="Arrow_FilledOutline">
    <path d="M415.859,359.741 L343.267,351.675 C336.886,350.965 330.528,353.194 325.987,357.734 L325.963,357.758 C320.887,362.834 319.031,370.299 321.139,377.161 C323.247,384.023 328.974,389.159 336.024,390.51 L351.35,393.507 C323.328,413.184 289.89,423.677 255.65,423.539 C203.76,423.505 154.823,399.396 123.175,358.275 C91.526,317.155 80.749,263.676 94,213.507 C97.395,200.694 89.761,187.555 76.948,184.159 C64.135,180.764 50.995,188.398 47.6,201.211 C23.683,290.869 60.006,385.754 137.68,436.521 C215.355,487.288 316.84,482.474 389.36,424.582 L394.038,448.51 C395.389,455.56 400.525,461.286 407.386,463.394 C414.247,465.502 421.711,463.646 426.787,458.571 L426.813,458.546 C431.353,454.005 433.583,447.647 432.872,441.266 L424.8,368.682 C424.277,363.977 420.563,360.264 415.859,359.741 z" fill="#2B49FF"/>
    <path d="M256.344,40.461 C207.764,40.623 160.659,57.167 122.646,87.418 L117.968,63.49 C116.617,56.44 111.482,50.714 104.621,48.606 C97.759,46.498 90.295,48.354 85.219,53.429 L85.194,53.454 C80.653,57.995 78.424,64.353 79.134,70.734 L87.2,143.318 C87.723,148.023 91.437,151.736 96.141,152.259 L168.733,160.325 C175.114,161.035 181.472,158.806 186.013,154.266 L186.037,154.242 C191.113,149.166 192.969,141.701 190.861,134.839 C188.753,127.977 183.026,122.841 175.976,121.49 L160.64,118.494 C188.662,98.818 222.101,88.324 256.341,88.461 C308.232,88.492 357.172,112.6 388.822,153.721 C420.473,194.842 431.251,248.322 418,298.493 C414.613,311.308 422.25,324.443 435.062,327.84 C437.072,328.369 439.141,328.637 441.219,328.64 C452.102,328.63 461.618,321.301 464.406,310.781 C481.46,246.209 467.587,177.379 426.852,124.454 C386.117,71.53 323.13,40.502 256.344,40.461 z" fill="#2B49FF"/>
    <g>
      <path d="M255.656,479.539 C186.386,479.498 121.055,447.316 78.805,392.423 C36.555,337.529 22.168,266.138 39.859,199.165 C44.385,182.078 61.906,171.896 78.992,176.422 C96.078,180.948 106.26,198.469 101.734,215.555 C85.611,276.695 107.159,341.585 156.654,380.934 C206.149,420.283 274.226,426.648 330.157,397.155 C321.411,393.909 314.918,386.435 312.926,377.321 C310.934,368.207 313.718,358.706 320.312,352.107 C326.572,345.843 335.338,342.76 344.141,343.725 L416.75,351.795 C425.191,352.698 431.856,359.37 432.75,367.811 L440.813,440.397 C441.815,449.19 438.741,457.958 432.469,464.202 C425.304,471.391 414.751,474.028 405.047,471.054 C395.342,468.08 388.078,459.983 386.171,450.014 L383.954,438.616 C346.396,465.09 301.606,479.376 255.656,479.539 z M70.856,191.379 C63.589,191.378 57.224,196.248 55.325,203.262 C32.292,289.591 67.268,380.953 142.061,429.831 C216.853,478.709 314.571,474.064 384.39,418.312 C386.581,416.58 389.516,416.115 392.136,417.083 C394.755,418.051 396.681,420.314 397.219,423.054 L401.891,446.976 C402.669,451.126 405.681,454.504 409.716,455.75 C413.751,456.995 418.143,455.903 421.125,452.914 C423.966,450.102 425.36,446.142 424.906,442.171 L416.843,369.563 C416.73,368.58 415.952,367.805 414.968,367.696 L342.374,359.626 C338.413,359.155 334.456,360.542 331.654,363.382 C328.659,366.358 327.556,370.747 328.787,374.785 C330.019,378.824 333.383,381.85 337.53,382.648 L352.89,385.656 C356.038,386.271 358.514,388.706 359.181,391.844 C359.849,394.981 358.577,398.213 355.952,400.056 C326.578,420.668 291.538,431.667 255.654,431.541 C201.28,431.505 150,406.242 116.837,363.152 C83.673,320.063 72.38,264.024 86.266,211.453 C87.551,206.663 86.535,201.548 83.515,197.613 C80.496,193.678 75.819,191.373 70.859,191.374 z" fill="#232526"/>
      <path d="M441.219,336.648 C438.461,336.642 435.715,336.285 433.046,335.586 C415.959,331.052 405.767,313.541 410.266,296.445 C426.389,235.305 404.841,170.415 355.346,131.066 C305.851,91.717 237.774,85.352 181.843,114.845 C190.59,118.09 197.085,125.564 199.076,134.678 C201.068,143.793 198.284,153.295 191.688,159.893 C185.431,166.161 176.663,169.245 167.859,168.275 L95.25,160.205 C86.809,159.302 80.144,152.63 79.25,144.189 L71.187,71.61 C70.185,62.817 73.259,54.048 79.531,47.805 C86.696,40.616 97.249,37.979 106.953,40.953 C116.658,43.926 123.922,52.023 125.829,61.992 L128.046,73.39 C204.71,19.431 306.93,19.157 383.881,72.705 C460.833,126.254 496.097,222.198 472.141,312.835 C468.427,326.867 455.734,336.642 441.219,336.648 z M256.344,80.461 C310.718,80.496 361.998,105.759 395.162,148.848 C428.326,191.937 439.62,247.976 425.734,300.547 C423.471,309.09 428.562,317.851 437.106,320.114 C445.649,322.377 454.409,317.286 456.672,308.742 C479.706,222.415 444.731,131.052 369.939,82.173 C295.147,33.293 197.43,37.937 127.61,93.688 C125.419,95.42 122.484,95.885 119.864,94.917 C117.245,93.949 115.319,91.686 114.781,88.946 L110.109,65.024 C109.33,60.876 106.318,57.5 102.286,56.255 C98.253,55.009 93.862,56.099 90.88,59.086 C88.038,61.898 86.645,65.858 87.099,69.829 L95.162,142.437 C95.275,143.42 96.053,144.195 97.037,144.304 L169.63,152.374 C173.587,152.798 177.524,151.418 180.35,148.618 C183.346,145.642 184.449,141.253 183.218,137.215 C181.986,133.176 178.621,130.15 174.475,129.352 L159.115,126.344 C155.967,125.729 153.491,123.294 152.823,120.156 C152.156,117.019 153.427,113.787 156.053,111.944 C185.425,91.334 220.463,80.335 256.344,80.461 z" fill="#232526"/>
    </g>
  </g>
</svg>
