<?xml version="1.0" encoding="UTF-8"?>
<!DOCTYPE svg PUBLIC "-//W3C//DTD SVG 1.1//EN" "http://www.w3.org/Graphics/SVG/1.1/DTD/svg11.dtd">
<svg version="1.1" xmlns="http://www.w3.org/2000/svg" xmlns:xlink="http://www.w3.org/1999/xlink" x="0" y="0" width="500" height="500" viewBox="0, 0, 500, 500">
  <g id="GO" display="none">
    <g>
      <path d="M51.739,10 L448.261,10 C471.313,10 490,28.29 490,50.851 L490,449.149 C490,471.71 471.313,490 448.261,490 L51.739,490 C28.687,490 10,471.71 10,449.149 L10,50.851 C10,28.29 28.687,10 51.739,10 z" fill="#AA2B25" display="none"/>
      <path d="M58.333,20 L441.667,20 C462.838,20 480,36.629 480,57.143 L480,330 C480,350.513 440,410 390,410 C340,410 160,410 110,410 C60,410 20,350.513 20,330 L20,57.143 C20,36.629 37.162,20 58.333,20 z" fill="#D24134" display="none"/>
      <path d="M51.739,10 L448.261,10 C471.313,10 490,28.29 490,50.851 L490,449.149 C490,471.71 471.313,490 448.261,490 L51.739,490 C28.687,490 10,471.71 10,449.149 L10,50.851 C10,28.29 28.687,10 51.739,10 z" fill="#BFBFBF"/>
      <path d="M58.333,20 L441.667,20 C462.838,20 480,36.629 480,57.143 L480,330 C480,350.513 440,410 390,410 C340,410 160,410 110,410 C60,410 20,350.513 20,330 L20,57.143 C20,36.629 37.162,20 58.333,20 z" fill="#EAEAEA"/>
      <path d="M51.739,10 L448.261,10 C471.313,10 490,28.29 490,50.851 L490,449.149 C490,471.71 471.313,490 448.261,490 L51.739,490 C28.687,490 10,471.71 10,449.149 L10,50.851 C10,28.29 28.687,10 51.739,10 z" fill="#FF862C" display="none"/>
      <path d="M58.333,20 L441.667,20 C462.838,20 480,36.629 480,57.143 L480,330 C480,350.513 440,410 390,410 C340,410 160,410 110,410 C60,410 20,350.513 20,330 L20,57.143 C20,36.629 37.162,20 58.333,20 z" fill="#FF9E55" display="none"/>
      <path d="M51.739,20 L448.261,20 C471.313,20 490,38.29 490,60.851 L490,459.149 C490,481.71 471.313,500 448.261,500 L51.739,500 C28.687,500 10,481.71 10,459.149 L10,60.851 C10,38.29 28.687,20 51.739,20 z" fill="#559B38" display="none"/>
      <path d="M58.333,20 L441.667,20 C462.838,20 480,36.629 480,57.143 L480,330 C480,350.513 440,410 390,410 C340,410 160,410 110,410 C60,410 20,350.513 20,330 L20,57.143 C20,36.629 37.162,20 58.333,20 z" fill="#6AC249" display="none"/>
      <path d="M460,-0 C482.091,-0 500,17.909 500,40 L500,460 C500,482.091 482.091,500 460,500 L40,500 C17.909,500 0,482.091 0,460 L0,40 C0,17.909 17.909,-0 40,-0 L460,-0 z M443.2,20 L56.8,20 C36.476,20 20,36.476 20,56.8 L20,443.2 C20,463.524 36.476,480 56.8,480 L443.2,480 C463.524,480 480,463.524 480,443.2 L480,56.8 C480,36.476 463.524,20 443.2,20 z" fill="#000000"/>
      <path d="M426.001,39 C448.093,39 466.002,56.909 466.002,79 L466.001,229 C465.723,234.623 466.033,231.273 464.648,239 L436.002,239 L436.001,109 C436.002,86.909 418.093,69 396.002,69 L306.002,69 L306.002,39 L306,39 L306.001,39 L426.001,39 z" fill="#FFFFFF"/>
      <path d="M235.268,247.492 L235.268,280.971 Q235.268,287.643 233.957,291.634 Q232.647,295.625 229.132,298.842 Q225.618,302.059 220.137,305.037 Q204.291,313.615 189.637,317.547 Q174.983,321.479 157.707,321.479 Q137.573,321.479 121.012,315.283 Q104.452,309.088 92.776,297.293 Q81.1,285.498 74.845,268.699 Q68.59,251.9 68.59,231.17 Q68.59,210.797 74.666,193.879 Q80.743,176.961 92.537,165.166 Q104.332,153.371 121.25,147.116 Q138.168,140.861 159.614,140.861 Q177.246,140.861 190.829,145.567 Q204.411,150.273 212.87,157.422 Q221.329,164.57 225.618,172.553 Q229.907,180.535 229.907,186.73 Q229.907,193.402 224.962,198.108 Q220.018,202.814 213.108,202.814 Q209.295,202.814 205.781,201.027 Q202.266,199.24 199.883,196.023 Q193.33,185.777 188.803,180.535 Q184.276,175.293 176.591,171.719 Q168.907,168.145 156.993,168.145 Q144.721,168.145 135.071,172.374 Q125.42,176.604 118.57,184.646 Q111.719,192.688 108.085,204.363 Q104.452,216.039 104.452,230.217 Q104.452,260.955 118.57,277.516 Q132.688,294.076 157.946,294.076 Q170.217,294.076 180.999,290.859 Q191.782,287.643 202.862,281.686 L202.862,253.33 L175.459,253.33 Q165.571,253.33 160.507,250.352 Q155.444,247.373 155.444,240.225 Q155.444,234.387 159.673,230.574 Q163.903,226.762 171.17,226.762 L211.321,226.762 Q218.707,226.762 223.83,228.072 Q228.954,229.383 232.111,233.91 Q235.268,238.438 235.268,247.492 z" fill="#000000"/>
      <path d="M345.83,140.861 Q372.995,140.861 392.474,151.882 Q411.953,162.902 421.961,183.216 Q431.969,203.529 431.969,230.932 Q431.969,251.186 426.489,267.746 Q421.008,284.307 410.047,296.459 Q399.086,308.611 383.121,315.045 Q367.157,321.479 346.545,321.479 Q326.053,321.479 309.85,314.866 Q293.647,308.254 282.805,296.221 Q271.963,284.188 266.423,267.27 Q260.883,250.352 260.883,230.693 Q260.883,210.559 266.661,193.76 Q272.44,176.961 283.401,165.166 Q294.362,153.371 310.088,147.116 Q325.815,140.861 345.83,140.861 z M396.108,230.693 Q396.108,211.512 389.912,197.453 Q383.717,183.395 372.22,176.187 Q360.723,168.979 345.83,168.979 Q335.227,168.979 326.232,172.97 Q317.237,176.961 310.744,184.586 Q304.25,192.211 300.497,204.065 Q296.745,215.92 296.745,230.693 Q296.745,245.586 300.497,257.619 Q304.25,269.652 311.101,277.575 Q317.952,285.498 326.828,289.43 Q335.703,293.361 346.307,293.361 Q359.889,293.361 371.267,286.57 Q382.645,279.779 389.376,265.602 Q396.108,251.424 396.108,230.693 z" fill="#000000"/>
    </g>
  </g>
  <g id="+">
    <g>
      <path d="M51.739,10 L448.261,10 C471.313,10 490,28.29 490,50.851 L490,449.149 C490,471.71 471.313,490 448.261,490 L51.739,490 C28.687,490 10,471.71 10,449.149 L10,50.851 C10,28.29 28.687,10 51.739,10 z" fill="#AA2B25" display="none"/>
      <path d="M58.333,20 L441.667,20 C462.838,20 480,36.629 480,57.143 L480,330 C480,350.513 440,410 390,410 C340,410 160,410 110,410 C60,410 20,350.513 20,330 L20,57.143 C20,36.629 37.162,20 58.333,20 z" fill="#D24134" display="none"/>
      <path d="M51.739,10 L448.261,10 C471.313,10 490,28.29 490,50.851 L490,449.149 C490,471.71 471.313,490 448.261,490 L51.739,490 C28.687,490 10,471.71 10,449.149 L10,50.851 C10,28.29 28.687,10 51.739,10 z" fill="#BFBFBF"/>
      <path d="M58.333,20 L441.667,20 C462.838,20 480,36.629 480,57.143 L480,330 C480,350.513 440,410 390,410 C340,410 160,410 110,410 C60,410 20,350.513 20,330 L20,57.143 C20,36.629 37.162,20 58.333,20 z" fill="#EAEAEA"/>
      <path d="M51.739,10 L448.261,10 C471.313,10 490,28.29 490,50.851 L490,449.149 C490,471.71 471.313,490 448.261,490 L51.739,490 C28.687,490 10,471.71 10,449.149 L10,50.851 C10,28.29 28.687,10 51.739,10 z" fill="#FF862C" display="none"/>
      <path d="M58.333,20 L441.667,20 C462.838,20 480,36.629 480,57.143 L480,330 C480,350.513 440,410 390,410 C340,410 160,410 110,410 C60,410 20,350.513 20,330 L20,57.143 C20,36.629 37.162,20 58.333,20 z" fill="#FF9E55" display="none"/>
      <path d="M51.739,20 L448.261,20 C471.313,20 490,38.29 490,60.851 L490,459.149 C490,481.71 471.313,500 448.261,500 L51.739,500 C28.687,500 10,481.71 10,459.149 L10,60.851 C10,38.29 28.687,20 51.739,20 z" fill="#559B38" display="none"/>
      <path d="M58.333,20 L441.667,20 C462.838,20 480,36.629 480,57.143 L480,330 C480,350.513 440,410 390,410 C340,410 160,410 110,410 C60,410 20,350.513 20,330 L20,57.143 C20,36.629 37.162,20 58.333,20 z" fill="#6AC249" display="none"/>
      <path d="M460,-0 C482.091,-0 500,17.909 500,40 L500,460 C500,482.091 482.091,500 460,500 L40,500 C17.909,500 0,482.091 0,460 L0,40 C0,17.909 17.909,-0 40,-0 L460,-0 z M443.2,20 L56.8,20 C36.476,20 20,36.476 20,56.8 L20,443.2 C20,463.524 36.476,480 56.8,480 L443.2,480 C463.524,480 480,463.524 480,443.2 L480,56.8 C480,36.476 463.524,20 443.2,20 z" fill="#000000"/>
      <path d="M426.001,39 C448.093,39 466.002,56.909 466.002,79 L466.001,229 C465.723,234.623 466.033,231.273 464.648,239 L436.002,239 L436.001,109 C436.002,86.909 418.093,69 396.002,69 L306.002,69 L306.002,39 L306,39 L306.001,39 L426.001,39 z" fill="#FFFFFF"/>
    </g>
    <path d="M406,235 L92.367,235 L92.367,207.148 L406,207.148 z" fill="#000000"/>
    <path d="M263.109,64.258 L263.109,377.891 L235.258,377.891 L235.258,64.258 z" fill="#000000"/>
  </g>
  <g id="—" display="none">
    <g>
      <path d="M51.739,10 L448.261,10 C471.313,10 490,28.29 490,50.851 L490,449.149 C490,471.71 471.313,490 448.261,490 L51.739,490 C28.687,490 10,471.71 10,449.149 L10,50.851 C10,28.29 28.687,10 51.739,10 z" fill="#AA2B25" display="none"/>
      <path d="M58.333,20 L441.667,20 C462.838,20 480,36.629 480,57.143 L480,330 C480,350.513 440,410 390,410 C340,410 160,410 110,410 C60,410 20,350.513 20,330 L20,57.143 C20,36.629 37.162,20 58.333,20 z" fill="#D24134" display="none"/>
      <path d="M51.739,10 L448.261,10 C471.313,10 490,28.29 490,50.851 L490,449.149 C490,471.71 471.313,490 448.261,490 L51.739,490 C28.687,490 10,471.71 10,449.149 L10,50.851 C10,28.29 28.687,10 51.739,10 z" fill="#BFBFBF"/>
      <path d="M58.333,20 L441.667,20 C462.838,20 480,36.629 480,57.143 L480,330 C480,350.513 440,410 390,410 C340,410 160,410 110,410 C60,410 20,350.513 20,330 L20,57.143 C20,36.629 37.162,20 58.333,20 z" fill="#EAEAEA"/>
      <path d="M51.739,10 L448.261,10 C471.313,10 490,28.29 490,50.851 L490,449.149 C490,471.71 471.313,490 448.261,490 L51.739,490 C28.687,490 10,471.71 10,449.149 L10,50.851 C10,28.29 28.687,10 51.739,10 z" fill="#FF862C" display="none"/>
      <path d="M58.333,20 L441.667,20 C462.838,20 480,36.629 480,57.143 L480,330 C480,350.513 440,410 390,410 C340,410 160,410 110,410 C60,410 20,350.513 20,330 L20,57.143 C20,36.629 37.162,20 58.333,20 z" fill="#FF9E55" display="none"/>
      <path d="M51.739,20 L448.261,20 C471.313,20 490,38.29 490,60.851 L490,459.149 C490,481.71 471.313,500 448.261,500 L51.739,500 C28.687,500 10,481.71 10,459.149 L10,60.851 C10,38.29 28.687,20 51.739,20 z" fill="#559B38" display="none"/>
      <path d="M58.333,20 L441.667,20 C462.838,20 480,36.629 480,57.143 L480,330 C480,350.513 440,410 390,410 C340,410 160,410 110,410 C60,410 20,350.513 20,330 L20,57.143 C20,36.629 37.162,20 58.333,20 z" fill="#6AC249" display="none"/>
      <path d="M460,-0 C482.091,-0 500,17.909 500,40 L500,460 C500,482.091 482.091,500 460,500 L40,500 C17.909,500 0,482.091 0,460 L0,40 C0,17.909 17.909,-0 40,-0 L460,-0 z M443.2,20 L56.8,20 C36.476,20 20,36.476 20,56.8 L20,443.2 C20,463.524 36.476,480 56.8,480 L443.2,480 C463.524,480 480,463.524 480,443.2 L480,56.8 C480,36.476 463.524,20 443.2,20 z" fill="#000000"/>
      <path d="M426.001,39 C448.093,39 466.002,56.909 466.002,79 L466.001,229 C465.723,234.623 466.033,231.273 464.648,239 L436.002,239 L436.001,109 C436.002,86.909 418.093,69 396.002,69 L306.002,69 L306.002,39 L306,39 L306.001,39 L426.001,39 z" fill="#FFFFFF"/>
    </g>
    <path d="M406.816,235.483 L93.184,235.483 L93.184,207.632 L406.816,207.632 z" fill="#000000"/>
  </g>
</svg>
