<?xml version="1.0" encoding="iso-8859-1"?>
<!-- Generator: Adobe Illustrator 19.0.0, SVG Export Plug-In . SVG Version: 6.00 Build 0)  -->
<svg version="1.1" id="Capa_1" xmlns="http://www.w3.org/2000/svg" x="0px" y="0px"
	 viewBox="0 0 512 512" style="enable-background:new 0 0 512 512;" xml:space="preserve">
<g>
	<rect id="SVGCleanerId_0" x="140.629" y="291.121" width="17.58" height="17.58"/>
</g>
<rect x="105.469" y="273.542" width="17.58" height="17.58"/>
<g>
	<rect id="SVGCleanerId_1" x="79.1" y="299.911" width="17.58" height="17.58"/>
</g>
<rect x="316.426" y="212.013" width="17.58" height="17.58"/>
<g>
	<rect id="SVGCleanerId_2" x="351.585" y="229.592" width="17.58" height="17.58"/>
</g>
<rect x="377.955" y="203.223" width="17.58" height="17.58"/>
<g>
	<rect id="SVGCleanerId_3" x="283.473" y="379.02" width="17.58" height="17.58"/>
</g>
<rect x="318.632" y="361.44" width="17.58" height="17.58"/>
<g>
	<rect id="SVGCleanerId_4" x="353.792" y="291.121" width="17.58" height="17.58"/>
</g>
<rect x="274.683" y="282.332" width="17.58" height="17.58"/>
<g>
	<rect id="SVGCleanerId_5" x="184.578" y="387.81" width="17.58" height="17.58"/>
</g>
<rect x="140.629" y="370.23" width="17.58" height="17.58"/>
<rect id="SVGCleanerId_6" x="96.68" y="396.6" width="17.58" height="17.58"/>
<path id="SVGCleanerId_7" d="M274.674,102.148c0,16.991,13.774,30.764,30.764,30.764c16.991,0,30.764-13.774,30.764-30.764
	s-13.774-30.764-30.764-30.764C288.448,71.384,274.674,85.158,274.674,102.148z M318.623,102.148
	c0,7.278-5.907,13.185-13.185,13.185c-7.278,0-13.185-5.907-13.185-13.185c0-7.278,5.907-13.185,13.185-13.185l0,0
	C312.725,88.964,318.623,94.87,318.623,102.148z"/>
<path id="SVGCleanerId_8" d="M397.732,1.065c-24.269,0-43.949,19.68-43.949,43.949s19.68,43.949,43.949,43.949
	c24.269,0,43.949-19.68,43.949-43.949C441.655,20.754,421.992,1.1,397.732,1.065z M397.732,71.384
	c-14.565,0-26.37-11.805-26.37-26.37s11.805-26.37,26.37-26.37c14.565,0,26.37,11.805,26.37,26.37S412.297,71.384,397.732,71.384z"
	/>
<path id="SVGCleanerId_9" d="M26.721,252.455c-0.105,1.758-0.36,3.516-0.36,5.274v100.02c0,49.513,40.143,89.656,89.656,89.656l0,0
	c3.718,0,7.427-0.229,11.11-0.686l110.031-13.756c5.933-0.738,11.945-0.738,17.879,0l46.709,5.836
	c2.927,23.144,24.058,39.537,47.21,36.61c0.624-0.079,1.239-0.167,1.855-0.272c14.16,30.826,50.63,44.336,81.456,30.176
	c21.852-10.038,35.845-31.916,35.783-55.965c-0.044-2.971-0.308-5.933-0.782-8.869c0.264,0,0.51,0.079,0.782,0.079
	c24.269,0,43.949-19.68,43.949-43.949c0-24.269-19.68-43.949-43.949-43.949c-0.756,0-1.468,0.185-2.215,0.22v-84.936v-10.214
	c-0.009-49.513-40.152-89.648-89.665-89.639c-3.709,0-7.41,0.229-11.093,0.686l-110.023,13.756c-5.942,0.738-11.954,0.738-17.896,0
	l-26.449-3.305c0.044-0.8,0.237-1.556,0.237-2.364c0.202-24.067-19.144-43.747-43.211-43.949c-2.189-0.018-4.377,0.132-6.548,0.439
	c-14.064-30.852-50.471-44.459-81.324-30.395c-25.007,11.4-39.387,38.016-35.212,65.177c-0.272,0-0.475-0.062-0.712-0.062
	c-24.269,0-43.949,19.68-43.94,43.958C0,229.645,10.522,245.555,26.721,252.455z M302.485,421.22l-45.259-5.661
	c-7.383-0.923-14.855-0.923-22.238,0l-110.031,13.703c-39.502,4.94-75.522-23.082-80.462-62.584c-0.36-2.953-0.554-5.942-0.554-8.93
	v-36.531c19.241,26.053,51.06,39.695,83.196,35.652l110.023-13.747c5.942-0.738,11.954-0.738,17.896,0l110.023,13.747
	c32.136,4.043,63.955-9.599,83.196-35.652v26.37v10.02c-12.851,6.522-21.667,18.96-23.574,33.243
	c-17.518-5.195-36.425-2.558-51.86,7.225c-18.406-15.47-45.857-13.088-61.327,5.318c-4.333,5.16-7.41,11.251-8.992,17.791
	L302.485,421.22z M344.993,458.137c-14.565,0-26.37-11.805-26.37-26.37s11.805-26.37,26.37-26.37s26.37,11.805,26.37,26.37
	S359.558,458.137,344.993,458.137z M406.522,493.297c-16.499,0.009-31.608-9.238-39.106-23.935
	c13.299-7.858,21.482-22.142,21.526-37.594c-0.044-6.988-1.784-13.87-5.063-20.041c13.088-7.568,29.086-8.087,42.64-1.389
	c3.621,10.926,11.392,19.988,21.632,25.227c7.761,22.845-4.474,47.659-27.319,55.411
	C416.226,492.55,411.391,493.332,406.522,493.297z M468.051,370.239c14.565,0,26.37,11.805,26.37,26.37
	c0,14.565-11.805,26.37-26.37,26.37s-26.37-11.805-26.37-26.37C441.681,382.044,453.495,370.239,468.051,370.239z M206.175,196.376
	l28.804,3.595c7.392,0.932,14.864,0.932,22.256,0l110.023-13.756c39.502-4.94,75.522,23.082,80.462,62.584
	c0.369,2.962,0.554,5.951,0.554,8.93v10.17c0.026,39.809-32.215,72.103-72.024,72.13c-3.006,0-6.012-0.185-8.992-0.554
	l-110.023-13.8c-7.392-0.923-14.864-0.923-22.256,0l-110.023,13.8c-39.502,4.94-75.522-23.082-80.462-62.584
	c-0.369-2.98-0.563-5.986-0.554-8.983v-10.179c0-0.589,0.105-1.187,0.123-1.758c21.825-0.132,40.24-16.279,43.22-37.902
	c17.483,5.423,36.478,2.742,51.781-7.296c18.591,15.4,46.147,12.807,61.547-5.784c2.189-2.637,4.052-5.529,5.564-8.605
	L206.175,196.376z M166.998,159.282c-0.018-2.927-0.255-5.845-0.694-8.737c0.237,0,0.457-0.053,0.694-0.053
	c14.565,0,26.37,11.805,26.37,26.37c0,14.565-11.805,26.37-26.37,26.37c-5.133-0.035-10.152-1.591-14.407-4.465
	C161.909,187.718,167.007,173.733,166.998,159.282z M105.469,115.333c24.269,0,43.949,19.68,43.949,43.949
	s-19.68,43.949-43.949,43.949s-43.949-19.68-43.949-43.949C61.555,135.022,81.21,115.368,105.469,115.333z M43.941,185.652
	c2.18,0.026,4.342,0.325,6.452,0.879c4.685,9.432,11.69,17.509,20.357,23.478c-0.229,0.65-0.378,1.327-0.439,2.013
	c0,14.565-11.805,26.37-26.37,26.37s-26.37-11.805-26.37-26.37S29.385,185.652,43.941,185.652z"/>
<path style="fill:#F4CA62;" d="M37.348,250.89v100.011c-0.272,44.362,35.476,80.55,79.838,80.823
	c3.375,0.018,6.751-0.176,10.108-0.58l108.889-13.756c6.592-0.835,13.255-0.835,19.847,0l108.889,13.756
	c44.046,5.309,84.057-26.088,89.366-70.134c0.404-3.358,0.598-6.733,0.58-10.108V250.89H37.348z"/>
<path style="fill:#F9E0A0;" d="M366.168,348.15l-110.031-13.756c-6.663-0.826-13.396-0.826-20.058,0L126.047,348.15
	c-44.318,5.538-84.734-25.895-90.272-70.213c-0.413-3.331-0.624-6.68-0.624-10.029v-10.179c0-44.661,36.205-80.867,80.867-80.867
	c3.349,0,6.707,0.211,10.029,0.624l110.031,13.756c6.663,0.835,13.396,0.835,20.058,0l110.031-13.756
	c44.318-5.538,84.734,25.895,90.272,70.213c0.413,3.331,0.624,6.68,0.624,10.029v10.17c0.009,44.661-36.197,80.867-80.858,80.875
	C372.857,348.774,369.499,348.572,366.168,348.15z"/>
<g>
	<g>
		<rect id="SVGCleanerId_0_1_" x="140.629" y="291.121" style="fill:#F4CA62;" width="17.58" height="17.58"/>
	</g>
	<rect x="105.469" y="273.542" style="fill:#F4CA62;" width="17.58" height="17.58"/>
	<g>
		<rect id="SVGCleanerId_1_1_" x="79.1" y="299.911" style="fill:#F4CA62;" width="17.58" height="17.58"/>
	</g>
	<rect x="316.426" y="212.013" style="fill:#F4CA62;" width="17.58" height="17.58"/>
	<g>
		<rect id="SVGCleanerId_2_1_" x="351.585" y="229.592" style="fill:#F4CA62;" width="17.58" height="17.58"/>
	</g>
	<rect x="377.955" y="203.223" style="fill:#F4CA62;" width="17.58" height="17.58"/>
</g>
<g>
	<g>
		<rect id="SVGCleanerId_3_1_" x="283.473" y="379.02" style="fill:#DEB859;" width="17.58" height="17.58"/>
	</g>
	<rect x="318.632" y="361.44" style="fill:#DEB859;" width="17.58" height="17.58"/>
</g>
<g>
	<g>
		<rect id="SVGCleanerId_4_1_" x="353.792" y="291.121" style="fill:#F4CA62;" width="17.58" height="17.58"/>
	</g>
	<rect x="274.683" y="282.332" style="fill:#F4CA62;" width="17.58" height="17.58"/>
</g>
<g>
	<g>
		<rect id="SVGCleanerId_5_1_" x="184.578" y="387.81" style="fill:#DEB859;" width="17.58" height="17.58"/>
	</g>
	<rect x="142.826" y="370.23" style="fill:#DEB859;" width="17.58" height="17.58"/>
	<rect x="98.877" y="396.6" style="fill:#DEB859;" width="17.58" height="17.58"/>
</g>
<g>
	<circle style="fill:#B3E4E8;" cx="305.439" cy="102.148" r="21.975"/>
	<circle style="fill:#B3E4E8;" cx="397.741" cy="45.014" r="35.159"/>
	<circle style="fill:#B3E4E8;" cx="166.998" cy="176.853" r="35.159"/>
	<circle style="fill:#B3E4E8;" cx="43.941" cy="212.013" r="35.159"/>
	<circle style="fill:#B3E4E8;" cx="105.469" cy="159.274" r="52.739"/>
	<circle style="fill:#B3E4E8;" cx="345.002" cy="431.759" r="35.159"/>
	<circle style="fill:#B3E4E8;" cx="468.06" cy="396.6" r="35.159"/>
	<circle style="fill:#B3E4E8;" cx="406.531" cy="449.339" r="52.739"/>
</g>
<g>
	<rect id="SVGCleanerId_0_2_" x="140.629" y="291.121" width="17.58" height="17.58"/>
</g>
<rect x="105.469" y="273.542" width="17.58" height="17.58"/>
<g>
	<rect id="SVGCleanerId_1_2_" x="79.1" y="299.911" width="17.58" height="17.58"/>
</g>
<rect x="316.426" y="212.013" width="17.58" height="17.58"/>
<g>
	<rect id="SVGCleanerId_2_2_" x="351.585" y="229.592" width="17.58" height="17.58"/>
</g>
<rect x="377.955" y="203.223" width="17.58" height="17.58"/>
<g>
	<rect id="SVGCleanerId_3_2_" x="283.473" y="379.02" width="17.58" height="17.58"/>
</g>
<rect x="318.632" y="361.44" width="17.58" height="17.58"/>
<g>
	<rect id="SVGCleanerId_4_2_" x="353.792" y="291.121" width="17.58" height="17.58"/>
</g>
<rect x="274.683" y="282.332" width="17.58" height="17.58"/>
<g>
	<rect id="SVGCleanerId_5_2_" x="184.578" y="387.81" width="17.58" height="17.58"/>
</g>
<rect x="140.629" y="370.23" width="17.58" height="17.58"/>
<g>
	<rect id="SVGCleanerId_6_1_" x="96.68" y="396.6" width="17.58" height="17.58"/>
</g>
<g>
	<path id="SVGCleanerId_7_1_" d="M274.674,102.148c0,16.991,13.774,30.764,30.764,30.764c16.991,0,30.764-13.774,30.764-30.764
		s-13.774-30.764-30.764-30.764C288.448,71.384,274.674,85.158,274.674,102.148z M318.623,102.148
		c0,7.278-5.907,13.185-13.185,13.185c-7.278,0-13.185-5.907-13.185-13.185c0-7.278,5.907-13.185,13.185-13.185l0,0
		C312.725,88.964,318.623,94.87,318.623,102.148z"/>
</g>
<g>
	<path id="SVGCleanerId_8_1_" d="M397.732,1.065c-24.269,0-43.949,19.68-43.949,43.949s19.68,43.949,43.949,43.949
		c24.269,0,43.949-19.68,43.949-43.949C441.655,20.754,421.992,1.1,397.732,1.065z M397.732,71.384
		c-14.565,0-26.37-11.805-26.37-26.37s11.805-26.37,26.37-26.37c14.565,0,26.37,11.805,26.37,26.37S412.297,71.384,397.732,71.384z"
		/>
</g>
<g>
	<path id="SVGCleanerId_9_1_" d="M26.721,252.455c-0.105,1.758-0.36,3.516-0.36,5.274v100.02c0,49.513,40.143,89.656,89.656,89.656
		l0,0c3.718,0,7.427-0.229,11.11-0.686l110.031-13.756c5.933-0.738,11.945-0.738,17.879,0l46.709,5.836
		c2.927,23.144,24.058,39.537,47.21,36.61c0.624-0.079,1.239-0.167,1.855-0.272c14.16,30.826,50.63,44.336,81.456,30.176
		c21.852-10.038,35.845-31.916,35.783-55.965c-0.044-2.971-0.308-5.933-0.782-8.869c0.264,0,0.51,0.079,0.782,0.079
		c24.269,0,43.949-19.68,43.949-43.949c0-24.269-19.68-43.949-43.949-43.949c-0.756,0-1.468,0.185-2.215,0.22v-84.936v-10.214
		c-0.009-49.513-40.152-89.648-89.665-89.639c-3.709,0-7.41,0.229-11.093,0.686l-110.023,13.756c-5.942,0.738-11.954,0.738-17.896,0
		l-26.449-3.305c0.044-0.8,0.237-1.556,0.237-2.364c0.202-24.067-19.144-43.747-43.211-43.949c-2.189-0.018-4.377,0.132-6.548,0.439
		c-14.064-30.852-50.471-44.459-81.324-30.395c-25.007,11.4-39.387,38.016-35.212,65.177c-0.272,0-0.475-0.062-0.712-0.062
		c-24.269,0-43.949,19.68-43.94,43.958C0,229.645,10.522,245.555,26.721,252.455z M302.485,421.22l-45.259-5.661
		c-7.383-0.923-14.855-0.923-22.238,0l-110.031,13.703c-39.502,4.94-75.522-23.082-80.462-62.584
		c-0.36-2.953-0.554-5.942-0.554-8.93v-36.531c19.241,26.053,51.06,39.695,83.196,35.652l110.023-13.747
		c5.942-0.738,11.954-0.738,17.896,0l110.023,13.747c32.136,4.043,63.955-9.599,83.196-35.652v26.37v10.02
		c-12.851,6.522-21.667,18.96-23.574,33.243c-17.518-5.195-36.425-2.558-51.86,7.225c-18.406-15.47-45.857-13.088-61.327,5.318
		c-4.333,5.16-7.41,11.251-8.992,17.791L302.485,421.22z M344.993,458.137c-14.565,0-26.37-11.805-26.37-26.37
		s11.805-26.37,26.37-26.37s26.37,11.805,26.37,26.37S359.558,458.137,344.993,458.137z M406.522,493.297
		c-16.499,0.009-31.608-9.238-39.106-23.935c13.299-7.858,21.482-22.142,21.526-37.594c-0.044-6.988-1.784-13.87-5.063-20.041
		c13.088-7.568,29.086-8.087,42.64-1.389c3.621,10.926,11.392,19.988,21.632,25.227c7.761,22.845-4.474,47.659-27.319,55.411
		C416.226,492.55,411.391,493.332,406.522,493.297z M468.051,370.239c14.565,0,26.37,11.805,26.37,26.37
		c0,14.565-11.805,26.37-26.37,26.37s-26.37-11.805-26.37-26.37C441.681,382.044,453.495,370.239,468.051,370.239z M206.175,196.376
		l28.804,3.595c7.392,0.932,14.864,0.932,22.256,0l110.023-13.756c39.502-4.94,75.522,23.082,80.462,62.584
		c0.369,2.962,0.554,5.951,0.554,8.93v10.17c0.026,39.809-32.215,72.103-72.024,72.13c-3.006,0-6.012-0.185-8.992-0.554
		l-110.023-13.8c-7.392-0.923-14.864-0.923-22.256,0l-110.023,13.8c-39.502,4.94-75.522-23.082-80.462-62.584
		c-0.369-2.98-0.563-5.986-0.554-8.983v-10.179c0-0.589,0.105-1.187,0.123-1.758c21.825-0.132,40.24-16.279,43.22-37.902
		c17.483,5.423,36.478,2.742,51.781-7.296c18.591,15.4,46.147,12.807,61.547-5.784c2.189-2.637,4.052-5.529,5.564-8.605
		L206.175,196.376z M166.998,159.282c-0.018-2.927-0.255-5.845-0.694-8.737c0.237,0,0.457-0.053,0.694-0.053
		c14.565,0,26.37,11.805,26.37,26.37c0,14.565-11.805,26.37-26.37,26.37c-5.133-0.035-10.152-1.591-14.407-4.465
		C161.909,187.718,167.007,173.733,166.998,159.282z M105.469,115.333c24.269,0,43.949,19.68,43.949,43.949
		s-19.68,43.949-43.949,43.949s-43.949-19.68-43.949-43.949C61.555,135.022,81.21,115.368,105.469,115.333z M43.941,185.652
		c2.18,0.026,4.342,0.325,6.452,0.879c4.685,9.432,11.69,17.509,20.357,23.478c-0.229,0.65-0.378,1.327-0.439,2.013
		c0,14.565-11.805,26.37-26.37,26.37s-26.37-11.805-26.37-26.37S29.385,185.652,43.941,185.652z"/>
</g>
<g>
</g>
<g>
</g>
<g>
</g>
<g>
</g>
<g>
</g>
<g>
</g>
<g>
</g>
<g>
</g>
<g>
</g>
<g>
</g>
<g>
</g>
<g>
</g>
<g>
</g>
<g>
</g>
<g>
</g>
</svg>
