<?xml version="1.0" encoding="iso-8859-1"?>
<!-- Generator: Adobe Illustrator 21.0.0, SVG Export Plug-In . SVG Version: 6.00 Build 0)  -->
<svg xmlns="http://www.w3.org/2000/svg" xmlns:xlink="http://www.w3.org/1999/xlink" version="1.1" id="Capa_1" x="0px" y="0px" viewBox="0 0 512 512" style="enable-background:new 0 0 512 512;" xml:space="preserve" width="512" height="512">
<g>
	<path style="fill:#CFE0E9;" d="M336,424.5c0,44.18-35.82,80-80,80s-80-35.82-80-80c0-27.06,13.44-50.98,34-65.46V53.5   c0-25.41,20.59-46,46-46c12.7,0,24.2,5.15,32.53,13.47C296.85,29.3,302,40.8,302,53.5v305.54C322.56,373.52,336,397.44,336,424.5z"/>
	<path style="fill:#ABBFCF;" d="M336,424.5c0,44.18-35.82,80-80,80c-5.13,0-10.14-0.5-15-1.43c37.01-7.02,65-39.52,65-78.57   c0-0.42-0.01-0.84-0.02-1.26c-0.4-15.78-8.28-30.53-21.25-39.67L272,374.61V53.5c0-12.7-5.15-24.2-13.47-32.53   c-4.88-4.88-10.87-8.66-17.53-10.96c4.7-1.62,9.74-2.51,15-2.51c12.7,0,24.2,5.15,32.53,13.47C296.85,29.3,302,40.8,302,53.5   v305.54C322.56,373.52,336,397.44,336,424.5z"/>
	<path style="fill:#8CF2FF;" d="M256,474.5c-27.57,0-50-22.43-50-50c0-16.249,7.953-31.551,21.273-40.932L240,374.605V53.5   c0-8.822,7.178-16,16-16c4.274,0,8.298,1.668,11.33,4.696c3.002,3.006,4.67,7.03,4.67,11.304v321.105l12.727,8.962   C298.047,392.949,306,408.251,306,424.5C306,452.07,283.57,474.5,256,474.5z"/>
	<g>
		<circle style="fill:#FFD659;" cx="489.5" cy="116.998" r="15"/>
		<circle style="fill:#FFD659;" cx="22.5" cy="262.162" r="15"/>
	</g>
	<g>
		<circle style="fill:#FFD659;" cx="73" cy="33" r="15"/>
	</g>
	<g>
		<circle style="fill:#FFD659;" cx="439" cy="431.685" r="15"/>
	</g>
	<g>
		<circle style="fill:#FFD659;" cx="73" cy="404.67" r="15"/>
	</g>
	<path style="fill:#FF663B;" d="M284.727,383.568L272,374.605V196.846h-32v177.759l-12.727,8.962   C213.953,392.949,206,408.251,206,424.5c0,27.57,22.43,50,50,50s50-22.43,50-50C306,408.251,298.047,392.949,284.727,383.568z"/>
	<circle style="fill:#FFD659;" cx="363" cy="206.26" r="15"/>
	<g>
		<path d="M489.5,94.498c-9.777,0-18.114,6.271-21.21,15H309.5V53.5c0-14.281-5.563-27.716-15.67-37.836    C283.718,5.563,270.282,0,256,0c-29.5,0-53.5,24-53.5,53.5v74.167c0,4.142,3.357,7.5,7.5,7.5s7.5-3.358,7.5-7.5V53.5    c0-21.229,17.271-38.5,38.5-38.5c10.279,0,19.95,4.005,27.224,11.27c7.271,7.281,11.276,16.952,11.276,27.23v242.167    c0,4.142,3.357,7.5,7.5,7.5s7.5-3.358,7.5-7.5V291.5h122v118.975c-8.729,3.096-15,11.432-15,21.21c0,12.407,10.094,22.5,22.5,22.5    s22.5-10.093,22.5-22.5c0-9.777-6.271-18.114-15-21.21V284c0-4.142-3.357-7.5-7.5-7.5H309.5v-62.74h32.29    c3.096,8.729,11.433,15,21.21,15c12.406,0,22.5-10.093,22.5-22.5s-10.094-22.5-22.5-22.5c-9.777,0-18.114,6.271-21.21,15H309.5    v-74.262h158.79c3.096,8.729,11.433,15,21.21,15c12.406,0,22.5-10.093,22.5-22.5S501.906,94.498,489.5,94.498z M439,439.185    c-4.136,0-7.5-3.364-7.5-7.5s3.364-7.5,7.5-7.5s7.5,3.364,7.5,7.5S443.136,439.185,439,439.185z M363,198.76    c4.136,0,7.5,3.364,7.5,7.5s-3.364,7.5-7.5,7.5s-7.5-3.364-7.5-7.5S358.864,198.76,363,198.76z M489.5,124.498    c-4.136,0-7.5-3.364-7.5-7.5s3.364-7.5,7.5-7.5s7.5,3.364,7.5,7.5S493.636,124.498,489.5,124.498z"/>
		<path d="M309.5,355.258v-27.591c0-4.142-3.357-7.5-7.5-7.5s-7.5,3.358-7.5,7.5v31.374c0,2.44,1.187,4.727,3.182,6.132    c19.298,13.591,30.818,35.77,30.818,59.328c0,39.977-32.523,72.5-72.5,72.5s-72.5-32.523-72.5-72.5    c0-23.559,11.521-45.737,30.818-59.328c1.995-1.405,3.182-3.692,3.182-6.132V158.79c0-4.142-3.357-7.5-7.5-7.5s-7.5,3.358-7.5,7.5    v14.395h-122V54.21c8.729-3.096,15-11.432,15-21.21c0-12.407-10.094-22.5-22.5-22.5S50.5,20.593,50.5,33    c0,9.777,6.271,18.114,15,21.21v126.475c0,4.142,3.357,7.5,7.5,7.5h129.5v66.477H43.71c-3.096-8.729-11.433-15-21.21-15    c-12.406,0-22.5,10.093-22.5,22.5s10.094,22.5,22.5,22.5c9.777,0,18.114-6.271,21.21-15H202.5v31.166H73    c-4.143,0-7.5,3.358-7.5,7.5v75.133c-8.729,3.096-15,11.432-15,21.21c0,12.407,10.094,22.5,22.5,22.5s22.5-10.093,22.5-22.5    c0-9.777-6.271-18.114-15-21.21v-67.633h122v39.43c-21.36,16.536-34,42.131-34,69.242c0,48.248,39.252,87.5,87.5,87.5    s87.5-39.252,87.5-87.5C343.5,397.389,330.86,371.793,309.5,355.258z M73,25.5c4.136,0,7.5,3.364,7.5,7.5s-3.364,7.5-7.5,7.5    s-7.5-3.364-7.5-7.5S68.864,25.5,73,25.5z M22.5,269.662c-4.136,0-7.5-3.364-7.5-7.5s3.364-7.5,7.5-7.5s7.5,3.364,7.5,7.5    S26.636,269.662,22.5,269.662z M73,412.17c-4.136,0-7.5-3.364-7.5-7.5s3.364-7.5,7.5-7.5s7.5,3.364,7.5,7.5    S77.136,412.17,73,412.17z"/>
		<path d="M279.5,53.5c0-6.276-2.438-12.172-6.87-16.611C268.181,32.446,262.275,30,256,30c-12.958,0-23.5,10.542-23.5,23.5v317.214    l-9.545,6.722C207.642,388.221,198.5,405.815,198.5,424.5c0,6.453,1.067,12.794,3.173,18.847c1.361,3.913,5.638,5.98,9.548,4.62    c3.912-1.361,5.98-5.635,4.62-9.547c-1.554-4.465-2.341-9.148-2.341-13.919c0-13.812,6.764-26.822,18.092-34.8l12.727-8.962    c1.995-1.405,3.182-3.692,3.182-6.132V204.347h17v170.259c0,2.44,1.187,4.727,3.182,6.132l12.727,8.962    c11.328,7.979,18.092,20.988,18.092,34.8c0,23.435-19.065,42.5-42.5,42.5c-8.418,0-16.56-2.467-23.544-7.136    c-3.442-2.301-8.101-1.376-10.403,2.068c-2.302,3.443-1.376,8.101,2.067,10.403C233.58,478.658,244.604,482,256,482    c31.706,0,57.5-25.794,57.5-57.5c0-18.685-9.142-36.279-24.455-47.064l-9.545-6.722V53.5z M247.5,189.347V53.5    c0-4.687,3.813-8.5,8.5-8.5c2.272,0,4.414,0.889,6.023,2.496c1.597,1.599,2.477,3.731,2.477,6.004v135.847H247.5z"/>
	</g>
</g>















</svg>
