<?xml version="1.0" encoding="UTF-8"?>
<!DOCTYPE svg PUBLIC "-//W3C//DTD SVG 1.1//EN" "http://www.w3.org/Graphics/SVG/1.1/DTD/svg11.dtd">
<svg version="1.1" xmlns="http://www.w3.org/2000/svg" x="0" y="0" width="512.004" height="512.004"
     viewBox="0, 0, 512.004, 512.004">
  <g id="Background">
    <rect x="0" y="0" width="512.004" height="512.004" fill="#000000" fill-opacity="0"/>
  </g>
  <g id="Layer_1">
    <path d="M509.502,25.744 L486.214,2.457 C483.014,-0.743 477.348,-0.743 474.148,2.457 L404.277,72.328 C400.941,75.664 400.941,81.058 404.277,84.394 L427.564,107.681 C429.16,109.285 431.336,110.181 433.597,110.181 C435.858,110.181 438.026,109.285 439.63,107.681 L509.501,37.81 C512.838,34.474 512.838,29.081 509.502,25.744 z M433.598,89.582 L422.377,78.361 L480.182,20.556 L491.403,31.777 L433.598,89.582 z" fill="#000000"/>
    <path d="M445.033,101.025 L410.934,66.926 C400.95,56.942 384.72,56.942 374.736,66.926 L363.506,78.147 C361.902,79.743 361.006,81.91 361.006,84.18 C361.006,86.441 361.902,88.609 363.506,90.213 L421.738,148.444 C423.334,150.048 425.51,150.944 427.771,150.944 C430.041,150.944 432.208,150.039 433.813,148.444 L445.034,137.223 C455.017,127.239 455.017,111.009 445.033,101.025 z M432.958,125.149 L427.77,130.337 L381.613,84.172 L386.801,78.984 C390.129,75.673 395.539,75.656 398.867,78.984 L432.958,113.083 C436.286,116.411 436.286,121.821 432.958,125.149 z" fill="#000000"/>
    <path d="M438.155,140.722 L371.22,73.787 C358.326,60.893 341.191,53.793 322.955,53.793 C304.728,53.793 287.593,60.893 274.699,73.787 L223.764,124.722 C222.16,126.318 221.264,128.485 221.264,130.755 C221.264,133.025 222.16,135.184 223.764,136.788 L375.154,288.186 C376.818,289.85 379.003,290.686 381.187,290.686 C383.372,290.686 385.556,289.85 387.22,288.186 L438.155,237.251 C464.762,210.636 464.762,167.329 438.155,140.722 z M426.089,225.185 L381.187,270.087 L241.862,130.755 L286.764,85.861 C296.432,76.193 309.283,70.868 322.954,70.868 C336.633,70.868 349.484,76.193 359.152,85.861 L426.087,152.796 C446.039,172.748 446.039,205.226 426.089,225.185 z" fill="#000000"/>
    <path d="M426.024,225.178 L381.122,270.08 L241.797,130.748 L286.699,85.854 C296.367,76.186 309.218,70.861 322.889,70.861 C336.568,70.861 349.419,76.186 359.087,85.854 L426.022,152.789 C445.974,172.741 445.974,205.219 426.024,225.178 z" fill="#2196F3"/>
    <path d="M369.76,118.911 L346.464,95.606 C333.502,82.652 312.433,82.652 299.48,95.606 L276.184,118.911 C272.847,122.248 272.847,127.641 276.184,130.977 C279.521,134.313 284.922,134.313 288.25,130.977 L311.546,107.672 C317.852,101.374 328.101,101.374 334.398,107.672 L357.694,130.977 C359.358,132.641 361.543,133.477 363.727,133.477 C365.903,133.477 368.087,132.641 369.76,130.977 C373.096,127.641 373.096,122.247 369.76,118.911 z" fill="#000000"/>
    <path d="M107.727,427.51 L84.44,404.223 C82.844,402.619 80.668,401.723 78.407,401.723 C76.146,401.723 73.978,402.619 72.374,404.223 L2.502,474.094 C-0.834,477.431 -0.834,482.824 2.502,486.16 L25.789,509.447 C27.385,511.051 29.561,511.947 31.822,511.947 C34.092,511.947 36.259,511.051 37.855,509.447 L107.726,439.576 C111.063,436.24 111.063,430.847 107.727,427.51 z M31.823,491.348 L20.602,480.127 L78.407,422.322 L89.628,433.543 L31.823,491.348 z" fill="#000000"/>
    <path d="M148.482,421.699 L90.251,363.468 C88.655,361.864 86.479,360.968 84.218,360.968 C81.957,360.968 79.789,361.864 78.185,363.468 L66.964,374.689 C56.98,384.673 56.98,400.903 66.964,410.887 L101.063,444.986 C106.055,449.978 112.609,452.47 119.162,452.47 C125.715,452.47 132.269,449.978 137.253,444.986 L148.483,433.765 C150.087,432.169 150.983,430.002 150.983,427.732 C150.982,425.471 150.086,423.304 148.482,421.699 z M125.212,432.912 C121.884,436.223 116.474,436.24 113.146,432.912 L79.047,398.813 C75.719,395.485 75.719,390.075 79.047,386.747 L84.235,381.559 L130.4,427.724 L125.212,432.912 z" fill="#000000"/>
    <path d="M299.881,363.451 L148.491,212.061 C145.291,208.861 139.625,208.861 136.425,212.061 L73.842,274.644 C47.235,301.259 47.235,344.566 73.842,371.173 L140.777,438.108 C153.671,451.002 170.806,458.102 189.042,458.102 C207.278,458.102 224.413,451.002 237.307,438.1 L299.882,375.517 C303.217,372.18 303.217,366.787 299.881,363.451 z M225.231,426.043 C215.563,435.711 202.712,441.036 189.041,441.036 C175.362,441.036 162.511,435.711 152.843,426.043 L85.908,359.108 C65.957,339.157 65.957,306.679 85.908,286.72 L142.458,230.17 L281.773,369.494 L225.231,426.043 z" fill="#000000"/>
    <path d="M225.231,426.043 C215.563,435.711 202.712,441.036 189.041,441.036 C175.362,441.036 162.511,435.711 152.843,426.043 L85.908,359.108 C65.957,339.157 65.957,306.679 85.908,286.72 L142.458,230.17 L281.773,369.494 L225.231,426.043 z" fill="#2296F3"/>
    <path d="M247.494,182.962 C238.039,173.516 221.57,173.507 212.132,182.962 L159.72,235.365 C158.116,236.961 157.22,239.128 157.22,241.398 C157.22,243.668 158.116,245.827 159.72,247.431 L183.007,270.718 C184.671,272.382 186.856,273.218 189.04,273.218 C191.224,273.218 193.409,272.382 195.09,270.718 L247.493,218.315 C252.212,213.596 254.815,207.315 254.815,200.634 C254.815,193.953 252.213,187.681 247.494,182.962 z M235.403,206.241 L189.033,252.611 L177.812,241.39 L224.182,195.02 C227.177,192.016 232.4,192.016 235.403,195.029 C236.896,196.522 237.724,198.511 237.724,200.627 C237.724,202.751 236.905,204.739 235.403,206.241 z" fill="#000000"/>
    <path d="M329.005,264.473 C319.251,254.719 303.396,254.711 293.643,264.473 L241.24,316.876 C239.636,318.472 238.74,320.639 238.74,322.909 C238.74,325.179 239.636,327.338 241.24,328.942 L264.527,352.229 C266.191,353.893 268.376,354.729 270.56,354.729 C272.745,354.729 274.929,353.901 276.593,352.237 L329.005,299.834 C338.75,290.081 338.75,274.226 329.005,264.473 z M316.93,287.76 L270.56,334.13 L259.339,322.909 L305.709,276.539 C308.713,273.535 313.935,273.535 316.93,276.539 C320.019,279.628 320.019,284.671 316.93,287.76 z" fill="#000000"/>
    <path d="M253.297,363.459 L148.491,258.653 C145.155,255.316 139.761,255.316 136.425,258.653 L89.842,305.236 C86.505,308.573 86.505,313.966 89.842,317.302 L194.657,422.108 C196.321,423.772 198.506,424.608 200.69,424.608 C202.866,424.608 205.051,423.772 206.715,422.108 L253.298,375.525 C256.634,372.189 256.634,366.796 253.297,363.459 z M200.681,404.01 L107.941,311.27 L142.458,276.753 L235.198,369.493 L200.681,404.01 z" fill="#000000"/>
    <path d="M195.074,351.82 L160.139,316.876 C156.802,313.54 151.409,313.539 148.073,316.876 C144.737,320.213 144.737,325.606 148.073,328.942 L183.008,363.886 C184.672,365.55 186.857,366.386 189.041,366.386 C191.225,366.386 193.41,365.55 195.074,363.886 C198.411,360.549 198.411,355.156 195.074,351.82 z" fill="#000000"/>
  </g>
</svg>
