<?xml version="1.0" encoding="iso-8859-1"?>
<!-- Generator: Adobe Illustrator 19.0.0, SVG Export Plug-In . SVG Version: 6.00 Build 0)  -->
<svg version="1.1" id="Capa_1" xmlns="http://www.w3.org/2000/svg" xmlns:xlink="http://www.w3.org/1999/xlink" x="0px" y="0px"
	 viewBox="0 0 511.847 511.847" style="enable-background:new 0 0 511.847 511.847;" xml:space="preserve">
<path style="fill:#455A64;" d="M509.784,223.921c-1.603-12.751-8.972-24.061-19.989-30.677c-10.875-6.539-24.153-7.719-36.011-3.2
	c-10.23,3.501-21.422-1.526-25.6-11.499c-5.212-11.625-11.58-22.695-19.008-33.045c-6.665-8.599-5.407-20.915,2.859-27.989
	c9.74-8.017,15.248-20.071,14.933-32.683c-0.245-12.867-6.397-24.905-16.683-32.64c-16.93-12.908-35.405-23.65-54.997-31.979
	c-11.879-5.067-25.429-4.383-36.736,1.856c-11.068,6.059-18.726,16.88-20.757,29.333c-1.995,10.747-12.114,18.005-22.933,16.448
	c-12.588-1.312-25.279-1.312-37.867,0c-10.822,1.568-20.949-5.695-22.933-16.448c-2.032-12.453-9.69-23.275-20.757-29.333
	c-11.306-6.242-24.858-6.926-36.736-1.856c-19.662,8.277-38.21,18.985-55.211,31.872C91.078,59.812,84.926,71.841,84.675,84.7
	c-0.283,12.64,5.263,24.708,15.04,32.725c8.269,7.075,9.519,19.399,2.837,27.989c-7.43,10.348-13.798,21.42-19.008,33.045
	c-4.264,9.999-15.568,14.959-25.813,11.328c-11.799-4.443-24.984-3.232-35.776,3.285c-11.028,6.672-18.37,18.05-19.904,30.848
	c-2.735,21.246-2.735,42.754,0,64c1.603,12.751,8.972,24.061,19.989,30.677c10.87,6.555,24.155,7.736,36.011,3.2
	c10.231-3.523,21.438,1.511,25.6,11.499c5.209,11.626,11.577,22.697,19.008,33.045c6.665,8.599,5.407,20.915-2.859,27.989
	c-9.74,8.017-15.248,20.071-14.933,32.683c0.245,12.867,6.397,24.905,16.683,32.64c16.995,12.884,35.536,23.591,55.189,31.872
	c11.879,5.067,25.429,4.383,36.736-1.856c11.068-6.059,18.726-16.88,20.757-29.333c2.014-10.734,12.12-17.982,22.933-16.448
	c12.588,1.312,25.279,1.312,37.867,0c10.813-1.534,20.919,5.714,22.933,16.448c2.032,12.453,9.69,23.275,20.757,29.333
	c6.191,3.424,13.149,5.223,20.224,5.227c5.674-0.008,11.289-1.154,16.512-3.371c19.654-8.279,38.195-18.986,55.189-31.872
	c10.279-7.73,16.432-19.759,16.683-32.619c0.283-12.64-5.263-24.708-15.04-32.725c-8.263-7.066-9.521-19.376-2.859-27.968
	c7.439-10.347,13.814-21.418,19.029-33.045c4.202-9.949,15.372-14.966,25.6-11.499h0.235c11.797,4.459,24.989,3.248,35.776-3.285
	c10.89-6.66,18.147-17.923,19.712-30.592c2.749-21.302,2.75-42.869,0-64.171V223.921z M255.918,362.588
	c-58.91,0-106.667-47.756-106.667-106.667s47.756-106.667,106.667-106.667s106.667,47.756,106.667,106.667
	C362.514,314.802,314.799,362.517,255.918,362.588z"/>
<path d="M338.755,495.004c-7.075-0.004-14.033-1.802-20.224-5.227c-11.068-6.059-18.726-16.88-20.757-29.333
	c-2.024-10.728-12.123-17.971-22.933-16.448c-12.588,1.312-25.279,1.312-37.867,0c-10.813-1.534-20.919,5.714-22.933,16.448
	c-2.032,12.453-9.69,23.275-20.757,29.333c-11.307,6.239-24.857,6.923-36.736,1.856c-19.654-8.281-38.194-18.988-55.189-31.872
	c-10.285-7.735-16.438-19.773-16.683-32.64c-0.315-12.611,5.193-24.666,14.933-32.683c8.266-7.074,9.524-19.391,2.859-27.989
	c-7.431-10.348-13.799-21.419-19.008-33.045c-4.162-9.988-15.369-15.022-25.6-11.499c-11.856,4.536-25.14,3.355-36.011-3.2
	c-10.971-6.682-18.269-18.029-19.797-30.784c-2.735-21.246-2.735-42.754,0-64c1.597-12.759,8.967-24.077,19.989-30.699
	c10.747-6.54,23.894-7.805,35.691-3.435c10.275,3.634,21.602-1.37,25.835-11.413c5.21-11.626,11.578-22.697,19.008-33.045
	c6.681-8.59,5.432-20.915-2.837-27.989c-9.777-8.017-15.323-20.085-15.04-32.725c0.251-12.859,6.403-24.888,16.683-32.619
	c16.999-12.856,35.539-23.534,55.189-31.787c11.878-5.07,25.43-4.386,36.736,1.856c11.068,6.059,18.726,16.88,20.757,29.333
	c1.974,10.76,12.109,18.028,22.933,16.448c12.588-1.312,25.279-1.312,37.867,0c10.819,1.557,20.939-5.701,22.933-16.448
	c2.032-12.453,9.69-23.275,20.757-29.333c11.307-6.239,24.857-6.923,36.736-1.856c19.654,8.281,38.194,18.988,55.189,31.872
	c10.285,7.735,16.438,19.773,16.683,32.64c0.315,12.611-5.193,24.666-14.933,32.683c-8.266,7.074-9.524,19.39-2.859,27.989
	c7.428,10.35,13.796,21.421,19.008,33.045c4.17,9.98,15.37,15.011,25.6,11.499c11.858-4.519,25.135-3.339,36.011,3.2
	c10.971,6.682,18.269,18.029,19.797,30.784c2.749,21.302,2.75,42.869,0,64.171c-1.597,12.759-8.966,24.077-19.989,30.699
	c-10.787,6.533-23.979,7.745-35.776,3.285h-0.235c-10.229-3.478-21.406,1.542-25.6,11.499
	c-5.215,11.627-11.591,22.698-19.029,33.045c-6.663,8.592-5.404,20.902,2.859,27.968c9.777,8.017,15.323,20.085,15.04,32.725
	c-0.251,12.859-6.403,24.888-16.683,32.619c-16.994,12.886-35.535,23.593-55.189,31.872
	C349.973,493.951,344.389,495.038,338.755,495.004z M277.422,422.471c20.411-0.355,38.01,14.277,41.387,34.411
	c0.983,6.002,4.673,11.219,10.005,14.144c5.595,3.066,12.29,3.389,18.155,0.875c18.014-7.584,35.007-17.396,50.581-29.205
	c5.074-3.799,8.112-9.726,8.235-16.064c0.144-6.105-2.532-11.936-7.253-15.808c-17.037-14.158-19.957-39.198-6.635-56.896
	c6.602-9.175,12.255-18.996,16.875-29.312c8.761-20.21,31.675-30.185,52.437-22.827h0.128c5.752,2.257,12.228,1.705,17.515-1.493
	c5.422-3.265,9.041-8.843,9.813-15.125c2.527-19.495,2.527-39.235,0-58.731c-0.772-6.282-4.391-11.86-9.813-15.125
	c-5.204-3.153-11.569-3.735-17.259-1.579c-20.833,7.57-43.961-2.36-52.821-22.677c-4.616-10.313-10.263-20.134-16.853-29.312
	c-13.327-17.693-10.417-42.732,6.613-56.896c4.732-3.866,7.417-9.699,7.275-15.808c-0.129-6.33-3.167-12.248-8.235-16.043
	c-15.573-11.777-32.559-21.559-50.56-29.12c-5.868-2.534-12.578-2.211-18.176,0.875c-5.333,2.925-9.023,8.142-10.005,14.144
	c-3.732,21.943-24.137,37.016-46.208,34.133c-11.107-1.145-22.301-1.145-33.408,0c-22.074,2.894-42.486-12.184-46.208-34.133
	c-0.983-6.002-4.673-11.219-10.005-14.144c-5.592-3.079-12.293-3.402-18.155-0.875c-18.014,7.584-35.007,17.396-50.581,29.205
	c-5.074,3.799-8.112,9.726-8.235,16.064c-0.144,6.105,2.532,11.936,7.253,15.808c17.001,14.153,19.91,39.154,6.613,56.832
	c-6.586,9.181-12.232,19.001-16.853,29.312c-8.789,20.252-31.767,30.23-52.565,22.827c-5.748-2.237-12.208-1.685-17.493,1.493
	c-5.422,3.265-9.041,8.843-9.813,15.125c-2.527,19.495-2.527,39.235,0,58.731c0.772,6.282,4.391,11.86,9.813,15.125
	c5.202,3.159,11.57,3.742,17.259,1.579c20.833-7.569,43.961,2.36,52.821,22.677c4.62,10.312,10.266,20.132,16.853,29.312
	c13.338,17.69,10.427,42.738-6.613,56.896c-4.732,3.866-7.416,9.699-7.275,15.808c0.129,6.33,3.167,12.248,8.235,16.043
	c15.567,11.821,32.552,21.647,50.56,29.248c5.871,2.518,12.574,2.195,18.176-0.875c5.333-2.925,9.023-8.142,10.005-14.144
	c3.732-21.943,24.137-37.016,46.208-34.133c11.107,1.145,22.301,1.145,33.408,0c1.601-0.173,3.211-0.258,4.821-0.256
	L277.422,422.471z"/>
<path d="M255.918,362.588c-58.91,0-106.667-47.756-106.667-106.667s47.756-106.667,106.667-106.667s106.667,47.756,106.667,106.667
	C362.514,314.802,314.799,362.517,255.918,362.588z M255.918,170.588c-47.128,0-85.333,38.205-85.333,85.333
	s38.205,85.333,85.333,85.333s85.333-38.205,85.333-85.333S303.046,170.588,255.918,170.588z"/>
<g>
</g>
<g>
</g>
<g>
</g>
<g>
</g>
<g>
</g>
<g>
</g>
<g>
</g>
<g>
</g>
<g>
</g>
<g>
</g>
<g>
</g>
<g>
</g>
<g>
</g>
<g>
</g>
<g>
</g>
</svg>
