<?xml version="1.0" encoding="UTF-8" standalone="no"?>
<svg
   viewBox="0 0 24 24"
   version="1.1"
   id="svg826"
   sodipodi:docname="jira.svg"
   inkscape:version="1.1.2 (b8e25be8, 2022-02-05)"
   xmlns:inkscape="http://www.inkscape.org/namespaces/inkscape"
   xmlns:sodipodi="http://sodipodi.sourceforge.net/DTD/sodipodi-0.dtd"
   xmlns="http://www.w3.org/2000/svg"
   xmlns:svg="http://www.w3.org/2000/svg">
  <defs
     id="defs830" />
  <sodipodi:namedview
     id="namedview828"
     pagecolor="#ffffff"
     bordercolor="#666666"
     borderopacity="1.0"
     inkscape:pageshadow="2"
     inkscape:pageopacity="0.0"
     inkscape:pagecheckerboard="0"
     showgrid="false"
     inkscape:zoom="35.291667"
     inkscape:cx="12"
     inkscape:cy="12"
     inkscape:window-width="1920"
     inkscape:window-height="1027"
     inkscape:window-x="1728"
     inkscape:window-y="25"
     inkscape:window-maximized="1"
     inkscape:current-layer="svg826" />
  <path
     d="m 11.621892,3.9551357 c 0,1.9307675 1.584838,3.499516 3.499515,3.499516 h 1.431986 v 1.367627 c 0,1.9307673 1.560704,3.4914703 3.491471,3.4995163 V 4.6309044 A 0.67576859,0.67576859 0 0 0 19.369096,3.9551357 Z M 7.792536,7.8166706 a 3.5075608,3.5075608 0 0 0 3.491471,3.4914704 h 1.448076 v 1.383718 a 3.5075608,3.5075608 0 0 0 3.49147,3.49147 V 8.4843943 A 0.67576859,0.67576859 0 0 0 15.55583,7.8166706 Z M 3.9551357,11.678205 c 0,1.930768 1.5687486,3.491472 3.499516,3.491472 h 1.4319859 v 1.383716 c 0.00805,1.922723 1.5687484,3.491471 3.4914704,3.491471 V 12.345929 A 0.67576859,0.67576859 0 0 0 11.70234,11.67016 Z"
     id="path824"
     style="stroke-width:0.804486" />
</svg>
