<svg height="512" viewBox="0 0 128 128" width="512" xmlns="http://www.w3.org/2000/svg"><g><g><rect fill="#ffb32c" height="9.029" rx="4.182" width="55.421" x="36.39" y="19"/><rect fill="#ffb32c" height="9.029" rx="4.182" width="55.421" x="36.39" y="99.971"/><path d="m42.1 39.02a22.4 22.4 0 0 0 11.36 19.49l2.682 1.519a4.564 4.564 0 0 1 0 7.942l-2.682 1.519a22.4 22.4 0 0 0 -11.36 19.49v10.991h44v-10.991a22.4 22.4 0 0 0 -11.358-19.49l-2.683-1.519a4.565 4.565 0 0 1 0-7.942l2.683-1.519a22.4 22.4 0 0 0 11.358-19.49v-10.991h-44z" fill="#f9f2d4"/><g fill="#f68e5f"><path d="m71.292 75.581-7.192-4.074-7.19 4.074a15.425 15.425 0 0 0 -7.81 13.399v3.991h30v-3.991a15.425 15.425 0 0 0 -7.808-13.399z"/><path d="m49.151 40.2a15.423 15.423 0 0 0 7.759 12.219l7.19 4.074 7.191-4.074a15.429 15.429 0 0 0 7.47-10.209c-4.721 1.113-10.345 2.153-14.661 2.078-4.145-.073-9.906-2.005-14.949-4.088z"/></g></g><g fill="#201e72"><path d="m64.1 17.25h-1a1.75 1.75 0 0 0 0 3.5h1a1.75 1.75 0 0 0 0-3.5z"/><path d="m87.629 17.25h-14.094a1.75 1.75 0 0 0 0 3.5h14.094a2.435 2.435 0 0 1 2.433 2.432v.664a2.435 2.435 0 0 1 -2.433 2.433h-47.057a2.435 2.435 0 0 1 -2.432-2.433v-.664a2.435 2.435 0 0 1 2.432-2.432h13.315a1.75 1.75 0 0 0 0-3.5h-13.315a5.939 5.939 0 0 0 -5.932 5.932v.664a5.935 5.935 0 0 0 5.711 5.922v9.252a24.189 24.189 0 0 0 12.249 21.012l2.682 1.52a2.814 2.814 0 0 1 0 4.9l-2.682 1.516a24.189 24.189 0 0 0 -12.249 21.011v9.253a5.935 5.935 0 0 0 -5.711 5.922v.664a5.939 5.939 0 0 0 5.932 5.932h47.057a5.939 5.939 0 0 0 5.933-5.932v-.664a5.935 5.935 0 0 0 -5.711-5.922v-9.253a24.189 24.189 0 0 0 -12.251-21.011l-2.682-1.52a2.813 2.813 0 0 1 0-4.9l2.682-1.52a24.189 24.189 0 0 0 12.251-21.008v-9.252a5.935 5.935 0 0 0 5.711-5.922v-.664a5.939 5.939 0 0 0 -5.933-5.932zm0 84.471a2.436 2.436 0 0 1 2.433 2.433v.664a2.435 2.435 0 0 1 -2.433 2.432h-47.057a2.435 2.435 0 0 1 -2.432-2.432v-.664a2.436 2.436 0 0 1 2.432-2.433zm-3.278-62.7a20.684 20.684 0 0 1 -10.472 17.966l-2.679 1.52a6.313 6.313 0 0 0 0 10.986l2.682 1.52a20.684 20.684 0 0 1 10.469 17.966v9.242h-40.5v-9.242a20.683 20.683 0 0 1 10.471-17.966l2.683-1.52a6.314 6.314 0 0 0 0-10.986l-2.683-1.52a20.683 20.683 0 0 1 -10.471-17.967v-9.241h40.5z"/><path d="m72.155 74.059-7.191-4.074a1.747 1.747 0 0 0 -1.726 0l-7.19 4.074a17.177 17.177 0 0 0 -8.7 14.921v3.991a1.75 1.75 0 0 0 1.75 1.75h30a1.75 1.75 0 0 0 1.75-1.75v-3.991a17.176 17.176 0 0 0 -8.693-14.921zm5.2 17.162h-26.5v-2.241a13.673 13.673 0 0 1 6.918-11.88l6.327-3.581 6.33 3.581a13.674 13.674 0 0 1 6.921 11.88z"/><path d="m78.36 40.507a62.667 62.667 0 0 1 -14.229 2.031c-3.231-.057-8.18-1.424-14.313-3.954a1.75 1.75 0 0 0 -2.412 1.753 17.125 17.125 0 0 0 8.641 13.6l7.191 4.074a1.747 1.747 0 0 0 1.726 0l7.191-4.074a17.173 17.173 0 0 0 8.319-11.366 1.751 1.751 0 0 0 -2.114-2.068zm-7.931 10.393-6.329 3.581-6.327-3.581a13.62 13.62 0 0 1 -6.33-7.908c5.245 1.97 9.482 2.994 12.627 3.049a56.96 56.96 0 0 0 12.089-1.455 13.648 13.648 0 0 1 -5.73 6.314z"/></g></g></svg>