solid forearm_mesh
  facet normal 0.0 0.0 -1.0
    outer loop
      vertex 0.0 0.04 0.0
      vertex 0.1 0.0 0.0
      vertex 0.0 0.0 0.0
    endloop
  endfacet
  facet normal 0.0 0.0 -1.0
    outer loop
      vertex 0.1 0.04 0.0
      vertex 0.1 0.0 0.0
      vertex 0.0 0.04 0.0
    endloop
  endfacet
  facet normal 0.0 0.0 1.0
    outer loop
      vertex 0.0 0.0 0.02
      vertex 0.1 0.0 0.02
      vertex 0.0 0.04 0.02
    endloop
  endfacet
  facet normal 0.0 0.0 1.0
    outer loop
      vertex 0.0 0.04 0.02
      vertex 0.1 0.0 0.02
      vertex 0.1 0.04 0.02
    endloop
  endfacet
  facet normal 0.0 -1.0 0.0
    outer loop
      vertex 0.1 0.0 0.0
      vertex 0.1 0.0 0.02
      vertex 0.0 0.0 0.02
    endloop
  endfacet
  facet normal 0.0 -1.0 0.0
    outer loop
      vertex 0.0 0.0 0.0
      vertex 0.1 0.0 0.0
      vertex 0.0 0.0 0.02
    endloop
  endfacet
  facet normal 1.0 0.0 0.0
    outer loop
      vertex 0.1 0.0 0.02
      vertex 0.1 0.0 0.0
      vertex 0.1 0.04 0.0
    endloop
  endfacet
  facet normal 1.0 0.0 0.0
    outer loop
      vertex 0.1 0.04 0.02
      vertex 0.1 0.0 0.02
      vertex 0.1 0.04 0.0
    endloop
  endfacet
  facet normal 0.0 1.0 0.0
    outer loop
      vertex 0.0 0.04 0.0
      vertex 0.0 0.04 0.02
      vertex 0.1 0.04 0.02
    endloop
  endfacet
  facet normal 0.0 1.0 0.0
    outer loop
      vertex 0.1 0.04 0.0
      vertex 0.0 0.04 0.0
      vertex 0.1 0.04 0.02
    endloop
  endfacet
  facet normal -1.0 0.0 0.0
    outer loop
      vertex 0.0 0.0 0.0
      vertex 0.0 0.0 0.02
      vertex 0.0 0.04 0.0
    endloop
  endfacet
  facet normal -1.0 0.0 0.0
    outer loop
      vertex 0.0 0.04 0.02
      vertex 0.0 0.04 0.0
      vertex 0.0 0.0 0.02
    endloop
  endfacet
endsolid forearm_mesh