<svg id="Capa_1" enable-background="new 0 0 512.661 512.661" height="512" viewBox="0 0 512.661 512.661" width="512" xmlns="http://www.w3.org/2000/svg"><g><path d="m504.581 375.279v-241.427c0-16.6-13.46-30.06-30.07-30.06h-19.66-395.49-21.22c-16.6 0-30.06 13.46-30.06 30.06v241.427z" fill="#c8effe"/><path d="m74.61 367.015v-233.163c0-16.6 13.46-30.06 30.06-30.06h-45.309-21.22c-16.6 0-30.06 13.46-30.06 30.06v233.163z" fill="#99e6fc"/><path d="m178.322 405.854h156.016v77.901h-156.016z" fill="#d7d0d6"/><path d="m178.323 405.854h47.534v77.901h-47.534z" fill="#c9bfc8"/><path d="m331.912 473.755h-151.163c-7.546 0-13.663 6.117-13.663 13.663v17.744h178.488v-17.744c0-7.546-6.116-13.663-13.662-13.663z" fill="#e5e1e5"/><g id="XMLID_672_"><g><path d="m504.581 346.872v39.92c0 16.6-13.46 30.06-30.07 30.06h-436.37c-16.6 0-30.06-13.46-30.06-30.06v-39.92z" fill="#efedef"/></g></g><path d="m74.61 386.792v-39.92h-66.529v39.92c0 14.525 10.305 26.646 24.002 29.449 1.957.4 3.983.611 6.058.611h66.529c-16.6 0-30.06-13.46-30.06-30.06z" fill="#e5e1e5"/><path d="m474.511 103.792h-19.66-380.241v243.08h405.241v-242.598c-1.734-.311-3.516-.482-5.34-.482z" fill="#99e6fc"/><path d="m419.791 43.213h-343.479l-16.951 21.369v282.29h395.49v-282.29z" fill="#f9f7f8"/><path d="m126.042 43.213h-49.73l-16.951 21.369v282.29h49.73v-282.29z" fill="#efedef"/><g id="XMLID_680_"><g><path d="m454.851 29.252v35.33h-395.49v-35.33c0-12.01 9.74-21.75 21.75-21.75h351.98c12.02 0 21.76 9.74 21.76 21.75z" fill="#f07281"/></g></g><path d="m130.841 7.502h-49.73c-12.01 0-21.75 9.74-21.75 21.75v35.33h49.73v-35.33c0-12.01 9.74-21.75 21.75-21.75z" fill="#eb5569"/><path d="m362.64 311.647h-211.395c-21.913 0-35.089-24.308-23.127-42.669l105.084-161.3c10.854-16.66 35.231-16.725 46.174-.123l106.311 161.3c12.096 18.353-1.067 42.792-23.047 42.792z" fill="#fee97d"/><path d="m265.769 223.671h-17.796c-3.967 0-7.275-3.033-7.619-6.984l-4.833-55.476c-.517-6.41 4.545-11.897 10.976-11.897h20.749c6.431 0 11.493 5.487 10.976 11.897l-4.833 55.476c-.345 3.951-3.654 6.984-7.62 6.984z" fill="#baafb9"/><path d="m263.954 283.689h-15.517c-4.68 0-8.474-3.794-8.474-8.474v-11.42c0-4.68 3.794-8.474 8.474-8.474h15.517c4.68 0 8.474 3.794 8.474 8.474v11.42c-.001 4.681-3.795 8.474-8.474 8.474z" fill="#baafb9"/><g><path d="m474.516 96.29h-12.167v-67.038c0-16.13-13.123-29.252-29.253-29.252h-351.982c-16.13 0-29.252 13.122-29.252 29.252v67.038h-13.716c-20.714 0-37.566 16.853-37.566 37.566v252.932c0 20.714 16.853 37.565 37.566 37.565h132.677v44.386c-6.677 3.563-11.235 10.595-11.235 18.678v10.244h-4.136c-4.143 0-7.5 3.357-7.5 7.5s3.357 7.5 7.5 7.5h11.636 178.487 13.185c4.143 0 7.5-3.357 7.5-7.5s-3.357-7.5-7.5-7.5h-5.685v-10.244c0-8.083-4.558-15.115-11.235-18.678v-44.386h132.677c20.714 0 37.566-16.852 37.566-37.565v-252.932c-.001-20.713-16.854-37.566-37.567-37.566zm0 15c12.443 0 22.566 10.123 22.566 22.566v205.52h-34.733v-228.086zm-436.37 0h13.717v228.086h-36.284v-205.52c0-12.443 10.123-22.566 22.567-22.566zm136.441 386.371v-10.244c0-3.397 2.765-6.162 6.162-6.162h151.163c3.397 0 6.162 2.765 6.162 6.162v10.244zm152.252-31.406h-141.017v-41.901h141.017zm147.677-56.901h-140.177-156.017-140.176c-12.443 0-22.566-10.123-22.566-22.565v-32.412h85.663c4.143 0 7.5-3.357 7.5-7.5s-3.357-7.5-7.5-7.5h-34.38v-267.292h39.734c4.143 0 7.5-3.357 7.5-7.5s-3.357-7.5-7.5-7.5h-39.735v-27.833c0-7.858 6.394-14.252 14.252-14.252h351.981c7.859 0 14.253 6.394 14.253 14.252v27.833h-308.788c-4.143 0-7.5 3.357-7.5 7.5s3.357 7.5 7.5 7.5h308.789v31.686c0 .007-.001.013-.001.019s.001.013.001.019v235.567h-314.145c-4.143 0-7.5 3.357-7.5 7.5s3.357 7.5 7.5 7.5h363.878v32.412c0 12.442-10.123 22.566-22.566 22.566z"/><ellipse cx="256.371" cy="381.379" rx="10.932" ry="10.932" transform="matrix(.383 -.924 .924 .383 -194.087 472.288)"/><path d="m96.117 27.575c-4.318 0-7.819 3.501-7.819 7.819s3.501 7.819 7.819 7.819 7.819-3.501 7.819-7.819-3.501-7.819-7.819-7.819z"/><path d="m131.58 43.213c4.318 0 7.819-3.501 7.819-7.819s-3.501-7.819-7.819-7.819-7.819 3.501-7.819 7.819 3.5 7.819 7.819 7.819z"/><path d="m167.043 43.213c4.318 0 7.819-3.501 7.819-7.819s-3.501-7.819-7.819-7.819-7.819 3.501-7.819 7.819 3.501 7.819 7.819 7.819z"/><path d="m151.245 319.147h135.106c4.143 0 7.5-3.357 7.5-7.5s-3.357-7.5-7.5-7.5h-135.106c-7.495 0-14.102-3.934-17.673-10.522-3.572-6.59-3.262-14.273.829-20.554l105.085-161.3c3.768-5.783 9.888-9.11 16.79-9.129h.057c6.879 0 12.992 3.293 16.78 9.039l106.312 161.301c4.138 6.277 4.479 13.976.914 20.595-3.564 6.619-10.181 10.57-17.698 10.57h-44.327c-4.143 0-7.5 3.357-7.5 7.5s3.357 7.5 7.5 7.5h44.327c13.127 0 24.681-6.9 30.905-18.458 6.225-11.557 5.628-25.001-1.597-35.961l-106.311-161.3c-6.518-9.89-17.468-15.785-29.307-15.785-.031 0-.063 0-.095 0-11.876.031-22.836 5.991-29.318 15.941l-105.085 161.3c-7.144 10.967-7.686 24.383-1.448 35.889 6.236 11.505 17.773 18.374 30.86 18.374z"/><path d="m285.697 161.813c.414-5.137-1.353-10.254-4.847-14.041s-8.453-5.959-13.605-5.959h-20.748c-5.152 0-10.111 2.172-13.605 5.959s-5.261 8.904-4.843 14.09l4.834 55.474c.686 7.888 7.174 13.835 15.091 13.835h17.795c7.917 0 14.405-5.947 15.091-13.833zm-14.947-1.253-4.834 55.478c-.007.076-.07.134-.147.134h-17.795c-.077 0-.141-.058-.147-.136l-4.83-55.427c-.107-1.334.53-2.242.92-2.664.39-.423 1.243-1.131 2.581-1.131h20.748c1.338 0 2.191.708 2.581 1.131.389.421 1.027 1.329.923 2.615z"/><path d="m263.953 247.822h-15.517c-8.808 0-15.974 7.166-15.974 15.974v11.42c0 8.808 7.166 15.974 15.974 15.974h15.517c8.809 0 15.975-7.166 15.975-15.974v-11.42c0-8.808-7.166-15.974-15.975-15.974zm.975 27.394c0 .537-.438.974-.975.974h-15.517c-.537 0-.974-.437-.974-.974v-11.42c0-.537.437-.974.974-.974h15.517c.537 0 .975.437.975.974z"/><path d="m356.781 142.678c6.501 0 11.789 5.288 11.789 11.788 0 4.143 3.357 7.5 7.5 7.5s7.5-3.357 7.5-7.5c0-14.771-12.018-26.788-26.789-26.788-4.143 0-7.5 3.357-7.5 7.5s3.358 7.5 7.5 7.5z"/><path d="m356.781 106.457c26.473 0 48.01 21.537 48.01 48.009 0 4.143 3.357 7.5 7.5 7.5s7.5-3.357 7.5-7.5c0-34.743-28.266-63.009-63.01-63.009-4.143 0-7.5 3.357-7.5 7.5s3.358 7.5 7.5 7.5z"/><path d="m156.961 127.678c-14.771 0-26.789 12.017-26.789 26.788 0 4.143 3.357 7.5 7.5 7.5s7.5-3.357 7.5-7.5c0-6.5 5.288-11.788 11.789-11.788 4.143 0 7.5-3.357 7.5-7.5s-3.357-7.5-7.5-7.5z"/><path d="m156.961 106.457c4.143 0 7.5-3.357 7.5-7.5s-3.357-7.5-7.5-7.5c-34.744 0-63.01 28.266-63.01 63.009 0 4.143 3.357 7.5 7.5 7.5s7.5-3.357 7.5-7.5c0-26.472 21.537-48.009 48.01-48.009z"/></g></g></svg>