<?xml version="1.0" encoding="UTF-8"?>
<!DOCTYPE svg PUBLIC "-//W3C//DTD SVG 1.1//EN" "http://www.w3.org/Graphics/SVG/1.1/DTD/svg11.dtd">
<svg version="1.1" xmlns="http://www.w3.org/2000/svg" xmlns:xlink="http://www.w3.org/1999/xlink" x="0" y="0" width="550" height="600" viewBox="0, 0, 550, 600">
  <g id="Layer_1">
    <g id="fitsgen">
      <g>
        <path d="M368.32,318.6 C366.24,314.68 364.56,310.52 363.2,306.28 L344,301 L344,285 L344,269 L363.2,263.72 C364.56,259.48 366.24,255.32 368.32,251.4 L358.48,234.12 L376.08,216.6 L376,216.52 L376,189 L376,77 L184,77 L184,157 L104,157 L104,189 L104,285 L104,317 L200,317 C208.8,317 216,324.2 216,333 L216,349 C216,357.8 208.8,365 200,365 L200,397 C208.8,397 216,404.2 216,413 L216,429 C216,437.8 208.8,445 200,445 L200,477 C208.8,477 216,484.2 216,493 L216,509 L376,509 L376,353.48 L358.48,335.88 z" fill="#E6E9ED"/>
        <path d="M216,109 L344,109 L344,157 L216,157 z" fill="#FF826E"/>
        <path d="M184,77 L184,157 L104,157 z" fill="#B4DD7F"/>
        <path d="M248,381 L344,381 L344,477 L248,477 z" fill="#4FC1E9"/>
        <path d="M398.4,221.32 C402.32,219.24 406.48,217.56 410.72,216.2 L416,197 L448,197 L453.28,216.2 C457.52,217.56 461.68,219.24 465.6,221.32 L482.88,211.48 L505.52,234.12 L495.68,251.4 C497.76,255.32 499.44,259.48 500.8,263.72 L520,269 L520,301 L500.8,306.28 C499.44,310.52 497.76,314.68 495.68,318.6 L505.52,335.88 L482.88,358.52 L465.6,348.68 C461.68,350.76 457.52,352.44 453.28,353.8 L448,373 L416,373 L410.72,353.8 C406.48,352.44 402.32,350.76 398.4,348.68 L381.12,358.52 L376,353.48 L358.48,335.88 L368.32,318.6 C366.24,314.68 364.56,310.52 363.2,306.28 L344,301 L344,285 L344,269 L363.2,263.72 C364.56,259.48 366.24,255.32 368.32,251.4 L358.48,234.12 L376.08,216.6 L381.12,211.48 z M472,285 C472,262.92 454.08,245 432,245 C409.92,245 392,262.92 392,285 C392,307.08 409.92,325 432,325 C454.08,325 472,307.08 472,285 z" fill="#FCD770"/>
        <path d="M216,493 L216,509 C216,517.8 208.8,525 200,525 L56,525 C47.2,525 40,517.8 40,509 L40,493 C40,484.2 47.2,477 56,477 L200,477 C208.8,477 216,484.2 216,493 z" fill="#FF826E"/>
        <path d="M216,413 L216,429 C216,437.8 208.8,445 200,445 L56,445 C47.2,445 40,437.8 40,429 L40,413 C40,404.2 47.2,397 56,397 L200,397 C208.8,397 216,404.2 216,413 z" fill="#FF826E"/>
        <path d="M216,333 L216,349 C216,357.8 208.8,365 200,365 L56,365 C47.2,365 40,357.8 40,349 L40,333 C40,324.2 47.2,317 56,317 L104,317 L200,317 C208.8,317 216,324.2 216,333 z" fill="#FF826E"/>
        <path d="M56,365 L200,365 L200,397 L56,397 z" fill="#B4DD7F"/>
        <path d="M56,445 L200,445 L200,477 L56,477 z" fill="#B4DD7F"/>
      </g>
      <g>
        <path d="M432,237 C405.528,237 384,258.528 384,285 C384,311.472 405.528,333 432,333 C458.472,333 480,311.472 480,285 C480,258.528 458.472,237 432,237 z M432,317 C414.352,317 400,302.648 400,285 C400,267.352 414.352,253 432,253 C449.648,253 464,267.352 464,285 C464,302.648 449.648,317 432,317 z" fill="#000000"/>
        <path d="M80,77 C80,63.768 90.768,53 104,53 L400,53 C413.232,53 424,63.768 424,77 L424,138.576 L406.656,112.56 L393.344,121.432 L432,179.424 L470.656,121.44 L457.344,112.568 L440,138.576 L440,77 C440,54.944 422.056,37 400,37 L104,37 C81.944,37 64,54.944 64,77 L64,117 L80,117 z" fill="#000000"/>
        <path d="M64,133 L80,133 L80,149 L64,149 z" fill="#000000"/>
        <path d="M64,165 L80,165 L80,181 L64,181 z" fill="#000000"/>
        <path d="M352,101 L208,101 L208,165 L352,165 z M336,149 L224,149 L224,117 L336,117 z" fill="#000000"/>
        <path d="M528,307.112 L528,262.896 L507,257.152 C506.312,255.32 505.552,253.488 504.712,251.672 L515.512,232.744 L484.248,201.48 L465.32,212.28 C463.504,211.448 461.68,210.68 459.84,209.992 L454.104,189 L409.896,189 L404.152,210 C402.32,210.688 400.488,211.448 398.672,212.288 L384,203.912 L384,69 L180.688,69 L96,153.688 L96,309 L56,309 C42.768,309 32,319.768 32,333 L32,349 C32,359.416 38.712,368.216 48,371.528 L48,390.48 C38.712,393.784 32,402.584 32,413 L32,429 C32,439.416 38.712,448.216 48,451.528 L48,470.48 C38.712,473.784 32,482.584 32,493 L32,509 C32,522.232 42.768,533 56,533 L200,533 C210.416,533 219.216,526.288 222.528,517 L384,517 L384,366.088 L398.672,357.712 C400.48,358.544 402.312,359.312 404.152,360 L409.896,381 L454.104,381 L459.848,360 C461.688,359.312 463.52,358.544 465.328,357.712 L484.248,368.52 L515.512,337.264 L504.712,318.328 C505.544,316.512 506.312,314.688 507,312.856 z M176,96.312 L176,149 L123.312,149 z M48,333 C48,328.584 51.592,325 56,325 L200,325 C204.408,325 208,328.584 208,333 L208,349 C208,353.416 204.408,357 200,357 L56,357 C51.592,357 48,353.416 48,349 z M192,373 L192,389 L64,389 L64,373 z M48,413 C48,408.584 51.592,405 56,405 L200,405 C204.408,405 208,408.584 208,413 L208,429 C208,433.416 204.408,437 200,437 L56,437 C51.592,437 48,433.416 48,429 z M192,453 L192,469 L64,469 L64,453 z M208,509 C208,513.416 204.408,517 200,517 L56,517 C51.592,517 48,513.416 48,509 L48,493 C48,488.584 51.592,485 56,485 L200,485 C204.408,485 208,488.584 208,493 z M224,501 L224,493 C224,482.584 217.288,473.784 208,470.472 L208,451.52 C217.288,448.208 224,439.408 224,428.992 L224,412.992 C224,402.576 217.288,393.776 208,390.464 L208,371.512 C217.288,368.2 224,359.4 224,348.984 L224,332.984 C224,319.752 213.232,308.984 200,308.984 L112,308.984 L112,165 L192,165 L192,85 L368,85 L368,213.24 L348.488,232.752 L359.288,251.68 C358.456,253.496 357.688,255.32 357,257.16 L336,262.896 L336,307.112 L357,312.856 C357.688,314.688 358.448,316.512 359.288,318.328 L348.488,337.264 L368,356.768 L368,501 z M495.568,334.568 L481.568,348.56 L465.736,339.52 L461.848,341.584 C458.288,343.472 454.6,345.016 450.896,346.16 L446.696,347.448 L441.896,365 L422.104,365 L417.304,347.456 L413.104,346.168 C409.4,345.016 405.712,343.48 402.152,341.592 L398.264,339.528 L382.432,348.568 L368.432,334.576 L377.464,318.744 L375.416,314.864 C373.512,311.264 371.976,307.568 370.84,303.896 L369.544,299.704 L352,294.888 L352,275.104 L369.544,270.304 L370.84,266.104 C371.976,262.424 373.512,258.728 375.416,255.136 L377.464,251.248 L368.432,235.416 L382.432,221.416 L398.264,230.448 L402.152,228.4 C405.744,226.504 409.432,224.96 413.12,223.824 L417.32,222.528 L422.12,204.984 L441.912,204.984 L446.712,222.528 L450.912,223.824 C454.592,224.96 458.288,226.496 461.88,228.4 L465.768,230.448 L481.6,221.416 L495.6,235.416 L486.568,251.248 L488.616,255.136 C490.512,258.728 492.056,262.416 493.192,266.104 L494.488,270.304 L512.032,275.104 L512.032,294.888 L494.488,299.696 L493.192,303.888 C492.056,307.56 490.52,311.256 488.616,314.856 L486.568,318.736 z" fill="#000000"/>
        <path d="M128,181 L144,181 L144,197 L128,197 z" fill="#000000"/>
        <path d="M160,181 L352,181 L352,197 L160,197 z" fill="#000000"/>
        <path d="M128,213 L336,213 L336,229 L128,229 z" fill="#000000"/>
        <path d="M128,245 L336,245 L336,261 L128,261 z" fill="#000000"/>
        <path d="M128,277 L256,277 L256,293 L128,293 z" fill="#000000"/>
        <path d="M272,277 L288,277 L288,293 L272,293 z" fill="#000000"/>
        <path d="M304,277 L320,277 L320,293 L304,293 z" fill="#000000"/>
        <path d="M240,485 L352,485 L352,373 L240,373 z M256,389 L336,389 L336,469 L256,469 z" fill="#000000"/>
        <path d="M240,341 L336,341 L336,357 L240,357 z" fill="#000000"/>
      </g>
    </g>
    <path d="M485.636,506.731 C485.636,548.152 452.057,581.731 410.636,581.731 C369.215,581.731 335.636,548.152 335.636,506.731 C335.636,465.31 369.215,431.731 410.636,431.731 C452.057,431.731 485.636,465.31 485.636,506.731 z" fill="#303C42"/>
    <path d="M439.36,477.729 L396.453,520.635 L380.819,505.002 C378.156,502.338 373.841,502.338 371.178,505.002 C368.515,507.665 368.515,511.98 371.178,514.643 L391.633,535.097 C392.964,536.429 394.709,537.095 396.454,537.095 C398.198,537.095 399.943,536.429 401.275,535.097 L449.002,487.37 C451.666,484.706 451.666,480.391 449.002,477.729 C446.338,475.066 442.023,475.066 439.36,477.729 z" fill="#303C42"/>
    <g>
      <path d="M485.09,506.413 C485.09,547.834 451.511,581.413 410.09,581.413 C368.669,581.413 335.09,547.834 335.09,506.413 C335.09,464.992 368.669,431.413 410.09,431.413 C451.511,431.413 485.09,464.992 485.09,506.413 z" fill="#303C42"/>
      <path d="M410.09,448.171 L410.09,564.656 C442.257,564.656 468.333,538.58 468.333,506.413 C468.333,474.247 442.257,448.171 410.09,448.171 z" fill="#D41915"/>
      <path d="M461.301,506.413 C461.301,474.247 438.373,448.171 410.09,448.171 C377.924,448.171 351.848,474.247 351.848,506.413 C351.848,538.58 377.924,564.656 410.09,564.656 C438.373,564.656 461.301,538.58 461.301,506.413 z" fill="#FF3636"/>
      <path d="M429.134,480.572 L422.103,480.572 L422.103,532.255 L429.134,532.255 C433.017,532.255 436.165,529.107 436.165,525.223 L436.165,487.603 C436.165,483.72 433.017,480.572 429.134,480.572 z" fill="#FFD8D8"/>
      <path d="M429.134,525.224 L429.134,487.603 C429.134,483.72 425.986,480.572 422.103,480.572 L391.514,480.572 C387.63,480.572 384.482,483.72 384.482,487.603 L384.482,525.223 C384.482,529.107 387.63,532.255 391.514,532.255 L422.103,532.255 C425.986,532.255 429.134,529.107 429.134,525.224 z" fill="#FFFFFF"/>
      <path d="M452.517,463.987 C441.184,452.655 426.117,446.413 410.09,446.413 C394.064,446.413 378.997,452.655 367.664,463.987 C356.332,475.32 350.09,490.387 350.09,506.413 C350.09,522.44 356.332,537.507 367.664,548.84 C378.997,560.172 394.064,566.413 410.09,566.413 C426.117,566.413 441.184,560.172 452.517,548.84 C463.849,537.507 470.09,522.44 470.09,506.413 C470.09,490.387 463.849,475.32 452.517,463.987 z M410.09,562.898 C378.945,562.898 353.606,537.559 353.606,506.413 C353.606,475.268 378.945,449.929 410.09,449.929 C441.236,449.929 466.575,475.268 466.575,506.413 C466.575,537.559 441.236,562.898 410.09,562.898 z" fill="#000000"/>
      <path d="M429.134,478.814 L391.514,478.814 C386.667,478.814 382.724,482.757 382.724,487.603 L382.724,502.898 C382.724,503.869 383.512,504.656 384.482,504.656 C385.453,504.656 386.24,503.869 386.24,502.898 L386.24,487.603 C386.24,484.695 388.606,482.33 391.514,482.33 L429.134,482.33 C432.041,482.33 434.407,484.695 434.407,487.603 L434.407,525.224 C434.407,528.131 432.041,530.497 429.134,530.497 L391.514,530.497 C388.606,530.497 386.24,528.131 386.24,525.224 L386.24,509.929 C386.24,508.958 385.453,508.171 384.482,508.171 C383.512,508.171 382.724,508.958 382.724,509.929 L382.724,525.224 C382.724,530.07 386.667,534.013 391.514,534.013 L429.134,534.013 C433.98,534.013 437.923,530.07 437.923,525.224 L437.923,487.603 C437.923,482.757 433.98,478.814 429.134,478.814 z" fill="#000000"/>
    </g>
  </g>
</svg>
