<svg enable-background="new 0 0 24 24" height="512" viewBox="0 0 24 24" width="512" xmlns="http://www.w3.org/2000/svg"><path d="m18.977 4.115h-5.453c-.367 0-.699.221-.84.561s-.063.73.197.99l2.084 2.084 1.285 1.285 2.084 2.084c.174.174.406.266.643.266.117 0 .235-.023.348-.069.34-.141.561-.472.561-.84v-5.453c-.001-.501-.407-.908-.909-.908z" fill="#4caf50"/><path d="m7.118 22.833h-5.236c-.625 0-1.132-.507-1.132-1.132v-4.82c0-.625.507-1.132 1.132-1.132h5.237c.625 0 1.132.507 1.132 1.132v4.82c-.001.626-.508 1.132-1.133 1.132z" fill="#2196f3"/><path d="m21.25 24h-18.5c-1.517 0-2.75-1.233-2.75-2.75v-18.5c0-1.517 1.233-2.75 2.75-2.75h18.5c1.517 0 2.75 1.233 2.75 2.75v18.5c0 1.517-1.233 2.75-2.75 2.75zm-18.5-22.5c-.689 0-1.25.561-1.25 1.25v18.5c0 .689.561 1.25 1.25 1.25h18.5c.689 0 1.25-.561 1.25-1.25v-18.5c0-.689-.561-1.25-1.25-1.25z"/><path d="m19.25 12c-.195 0-.387-.076-.53-.22l-6.5-6.5c-.215-.215-.278-.537-.163-.817.116-.28.389-.463.693-.463h6.5c.414 0 .75.336.75.75v6.5c0 .304-.183.577-.463.693-.093.038-.19.057-.287.057zm-4.689-6.5 3.939 3.939v-3.939z"/><path d="m10.75 14c-.192 0-.384-.073-.53-.22-.293-.293-.293-.768 0-1.061l5.25-5.25c.293-.293.768-.293 1.061 0s.293.768 0 1.061l-5.25 5.25c-.147.147-.339.22-.531.22z"/><path d="m8.25 24c-.414 0-.75-.336-.75-.75v-6.75h-6.75c-.414 0-.75-.336-.75-.75s.336-.75.75-.75h7.5c.414 0 .75.336.75.75v7.5c0 .414-.336.75-.75.75z"/></svg>