<?xml version="1.0" encoding="UTF-8"?>
<!DOCTYPE svg PUBLIC "-//W3C//DTD SVG 1.1//EN" "http://www.w3.org/Graphics/SVG/1.1/DTD/svg11.dtd">
<svg version="1.1" xmlns="http://www.w3.org/2000/svg" xmlns:xlink="http://www.w3.org/1999/xlink" x="0" y="0" width="31.744" height="31.744" viewBox="0, 0, 512, 512">
  <g id="Layer_1">
    <g>
      <path d="M92.068,48.522 C79.704,49.098 69.855,59.302 69.855,71.809 L69.855,488.684 C69.855,501.561 80.293,512 93.17,512 L400.93,512 C413.446,512 423.656,502.137 424.218,489.76 L417.2,482.742 L417.2,137.974 L341.702,62.476 L104.048,62.476 L92.095,48.522 z" fill="#0055A3"/>
      <path d="M92.095,48.522 C92.053,49.447 92.068,463.317 92.068,466.473 C92.068,479.35 102.507,489.788 115.383,489.788 C437.417,489.788 423.298,489.803 424.219,489.761 C424.261,488.834 424.246,147.578 424.246,145.02 L327.721,48.495 C326.023,48.494 93.023,48.479 92.095,48.522 z" fill="#004281"/>
      <path d="M141.664,463.506 L182.378,463.506 L182.378,-0 C149.628,-0 142.753,-0 141.664,-0 C128.787,-0 118.349,10.439 118.349,23.315 L118.349,440.19 C118.349,453.067 128.788,463.506 141.664,463.506 z" fill="#C4E2FF"/>
      <path d="M454.138,5.666 L432.528,5.666 C428.442,2.138 423.124,-0 417.302,-0 C360.87,-0 244.311,-0 182.379,-0 L182.379,463.506 L417.303,463.506 C424.313,463.506 430.595,460.408 434.869,455.512 L454.139,455.512 L454.139,5.666 z" fill="#60B7FF"/>
      <path d="M449.425,-0 C448.119,-0 436.016,-0 417.303,-0 C430.18,-0 440.618,10.439 440.618,23.315 L440.618,440.19 C440.618,453.066 430.179,463.505 417.303,463.505 L449.425,463.505 C462.302,463.505 472.74,453.066 472.74,440.19 C472.74,424.551 472.74,43.579 472.74,23.315 C472.74,10.439 462.301,-0 449.425,-0 z" fill="#26A6FE"/>
      <path d="M332.45,334.908 L54.463,334.908 C46.067,334.908 39.26,328.645 39.26,320.919 L39.26,209.106 C39.26,201.38 46.067,195.117 54.463,195.117 L332.449,195.117 C340.846,195.117 347.652,201.38 347.652,209.106 L347.652,320.919 C347.653,328.645 340.847,334.908 332.45,334.908 z" fill="#F47C7C"/>
      <path d="M416.004,141.049 L255.766,141.049 C251.214,141.049 247.525,137.359 247.525,132.808 L247.525,70.718 C247.525,66.166 251.215,62.477 255.766,62.477 L416.004,62.477 C420.556,62.477 424.245,66.167 424.245,70.718 L424.245,132.808 C424.245,137.359 420.556,141.049 416.004,141.049 z" fill="#C4E2FF"/>
      <path d="M394.368,381.767 L276.928,381.767 C272.661,381.767 269.202,378.308 269.202,374.041 C269.202,369.774 272.661,366.315 276.928,366.315 L394.369,366.315 C398.636,366.315 402.095,369.774 402.095,374.041 C402.095,378.307 398.635,381.767 394.368,381.767 z" fill="#C4E2FF"/>
      <path d="M394.368,416.809 L276.928,416.809 C272.661,416.809 269.202,413.35 269.202,409.083 C269.202,404.816 272.661,401.357 276.928,401.357 L394.369,401.357 C398.636,401.357 402.095,404.816 402.095,409.083 C402.095,413.35 398.635,416.809 394.368,416.809 z" fill="#C4E2FF"/>
    </g>
    <path d="M75.251,230.772 L75.251,254.766 L111.87,254.766 L111.87,230.772 Q111.87,225.631 114.184,223.06 Q116.498,220.489 120.268,220.489 Q124.096,220.489 126.467,223.031 Q128.837,225.573 128.837,230.772 L128.837,296.756 Q128.837,301.955 126.438,304.526 Q124.039,307.096 120.268,307.096 Q116.44,307.096 114.155,304.497 Q111.87,301.898 111.87,296.756 L111.87,268.591 L75.251,268.591 L75.251,296.756 Q75.251,301.955 72.851,304.526 Q70.452,307.096 66.681,307.096 Q62.854,307.096 60.568,304.497 Q58.283,301.898 58.283,296.756 L58.283,230.772 Q58.283,225.631 60.54,223.06 Q62.796,220.489 66.681,220.489 Q70.509,220.489 72.88,223.031 Q75.251,225.573 75.251,230.772 z" fill="#FDD5D5"/>
    <path d="M144.602,221.917 L166.711,221.917 Q175.337,221.917 181.507,223.517 Q187.677,225.116 192.704,229.515 Q205.787,240.713 205.787,263.564 Q205.787,271.105 204.473,277.332 Q203.159,283.559 200.417,288.558 Q197.675,293.557 193.39,297.499 Q190.019,300.527 186.02,302.355 Q182.021,304.183 177.423,304.925 Q172.824,305.668 167.054,305.668 L144.945,305.668 Q140.317,305.668 137.975,304.268 Q135.633,302.869 134.919,300.327 Q134.204,297.784 134.204,293.728 L134.204,232.315 Q134.204,226.83 136.661,224.374 Q139.118,221.917 144.602,221.917 z M151.172,235.342 L151.172,292.186 L164.026,292.186 Q168.253,292.186 170.653,291.957 Q173.052,291.729 175.623,290.815 Q178.194,289.901 180.079,288.244 Q188.591,281.046 188.591,263.45 Q188.591,251.053 184.849,244.883 Q181.107,238.713 175.623,237.028 Q170.139,235.342 162.369,235.342 z" fill="#FDD5D5"/>
    <path d="M261.542,234.286 L228.121,234.286 L228.121,255.709 L256.057,255.709 Q259.942,255.709 261.856,257.451 Q263.77,259.194 263.77,262.107 Q263.77,265.021 261.827,266.735 Q259.885,268.449 256.057,268.449 L228.121,268.449 L228.121,296.042 Q228.121,301.298 225.75,303.84 Q223.38,306.382 219.666,306.382 Q215.896,306.382 213.525,303.811 Q211.154,301.241 211.154,296.042 L211.154,231.601 Q211.154,227.944 212.239,225.631 Q213.325,223.317 215.639,222.26 Q217.952,221.203 221.551,221.203 L261.542,221.203 Q265.598,221.203 267.569,223.003 Q269.54,224.802 269.54,227.716 Q269.54,230.686 267.569,232.486 Q265.598,234.286 261.542,234.286 z" fill="#FDD5D5"/>
    <path d="M322.838,234.971 L295.702,234.971 L292.445,253.481 Q300.558,249.139 307.413,249.139 Q312.897,249.139 317.668,251.196 Q322.438,253.252 326.037,256.88 Q329.636,260.508 331.693,265.478 Q333.75,270.448 333.75,276.161 Q333.75,284.445 330.036,291.243 Q326.323,298.041 319.324,302.04 Q312.326,306.039 303.186,306.039 Q292.96,306.039 286.59,302.269 Q280.22,298.498 277.563,293.614 Q274.907,288.729 274.907,285.073 Q274.907,282.845 276.763,280.846 Q278.62,278.846 281.419,278.846 Q286.218,278.846 288.561,284.388 Q290.846,289.472 294.73,292.3 Q298.615,295.128 303.414,295.128 Q307.813,295.128 311.126,292.843 Q314.44,290.558 316.24,286.559 Q318.039,282.56 318.039,277.475 Q318.039,271.991 316.097,268.106 Q314.154,264.221 310.898,262.307 Q307.642,260.393 303.643,260.393 Q298.73,260.393 296.616,261.593 Q294.502,262.793 290.532,265.792 Q286.561,268.791 283.99,268.791 Q281.191,268.791 279.02,266.763 Q276.849,264.735 276.849,262.164 Q276.849,261.879 277.478,258.28 L282.276,230.915 Q283.076,226.002 285.247,223.774 Q287.418,221.546 292.331,221.546 L322.495,221.546 Q331.407,221.546 331.407,228.344 Q331.407,231.315 329.236,233.143 Q327.065,234.971 322.838,234.971 z" fill="#FDD5D5"/>
  </g>
</svg>
