<?xml version="1.0" encoding="UTF-8"?>
<!DOCTYPE svg PUBLIC "-//W3C//DTD SVG 1.1//EN" "http://www.w3.org/Graphics/SVG/1.1/DTD/svg11.dtd">
<svg version="1.1" xmlns="http://www.w3.org/2000/svg" x="0" y="0" width="512.004" height="512.004"
     viewBox="0, 0, 512.004, 512.004">
  <g id="Background">
    <rect x="0" y="0" width="512.004" height="512.004" fill="#000000" fill-opacity="0"/>
  </g>
  <g id="Layer_1" opacity="0.497">
    <g>
      <path d="M448.039,315.994 L478.648,303.84 C482.854,302.17 485.099,296.968 483.429,292.762 L446.964,200.924 C445.223,196.539 440.27,194.401 435.885,196.142 L405.277,208.296 C403.172,209.126 401.487,210.768 400.591,212.844 C399.695,214.92 399.659,217.266 400.496,219.374 L436.961,311.212 C438.702,315.598 443.653,317.735 448.039,315.994 z M419.504,221.008 L434.252,215.151 L464.42,291.13 L449.672,296.986 L419.504,221.008 z" fill="#000000"/>
      <path d="M404.466,226.972 L449.286,209.176 C462.409,203.966 468.84,189.064 463.629,175.941 L457.777,161.184 C456.947,159.079 455.312,157.398 453.228,156.498 C451.152,155.602 448.807,155.566 446.698,156.403 L370.159,186.794 C368.054,187.624 366.369,189.267 365.473,191.343 C364.574,193.427 364.546,195.775 365.375,197.881 L371.231,212.63 C376.442,225.752 391.343,232.183 404.466,226.972 z M387.102,206.327 L384.394,199.507 L445.07,175.422 L447.777,182.241 C449.499,186.608 447.371,191.582 442.996,193.319 L398.18,211.108 C393.806,212.845 388.838,210.701 387.102,206.327 z" fill="#000000"/>
      <path d="M370.744,204.927 L458.723,169.994 C475.671,163.265 488.979,150.346 496.205,133.603 C503.428,116.868 503.699,98.322 496.969,81.374 L470.387,14.426 C469.557,12.321 467.923,10.639 465.838,9.74 C463.754,8.84 461.417,8.808 459.309,9.645 L260.315,88.651 C258.128,89.519 256.495,91.194 255.629,93.199 C254.764,95.205 254.666,97.542 255.534,99.729 L282.117,166.678 C296.01,201.653 335.772,218.813 370.744,204.927 z M297.976,160.38 L274.542,101.362 L457.676,28.652 L481.103,87.667 C486.149,100.375 485.946,114.284 480.528,126.836 C475.108,139.395 465.127,149.084 452.419,154.13 L364.44,189.063 C338.216,199.476 308.396,186.606 297.976,160.38 z" fill="#000000"/>
      <path d="M298.009,160.324 L274.575,101.305 L457.709,28.595 L481.136,87.611 C486.181,100.318 485.978,114.228 480.561,126.779 C475.141,139.339 465.159,149.028 452.452,154.073 L364.473,189.006 C338.248,199.419 308.429,186.55 298.009,160.324 z" fill="#AAAAAA"/>
      <path d="M417.871,150.774 L448.5,138.619 C465.529,131.851 473.878,112.507 467.117,95.481 L454.951,64.857 C453.209,60.471 448.258,58.334 443.872,60.076 C439.487,61.818 437.347,66.777 439.091,71.155 L451.258,101.778 C454.541,110.064 450.48,119.474 442.202,122.76 L411.574,134.914 C409.387,135.783 407.754,137.457 406.888,139.463 C406.026,141.46 405.928,143.797 406.793,145.992 C408.534,150.377 413.486,152.515 417.871,150.774 z" fill="#000000"/>
    </g>
    <g>
      <path d="M117.06,381.445 L86.542,369.067 C84.447,368.211 82.094,368.234 80.012,369.114 C77.929,369.995 76.282,371.665 75.429,373.767 L38.289,465.334 C36.516,469.707 38.616,474.674 42.988,476.448 L73.506,488.826 C75.601,489.681 77.954,489.659 80.037,488.778 C82.127,487.894 83.774,486.225 84.62,484.126 L121.759,392.559 C123.533,388.186 121.433,383.219 117.06,381.445 z M72.015,469.806 L57.309,463.841 L88.035,388.087 L102.74,394.051 L72.015,469.806 z" fill="#000000"/>
      <path d="M152.334,360.219 L76.021,329.267 C73.926,328.411 71.573,328.434 69.49,329.314 C67.408,330.195 65.76,331.865 64.907,333.967 L58.943,348.672 C53.636,361.756 59.958,376.705 73.042,382.012 L117.729,400.137 C124.271,402.79 131.278,402.533 137.314,399.98 C143.349,397.428 148.415,392.58 151.061,386.041 L157.034,371.332 C157.89,369.237 157.871,366.892 156.987,364.802 C156.105,362.72 154.436,361.073 152.334,360.219 z M135.268,379.61 C133.493,383.956 128.517,386.079 124.155,384.31 L79.468,366.185 C75.106,364.416 72.999,359.433 74.768,355.072 L77.526,348.273 L138.026,372.811 L135.268,379.61 z" fill="#000000"/>
      <path d="M269.09,247.603 L70.69,167.133 C66.496,165.432 61.278,167.639 59.577,171.832 L26.311,253.849 C12.172,288.725 29.039,328.612 63.908,342.755 L151.628,378.333 C168.526,385.187 187.073,385.053 203.869,377.95 C220.665,370.847 233.682,357.634 240.532,340.729 L273.79,258.715 C275.562,254.343 273.462,249.376 269.09,247.603 z M224.714,334.327 C219.575,346.997 209.813,356.907 197.221,362.232 C184.622,367.56 170.712,367.661 158.042,362.522 L70.322,326.943 C44.176,316.338 31.526,286.425 42.128,260.271 L72.187,186.161 L254.765,260.221 L224.714,334.327 z" fill="#000000"/>
      <path d="M224.714,334.327 C219.575,346.997 209.813,356.907 197.221,362.232 C184.622,367.56 170.712,367.661 158.042,362.522 L70.322,326.943 C44.176,316.338 31.526,286.425 42.128,260.271 L72.187,186.161 L254.765,260.221 L224.714,334.327 z" fill="#AAAAAA"/>
      <path d="M150.541,101.771 C138.154,96.754 122.982,103.16 117.971,115.544 L90.109,184.223 C89.253,186.318 89.272,188.662 90.156,190.753 C91.04,192.844 92.706,194.483 94.808,195.336 L125.327,207.714 C127.507,208.598 129.845,208.517 131.857,207.667 C133.868,206.816 135.555,205.195 136.455,203.008 L164.31,134.333 C166.818,128.148 166.769,121.349 164.167,115.196 C161.565,109.043 156.725,104.279 150.541,101.771 z M148.472,127.921 L123.824,188.69 L109.119,182.725 L133.766,121.957 C135.355,118.023 140.165,115.989 144.105,117.594 C146.061,118.388 147.599,119.897 148.423,121.846 C149.25,123.803 149.27,125.953 148.472,127.921 z" fill="#000000"/>
      <path d="M257.363,145.097 C244.58,139.913 229.974,146.081 224.793,158.871 L196.939,227.546 C196.083,229.64 196.102,231.985 196.986,234.076 C197.87,236.167 199.536,237.806 201.639,238.659 L232.157,251.037 C234.337,251.921 236.675,251.84 238.687,250.99 C240.699,250.139 242.388,248.525 243.273,246.345 L271.136,177.666 C276.312,164.888 270.137,150.285 257.363,145.097 z M255.311,171.249 L230.664,232.017 L215.959,226.053 L240.606,165.284 C242.203,161.347 247.012,159.313 250.941,160.914 C254.989,162.556 256.953,167.2 255.311,171.249 z" fill="#000000"/>
      <path d="M226.187,265.754 L88.837,210.045 C84.465,208.271 79.497,210.372 77.724,214.745 L52.963,275.793 C51.189,280.166 53.29,285.133 57.663,286.906 L195.021,342.611 C197.202,343.496 199.54,343.415 201.552,342.564 C203.556,341.717 205.243,340.096 206.127,337.915 L230.888,276.867 C232.661,272.495 230.561,267.528 226.187,265.754 z M193.521,323.596 L71.983,274.301 L90.33,229.066 L211.868,278.361 L193.521,323.596 z" fill="#000000"/>
      <path d="M168.029,277.711 L122.242,259.134 C117.87,257.361 112.902,259.461 111.129,263.833 C109.356,268.206 111.457,273.173 115.829,274.947 L161.615,293.524 C163.796,294.409 166.134,294.328 168.146,293.477 C170.157,292.626 171.844,291.005 172.729,288.825 C174.502,284.451 172.402,279.484 168.029,277.711 z" fill="#000000"/>
    </g>
  </g>
</svg>
