<?xml version="1.0" encoding="UTF-8"?>
<!DOCTYPE svg PUBLIC "-//W3C//DTD SVG 1.1//EN" "http://www.w3.org/Graphics/SVG/1.1/DTD/svg11.dtd">
<svg version="1.1" xmlns="http://www.w3.org/2000/svg" xmlns:xlink="http://www.w3.org/1999/xlink" x="0" y="0" width="512" height="512" viewBox="0, 0, 512, 512">
  <g id="Background">
    <rect x="0" y="0" width="512" height="512" fill="#000000" fill-opacity="0"/>
  </g>
  <g id="Layer_1">
    <g>
      <g>
        <path d="M244.172,205.867 C244.172,227.022 227.022,244.172 205.867,244.172 C184.712,244.172 167.563,227.022 167.563,205.867 C167.563,184.712 184.712,167.563 205.867,167.563 C227.022,167.563 244.172,184.712 244.172,205.867 z" fill="#994200"/>
        <path d="M134.271,205.867 C134.271,218.378 124.129,228.52 111.618,228.52 C99.108,228.52 88.966,218.378 88.966,205.867 C88.966,193.356 99.108,183.214 111.618,183.214 C124.129,183.214 134.271,193.356 134.271,205.867 z" fill="#544F57"/>
        <path d="M53.101,205.867 C53.101,214.171 46.369,220.902 38.066,220.902 C29.763,220.902 23.031,214.171 23.031,205.867 C23.031,197.564 29.763,190.832 38.066,190.832 C46.369,190.832 53.101,197.564 53.101,205.867 z" fill="#544F57"/>
        <path d="M344.437,205.867 C344.437,227.022 327.288,244.172 306.133,244.172 C284.978,244.172 267.828,227.022 267.828,205.867 C267.828,184.712 284.978,167.563 306.133,167.563 C327.288,167.563 344.437,184.712 344.437,205.867 z" fill="#FF862B"/>
        <path d="M344.437,306.133 C344.437,327.288 327.288,344.437 306.133,344.437 C284.978,344.437 267.828,327.288 267.828,306.133 C267.828,284.978 284.978,267.828 306.133,267.828 C327.288,267.828 344.437,284.978 344.437,306.133 z" fill="#FFB680"/>
        <path d="M423.034,205.867 C423.034,218.378 412.892,228.52 400.382,228.52 C387.871,228.52 377.729,218.378 377.729,205.867 C377.729,193.356 387.871,183.214 400.382,183.214 C412.892,183.214 423.034,193.356 423.034,205.867 z" fill="#544F57"/>
        <path d="M488.969,205.867 C488.969,214.171 482.238,220.902 473.934,220.902 C465.631,220.902 458.899,214.171 458.899,205.867 C458.899,197.564 465.631,190.832 473.934,190.832 C482.238,190.832 488.969,197.564 488.969,205.867 z" fill="#544F57"/>
        <path d="M244.172,306.133 C244.172,327.288 227.022,344.437 205.867,344.437 C184.712,344.437 167.563,327.288 167.563,306.133 C167.563,284.978 184.712,267.828 205.867,267.828 C227.022,267.828 244.172,284.978 244.172,306.133 z" fill="#FF862B"/>
        <path d="M134.271,306.133 C134.271,318.644 124.129,328.786 111.618,328.786 C99.108,328.786 88.966,318.644 88.966,306.133 C88.966,293.622 99.108,283.48 111.618,283.48 C124.129,283.48 134.271,293.622 134.271,306.133 z" fill="#544F57"/>
        <path d="M53.101,306.133 C53.101,314.436 46.369,321.168 38.066,321.168 C29.763,321.168 23.031,314.436 23.031,306.133 C23.031,297.829 29.763,291.098 38.066,291.098 C46.369,291.098 53.101,297.829 53.101,306.133 z" fill="#544F57"/>
        <path d="M423.034,306.133 C423.034,318.644 412.892,328.786 400.382,328.786 C387.871,328.786 377.729,318.644 377.729,306.133 C377.729,293.622 387.871,283.48 400.382,283.48 C412.892,283.48 423.034,293.622 423.034,306.133 z" fill="#544F57"/>
        <path d="M423.034,400.382 C423.034,412.892 412.892,423.034 400.382,423.034 C387.871,423.034 377.729,412.892 377.729,400.382 C377.729,387.871 387.871,377.729 400.382,377.729 C412.892,377.729 423.034,387.871 423.034,400.382 z" fill="#544F57"/>
        <path d="M488.969,306.133 C488.969,314.436 482.238,321.168 473.934,321.168 C465.631,321.168 458.899,314.436 458.899,306.133 C458.899,297.829 465.631,291.098 473.934,291.098 C482.238,291.098 488.969,297.829 488.969,306.133 z" fill="#544F57"/>
        <path d="M328.786,111.618 C328.786,124.129 318.644,134.271 306.133,134.271 C293.622,134.271 283.48,124.129 283.48,111.618 C283.48,99.108 293.622,88.966 306.133,88.966 C318.644,88.966 328.786,99.108 328.786,111.618 z" fill="#544F57"/>
        <path d="M423.034,111.618 C423.034,124.129 412.892,134.271 400.382,134.271 C387.871,134.271 377.729,124.129 377.729,111.618 C377.729,99.108 387.871,88.966 400.382,88.966 C412.892,88.966 423.034,99.108 423.034,111.618 z" fill="#544F57"/>
        <path d="M134.271,400.382 C134.271,412.892 124.129,423.034 111.618,423.034 C99.108,423.034 88.966,412.892 88.966,400.382 C88.966,387.871 99.108,377.729 111.618,377.729 C124.129,377.729 134.271,387.871 134.271,400.382 z" fill="#544F57"/>
        <path d="M134.271,111.618 C134.271,124.129 124.129,134.271 111.618,134.271 C99.108,134.271 88.966,124.129 88.966,111.618 C88.966,99.108 99.108,88.966 111.618,88.966 C124.129,88.966 134.271,99.108 134.271,111.618 z" fill="#544F57"/>
        <path d="M321.168,38.066 C321.168,46.369 314.436,53.101 306.133,53.101 C297.829,53.101 291.098,46.369 291.098,38.066 C291.098,29.762 297.829,23.031 306.133,23.031 C314.436,23.031 321.168,29.762 321.168,38.066 z" fill="#544F57"/>
        <path d="M328.786,400.382 C328.786,412.892 318.644,423.034 306.133,423.034 C293.622,423.034 283.48,412.892 283.48,400.382 C283.48,387.871 293.622,377.729 306.133,377.729 C318.644,377.729 328.786,387.871 328.786,400.382 z" fill="#544F57"/>
        <path d="M321.168,473.934 C321.168,482.238 314.436,488.969 306.133,488.969 C297.829,488.969 291.098,482.238 291.098,473.934 C291.098,465.631 297.829,458.899 306.133,458.899 C314.436,458.899 321.168,465.631 321.168,473.934 z" fill="#544F57"/>
        <path d="M228.52,111.618 C228.52,124.129 218.378,134.271 205.867,134.271 C193.356,134.271 183.214,124.129 183.214,111.618 C183.214,99.108 193.356,88.966 205.867,88.966 C218.378,88.966 228.52,99.108 228.52,111.618 z" fill="#544F57"/>
        <path d="M220.902,38.066 C220.902,46.369 214.171,53.101 205.867,53.101 C197.564,53.101 190.833,46.369 190.833,38.066 C190.833,29.762 197.564,23.031 205.867,23.031 C214.171,23.031 220.902,29.762 220.902,38.066 z" fill="#544F57"/>
        <path d="M228.52,400.382 C228.52,412.892 218.378,423.034 205.867,423.034 C193.356,423.034 183.214,412.892 183.214,400.382 C183.214,387.871 193.356,377.729 205.867,377.729 C218.378,377.729 228.52,387.871 228.52,400.382 z" fill="#544F57"/>
        <path d="M220.902,473.934 C220.902,482.238 214.171,488.969 205.867,488.969 C197.564,488.969 190.833,482.238 190.833,473.934 C190.833,465.631 197.564,458.899 205.867,458.899 C214.171,458.899 220.902,465.631 220.902,473.934 z" fill="#544F57"/>
      </g>
      <g>
        <path d="M205.863,251.2 C180.869,251.2 160.534,230.862 160.534,205.863 C160.534,199.205 161.95,192.783 164.742,186.774 C166.379,183.253 170.561,181.726 174.081,183.361 C177.603,184.997 179.131,189.179 177.495,192.7 C175.571,196.839 174.596,201.267 174.596,205.863 C174.596,223.108 188.622,237.137 205.862,237.137 C223.107,237.137 237.137,223.108 237.137,205.863 C237.137,188.623 223.107,174.597 205.862,174.597 C201.606,174.597 197.49,175.435 193.626,177.087 C190.056,178.612 185.924,176.958 184.397,173.387 C182.869,169.817 184.526,165.684 188.096,164.157 C193.717,161.753 199.694,160.533 205.861,160.533 C230.86,160.533 251.198,180.868 251.198,205.862 C251.2,230.862 230.862,251.2 205.863,251.2 z" fill="#000000"/>
        <path d="M111.618,235.551 C95.251,235.551 81.934,222.235 81.934,205.867 C81.934,189.499 95.251,176.183 111.618,176.183 C127.986,176.183 141.303,189.499 141.303,205.867 C141.303,222.235 127.986,235.551 111.618,235.551 z M111.618,190.246 C103.005,190.246 95.997,197.253 95.997,205.867 C95.997,214.481 103.005,221.489 111.618,221.489 C120.232,221.489 127.24,214.481 127.24,205.867 C127.24,197.253 120.232,190.246 111.618,190.246 z" fill="#000000"/>
        <path d="M38.066,227.933 C25.899,227.933 16,218.034 16,205.866 C16,193.699 25.899,183.8 38.066,183.8 C50.233,183.8 60.132,193.699 60.132,205.866 C60.132,218.034 50.234,227.933 38.066,227.933 z M38.066,197.864 C33.652,197.864 30.063,201.454 30.063,205.867 C30.063,210.281 33.653,213.871 38.066,213.871 C42.479,213.871 46.069,210.28 46.069,205.867 C46.069,201.453 42.48,197.864 38.066,197.864 z" fill="#000000"/>
        <path d="M306.134,251.203 C281.135,251.203 260.798,230.866 260.798,205.867 C260.798,180.869 281.135,160.532 306.134,160.532 C331.131,160.532 351.468,180.869 351.468,205.867 C351.468,230.865 331.131,251.203 306.134,251.203 z M306.134,174.594 C288.889,174.594 274.861,188.623 274.861,205.867 C274.861,223.112 288.89,237.14 306.134,237.14 C323.377,237.14 337.406,223.112 337.406,205.867 C337.406,188.623 323.377,174.594 306.134,174.594 z" fill="#000000"/>
        <path d="M306.134,351.468 C281.135,351.468 260.798,331.131 260.798,306.133 C260.798,281.134 281.135,260.797 306.134,260.797 C331.131,260.797 351.468,281.134 351.468,306.133 C351.468,331.131 331.131,351.468 306.134,351.468 z M306.134,274.86 C288.889,274.86 274.861,288.888 274.861,306.133 C274.861,323.377 288.89,337.406 306.134,337.406 C323.377,337.406 337.406,323.377 337.406,306.133 C337.406,288.889 323.377,274.86 306.134,274.86 z" fill="#000000"/>
        <path d="M400.382,235.551 C384.014,235.551 370.698,222.235 370.698,205.867 C370.698,189.499 384.014,176.183 400.382,176.183 C416.749,176.183 430.066,189.499 430.066,205.867 C430.066,222.235 416.749,235.551 400.382,235.551 z M400.382,190.246 C391.768,190.246 384.76,197.253 384.76,205.867 C384.76,214.481 391.768,221.489 400.382,221.489 C408.995,221.489 416.003,214.481 416.003,205.867 C416.003,197.253 408.995,190.246 400.382,190.246 z" fill="#000000"/>
        <path d="M473.934,227.933 C461.766,227.933 451.868,218.034 451.868,205.867 C451.868,193.7 461.767,183.801 473.934,183.801 C486.101,183.801 496,193.699 496,205.866 C496,218.034 486.101,227.933 473.934,227.933 z M473.934,197.864 C469.521,197.864 465.931,201.454 465.931,205.867 C465.931,210.281 469.521,213.871 473.934,213.871 C478.347,213.871 481.938,210.28 481.938,205.867 C481.938,201.453 478.347,197.864 473.934,197.864 z" fill="#000000"/>
        <path d="M205.866,351.468 C180.868,351.468 160.531,331.131 160.531,306.133 C160.531,281.134 180.868,260.797 205.866,260.797 C230.865,260.797 251.202,281.134 251.202,306.133 C251.203,331.131 230.865,351.468 205.866,351.468 z M205.866,274.86 C188.622,274.86 174.593,288.888 174.593,306.133 C174.593,323.377 188.622,337.406 205.866,337.406 C223.111,337.406 237.139,323.377 237.139,306.133 C237.14,288.889 223.111,274.86 205.866,274.86 z" fill="#000000"/>
        <path d="M111.618,335.817 C95.251,335.817 81.934,322.501 81.934,306.133 C81.934,289.765 95.251,276.449 111.618,276.449 C127.986,276.449 141.303,289.765 141.303,306.133 C141.303,322.501 127.986,335.817 111.618,335.817 z M111.618,290.512 C103.005,290.512 95.997,297.52 95.997,306.134 C95.997,314.747 103.005,321.755 111.618,321.755 C120.232,321.755 127.24,314.747 127.24,306.134 C127.24,297.52 120.232,290.512 111.618,290.512 z" fill="#000000"/>
        <path d="M38.066,328.199 C25.899,328.199 16,318.301 16,306.134 C16,293.966 25.899,284.068 38.066,284.068 C50.233,284.068 60.132,293.967 60.132,306.134 C60.132,318.301 50.234,328.199 38.066,328.199 z M38.066,298.129 C33.652,298.129 30.063,301.72 30.063,306.133 C30.063,310.546 33.653,314.136 38.066,314.136 C42.479,314.136 46.069,310.546 46.069,306.133 C46.069,301.72 42.48,298.129 38.066,298.129 z" fill="#000000"/>
        <path d="M400.382,335.817 C384.014,335.817 370.698,322.501 370.698,306.133 C370.698,289.765 384.014,276.449 400.382,276.449 C416.749,276.449 430.066,289.765 430.066,306.133 C430.066,322.501 416.749,335.817 400.382,335.817 z M400.382,290.512 C391.768,290.512 384.76,297.52 384.76,306.134 C384.76,314.747 391.768,321.755 400.382,321.755 C408.995,321.755 416.003,314.747 416.003,306.134 C416.003,297.52 408.995,290.512 400.382,290.512 z" fill="#000000"/>
        <path d="M387.01,425.697 C385.571,425.697 384.119,425.257 382.868,424.343 C375.244,418.774 370.694,409.818 370.694,400.383 C370.694,384.012 384.013,370.693 400.384,370.693 C416.75,370.693 430.066,384.012 430.066,400.383 C430.066,409.8 425.522,418.754 417.911,424.335 C414.779,426.633 410.38,425.955 408.083,422.823 C405.787,419.691 406.463,415.291 409.594,412.995 C413.607,410.052 416.003,405.337 416.003,400.383 C416.003,391.766 408.996,384.755 400.384,384.755 C391.768,384.755 384.756,391.766 384.756,400.383 C384.756,405.345 387.152,410.057 391.163,412.986 C394.299,415.277 394.984,419.676 392.694,422.811 C391.317,424.698 389.178,425.697 387.01,425.697 z" fill="#000000"/>
        <path d="M473.934,328.199 C461.766,328.199 451.868,318.3 451.868,306.133 C451.868,293.965 461.767,284.067 473.934,284.067 C486.101,284.067 496,293.966 496,306.134 C496,318.301 486.101,328.199 473.934,328.199 z M473.934,298.129 C469.521,298.129 465.931,301.72 465.931,306.133 C465.931,310.546 469.521,314.136 473.934,314.136 C478.347,314.136 481.938,310.546 481.938,306.133 C481.938,301.72 478.347,298.129 473.934,298.129 z" fill="#000000"/>
        <path d="M306.134,141.303 C289.766,141.303 276.45,127.986 276.45,111.618 C276.45,95.251 289.766,81.934 306.134,81.934 C322.502,81.934 335.817,95.251 335.817,111.618 C335.817,127.986 322.502,141.303 306.134,141.303 z M306.134,95.998 C297.52,95.998 290.512,103.006 290.512,111.619 C290.512,120.233 297.52,127.241 306.134,127.241 C314.747,127.241 321.754,120.233 321.754,111.619 C321.754,103.006 314.747,95.998 306.134,95.998 z" fill="#000000"/>
        <path d="M400.382,141.303 C384.014,141.303 370.698,127.986 370.698,111.618 C370.698,95.251 384.014,81.934 400.382,81.934 C416.749,81.934 430.066,95.251 430.066,111.618 C430.066,127.986 416.749,141.303 400.382,141.303 z M400.382,95.998 C391.768,95.998 384.76,103.006 384.76,111.619 C384.76,120.233 391.768,127.241 400.382,127.241 C408.995,127.241 416.003,120.233 416.003,111.619 C416.003,103.006 408.995,95.998 400.382,95.998 z" fill="#000000"/>
        <path d="M111.618,430.065 C95.251,430.065 81.934,416.748 81.934,400.381 C81.934,384.013 95.251,370.697 111.618,370.697 C127.986,370.697 141.303,384.013 141.303,400.381 C141.303,416.748 127.986,430.065 111.618,430.065 z M111.618,384.76 C103.005,384.76 95.997,391.768 95.997,400.382 C95.997,408.995 103.005,416.003 111.618,416.003 C120.232,416.003 127.24,408.995 127.24,400.382 C127.24,391.768 120.232,384.76 111.618,384.76 z" fill="#000000"/>
        <path d="M111.618,141.303 C95.251,141.303 81.934,127.986 81.934,111.618 C81.934,95.251 95.251,81.934 111.618,81.934 C127.986,81.934 141.303,95.251 141.303,111.618 C141.303,127.986 127.986,141.303 111.618,141.303 z M111.618,95.998 C103.005,95.998 95.997,103.006 95.997,111.619 C95.997,120.233 103.005,127.241 111.618,127.241 C120.232,127.241 127.24,120.233 127.24,111.619 C127.24,103.006 120.232,95.998 111.618,95.998 z" fill="#000000"/>
        <path d="M306.134,60.132 C293.966,60.132 284.068,50.233 284.068,38.066 C284.067,25.899 293.966,16 306.134,16 C318.302,16 328.2,25.899 328.2,38.066 C328.2,50.233 318.301,60.132 306.134,60.132 z M306.134,30.063 C301.721,30.063 298.13,33.653 298.13,38.066 C298.13,42.479 301.721,46.069 306.134,46.069 C310.547,46.069 314.137,42.479 314.137,38.066 C314.137,33.653 310.547,30.063 306.134,30.063 z" fill="#000000"/>
        <path d="M306.134,430.065 C289.766,430.065 276.45,416.748 276.45,400.381 C276.45,384.013 289.766,370.697 306.134,370.697 C322.502,370.697 335.817,384.013 335.817,400.381 C335.817,416.748 322.502,430.065 306.134,430.065 z M306.134,384.76 C297.52,384.76 290.512,391.768 290.512,400.382 C290.512,408.995 297.52,416.003 306.134,416.003 C314.747,416.003 321.754,408.995 321.754,400.382 C321.754,391.768 314.747,384.76 306.134,384.76 z" fill="#000000"/>
        <path d="M306.134,496 C293.966,496 284.068,486.101 284.068,473.934 C284.068,461.767 293.967,451.868 306.134,451.868 C318.301,451.868 328.2,461.767 328.2,473.934 C328.2,486.101 318.301,496 306.134,496 z M306.134,465.931 C301.721,465.931 298.13,469.521 298.13,473.934 C298.13,478.347 301.721,481.938 306.134,481.938 C310.547,481.938 314.137,478.347 314.137,473.934 C314.137,469.521 310.547,465.931 306.134,465.931 z" fill="#000000"/>
        <path d="M205.866,141.303 C189.498,141.303 176.182,127.986 176.182,111.618 C176.182,95.251 189.498,81.934 205.866,81.934 C222.234,81.934 235.55,95.251 235.55,111.618 C235.55,127.986 222.234,141.303 205.866,141.303 z M205.866,95.998 C197.253,95.998 190.245,103.006 190.245,111.619 C190.245,120.233 197.253,127.241 205.866,127.241 C214.48,127.241 221.488,120.233 221.488,111.619 C221.488,103.006 214.48,95.998 205.866,95.998 z" fill="#000000"/>
        <path d="M205.866,60.132 C193.699,60.132 183.8,50.233 183.8,38.066 C183.801,25.899 193.699,16 205.866,16 C218.034,16 227.932,25.899 227.932,38.066 C227.933,50.233 218.034,60.132 205.866,60.132 z M205.866,30.063 C201.453,30.063 197.863,33.653 197.863,38.066 C197.863,42.479 201.453,46.069 205.866,46.069 C210.28,46.069 213.87,42.479 213.87,38.066 C213.87,33.653 210.28,30.063 205.866,30.063 z" fill="#000000"/>
        <path d="M205.866,430.065 C189.498,430.065 176.182,416.748 176.182,400.381 C176.182,384.013 189.498,370.697 205.866,370.697 C222.234,370.697 235.55,384.013 235.55,400.381 C235.55,416.748 222.234,430.065 205.866,430.065 z M205.866,384.76 C197.253,384.76 190.245,391.768 190.245,400.382 C190.245,408.995 197.253,416.003 205.866,416.003 C214.48,416.003 221.488,408.995 221.488,400.382 C221.488,391.768 214.48,384.76 205.866,384.76 z" fill="#000000"/>
        <path d="M205.866,496 C193.699,496 183.8,486.101 183.8,473.934 C183.8,461.767 193.699,451.868 205.866,451.868 C218.034,451.868 227.932,461.767 227.932,473.934 C227.932,486.101 218.034,496 205.866,496 z M205.866,465.931 C201.453,465.931 197.863,469.521 197.863,473.934 C197.863,478.347 201.453,481.938 205.866,481.938 C210.28,481.938 213.87,478.347 213.87,473.934 C213.87,469.521 210.28,465.931 205.866,465.931 z" fill="#000000"/>
      </g>
    </g>
    <path d="M10,-0 L502,-0 C507.523,-0 512,4.468 512,9.981 L512,502.02 C512,507.532 507.523,512 502,512 L10,512 C4.477,512 0,507.532 0,502.02 L0,9.981 C0,4.468 4.477,-0 10,-0 z" fill-opacity="0" stroke="#000000" stroke-width="30"/>
  </g>
</svg>
