solid 
facet normal 1.8653769e-07 0.81649655 0.5773504
 outer loop
  vertex 0.4782843 0.22828415 0
  vertex 0.021715805 0.22828425 0
  vertex 0.05000007 0.19999997 0.04
 endloop
endfacet
facet normal 1.8250122e-07 0.81649655 0.5773503
 outer loop
  vertex 0.4782843 0.22828415 0
  vertex 0.05000007 0.19999997 0.04
  vertex 0.45000002 0.19999988 0.04
 endloop
endfacet
facet normal -1.8250122e-07 -0.81649655 0.5773503
 outer loop
  vertex 0.45000002 0.19999988 0.04
  vertex 0.05000007 0.19999997 0.04
  vertex 0.07828434 0.17171569 4.898587e-18
 endloop
endfacet
facet normal -1.7713502e-07 -0.81649655 0.5773503
 outer loop
  vertex 0.45000002 0.19999988 0.04
  vertex 0.07828434 0.17171569 4.898587e-18
  vertex 0.42171574 0.17171562 4.898587e-18
 endloop
endfacet
facet normal -1.7713501e-07 -0.8164965 -0.5773503
 outer loop
  vertex 0.42171574 0.17171562 4.898587e-18
  vertex 0.07828434 0.17171569 4.898587e-18
  vertex 0.05000007 0.19999997 -0.04
 endloop
endfacet
facet normal -1.8250122e-07 -0.81649655 -0.5773503
 outer loop
  vertex 0.42171574 0.17171562 4.898587e-18
  vertex 0.05000007 0.19999997 -0.04
  vertex 0.45000002 0.19999988 -0.04
 endloop
endfacet
facet normal 1.8250122e-07 0.81649655 -0.5773503
 outer loop
  vertex 0.45000002 0.19999988 -0.04
  vertex 0.05000007 0.19999997 -0.04
  vertex 0.021715805 0.22828425 0
 endloop
endfacet
facet normal 1.8653769e-07 0.81649655 -0.5773503
 outer loop
  vertex 0.45000002 0.19999988 -0.04
  vertex 0.021715805 0.22828425 0
  vertex 0.4782843 0.22828415 0
 endloop
endfacet
facet normal -0.8164965 1.3324117e-07 0.5773503
 outer loop
  vertex 0.021715805 0.22828425 0
  vertex 0.02171573 -0.22828427 0
  vertex 0.050000012 -0.2 0.04
 endloop
endfacet
facet normal -0.81649655 1.2166747e-07 0.57735026
 outer loop
  vertex 0.021715805 0.22828425 0
  vertex 0.050000012 -0.2 0.04
  vertex 0.05000007 0.19999997 0.04
 endloop
endfacet
facet normal 0.8164965 -1.2166745e-07 0.5773503
 outer loop
  vertex 0.05000007 0.19999997 0.04
  vertex 0.050000012 -0.2 0.04
  vertex 0.07828429 -0.17171574 4.898587e-18
 endloop
endfacet
facet normal 0.81649655 -1.06281014e-07 0.57735026
 outer loop
  vertex 0.05000007 0.19999997 0.04
  vertex 0.07828429 -0.17171574 4.898587e-18
  vertex 0.07828434 0.17171569 4.898587e-18
 endloop
endfacet
facet normal 0.8164965 -1.0628101e-07 -0.5773504
 outer loop
  vertex 0.07828434 0.17171569 4.898587e-18
  vertex 0.07828429 -0.17171574 4.898587e-18
  vertex 0.050000012 -0.2 -0.04
 endloop
endfacet
facet normal 0.81649655 -1.2166747e-07 -0.57735026
 outer loop
  vertex 0.07828434 0.17171569 4.898587e-18
  vertex 0.050000012 -0.2 -0.04
  vertex 0.05000007 0.19999997 -0.04
 endloop
endfacet
facet normal -0.8164965 1.2166745e-07 -0.5773503
 outer loop
  vertex 0.05000007 0.19999997 -0.04
  vertex 0.050000012 -0.2 -0.04
  vertex 0.02171573 -0.22828427 0
 endloop
endfacet
facet normal -0.8164967 1.3324119e-07 -0.5773503
 outer loop
  vertex 0.05000007 0.19999997 -0.04
  vertex 0.02171573 -0.22828427 0
  vertex 0.021715805 0.22828425 0
 endloop
endfacet
facet normal -1.0659296e-07 -0.8164965 0.5773503
 outer loop
  vertex 0.02171573 -0.22828427 0
  vertex 0.4782842 -0.22828433 0
  vertex 0.44999993 -0.20000005 0.04
 endloop
endfacet
facet normal -9.125062e-08 -0.8164966 0.57735026
 outer loop
  vertex 0.02171573 -0.22828427 0
  vertex 0.44999993 -0.20000005 0.04
  vertex 0.050000012 -0.2 0.04
 endloop
endfacet
facet normal 9.125061e-08 0.81649655 0.5773504
 outer loop
  vertex 0.050000012 -0.2 0.04
  vertex 0.44999993 -0.20000005 0.04
  vertex 0.42171568 -0.17171577 4.898587e-18
 endloop
endfacet
facet normal 7.085403e-08 0.8164967 0.5773503
 outer loop
  vertex 0.050000012 -0.2 0.04
  vertex 0.42171568 -0.17171577 4.898587e-18
  vertex 0.07828429 -0.17171574 4.898587e-18
 endloop
endfacet
facet normal 7.0854014e-08 0.8164965 -0.5773504
 outer loop
  vertex 0.07828429 -0.17171574 4.898587e-18
  vertex 0.42171568 -0.17171577 4.898587e-18
  vertex 0.44999993 -0.20000005 -0.04
 endloop
endfacet
facet normal 9.125062e-08 0.8164966 -0.57735026
 outer loop
  vertex 0.07828429 -0.17171574 4.898587e-18
  vertex 0.44999993 -0.20000005 -0.04
  vertex 0.050000012 -0.2 -0.04
 endloop
endfacet
facet normal -9.125061e-08 -0.81649655 -0.5773504
 outer loop
  vertex 0.050000012 -0.2 -0.04
  vertex 0.44999993 -0.20000005 -0.04
  vertex 0.4782842 -0.22828433 0
 endloop
endfacet
facet normal -1.06592964e-07 -0.81649655 -0.57735026
 outer loop
  vertex 0.050000012 -0.2 -0.04
  vertex 0.4782842 -0.22828433 0
  vertex 0.02171573 -0.22828427 0
 endloop
endfacet
endsolid 
