solid Exported from Blender-2.91.2
facet normal 0.187597 -0.577354 -0.794651
outer loop
vertex 0.000000 0.000000 -1.000000
vertex 0.723600 -0.525720 -0.447215
vertex -0.276385 -0.850640 -0.447215
endloop
endfacet
facet normal 0.607065 0.000000 -0.794652
outer loop
vertex 0.723600 -0.525720 -0.447215
vertex 0.000000 0.000000 -1.000000
vertex 0.723600 0.525720 -0.447215
endloop
endfacet
facet normal -0.491122 -0.356829 -0.794652
outer loop
vertex 0.000000 0.000000 -1.000000
vertex -0.276385 -0.850640 -0.447215
vertex -0.894425 0.000000 -0.447215
endloop
endfacet
facet normal -0.491122 0.356829 -0.794652
outer loop
vertex 0.000000 0.000000 -1.000000
vertex -0.894425 0.000000 -0.447215
vertex -0.276385 0.850640 -0.447215
endloop
endfacet
facet normal 0.187597 0.577354 -0.794651
outer loop
vertex 0.000000 0.000000 -1.000000
vertex -0.276385 0.850640 -0.447215
vertex 0.723600 0.525720 -0.447215
endloop
endfacet
facet normal 0.982246 0.000000 -0.187597
outer loop
vertex 0.723600 -0.525720 -0.447215
vertex 0.723600 0.525720 -0.447215
vertex 0.894425 0.000000 0.447215
endloop
endfacet
facet normal 0.303536 -0.934171 -0.187589
outer loop
vertex -0.276385 -0.850640 -0.447215
vertex 0.723600 -0.525720 -0.447215
vertex 0.276385 -0.850640 0.447215
endloop
endfacet
facet normal -0.794649 -0.577359 -0.187587
outer loop
vertex -0.894425 0.000000 -0.447215
vertex -0.276385 -0.850640 -0.447215
vertex -0.723600 -0.525720 0.447215
endloop
endfacet
facet normal -0.794649 0.577359 -0.187587
outer loop
vertex -0.276385 0.850640 -0.447215
vertex -0.894425 0.000000 -0.447215
vertex -0.723600 0.525720 0.447215
endloop
endfacet
facet normal 0.303536 0.934171 -0.187589
outer loop
vertex 0.723600 0.525720 -0.447215
vertex -0.276385 0.850640 -0.447215
vertex 0.276385 0.850640 0.447215
endloop
endfacet
facet normal 0.794649 -0.577359 0.187587
outer loop
vertex 0.723600 -0.525720 -0.447215
vertex 0.894425 0.000000 0.447215
vertex 0.276385 -0.850640 0.447215
endloop
endfacet
facet normal -0.303536 -0.934171 0.187589
outer loop
vertex -0.276385 -0.850640 -0.447215
vertex 0.276385 -0.850640 0.447215
vertex -0.723600 -0.525720 0.447215
endloop
endfacet
facet normal -0.982246 0.000000 0.187597
outer loop
vertex -0.894425 0.000000 -0.447215
vertex -0.723600 -0.525720 0.447215
vertex -0.723600 0.525720 0.447215
endloop
endfacet
facet normal -0.303536 0.934171 0.187589
outer loop
vertex -0.276385 0.850640 -0.447215
vertex -0.723600 0.525720 0.447215
vertex 0.276385 0.850640 0.447215
endloop
endfacet
facet normal 0.794649 0.577359 0.187587
outer loop
vertex 0.723600 0.525720 -0.447215
vertex 0.276385 0.850640 0.447215
vertex 0.894425 0.000000 0.447215
endloop
endfacet
facet normal 0.491122 -0.356829 0.794652
outer loop
vertex 0.276385 -0.850640 0.447215
vertex 0.894425 0.000000 0.447215
vertex 0.000000 0.000000 1.000000
endloop
endfacet
facet normal -0.187596 -0.577354 0.794651
outer loop
vertex -0.723600 -0.525720 0.447215
vertex 0.276385 -0.850640 0.447215
vertex 0.000000 0.000000 1.000000
endloop
endfacet
facet normal -0.607065 0.000000 0.794652
outer loop
vertex -0.723600 0.525720 0.447215
vertex -0.723600 -0.525720 0.447215
vertex 0.000000 0.000000 1.000000
endloop
endfacet
facet normal -0.187597 0.577354 0.794651
outer loop
vertex 0.276385 0.850640 0.447215
vertex -0.723600 0.525720 0.447215
vertex 0.000000 0.000000 1.000000
endloop
endfacet
facet normal 0.491122 0.356829 0.794652
outer loop
vertex 0.894425 0.000000 0.447215
vertex 0.276385 0.850640 0.447215
vertex 0.000000 0.000000 1.000000
endloop
endfacet
endsolid Exported from Blender-2.91.2
